<?xml version="1.0" standalone="no"?>
<!DOCTYPE svg PUBLIC "-//W3C//DTD SVG 1.1//EN" "http://www.w3.org/Graphics/SVG/1.1/DTD/svg11.dtd" >
<svg xmlns="http://www.w3.org/2000/svg" xmlns:xlink="http://www.w3.org/1999/xlink" version="1.1">
<metadata>
Created by FontForge 20160407 at Mon Dec 12 17:04:36 2016
 By Jimmy Wärting
Copyright 2011 Adobe Systems Incorporated. All rights reserved.
</metadata>
<defs>
<font id="TrajanPro3-Regular" horiz-adv-x="810" >
  <font-face 
    font-family="Trajan Pro 3"
    font-weight="400"
    font-stretch="normal"
    units-per-em="1000"
    panose-1="2 2 5 2 5 5 3 2 3 1"
    ascent="750"
    descent="-250"
    x-height="640"
    cap-height="753"
    bbox="-248.5 -411 1928 1047"
    underline-thickness="50"
    underline-position="-100"
    stemh="15"
    stemv="84"
    unicode-range="U+0020-FB02"
  />
<missing-glyph horiz-adv-x="513" 
d="M0 0v710h513v-710h-513zM82 51h349l-174 258zM287 355l174 -259v518zM52 614v-518l174 259zM82 659l175 -258l174 258h-349z" />
    <glyph glyph-name=".notdef" horiz-adv-x="513" 
d="M0 0v710h513v-710h-513zM82 51h349l-174 258zM287 355l174 -259v518zM52 614v-518l174 259zM82 659l175 -258l174 258h-349z" />
    <glyph glyph-name="space" unicode=" " horiz-adv-x="325" 
 />
    <glyph glyph-name="exclam" unicode="!" horiz-adv-x="360" 
d="M198 184c-10 0 -13 13 -14 34c-3 46 -5 63 -16 255c-1 15 -11 157 -19 188c-2 8 -4 14 -4 19s2 9 5 14c13 22 66 73 95 73c4 0 6 -2 6 -10c0 -7 -8 -58 -13 -132c-1 -18 -26 -385 -28 -409c-1 -14 -4 -32 -12 -32zM200 -17c-35 0 -50 28 -50 51c0 21 15 51 51 51
c29 0 51 -19 51 -48c0 -30 -21 -54 -52 -54z" />
    <glyph glyph-name="quotedbl" unicode="&#x22;" horiz-adv-x="367" 
d="M100 820c23 0 43 -4 43 -14s-22 -63 -32 -217c-1 -12 -5 -21 -10 -21c-6 0 -9 8 -10 21c-9 155 -33 208 -33 217c0 10 20 14 42 14zM266 820c23 0 43 -4 43 -14s-22 -63 -32 -215c-1 -14 -5 -23 -10 -23c-6 0 -9 8 -10 22c-9 154 -33 207 -33 216c0 10 20 14 42 14z" />
    <glyph glyph-name="numbersign" unicode="#" horiz-adv-x="591" 
d="M549 460h-123l-23 -164h116v-56h-124l-35 -240h-35l35 240h-163l-36 -240h-35l36 240h-120v56h128l25 164h-121v56h129l36 238h36l-36 -238h161l34 238h35l-34 -238h114v-56zM368 296l23 164h-160l-25 -164h162z" />
    <glyph glyph-name="dollar" unicode="$" horiz-adv-x="571" 
d="M347 724l-27 -296c98 -65 173 -123 173 -229c0 -141 -121 -194 -212 -199l-8 -82c-1 -5 -2 -6 -5 -7l-26 -6c-4 0 -6 1 -5 9l8 86c-55 2 -96 11 -131 26c-25 11 -28 15 -28 36c0 63 6 99 9 118c2 14 8 19 11 19c5 0 6 -5 5 -22c-1 -25 2 -64 27 -93
c23 -27 60 -44 110 -47l30 321c-128 86 -170 135 -170 221c0 118 90 175 207 180l7 80c0 5 2 8 6 9l23 7c5 1 8 0 8 -5l-8 -92c44 -2 92 -12 110 -15c9 -2 9 -9 9 -16c0 -20 -2 -100 -4 -117c-1 -8 -4 -10 -8 -10c-5 0 -8 3 -8 15c0 40 -20 98 -103 109zM286 451l26 275
c-57 -2 -137 -24 -137 -121c0 -57 23 -94 111 -154zM311 335l-27 -299c92 5 136 64 136 141c0 63 -37 108 -109 158z" />
    <glyph glyph-name="percent" unicode="%" horiz-adv-x="870" 
d="M647 0c-116 0 -166 98 -166 176c0 92 51 191 173 191c114 0 166 -97 166 -176c0 -91 -53 -191 -173 -191zM651 28c77 0 107 69 107 149c0 78 -38 162 -109 162c-76 0 -106 -68 -106 -149c0 -78 35 -162 108 -162zM300 -4l-51 -8c-7 -1 -9 3 -6 9c100 224 307 716 316 737
c-93 -6 -178 -13 -236 -16v-2c36 -27 65 -79 65 -143c0 -91 -54 -191 -172 -191c-116 0 -166 98 -166 176c0 93 57 192 178 192c130 0 355 21 381 23c4 0 6 -1 6 -4c0 -5 -5 -14 -11 -29l-294 -732c-4 -9 -5 -11 -10 -12zM220 410c77 0 106 69 106 149
c0 78 -37 163 -108 163c-76 0 -106 -69 -106 -150c0 -78 35 -162 108 -162z" />
    <glyph glyph-name="ampersand" unicode="&#x26;" horiz-adv-x="821" 
d="M293 -17c-175 0 -243 134 -243 221c0 117 73 195 151 241c-37 52 -47 93 -47 138c0 79 81 184 215 184c43 0 87 -8 112 -20c21 -10 22 -16 22 -30c0 -37 -2 -82 -6 -108c-3 -18 -6 -24 -11 -24s-6 4 -6 19c0 30 -7 60 -31 85c-24 26 -57 44 -100 44
c-60 0 -127 -37 -127 -131c0 -78 54 -143 158 -256c34 -37 157 -152 189 -179c28 38 51 105 51 166c0 15 -4 34 -19 49c-11 11 -28 13 -41 15c-11 2 -20 3 -20 8s8 7 16 7c24 0 64 -1 120 -7c15 -2 18 -10 18 -20c0 -81 -55 -182 -99 -236c66 -56 110 -83 138 -99
c32 -19 81 -39 117 -39c9 0 16 -1 16 -7c0 -5 -5 -7 -14 -7c-58 0 -98 -3 -130 0c-51 4 -92 18 -181 89c-23 -23 -100 -103 -248 -103zM329 38c93 0 153 33 187 68c-56 47 -154 144 -180 172s-92 100 -120 141c-52 -34 -84 -88 -84 -168c0 -125 85 -213 197 -213z" />
    <glyph glyph-name="ampersand.alt1" horiz-adv-x="824" 
d="M852 11c9 0 14 -1 14 -7c0 -4 -4 -7 -13 -7h-131c-37 0 -61 3 -100 25c-22 13 -47 30 -74 52c-63 -57 -138 -91 -230 -91c-165 0 -250 87 -252 197c-2 95 65 145 151 203c9 6 16 11 24 16c-47 67 -68 121 -69 177c-1 48 17 98 55 136c41 40 85 55 135 55
c86 0 149 -58 149 -137c0 -69 -33 -119 -183 -214c20 -24 42 -49 64 -72c79 -85 138 -143 187 -186c2 2 3 4 5 6c49 61 83 156 83 237c0 15 -7 41 -26 52c-13 8 -28 12 -41 14c-12 2 -21 3 -21 8s8 7 17 7c24 0 65 -1 122 -7c15 -2 18 -10 18 -20c0 -101 -55 -225 -124 -313
c-2 -2 -4 -5 -6 -7c47 -38 85 -62 125 -85c33 -18 84 -39 121 -39zM342 731c-56 0 -104 -45 -103 -127c1 -56 29 -110 68 -162c112 71 137 123 137 179c0 63 -41 110 -102 110zM335 33c86 0 142 24 187 64c-49 43 -105 100 -169 170c-37 39 -67 74 -91 106
c-6 -4 -10 -8 -15 -12c-83 -65 -96 -115 -95 -169c1 -75 57 -159 183 -159z" />
    <glyph glyph-name="ampersand.alt2" horiz-adv-x="928" 
d="M894 463c5 0 6 -8 6 -19c0 -31 -12 -70 -23 -88c-10 -16 -21 -18 -42 -18c-22 0 -54 0 -86 -1c-4 -29 -11 -65 -24 -100c-47 -134 -161 -254 -372 -254c-171 0 -289 91 -291 226c-3 163 183 216 207 222c11 3 3 7 3 7c-42 9 -113 54 -113 141c0 106 97 188 251 188
c73 0 108 -16 121 -23c10 -6 11 -11 7 -25c-8 -25 -12 -62 -15 -84c-1 -11 -4 -16 -8 -16c-6 0 -8 6 -8 16c0 31 -5 48 -14 62c-14 20 -45 36 -106 36c-87 0 -145 -64 -142 -145c1 -74 45 -116 109 -133c21 -5 49 -6 73 -6c18 0 20 -6 20 -10c0 -7 -5 -11 -21 -11
c-29 0 -67 -4 -101 -10c-39 -7 -172 -42 -172 -189c0 -93 72 -201 240 -201c216 0 294 165 309 308c-24 0 -46 -1 -63 -1c-77 -2 -128 -19 -140 -71c-2 -10 -4 -17 -9 -17c-7 0 -8 8 -7 23c8 115 113 127 187 131c46 2 116 4 152 7c22 2 51 -1 64 44c2 7 5 11 8 11z" />
    <glyph glyph-name="quoteright" unicode="&#x2019;" horiz-adv-x="210" 
d="M162 774c0 -67 -53 -146 -93 -193c-8 -10 -14 -13 -18 -13c-8 0 1 15 3 18c25 42 45 94 45 143c0 54 -15 69 -28 82c-5 4 -2 9 4 9c21 0 53 -7 67 -14c15 -8 20 -15 20 -32z" />
    <glyph glyph-name="parenleft" unicode="(" horiz-adv-x="375" 
d="M136 351c0 -201 58 -340 158 -443c2 -3 15 -18 2 -18c-3 0 -8 4 -12 7c-79 59 -222 199 -222 443c0 241 154 391 224 446c5 3 9 6 13 6c9 0 -5 -14 -6 -16c-75 -80 -157 -224 -157 -425z" />
    <glyph glyph-name="parenright" unicode=")" horiz-adv-x="389" 
d="M254 331c0 201 -58 340 -158 443c-2 2 -14 18 -3 18c3 0 9 -4 13 -7c79 -59 222 -199 222 -443c0 -241 -154 -391 -224 -446c-5 -3 -9 -6 -13 -6c-9 0 5 14 6 16c75 80 157 224 157 425z" />
    <glyph glyph-name="asterisk" unicode="*" horiz-adv-x="350" 
d="M207 797c0 -25 -14 -89 -27 -127c-2 -6 -1 -9 5 -7c45 12 86 46 94 55c5 4 7 7 10 7c7 0 28 -43 28 -63c0 -5 -3 -7 -12 -9c-4 -1 -85 -5 -115 -6c-6 0 -8 -1 -5 -7c14 -24 74 -66 85 -71c9 -4 10 -5 10 -8c0 -16 -36 -50 -51 -50c-4 0 -9 5 -14 14
c-11 20 -35 78 -43 103c-1 2 -4 9 -8 3c-5 -8 -28 -54 -38 -83c-3 -8 -5 -17 -6 -23c0 -3 -4 -5 -12 -5c-40 0 -63 8 -63 15c0 4 1 6 7 14c13 18 87 80 100 91c2 2 5 7 -1 9c-23 7 -71 7 -84 7c-14 0 -19 -3 -23 -3c-8 0 -11 51 -11 67c0 5 4 8 10 8c30 0 102 -55 113 -64
c4 -3 9 -2 9 6c1 13 -13 63 -27 98c-3 7 -3 9 -3 11c0 10 46 29 64 29c5 0 8 -3 8 -11z" />
    <glyph glyph-name="plus" unicode="+" horiz-adv-x="661" 
d="M567 334h-209v-222h-53v222h-211v52h210v215h53v-215h210v-52z" />
    <glyph glyph-name="comma" unicode="," horiz-adv-x="264" 
d="M92 55c0 24 34 58 59 58c16 0 36 -30 36 -69s-25 -88 -78 -144c-11 -12 -22 -21 -27 -21c-13 0 4 20 7 24c33 46 39 68 39 90c0 13 -8 33 -28 50c-6 5 -8 10 -8 12z" />
    <glyph glyph-name="hyphen" unicode="-" horiz-adv-x="345" 
d="M69 362h216c22 0 25 -3 25 -8c0 -8 -14 -11 -33 -15c-68 -12 -153 -25 -198 -39c-20 -6 -34 -12 -39 -12s-5 6 -4 14l13 52c2 7 6 8 20 8z" />
    <glyph glyph-name="period" unicode="." horiz-adv-x="250" 
d="M125 -8c-35 0 -52 29 -52 53c0 23 17 53 53 53c29 0 51 -21 51 -52s-22 -54 -52 -54z" />
    <glyph glyph-name="slash" unicode="/" horiz-adv-x="479" 
d="M48 4l339 752c6 13 9 14 13 14c5 0 25 -10 30 -15s4 -8 0 -17l-341 -758c-4 -8 -6 -9 -9 -9s-27 12 -32 17c-4 4 -4 8 0 16z" />
    <glyph glyph-name="zero" unicode="0" horiz-adv-x="623" 
d="M560 398c0 -230 -91 -415 -257 -415c-159 0 -240 190 -240 369c0 242 93 415 256 415c187 0 241 -238 241 -369zM475 355c0 190 -61 376 -176 376c-95 0 -151 -135 -151 -338c0 -175 50 -373 175 -373c92 0 152 138 152 335z" />
    <glyph glyph-name="one" unicode="1" horiz-adv-x="401" 
d="M173 301v329c0 20 -2 32 -15 32c-25 0 -92 -31 -97 -31c-3 0 -9 1 -9 5c0 3 3 7 7 10c64 43 102 66 166 109c9 6 17 12 24 12c8 0 8 -11 8 -21c0 -3 -6 -217 -6 -445c0 -100 2 -189 5 -233c2 -31 9 -48 42 -51c12 -1 20 -2 27 -3c10 -1 16 -4 16 -10c0 -5 -5 -7 -17 -7
c-75 0 -109 3 -114 3s-59 -3 -123 -3c-11 0 -17 2 -17 7c0 4 4 8 14 8c16 0 27 2 38 3c37 3 45 20 48 59c3 44 3 127 3 227z" />
    <glyph glyph-name="two" unicode="2" horiz-adv-x="571" 
d="M421 -1c-207 -1 -339 1 -379 1c-7 0 -14 6 -14 14s10 17 18 24c200 178 349 316 349 508c0 143 -92 185 -159 185c-48 0 -78 -11 -107 -38c-24 -23 -36 -58 -36 -97c0 -9 -3 -15 -8 -15c-4 0 -7 4 -8 13s-6 92 -6 123c0 6 1 9 10 15c37 17 95 35 176 35
c151 0 226 -96 226 -202c0 -207 -224 -392 -348 -498c-5 -4 -3 -7 2 -7h73c17 0 135 1 171 5c73 7 105 37 118 96c2 11 5 15 11 15c5 0 6 -6 6 -12c0 -19 -20 -100 -30 -134c-8 -27 -23 -31 -65 -31z" />
    <glyph glyph-name="three" unicode="3" horiz-adv-x="567" 
d="M198 -18c-41 0 -101 12 -122 24c-14 9 -16 16 -16 28c0 47 4 103 7 125c1 10 3 15 8 15s6 -3 7 -14c1 -6 1 -17 2 -23c11 -67 52 -112 148 -112c101 0 181 58 181 177c0 134 -120 181 -185 194c-19 4 -26 6 -26 13s10 10 23 12c49 9 159 57 159 174
c0 42 -26 135 -144 135c-73 0 -126 -41 -126 -118c0 -10 -4 -12 -7 -12s-6 2 -7 11c-4 32 -7 77 -7 100c0 9 1 13 13 21c31 15 87 34 162 34c163 0 198 -100 198 -150c0 -100 -103 -166 -134 -180v-5c63 -15 165 -76 165 -192c0 -140 -121 -257 -299 -257z" />
    <glyph glyph-name="three.alt" horiz-adv-x="577" 
d="M181 750h298c16 0 19 -2 19 -6s-1 -7 -9 -18l-220 -284c-1 -1 -2 -2 0 -3c118 -17 236 -80 236 -214c0 -132 -111 -242 -292 -242c-60 0 -113 13 -133 25c-15 9 -19 18 -19 31c-1 34 2 84 5 106c1 11 4 17 7 17c4 0 6 -5 7 -19c3 -65 54 -123 152 -123
c97 0 184 60 184 182c0 133 -97 179 -200 196c-15 3 -25 4 -25 11c0 4 4 10 8 14l201 266h-189c-56 0 -74 -1 -90 -13c-12 -10 -24 -31 -33 -63c-2 -9 -4 -15 -8 -15c-5 0 -6 4 -6 17c0 24 13 115 13 130c1 9 4 11 8 11c5 0 26 -6 86 -6z" />
    <glyph glyph-name="four" unicode="4" horiz-adv-x="605" 
d="M362 225h-305c-12 0 -21 3 -21 12c0 8 5 16 9 21c6 7 331 447 363 491c8 11 14 18 21 18s10 -7 10 -17c0 -15 -1 -95 -1 -150v-321h76c27 0 37 11 41 11c5 0 5 -7 5 -12c0 -8 -7 -32 -9 -39c-4 -11 -8 -14 -18 -14h-95c0 -33 -2 -110 2 -154c4 -40 19 -56 72 -58
c13 0 24 -2 24 -9c0 -5 -5 -7 -16 -7c-56 0 -120 3 -126 3c-7 0 -61 -3 -116 -3c-11 0 -16 2 -16 7c0 4 3 8 17 8c60 0 79 13 81 59c2 44 2 121 2 154zM362 279v354c-1 0 -239 -332 -256 -354h256z" />
    <glyph glyph-name="five" unicode="5" horiz-adv-x="550" 
d="M361 686h-189l-14 -154c139 -36 312 -96 312 -274c0 -129 -98 -276 -300 -276c-30 0 -67 4 -92 18c-17 9 -19 18 -19 28c0 34 -1 94 4 126c2 10 5 18 9 18c6 0 8 -5 8 -17c0 -107 64 -129 137 -129c84 0 176 56 176 194c0 161 -157 224 -254 243c-20 4 -27 7 -26 18
l23 255c1 10 8 13 19 13h235c28 0 46 2 58 4c12 1 18 3 21 3c4 0 7 -2 7 -10c0 -9 -3 -53 -13 -126c-1 -5 -4 -11 -8 -11s-6 6 -6 13c0 38 -9 64 -88 64z" />
    <glyph glyph-name="six" unicode="6" horiz-adv-x="604" 
d="M304 -17c-158 0 -241 118 -241 283c0 241 184 428 389 494c12 4 23 7 28 7s9 -3 9 -6c0 -6 -13 -13 -26 -19c-145 -66 -313 -214 -313 -465c0 -138 58 -256 170 -256c78 0 140 65 140 177c0 116 -73 207 -156 207c-35 0 -57 -5 -82 -17c-7 -3 -11 0 -11 3s3 8 10 13
c20 14 60 39 126 39c129 0 196 -108 196 -206c0 -143 -97 -254 -239 -254z" />
    <glyph glyph-name="seven" unicode="7" horiz-adv-x="540" 
d="M170 750h324c13 0 18 -4 18 -10c0 -4 -1 -11 -6 -19c-81 -120 -246 -512 -261 -642c-2 -17 0 -24 0 -35c0 -20 -78 -61 -98 -61c-6 0 -9 3 -9 10c0 10 3 25 6 34c39 131 147 398 298 660h-246c-29 0 -69 -5 -93 -25c-21 -17 -35 -49 -38 -77c-1 -9 -4 -14 -9 -14
s-6 5 -6 16c0 32 15 149 15 159s4 14 10 14s30 -10 95 -10z" />
    <glyph glyph-name="eight" unicode="8" horiz-adv-x="589" 
d="M354 423c66 -34 173 -97 173 -220c0 -116 -95 -220 -238 -220c-125 0 -227 75 -227 196c0 112 89 177 176 219c-78 46 -138 101 -138 190c0 78 67 179 213 179c104 0 183 -64 183 -160c0 -105 -86 -156 -142 -184zM272 382c-74 -38 -132 -94 -132 -194
c0 -89 64 -167 157 -167c92 0 153 70 153 159c0 109 -88 155 -178 202zM320 439c39 23 106 54 106 156c0 76 -48 138 -125 138c-90 0 -130 -71 -130 -126c0 -84 67 -124 149 -168z" />
    <glyph glyph-name="nine" unicode="9" horiz-adv-x="594" 
d="M302 767c141 0 229 -120 229 -272c0 -300 -235 -454 -358 -515c-4 -2 -24 -9 -24 2c0 6 7 11 13 14c118 65 281 235 281 470c0 175 -77 264 -165 264c-90 0 -137 -74 -137 -153c0 -166 112 -199 155 -199c37 0 62 10 75 18c6 4 12 6 15 6c8 0 3 -11 -1 -15
c-29 -31 -80 -46 -120 -46c-142 0 -202 109 -202 193c0 138 101 233 239 233z" />
    <glyph glyph-name="zero.slash" horiz-adv-x="613" 
d="M314 767c183 0 236 -238 236 -369c0 -230 -89 -415 -252 -415c-156 0 -235 190 -235 369c0 242 91 415 251 415zM184 147l216 511c-27 45 -63 72 -106 72c-93 0 -147 -134 -147 -337c0 -85 11 -175 37 -246zM422 615l-217 -514c26 -49 64 -81 113 -81
c90 0 148 138 148 335c0 96 -15 190 -44 260z" />
    <glyph glyph-name="colon" unicode=":" horiz-adv-x="284" 
d="M142 -8c-35 0 -52 29 -52 53c0 23 17 53 53 53c29 0 51 -21 51 -52s-22 -54 -52 -54zM142 377c-35 0 -52 29 -52 53c0 23 17 53 53 53c29 0 51 -21 51 -52s-22 -54 -52 -54z" />
    <glyph glyph-name="semicolon" unicode=";" horiz-adv-x="284" 
d="M142 377c-35 0 -52 29 -52 53c0 23 17 53 53 53c29 0 51 -21 51 -52s-22 -54 -52 -54zM97 55c0 24 34 58 59 58c16 0 36 -30 36 -69s-25 -88 -78 -144c-11 -12 -22 -21 -27 -21c-13 0 4 20 7 24c33 46 39 68 39 90c0 13 -8 33 -28 50c-6 5 -8 10 -8 12z" />
    <glyph glyph-name="less" unicode="&#x3c;" horiz-adv-x="610" 
d="M517 95l-423 230v50l423 228v-57l-368 -196l368 -198v-57z" />
    <glyph glyph-name="equal" unicode="=" horiz-adv-x="661" 
d="M567 221h-473v54h473v-54zM567 429h-473v54h473v-54z" />
    <glyph glyph-name="greater" unicode="&#x3e;" horiz-adv-x="610" 
d="M94 604l423 -230v-50l-423 -228v57l367 197l-367 197v57z" />
    <glyph glyph-name="question" unicode="?" horiz-adv-x="538" 
d="M297 767c132 0 181 -84 181 -156c0 -117 -76 -168 -172 -287c-37 -47 -41 -63 -41 -80c0 -15 4 -33 16 -52c6 -9 8 -14 8 -17c0 -4 -2 -8 -6 -8c-9 0 -31 20 -43 35c-20 25 -29 41 -29 59c0 14 7 31 22 50c23 30 47 55 69 83c70 89 88 144 88 210c0 49 -26 129 -117 129
c-49 0 -82 -19 -98 -39c-24 -29 -32 -59 -35 -93c-1 -10 -3 -17 -8 -17s-7 3 -8 10c-3 14 -4 78 -4 117c0 6 1 10 11 16c30 18 89 40 166 40zM274 -17c-35 0 -52 29 -52 53c0 23 17 53 53 53c29 0 51 -21 51 -52s-22 -54 -52 -54z" />
    <glyph glyph-name="at" unicode="@" horiz-adv-x="926" 
d="M712 203c-44 -30 -97 -46 -138 -46c-44 0 -60 28 -63 71c-2 28 1 57 7 105c-80 -136 -161 -176 -199 -176c-27 0 -51 31 -51 89c0 89 33 174 92 239c45 49 124 87 175 87c30 0 49 -6 60 -12c9 9 29 25 49 29c6 1 7 -3 5 -9c-37 -57 -66 -206 -66 -298c0 -44 2 -78 49 -78
c74 0 172 97 172 250c0 152 -98 281 -288 281c-222 0 -382 -161 -382 -429c0 -209 131 -322 299 -322c136 0 205 31 275 89c16 14 23 15 23 10c0 -4 -1 -9 -17 -25c-53 -54 -171 -116 -302 -116c-182 0 -338 124 -338 354c0 259 202 471 453 471c222 0 325 -138 325 -300
c0 -111 -56 -206 -140 -264zM565 519c-11 9 -33 17 -60 17c-59 0 -103 -37 -132 -105c-20 -46 -30 -90 -30 -142c0 -51 10 -69 27 -69c37 0 103 62 160 186c11 23 22 75 35 113z" />
    <glyph glyph-name="A" unicode="A" horiz-adv-x="700" 
d="M439 292h-215c-5 0 -8 -3 -10 -8l-60 -177c-9 -25 -14 -49 -14 -67c0 -20 19 -29 36 -29h9c10 0 13 -2 13 -6c0 -6 -9 -8 -18 -8c-24 0 -64 3 -75 3s-66 -3 -113 -3c-13 0 -19 2 -19 8c0 4 5 6 14 6c7 0 16 1 24 2c46 6 66 44 84 94l227 621c12 33 16 39 22 39
s10 -5 22 -36c15 -38 172 -451 233 -603c36 -89 65 -105 86 -111c15 -5 31 -6 39 -6c6 0 11 -1 11 -6c0 -6 -9 -8 -20 -8c-15 0 -88 0 -157 2c-19 1 -30 1 -30 7c0 4 3 6 7 7c6 2 12 11 6 27l-93 246c-2 4 -4 6 -9 6zM235 328h191c5 0 5 3 4 7l-95 270c-5 15 -10 15 -15 0
l-88 -270c-2 -5 0 -7 3 -7z" />
    <glyph glyph-name="B" unicode="B" horiz-adv-x="685" 
d="M178 287v176c0 156 0 184 -2 216c-2 34 -10 50 -43 57c-8 2 -25 3 -29 3c-9 0 -13 2 -13 6c0 6 5 8 16 8c45 0 108 -3 113 -3c24 0 63 3 109 3c164 0 200 -100 200 -150c0 -82 -47 -131 -94 -180c74 -23 173 -94 173 -211c0 -107 -84 -218 -255 -218c-11 0 -43 2 -72 3
c-29 2 -57 3 -61 3c-32 0 -63 -3 -98 -3c-11 0 -16 2 -16 7c0 3 2 7 15 7c8 0 15 1 24 3c20 4 24 27 28 56c5 42 5 121 5 217zM258 709v-268c0 -7 2 -9 7 -11c6 -1 24 -4 61 -4c56 0 70 2 91 26s36 60 36 101c0 83 -37 172 -135 172c-11 0 -32 -1 -48 -5
c-9 -2 -12 -5 -12 -11zM258 392v-57c0 -77 0 -201 1 -216c3 -49 3 -63 34 -78c27 -13 70 -15 88 -15c54 0 141 29 141 142c0 60 -20 147 -97 200c-34 23 -59 26 -83 29c-13 2 -63 2 -78 2c-4 0 -6 -2 -6 -7z" />
    <glyph glyph-name="C" unicode="C" horiz-adv-x="805" 
d="M515 -17c-150 0 -251 37 -330 108c-97 87 -121 201 -121 296c0 67 23 184 112 273c60 60 151 107 305 107c40 0 96 -3 145 -12c38 -7 69 -10 106 -15c7 -1 9 -5 9 -11c0 -8 -3 -20 -5 -56c-2 -33 -2 -88 -3 -103s-3 -21 -9 -21c-7 0 -8 7 -8 21c0 39 -16 80 -42 102
c-35 30 -112 57 -200 57c-133 0 -195 -39 -230 -73c-73 -70 -90 -159 -90 -261c0 -191 147 -366 361 -366c75 0 134 9 174 50c21 22 34 66 37 84c2 11 4 15 10 15c5 0 7 -7 7 -15c0 -7 -12 -94 -22 -128c-6 -19 -8 -21 -26 -29c-40 -16 -116 -23 -180 -23z" />
    <glyph glyph-name="D" unicode="D" horiz-adv-x="917" 
d="M178 287v176c0 156 0 184 -2 216c-2 34 -7 50 -40 57c-8 2 -25 3 -34 3c-7 0 -11 2 -11 6c0 6 5 8 16 8c45 0 108 -3 113 -3c12 0 75 3 135 3c99 0 282 9 401 -114c50 -52 97 -135 97 -254c0 -126 -52 -223 -108 -282c-43 -45 -133 -115 -303 -115c-43 0 -96 3 -139 6
c-44 3 -78 6 -83 6c-2 0 -19 0 -40 -1c-20 0 -43 -2 -58 -2c-11 0 -16 2 -16 8c0 3 2 6 10 6c11 1 19 2 28 4c20 4 25 26 29 55c5 42 5 121 5 217zM262 479v-124c0 -106 1 -198 2 -217c1 -25 3 -65 11 -76c13 -19 52 -40 170 -40c93 0 179 34 238 93c52 51 80 147 80 239
c0 127 -55 209 -96 252c-94 99 -208 113 -327 113c-20 0 -57 -3 -65 -7c-9 -4 -12 -9 -12 -20c-1 -34 -1 -136 -1 -213z" />
    <glyph glyph-name="E" unicode="E" horiz-adv-x="610" 
d="M178 287v176c0 156 0 184 -2 216c-2 34 -10 50 -43 57c-7 2 -20 2 -29 3c-7 1 -13 2 -13 6c0 6 5 8 16 8c23 0 50 0 113 -3c7 0 206 0 229 1c22 1 40 3 46 6s8 4 11 4s4 -4 4 -9c0 -7 -6 -19 -8 -47c-1 -15 -2 -34 -4 -60c-1 -10 -4 -17 -8 -17c-6 0 -8 5 -8 13
c0 13 -2 25 -5 33c-7 23 -28 33 -72 37c-17 2 -126 3 -137 3c-4 0 -6 -3 -6 -10v-276c0 -7 1 -10 6 -10c13 0 136 0 159 2c27 2 40 5 50 17c5 6 8 10 12 10c3 0 5 -2 5 -8s-5 -23 -8 -56c-3 -31 -3 -54 -4 -68c-1 -10 -3 -15 -7 -15c-6 0 -7 8 -7 16c0 9 -1 19 -4 28
c-4 15 -16 29 -52 33c-27 3 -126 5 -143 5c-5 0 -7 -3 -7 -7v-88c0 -34 -1 -150 0 -171c2 -41 8 -63 33 -73c17 -7 44 -9 83 -9c30 0 63 1 90 9c32 10 43 31 51 74c2 11 4 15 9 15c6 0 6 -8 6 -15c0 -8 -8 -76 -13 -97c-7 -26 -15 -26 -54 -26c-74 0 -107 2 -146 3
c-40 1 -86 3 -125 3c-24 0 -48 -4 -74 -3c-11 0 -16 2 -16 8c0 3 5 5 11 6c10 1 16 1 23 3c21 5 34 19 36 94c1 39 2 90 2 179z" />
    <glyph glyph-name="F" unicode="F" horiz-adv-x="592" 
d="M178 287v176c0 156 0 184 -2 216c-2 34 -10 50 -43 57c-6 1 -16 1 -25 2s-17 2 -17 7c0 6 5 8 16 8c39 0 77 -3 113 -3c20 0 223 0 246 1s41 1 49 6c3 2 7 4 9 4c4 0 6 -4 6 -9s-4 -19 -6 -31c-4 -29 -4 -45 -6 -73c0 -12 -5 -20 -9 -20c-5 0 -6 4 -7 13
c-1 14 -5 38 -19 50c-12 10 -30 18 -59 19l-153 3c-6 0 -9 -3 -9 -11v-276c0 -6 1 -9 7 -9c41 0 98 0 139 1c53 1 66 2 80 19c5 6 7 10 11 10s5 -3 5 -8c0 -6 -5 -23 -8 -56c-3 -30 -3 -54 -4 -69c-1 -11 -2 -17 -7 -17c-6 0 -7 7 -8 17c-2 22 -5 57 -57 64
c-25 3 -134 3 -151 3c-5 0 -7 -2 -7 -9v-85c0 -85 0 -156 3 -202c3 -45 14 -67 41 -70c13 -2 30 -3 41 -4c9 -1 12 -3 12 -7c0 -5 -5 -7 -16 -7c-56 0 -118 3 -123 3h-9c-20 -1 -65 -3 -89 -3c-11 0 -16 2 -16 8c0 3 2 5 11 6c10 1 19 2 26 4c21 6 28 21 31 65
c3 43 4 113 4 207z" />
    <glyph glyph-name="G" unicode="G" horiz-adv-x="862" 
d="M737 194v-112c0 -45 -1 -47 -13 -54c-64 -34 -154 -45 -212 -45c-76 0 -218 10 -329 107c-61 53 -119 160 -119 285c0 160 78 273 167 329c90 56 189 63 266 63c63 0 134 -13 153 -17c21 -5 56 -9 81 -10c10 -1 12 -5 12 -9c0 -14 -7 -42 -7 -142c0 -16 -2 -21 -9 -21
c-5 0 -6 6 -7 15c-1 14 -6 42 -21 66c-25 38 -106 81 -235 81c-63 0 -138 -6 -214 -66c-58 -46 -99 -137 -99 -254c0 -141 71 -243 106 -277c79 -77 170 -107 262 -107c36 0 88 6 114 21c13 7 20 18 20 35v170c0 81 -5 92 -45 103c-8 2 -25 3 -34 3c-4 0 -8 2 -8 6
c0 6 5 8 16 8c45 0 108 -3 113 -3s68 3 98 3c11 0 16 -2 16 -8c0 -4 -4 -6 -8 -6c-7 0 -13 -1 -25 -3c-27 -5 -35 -22 -37 -57c-2 -32 -2 -62 -2 -104z" />
    <glyph glyph-name="H" unicode="H" horiz-adv-x="958" 
d="M268 436h424c3 0 6 1 6 6v21c0 156 0 184 -2 216c-2 34 -10 50 -43 57c-8 2 -25 3 -34 3c-4 0 -8 2 -8 6c0 6 5 8 16 8c45 0 108 -3 113 -3s68 3 98 3c11 0 16 -2 16 -8c0 -4 -4 -6 -8 -6c-7 0 -13 -1 -25 -3c-27 -5 -35 -22 -37 -57c-2 -32 -2 -60 -2 -216v-176
c0 -96 0 -175 5 -217c3 -29 9 -51 39 -55c14 -2 36 -4 45 -4c6 0 8 -3 8 -6c0 -5 -5 -8 -16 -8c-55 0 -118 3 -123 3s-68 -3 -98 -3c-11 0 -16 2 -16 8c0 3 2 6 8 6c9 0 21 2 30 4c20 4 25 26 29 55c5 42 5 121 5 217v105c0 4 -3 6 -6 6h-424c-3 0 -6 -1 -6 -6v-105
c0 -96 0 -175 5 -217c3 -29 9 -51 39 -55c14 -2 36 -4 45 -4c6 0 8 -3 8 -6c0 -5 -5 -8 -16 -8c-55 0 -118 3 -123 3s-68 -3 -98 -3c-11 0 -16 2 -16 8c0 3 2 6 8 6c9 0 21 2 30 4c20 4 25 26 29 55c5 42 5 121 5 217v176c0 156 0 184 -2 216c-2 34 -10 50 -43 57
c-8 2 -25 3 -34 3c-4 0 -8 2 -8 6c0 6 5 8 16 8c45 0 108 -3 113 -3s68 3 98 3c11 0 16 -2 16 -8c0 -4 -4 -6 -8 -6c-7 0 -13 -1 -25 -3c-27 -5 -35 -22 -37 -57c-2 -32 -2 -60 -2 -216v-21c0 -5 3 -6 6 -6z" />
    <glyph glyph-name="I" unicode="I" horiz-adv-x="440" 
d="M178 287v176c0 156 0 184 -2 216c-2 34 -12 51 -34 56c-11 3 -24 4 -31 4c-4 0 -8 2 -8 6c0 6 5 8 16 8c33 0 96 -3 101 -3s68 3 98 3c11 0 16 -2 16 -8c0 -4 -4 -6 -8 -6c-7 0 -13 -1 -25 -3c-27 -5 -35 -22 -37 -57c-2 -32 -2 -60 -2 -216v-176c0 -96 0 -175 5 -217
c3 -29 9 -51 39 -55c14 -2 35 -4 41 -4c9 0 12 -3 12 -6c0 -5 -4 -8 -15 -8c-55 0 -119 3 -124 3s-68 -3 -98 -3c-11 0 -16 2 -16 8c0 3 2 6 11 6c6 0 17 1 26 3c20 4 26 27 30 56c5 42 5 121 5 217z" />
    <glyph glyph-name="J" unicode="J" horiz-adv-x="414" 
d="M262 463v-240c0 -162 0 -224 -30 -295c-21 -50 -65 -97 -146 -153c-13 -9 -29 -20 -39 -25c-2 -1 -4 -2 -7 -2s-7 2 -7 6c0 6 5 9 14 15c12 7 26 19 35 28c65 66 96 119 96 377v289c0 156 0 184 -2 216c-2 34 -10 50 -43 57c-8 2 -22 3 -31 3c-7 0 -11 3 -11 7s4 7 15 7
c45 0 109 -3 114 -3s68 3 98 3c11 0 16 -2 16 -8c0 -4 -5 -6 -11 -6c-7 0 -15 -1 -24 -2c-27 -3 -33 -23 -35 -58c-2 -32 -2 -60 -2 -216z" />
    <glyph glyph-name="K" unicode="K" horiz-adv-x="773" 
d="M258 463v-64c31 30 167 173 228 236c60 62 64 72 64 84c0 8 -5 16 -13 19c-7 3 -9 5 -9 9s6 6 15 6c29 0 26 -3 60 -3c31 0 90 3 106 3c14 0 17 -3 17 -7s-2 -6 -11 -7c-19 -2 -37 -6 -51 -12c-25 -10 -44 -22 -104 -80c-88 -85 -202 -198 -228 -227
c63 -69 245 -254 292 -298c82 -77 117 -99 165 -108c9 -2 19 -3 29 -3c8 0 14 -2 14 -7s-4 -7 -15 -7h-74c-87 0 -110 11 -157 48c-60 47 -240 240 -328 345v-103c0 -96 0 -175 5 -217c3 -29 9 -51 39 -55c14 -2 34 -4 40 -4c9 0 12 -4 12 -7c0 -5 -4 -7 -15 -7
c-55 0 -118 3 -123 3s-64 -3 -94 -3c-11 0 -16 1 -16 7c0 3 2 7 11 7c6 0 17 1 26 3c20 4 26 27 30 56c5 42 5 121 5 217v176c0 156 0 184 -2 216c-2 34 -12 51 -34 56c-11 3 -29 4 -36 4c-8 0 -11 2 -11 6c0 6 5 8 16 8c33 0 100 -3 105 -3s68 3 98 3c11 0 16 -2 16 -7
c0 -4 -2 -6 -11 -7c-11 -1 -12 -1 -22 -2c-27 -3 -35 -23 -37 -58c-2 -32 -2 -60 -2 -216z" />
    <glyph glyph-name="L" unicode="L" horiz-adv-x="592" 
d="M262 463v-178c0 -147 4 -211 22 -229c16 -16 42 -23 120 -23c53 0 97 1 121 30c13 16 23 41 26 60c1 8 3 13 9 13c5 0 6 -4 6 -15s-7 -71 -15 -100c-7 -23 -10 -27 -63 -27c-86 0 -171 6 -268 6c-31 0 -61 -3 -98 -3c-11 0 -16 2 -16 8c0 3 2 6 8 6c9 0 21 2 30 4
c20 4 25 26 29 55c5 42 5 121 5 217v176c0 156 0 184 -2 216c-2 34 -10 50 -43 57c-8 2 -25 3 -34 3c-4 0 -8 2 -8 6c0 6 5 8 16 8c45 0 108 -3 113 -3s78 3 108 3c11 0 16 -2 16 -8c0 -4 -4 -6 -8 -6c-7 0 -21 -1 -33 -3c-29 -5 -37 -22 -39 -57c-2 -32 -2 -60 -2 -216z
" />
    <glyph glyph-name="M" unicode="M" horiz-adv-x="1050" 
d="M855 740l67 -614c4 -36 11 -92 54 -106c29 -9 52 -9 62 -9c5 0 11 -1 11 -6c0 -6 -3 -8 -15 -8c-22 0 -136 3 -173 6c-23 2 -28 5 -28 10c0 4 2 5 7 7c7 3 6 18 4 36l-48 522l-248 -526c-21 -44 -24 -53 -33 -53c-7 0 -12 10 -31 46c-26 49 -112 222 -117 232
c-9 18 -124 265 -135 292l-41 -471c-1 -16 -2 -30 -2 -47c0 -25 12 -33 27 -36c17 -4 30 -4 36 -4s10 -2 10 -5c0 -7 -5 -9 -15 -9c-37 0 -88 3 -96 3c-9 0 -57 -3 -84 -3c-10 0 -17 1 -17 8c0 4 5 6 10 6c8 0 15 0 30 3c33 6 35 42 40 83l72 650c1 11 5 20 11 20
s10 -4 15 -15l306 -629l294 628c4 9 8 16 15 16s10 -8 12 -27z" />
    <glyph glyph-name="N" unicode="N" horiz-adv-x="947" 
d="M145 144v148c0 361 2 231 1 425c0 39 3 50 11 50s25 -22 35 -32c15 -17 164 -178 318 -343c99 -106 208 -228 240 -261l-11 508c-1 65 -8 87 -39 95c-18 4 -34 5 -43 5c-11 0 -14 3 -14 7c0 6 8 7 20 7c45 0 93 -3 104 -3s44 3 85 3c11 0 18 -1 18 -7c0 -4 -4 -6 -11 -7
c-8 -1 -14 -2 -26 -4c-28 -6 -35 -21 -35 -90l-2 -584c0 -66 -2 -71 -9 -71c-8 0 -20 11 -73 64c-11 10 -155 157 -261 271c-116 125 -229 251 -261 287l13 -479c2 -82 12 -108 39 -116c19 -5 41 -6 50 -6c5 0 8 -2 8 -6c0 -6 -6 -8 -18 -8c-57 0 -97 3 -106 3
s-51 -3 -96 -3c-10 0 -16 1 -16 8c0 4 3 6 8 6c8 0 26 1 41 6c25 7 30 36 30 127z" />
    <glyph glyph-name="O" unicode="O" horiz-adv-x="915" 
d="M452 -17c-274 0 -388 213 -388 393c0 162 118 391 394 391c225 0 393 -142 393 -375c0 -224 -158 -409 -399 -409zM479 21c90 0 276 52 276 343c0 240 -146 369 -304 369c-167 0 -292 -110 -292 -329c0 -233 140 -383 320 -383z" />
    <glyph glyph-name="P" unicode="P" horiz-adv-x="642" 
d="M178 287v176c0 156 0 184 -2 216c-2 34 -10 50 -43 57c-8 2 -25 3 -34 3c-4 0 -8 2 -8 6c0 6 5 8 16 8c45 0 105 -3 113 -3c22 0 80 3 126 3c125 0 170 -42 186 -57c22 -21 50 -66 50 -131c0 -130 -104 -226 -246 -226c-5 0 -16 0 -21 1c-5 0 -11 2 -11 7c0 8 6 9 27 9
c97 0 173 66 173 171c0 25 -3 92 -56 146s-114 50 -137 50c-17 0 -34 -2 -43 -6c-6 -2 -8 -9 -8 -19v-411c0 -96 0 -175 5 -217c3 -29 9 -51 39 -55c14 -2 36 -4 45 -4c6 0 8 -3 8 -6c0 -5 -5 -8 -16 -8c-55 0 -118 3 -123 3c-3 0 -66 -3 -96 -3c-11 0 -16 2 -16 8
c0 3 2 6 8 6c9 0 21 2 30 4c20 4 25 26 29 55c5 42 5 121 5 217z" />
    <glyph glyph-name="Q" unicode="Q" horiz-adv-x="920" 
d="M612 17c-36 -19 -104 -34 -157 -34c-277 0 -391 213 -391 393c0 162 118 391 394 391c225 0 393 -143 393 -375c0 -176 -111 -293 -177 -336l205 -106c219 -113 371 -118 421 -118s128 11 197 39c6 2 11 4 14 4c4 0 6 -3 6 -6c0 -4 -2 -7 -8 -10
c-57 -26 -169 -69 -317 -69c-121 0 -250 44 -412 134zM479 21c90 0 276 52 276 343c0 240 -146 369 -304 369c-167 0 -292 -110 -292 -329c0 -233 140 -383 320 -383z" />
    <glyph glyph-name="R" unicode="R" horiz-adv-x="754" 
d="M178 287v176c0 156 0 184 -2 216c-2 34 -10 50 -43 57c-8 2 -25 3 -34 3c-4 0 -8 2 -8 6c0 6 5 8 16 8c45 0 108 -3 113 -3c11 0 87 3 118 3c63 0 130 -6 183 -44c25 -18 69 -67 69 -136c0 -74 -31 -148 -121 -231c82 -105 150 -194 208 -256c54 -57 97 -68 122 -72
c19 -3 33 -3 39 -3c5 0 9 -3 9 -6c0 -6 -6 -8 -24 -8h-71c-56 0 -81 5 -107 19c-43 23 -78 72 -135 147c-42 55 -89 122 -109 148c-4 4 -7 6 -13 6l-123 2c-5 0 -7 -3 -7 -8v-24c0 -96 0 -175 5 -217c3 -29 9 -51 39 -55c14 -2 36 -4 45 -4c6 0 8 -3 8 -6c0 -5 -5 -8 -16 -8
c-55 0 -118 3 -123 3c-1 0 -64 -3 -94 -3c-11 0 -16 2 -16 8c0 3 2 6 8 6c9 0 21 2 30 4c20 4 25 26 29 55c5 42 5 121 5 217zM258 703v-327c0 -5 2 -9 7 -12c15 -9 61 -16 105 -16c24 0 52 3 75 19c35 24 61 78 61 154c0 125 -66 200 -173 200c-30 0 -57 -3 -67 -6
c-5 -2 -8 -6 -8 -12z" />
    <glyph glyph-name="S" unicode="S" horiz-adv-x="570" 
d="M248 -17c-47 0 -93 7 -134 27c-14 7 -15 11 -15 38c0 50 4 90 5 106c1 11 3 16 8 16c6 0 7 -3 7 -11c0 -9 0 -23 3 -37c15 -74 81 -102 148 -102c96 0 143 69 143 133c0 69 -29 109 -115 180l-45 37c-106 87 -130 149 -130 217c0 107 80 180 207 180c39 0 68 -4 93 -10
c19 -4 27 -5 35 -5s10 -2 10 -7s-4 -38 -4 -106c0 -16 -2 -23 -7 -23c-6 0 -7 5 -8 13c-1 12 -7 39 -13 50s-33 53 -125 53c-69 0 -123 -43 -123 -116c0 -57 26 -93 122 -168l28 -22c118 -93 146 -155 146 -235c0 -41 -16 -117 -85 -166c-43 -30 -97 -42 -151 -42z" />
    <glyph glyph-name="T" unicode="T" horiz-adv-x="691" 
d="M391 710v-423c0 -96 0 -175 5 -217c3 -29 9 -51 39 -55c14 -2 36 -4 45 -4c6 0 8 -3 8 -6c0 -5 -5 -8 -16 -8c-55 0 -118 3 -123 3s-68 -3 -98 -3c-11 0 -16 2 -16 8c0 3 2 6 8 6c9 0 21 2 30 4c20 4 25 26 29 55c5 42 5 121 5 217v423c-49 -1 -99 -1 -148 -2
c-62 -1 -86 -8 -102 -32c-11 -17 -14 -24 -17 -31c-3 -8 -6 -10 -10 -10c-3 0 -5 3 -5 9c0 10 20 96 22 104c2 6 6 19 10 19c7 0 17 -10 44 -12c29 -3 67 -5 79 -5h375c32 0 55 2 71 5c15 2 24 5 28 5c5 0 5 -6 5 -12c0 -30 -3 -99 -3 -110c0 -9 -3 -13 -7 -13
c-5 0 -7 3 -8 17c0 4 -1 7 -1 11c-3 30 -27 53 -123 55c-42 1 -84 1 -126 2z" />
    <glyph glyph-name="U" unicode="U" horiz-adv-x="830" 
d="M207 463v-140c0 -144 32 -206 75 -247c49 -46 94 -55 151 -55c61 0 121 29 157 72c46 57 58 142 58 245v125c0 156 0 184 -2 216c-2 34 -10 50 -43 57c-8 2 -25 3 -34 3c-4 0 -8 2 -8 6c0 6 5 8 16 8c45 0 100 -3 106 -3c7 0 54 3 84 3c11 0 16 -2 16 -8
c0 -4 -4 -6 -8 -6c-7 0 -13 -1 -25 -3c-27 -6 -35 -22 -37 -57c-2 -32 -2 -60 -2 -216v-107c0 -108 -12 -228 -92 -299c-72 -64 -147 -74 -206 -74c-34 0 -135 4 -206 71c-49 47 -87 117 -87 263v146c0 156 0 184 -2 216c-2 34 -10 50 -43 57c-8 2 -25 3 -34 3
c-4 0 -8 2 -8 6c0 6 5 8 16 8c45 0 106 -3 115 -3s69 3 99 3c11 0 16 -2 16 -8c0 -4 -4 -6 -8 -6c-7 0 -13 -1 -25 -3c-27 -4 -35 -22 -37 -57c-2 -32 -2 -60 -2 -216z" />
    <glyph glyph-name="V" unicode="V" horiz-adv-x="741" 
d="M337 45l-245 613c-22 56 -37 67 -72 77c-15 4 -32 4 -38 4s-8 3 -8 7c0 6 10 7 26 7c48 0 102 -3 114 -3c10 0 53 3 91 3c18 0 27 -2 27 -7s-3 -7 -10 -7c-11 0 -29 -1 -38 -5c-11 -5 -13 -13 -13 -20c0 -9 9 -36 20 -64l204 -531c58 134 192 483 214 555c5 15 9 29 9 38
c0 8 -3 18 -13 23c-12 4 -27 4 -38 4c-6 0 -11 1 -11 6c0 6 6 8 22 8c40 0 86 -3 98 -3c6 0 49 3 78 3c11 0 17 -2 17 -7s-4 -7 -12 -7c-7 0 -29 0 -48 -12c-13 -9 -28 -26 -55 -94c-11 -28 -61 -148 -112 -271c-61 -146 -106 -254 -129 -303c-28 -60 -32 -76 -42 -76
c-12 0 -17 14 -36 62z" />
    <glyph glyph-name="W" unicode="W" horiz-adv-x="1100" 
d="M276 62l-178 593c-16 53 -29 68 -55 78c-13 5 -38 6 -45 6c-5 0 -9 1 -9 7c0 5 6 7 16 7c52 0 107 -3 118 -3c9 0 53 3 103 3c14 0 18 -3 18 -7c0 -6 -5 -7 -10 -7c-8 0 -27 0 -39 -6c-6 -3 -13 -11 -13 -24s9 -48 19 -92c15 -64 119 -431 135 -487l213 573
c15 41 19 46 25 46c7 0 13 -13 25 -47l201 -573c29 98 121 388 156 516c10 37 11 51 11 64c0 18 -11 30 -57 30c-5 0 -9 3 -9 7c0 5 5 7 17 7c51 0 93 -3 102 -3c7 0 50 3 81 3c9 0 14 -2 14 -6c0 -5 -3 -8 -9 -8c-4 0 -23 -1 -34 -5c-30 -11 -46 -53 -65 -108
c-44 -127 -145 -445 -184 -557c-26 -74 -31 -86 -42 -86c-10 0 -16 13 -30 52l-197 559c-37 -99 -174 -465 -210 -558c-16 -42 -23 -53 -33 -53s-15 11 -35 79z" />
    <glyph glyph-name="X" unicode="X" horiz-adv-x="674" 
d="M114 97l181 286l-160 269c-23 39 -44 68 -78 80c-16 5 -36 7 -42 7s-9 3 -9 7c0 5 4 7 17 7c28 0 109 -3 117 -3c9 0 60 3 94 3c14 0 17 -2 17 -7s-3 -7 -9 -7s-19 0 -27 -3c-9 -3 -12 -10 -12 -17c0 -10 4 -22 10 -33c42 -79 83 -153 135 -239c30 43 137 214 147 235
c7 15 10 24 10 36c0 7 -7 15 -17 18s-24 3 -30 3s-9 2 -9 7c0 4 5 7 17 7c38 0 80 -3 89 -3s50 3 84 3c11 0 16 -3 16 -7s-4 -7 -11 -7s-22 -1 -33 -5c-29 -9 -48 -38 -77 -81l-161 -242c19 -31 190 -322 211 -349c16 -21 30 -36 59 -45c14 -4 29 -6 35 -6c5 0 8 -2 8 -6
c0 -5 -5 -8 -14 -8c-61 0 -109 0 -160 2c-26 1 -31 3 -31 8c0 4 2 7 6 8c5 2 14 12 5 28c-54 98 -112 197 -172 298l-156 -265c-9 -16 -13 -34 -13 -44s7 -17 16 -19c6 -1 14 -2 19 -2s8 -3 8 -7c0 -5 -5 -7 -12 -7c-24 0 -87 3 -96 3s-58 -3 -91 -3c-8 0 -10 3 -10 7
s3 7 8 7c8 0 23 1 38 5c30 8 51 30 83 81z" />
    <glyph glyph-name="Y" unicode="Y" horiz-adv-x="654" 
d="M289 170v86c0 54 -10 76 -23 105c-7 16 -141 236 -176 288c-25 37 -50 62 -68 74c-15 10 -34 16 -43 16c-5 0 -10 2 -10 7c0 4 4 7 13 7c19 0 94 -3 99 -3c7 0 45 3 84 3c11 0 13 -3 13 -7s-6 -5 -15 -9c-8 -4 -13 -10 -13 -18c0 -12 5 -24 13 -39
c16 -29 166 -287 184 -316c19 42 146 261 166 294c13 21 17 38 17 51c0 14 -4 25 -16 28c-9 3 -15 5 -15 10c0 4 6 6 16 6c26 0 58 -3 66 -3c6 0 78 3 97 3c7 0 13 -2 13 -6c0 -5 -5 -8 -13 -8c-11 0 -30 -4 -46 -14c-20 -12 -31 -24 -53 -51c-33 -40 -173 -275 -191 -318
c-15 -36 -15 -67 -15 -100v-86c0 -16 0 -58 3 -100c2 -29 11 -51 41 -55c14 -2 36 -4 45 -4c6 0 8 -3 8 -6c0 -5 -5 -8 -16 -8c-55 0 -118 3 -123 3s-68 -3 -98 -3c-11 0 -16 2 -16 8c0 3 2 6 8 6c9 0 21 2 30 4c20 4 29 26 31 55c3 42 3 84 3 100z" />
    <glyph glyph-name="Z" unicode="Z" horiz-adv-x="692" 
d="M184 40h272c105 0 137 19 158 49c9 13 18 40 20 54c2 10 4 16 9 16c6 0 8 -4 8 -23c0 -31 -14 -90 -20 -115c-6 -24 -7 -26 -30 -26c-167 0 -335 5 -510 5c-12 0 -18 1 -18 8c0 5 2 10 14 28c149 225 300 450 439 676h-217c-51 0 -112 -3 -144 -20
c-36 -19 -54 -56 -57 -79c-2 -15 -6 -18 -11 -18s-6 5 -6 13c0 12 15 103 20 133c2 14 4 19 10 19c9 0 15 -6 42 -7c95 -4 143 -3 174 -3h279c15 0 20 -2 20 -8c0 -4 0 -6 -4 -12c-145 -230 -296 -460 -448 -690z" />
    <glyph glyph-name="bracketleft" unicode="[" horiz-adv-x="388" 
d="M183 658v-625c0 -42 2 -78 7 -99c19 -8 55 -13 105 -16c12 -1 20 -3 20 -8s-8 -6 -16 -6h-158c-15 0 -16 1 -16 16v848c0 11 2 13 17 13h157c8 0 17 -1 17 -7c0 -4 -10 -8 -22 -8c-46 -3 -78 -7 -104 -15c-5 -21 -7 -52 -7 -93z" />
    <glyph glyph-name="backslash" unicode="\" horiz-adv-x="479" 
d="M92 756l339 -752c4 -8 4 -12 -1 -17c-3 -3 -28 -16 -31 -16s-5 1 -9 9l-340 758c-6 11 -5 14 -1 17c3 2 25 15 30 15c4 0 7 -1 13 -14z" />
    <glyph glyph-name="bracketright" unicode="]" horiz-adv-x="388" 
d="M203 27v625c0 42 -2 78 -7 99c-19 8 -55 13 -105 16c-12 1 -20 3 -20 8s8 6 16 6h158c15 0 16 -1 16 -16v-848c0 -11 -2 -13 -17 -13h-157c-8 0 -17 1 -17 7c0 4 10 8 22 8c46 3 78 7 104 15c5 21 7 52 7 93z" />
    <glyph glyph-name="asciicircum" unicode="^" horiz-adv-x="579" 
d="M262 750h55l196 -375h-62l-163 320l-161 -320h-61z" />
    <glyph glyph-name="underscore" unicode="_" horiz-adv-x="500" 
d="M0 -75h500v-50h-500v50z" />
    <glyph glyph-name="quoteleft" unicode="&#x2018;" horiz-adv-x="210" 
d="M48 614c0 67 53 146 93 193c8 10 13 13 17 13c9 0 0 -15 -2 -18c-25 -42 -45 -94 -45 -143c0 -54 15 -69 28 -82c5 -4 2 -9 -4 -9c-21 0 -53 7 -67 14c-15 8 -20 15 -20 32z" />
    <glyph glyph-name="a" unicode="a" horiz-adv-x="616" 
d="M381 241h-182c-5 0 -8 -3 -10 -8l-44 -125c-10 -28 -17 -55 -17 -71c0 -18 11 -26 33 -26h7c9 0 12 -3 12 -7c0 -5 -8 -7 -15 -7c-22 0 -68 3 -79 3c-10 0 -54 -3 -96 -3c-11 0 -16 2 -16 7c0 4 4 7 12 7c5 0 14 0 20 1c43 4 60 37 77 79l200 527c11 29 14 34 21 34
c5 0 9 -4 20 -32c14 -33 150 -382 203 -507c33 -79 62 -92 76 -97c13 -5 27 -5 34 -5s12 -2 12 -7s-4 -7 -15 -7c-10 0 -85 0 -152 2c-19 1 -25 2 -25 7c0 3 3 6 7 7c4 2 10 7 4 22l-79 201c-2 3 -4 5 -8 5zM209 276h160c4 0 4 3 3 6l-79 221c-5 14 -6 14 -11 0l-75 -221
c-2 -4 0 -6 2 -6z" />
    <glyph glyph-name="b" unicode="b" horiz-adv-x="608" 
d="M155 244v150c0 131 0 156 -2 183s-9 41 -39 47c-8 1 -22 2 -24 2c-9 0 -13 3 -13 7c0 5 6 7 15 7c42 0 102 -3 104 -3c24 0 57 3 96 3c150 0 180 -83 180 -126c0 -74 -42 -121 -84 -154c67 -20 153 -81 153 -179c0 -93 -75 -186 -227 -186c-16 0 -36 2 -62 2
c-28 2 -52 3 -56 3c-31 0 -57 -3 -90 -3c-9 0 -14 2 -14 6c0 3 1 8 14 8c7 0 10 0 18 2c17 3 23 24 26 48c5 37 5 105 5 183zM233 599v-223c0 -7 2 -8 5 -10c6 -1 17 -3 50 -3c51 0 66 3 85 24c16 19 26 47 26 80c0 69 -31 146 -116 146c-8 0 -29 -2 -38 -5
c-9 -2 -12 -4 -12 -9zM233 329v-39c0 -63 0 -173 1 -181c3 -44 2 -57 32 -70c24 -12 64 -13 74 -13c43 0 118 21 118 113c0 51 -18 128 -86 174c-30 18 -48 20 -68 22c-17 2 -52 2 -66 0c-3 0 -5 -1 -5 -6z" />
    <glyph glyph-name="c" unicode="c" horiz-adv-x="709" 
d="M455 -14c-132 0 -222 30 -293 91c-85 74 -107 172 -107 255c0 56 22 155 101 231c54 52 135 89 269 89c46 0 83 -4 132 -11c32 -5 64 -10 88 -11c8 0 9 -5 9 -10c0 -8 -3 -17 -5 -49c-1 -28 -1 -80 -2 -92c-1 -14 -3 -19 -8 -19c-7 0 -8 6 -8 19c0 29 -14 68 -39 87
c-30 26 -100 51 -177 51c-111 0 -162 -31 -192 -58c-65 -59 -80 -131 -80 -219c0 -166 135 -312 311 -312c68 0 118 7 153 41c18 19 28 44 33 72c2 10 5 15 11 15c5 0 5 -7 5 -14c0 -8 -13 -89 -20 -111c-6 -16 -9 -19 -23 -25c-35 -15 -102 -20 -158 -20z" />
    <glyph glyph-name="d" unicode="d" 
d="M155 246v148c0 132 0 157 -2 183c-2 27 -10 41 -39 47c-6 1 -21 2 -29 2c-5 0 -10 3 -10 6c0 6 6 8 15 8c41 0 104 -3 107 -3c7 0 59 3 115 3c88 0 252 9 358 -98c44 -44 85 -114 85 -215c0 -106 -46 -189 -95 -239c-39 -39 -115 -98 -267 -98c-38 0 -87 2 -125 5
c-38 2 -69 5 -72 5c-2 0 -15 0 -34 -1c-19 0 -43 -2 -58 -2c-9 0 -14 2 -14 7c0 3 3 7 11 7s15 1 23 3c17 3 23 24 26 46c6 37 5 105 5 186zM237 410v-101c0 -90 1 -168 1 -183c1 -31 3 -58 10 -67c11 -17 43 -38 147 -38c82 0 156 26 208 78c44 44 65 119 65 199
c0 113 -52 182 -86 215c-85 85 -183 95 -282 95c-14 0 -45 -3 -51 -7c-8 -4 -11 -8 -11 -17c-1 -29 -1 -114 -1 -174z" />
    <glyph glyph-name="e" unicode="e" horiz-adv-x="542" 
d="M155 244v150c0 131 0 155 -2 182c-2 28 -9 42 -38 48c-6 1 -16 2 -24 2c-7 0 -13 3 -13 6c0 6 5 8 15 8c20 0 47 -2 103 -3c5 0 183 0 203 1s31 2 39 5c6 2 7 3 11 3c2 0 4 -2 4 -7c0 -6 -6 -20 -8 -45c-1 -17 -2 -33 -3 -52c0 -9 -2 -15 -7 -15s-7 4 -7 11
c-1 15 -4 25 -7 32c-6 20 -15 27 -65 30c-13 1 -112 2 -114 2c-3 0 -5 -2 -5 -8v-227c0 -6 1 -10 6 -10c12 0 114 1 135 3c23 1 38 4 46 15c4 6 7 8 11 8c2 0 4 -1 4 -6s-4 -24 -7 -53c-3 -28 -3 -48 -4 -61c-1 -8 -3 -11 -7 -11c-5 0 -6 6 -6 13c0 6 -1 16 -3 24
c-4 13 -10 27 -48 30c-23 2 -104 4 -120 4c-6 0 -7 -3 -7 -7v-73c0 -31 -1 -119 0 -136c2 -37 7 -56 28 -65c15 -7 39 -9 73 -9c19 0 51 -1 76 6c30 9 37 29 45 66c2 10 5 14 9 14c6 0 6 -9 6 -15c0 -7 -8 -70 -11 -87c-4 -20 -11 -22 -44 -22c-66 0 -94 2 -129 2
c-35 1 -81 3 -118 3c-23 0 -42 -3 -66 -3c-9 0 -14 2 -14 7c0 4 4 7 9 7c6 0 13 1 20 3c18 4 30 17 32 79c1 34 2 75 2 151z" />
    <glyph glyph-name="f" unicode="f" horiz-adv-x="525" 
d="M155 244v150c0 131 0 155 -2 182c-2 28 -7 44 -38 47c-9 1 -16 1 -25 2c-8 1 -13 4 -13 8c0 5 5 7 15 7c36 0 69 -3 102 -3c15 0 197 0 218 1c20 1 35 3 45 7c5 2 8 3 10 3c3 0 5 -3 3 -9c-2 -7 -5 -21 -6 -31c-4 -26 -3 -44 -5 -70c0 -11 -3 -15 -7 -15c-5 0 -7 5 -8 12
c0 11 -4 38 -16 50c-13 12 -31 13 -56 14c-43 1 -82 2 -126 2c-7 0 -9 -2 -9 -10v-226c0 -5 1 -9 7 -9c41 0 89 0 122 1c41 1 54 3 67 19c4 5 6 8 10 8c3 0 4 -4 4 -9s-4 -22 -7 -52c-3 -27 -4 -44 -4 -58c0 -10 -2 -15 -7 -15c-6 0 -6 6 -7 15c-1 14 -3 48 -52 54
c-20 3 -110 3 -126 3c-6 0 -7 -2 -7 -9v-70c0 -67 1 -127 2 -167c1 -50 8 -57 36 -61c13 -2 22 -3 31 -4c8 -1 12 -3 12 -7s-3 -7 -13 -7c-52 0 -107 3 -111 3h-7c-19 -1 -60 -3 -81 -3c-9 0 -14 2 -14 7c0 3 2 6 10 7c10 1 15 1 21 2c23 3 26 19 28 55c3 37 4 96 4 176z
" />
    <glyph glyph-name="g" unicode="g" horiz-adv-x="761" 
d="M652 161v-90c0 -40 -1 -41 -12 -47c-55 -28 -135 -38 -184 -38c-65 0 -191 5 -293 90c-54 45 -108 129 -108 243c0 136 69 233 151 282c77 45 162 51 223 51c64 0 107 -8 143 -14c16 -3 55 -8 76 -9c8 0 8 -4 8 -8c0 -12 -7 -42 -7 -130c0 -14 -1 -18 -8 -18
c-5 0 -6 6 -7 12c0 9 -4 40 -19 62c-23 33 -95 70 -207 70c-54 0 -117 -2 -184 -53c-51 -39 -84 -115 -84 -214c0 -119 65 -207 91 -232c66 -64 140 -93 227 -93c28 0 72 5 95 17c10 6 17 16 17 30v144c0 66 -5 79 -40 84c-6 1 -16 2 -24 2s-12 4 -12 7c0 5 4 7 15 7
c40 0 98 -2 102 -2s63 2 90 2c10 0 14 -2 14 -7c0 -3 -3 -7 -12 -7c-7 0 -9 0 -17 -1c-24 -3 -30 -21 -32 -50s-2 -54 -2 -90z" />
    <glyph glyph-name="h" unicode="h" horiz-adv-x="846" 
d="M243 372h362c3 0 6 0 6 5v18c0 132 0 155 -2 182s-6 41 -39 47c-7 1 -17 2 -25 2c-7 0 -12 3 -12 7c0 6 5 7 14 7c42 0 101 -3 105 -3s60 3 90 3c10 0 16 -1 16 -7c0 -3 -3 -7 -11 -7c-6 0 -14 -1 -20 -2c-27 -4 -31 -20 -33 -48c-1 -27 -1 -50 -1 -182v-150
c0 -82 0 -147 4 -183c3 -24 8 -44 34 -47c13 -2 26 -3 35 -3c8 0 13 -3 13 -7c0 -5 -5 -7 -15 -7c-50 0 -108 3 -113 3c-4 0 -62 -3 -89 -3c-10 0 -15 2 -15 8c0 3 3 6 11 6s15 0 23 2c17 3 22 25 25 48c5 36 5 99 5 180v89c0 4 -3 6 -6 6h-363c-3 0 -5 -1 -5 -6v-89
c0 -81 0 -146 5 -182c3 -22 8 -42 34 -45c13 -2 28 -3 36 -3c7 0 12 -3 12 -7s-4 -7 -13 -7c-51 0 -110 3 -115 3c-3 0 -64 -3 -90 -3c-10 0 -16 2 -16 7c0 3 2 7 11 7c8 0 16 1 24 3c18 4 22 23 25 45c6 36 5 103 5 185v148c0 132 0 158 -2 185c-2 26 -9 45 -38 48
c-9 1 -19 2 -27 2c-7 0 -11 3 -11 6c0 6 5 7 15 7c43 0 91 -3 104 -3c4 0 62 3 90 3c10 0 15 -2 15 -7c0 -4 -4 -6 -10 -6s-9 0 -20 -2c-25 -4 -31 -21 -33 -49c-1 -27 -1 -49 -1 -181v-18c0 -5 3 -5 6 -5z" />
    <glyph glyph-name="i" unicode="i" horiz-adv-x="392" 
d="M155 244v150c0 132 0 156 -2 183s-8 42 -29 46c-10 2 -17 2 -23 3c-7 1 -11 3 -11 7c0 5 4 7 15 7c31 0 88 -3 91 -3c4 0 62 3 90 3c10 0 15 -2 15 -7c0 -4 -3 -6 -11 -7c-6 -1 -11 -1 -18 -2c-29 -4 -32 -19 -34 -48c-2 -27 -1 -50 -1 -182v-150c0 -77 -1 -147 4 -183
c4 -29 8 -40 34 -46c13 -3 34 -4 38 -4c9 -1 11 -3 11 -7s-4 -7 -14 -7c-51 0 -109 3 -114 3c-3 0 -62 -3 -90 -3c-9 0 -16 2 -16 7c0 4 4 7 13 7c5 0 16 1 24 3c17 4 20 24 23 48c5 36 5 107 5 182z" />
    <glyph glyph-name="j" unicode="j" horiz-adv-x="372" 
d="M238 394v-191c0 -144 1 -200 -27 -264c-18 -43 -58 -83 -136 -135c-11 -6 -26 -17 -35 -21c-1 -1 -3 -1 -6 -1c-2 0 -7 1 -7 5c0 6 6 8 13 13c10 5 22 15 28 21c60 57 89 100 89 329v244c0 132 0 155 -2 182s-11 41 -39 48c-6 1 -22 2 -30 2c-3 0 -7 3 -7 6c0 6 5 8 15 8
c42 0 100 -3 103 -3c4 0 63 3 91 3c10 0 14 -2 14 -8c0 -3 -4 -6 -6 -6c-6 0 -12 -1 -23 -2c-23 -5 -31 -20 -33 -49c-2 -27 -2 -49 -2 -181z" />
    <glyph glyph-name="k" unicode="k" horiz-adv-x="688" 
d="M237 394v-47c46 41 155 145 200 194c48 53 52 58 52 69c0 7 -4 12 -16 16c-7 2 -11 4 -11 8c0 3 2 6 10 6c6 0 36 -3 68 -3c30 0 85 3 98 3c14 0 16 -2 16 -6s-3 -7 -11 -8c-16 -1 -37 -5 -49 -10c-24 -8 -37 -19 -89 -66c-73 -66 -160 -151 -204 -191
c54 -56 216 -216 258 -254c70 -64 104 -82 144 -91c11 -2 6 -1 23 -3c9 -1 14 -3 14 -8c0 -4 -5 -6 -16 -6h-65c-78 0 -98 9 -138 37c-45 32 -205 196 -284 289v-79c0 -77 -1 -147 4 -183c4 -29 8 -40 34 -46c13 -3 34 -4 38 -4c9 -1 11 -3 11 -7s-4 -7 -14 -7
c-51 0 -109 3 -114 3c-3 0 -62 -3 -90 -3c-9 0 -16 2 -16 7c0 4 4 7 13 7c5 0 16 1 24 3c17 4 20 24 23 48c5 36 5 107 5 182v150c0 132 0 156 -2 183s-8 42 -29 46c-10 2 -17 2 -23 3c-7 1 -11 3 -11 7c0 5 4 7 15 7c31 0 88 -3 91 -3c4 0 62 3 90 3c10 0 15 -2 15 -7
c0 -4 -3 -6 -11 -7c-6 -1 -11 -1 -18 -2c-29 -4 -32 -19 -34 -48c-2 -27 -1 -50 -1 -182z" />
    <glyph glyph-name="l" unicode="l" horiz-adv-x="524" 
d="M237 394v-152c0 -115 4 -173 21 -189c16 -14 36 -20 105 -20c44 0 84 0 106 28c10 15 17 35 19 50c1 8 3 12 8 12c4 0 6 -3 6 -13s-6 -67 -12 -90c-6 -20 -5 -25 -53 -25c-68 0 -143 5 -243 5c-33 0 -53 -3 -88 -3c-10 0 -16 2 -16 8c0 3 3 6 11 6s16 0 24 2
c17 3 23 23 26 47c6 38 4 107 4 184v150c0 132 0 154 -2 181c-2 28 -6 46 -40 50c-6 1 -17 1 -25 1c-7 0 -11 3 -11 7c0 5 5 7 15 7c42 0 102 -3 104 -3c14 0 75 3 103 3c10 0 13 -3 13 -7s-5 -7 -11 -7c-7 0 -17 -1 -27 -2c-28 -4 -34 -20 -36 -49c-2 -27 -1 -49 -1 -181z
" />
    <glyph glyph-name="m" unicode="m" horiz-adv-x="924" 
d="M752 627l63 -520c3 -24 9 -80 48 -89c17 -4 37 -6 51 -7c4 0 13 -1 13 -6s-4 -8 -15 -8c-18 0 -126 4 -158 6c-22 2 -30 4 -30 9c0 3 4 7 9 9s8 14 6 28l-44 428l-212 -430c-19 -39 -22 -48 -31 -48c-6 0 -11 9 -30 43c-16 29 -96 189 -102 198c-6 12 -104 206 -112 227
l-37 -385c-1 -14 -1 -23 -1 -38c0 -11 5 -26 25 -30c11 -2 18 -2 28 -3c8 -1 10 -4 10 -6c0 -7 -6 -8 -17 -8c-32 0 -75 3 -83 3c-10 0 -52 -3 -77 -3c-9 0 -15 1 -15 8c0 2 4 6 13 6c7 0 8 0 19 1c24 2 33 26 38 66l67 549c2 17 6 25 11 25s8 -3 15 -16l268 -519l255 518
c5 11 9 17 15 17s9 -9 10 -25z" />
    <glyph glyph-name="n" unicode="n" horiz-adv-x="839" 
d="M128 122c0 477 1 323 0 489c0 31 3 41 11 41c7 0 24 -20 31 -27c9 -10 148 -152 288 -295c78 -76 178 -179 204 -203l-11 416c-1 54 -7 72 -34 79c-17 3 -32 4 -39 4c-10 0 -12 4 -12 8c0 5 8 6 18 6c43 0 85 -3 94 -3c10 0 41 3 80 3c11 0 14 -1 14 -6c0 -4 -3 -7 -9 -8
s-14 -1 -25 -3c-23 -5 -30 -15 -30 -75l-2 -502c0 -50 -2 -55 -9 -55s-17 7 -66 53c-4 2 -143 140 -230 225c-104 108 -204 212 -229 238l13 -391c2 -69 8 -95 33 -101c16 -4 33 -4 41 -4s12 -3 12 -7c0 -5 -5 -7 -16 -7c-54 0 -90 3 -97 3s-44 -3 -87 -3c-9 0 -15 1 -15 7
c0 4 4 7 14 7c7 0 18 0 31 4c22 7 27 34 27 107z" />
    <glyph glyph-name="o" unicode="o" 
d="M400 -14c-245 0 -345 182 -345 334c0 133 103 332 350 332c198 0 349 -118 349 -319c0 -191 -141 -347 -354 -347zM425 20c67 0 235 34 235 288c0 201 -124 313 -261 313c-139 0 -251 -86 -251 -275c0 -196 109 -326 277 -326z" />
    <glyph glyph-name="p" unicode="p" horiz-adv-x="570" 
d="M156 244v150c0 138 0 156 -2 183c-2 26 -10 42 -38 48c-7 1 -23 2 -31 2c-2 0 -6 2 -6 5c0 6 5 8 14 8c43 0 98 -3 104 -3c21 0 72 3 113 3c110 0 150 -36 164 -48c19 -17 44 -56 44 -112c0 -111 -92 -192 -217 -192c-4 0 -14 0 -19 1c-4 0 -9 2 -9 6c0 8 6 8 25 8
c79 0 145 54 145 142c0 13 3 73 -43 121c-49 52 -106 47 -124 47c-13 0 -28 -2 -34 -5c-5 -2 -6 -9 -6 -16v-346c0 -77 0 -149 4 -185c3 -24 8 -44 35 -47c12 -2 32 -4 40 -4c4 0 6 -2 6 -5c0 -5 -4 -8 -14 -8c-52 0 -108 3 -113 3c-1 0 -60 -3 -88 -3c-9 0 -14 2 -14 8
c0 3 2 5 7 5c7 0 18 2 26 4c18 3 23 23 26 47c5 36 5 108 5 183z" />
    <glyph glyph-name="q" unicode="q" horiz-adv-x="814" 
d="M539 14c-28 -15 -87 -28 -136 -28c-247 0 -348 181 -348 335c0 133 103 331 350 331c199 0 349 -120 349 -319c0 -154 -105 -252 -156 -284l186 -93c200 -100 335 -97 365 -97c41 0 108 9 169 33c5 2 11 3 13 3c4 0 6 -1 6 -4s-5 -7 -11 -10c-50 -25 -149 -60 -280 -60
c-108 0 -223 39 -360 114zM425 20c72 0 235 38 235 289c0 198 -122 312 -262 312c-138 0 -250 -86 -250 -276c0 -193 119 -325 277 -325z" />
    <glyph glyph-name="r" unicode="r" horiz-adv-x="667" 
d="M156 244v150c0 132 0 156 -2 183s-9 42 -40 48c-6 1 -16 2 -24 2c-7 0 -11 2 -11 6s3 7 12 7c43 0 104 -3 106 -3c9 0 77 3 105 3c56 0 117 -5 164 -38c19 -14 60 -54 60 -122c0 -55 -27 -125 -106 -189c73 -90 133 -164 184 -217c48 -49 78 -57 106 -61
c7 -1 28 -2 31 -2c8 0 11 -3 11 -7c0 -5 -4 -7 -18 -7h-70c-47 0 -69 3 -91 12c-42 18 -72 63 -124 130c-39 48 -79 102 -96 123c-4 4 -6 6 -12 6l-103 1c-4 0 -5 -1 -5 -5v-14c0 -80 0 -153 5 -189c3 -24 6 -44 39 -48c10 -1 21 -2 29 -2c9 0 13 -3 13 -6
c0 -5 -4 -8 -14 -8c-52 0 -108 3 -112 3c-16 0 -60 -3 -87 -3c-10 0 -14 2 -14 8c0 3 6 6 12 6c7 0 14 0 22 2c17 3 23 14 26 38c5 36 4 118 4 193zM233 595v-272c0 -5 1 -10 5 -12c13 -7 53 -13 89 -13c21 0 46 1 67 15c30 19 50 63 50 127c0 109 -58 169 -147 169
c-25 0 -46 -2 -58 -5c-3 -1 -6 -4 -6 -9z" />
    <glyph glyph-name="s" unicode="s" horiz-adv-x="512" 
d="M224 -14c-42 0 -81 5 -119 22c-13 6 -13 10 -13 34c0 46 3 80 4 94c1 9 3 14 8 14s7 -3 7 -10c0 -6 0 -18 3 -30c13 -65 72 -90 130 -90c83 0 123 57 123 107c0 57 -26 92 -99 151l-40 31c-96 77 -116 130 -116 189c0 92 73 154 185 154c35 0 59 -3 81 -8
c19 -4 27 -5 34 -5s9 -2 9 -6s-4 -39 -4 -97c0 -15 -2 -21 -7 -21s-6 4 -7 11c-1 9 -3 30 -12 47c-5 9 -28 47 -112 47c-60 0 -105 -36 -105 -96c0 -47 24 -76 107 -139l23 -18c104 -80 131 -133 131 -204c0 -36 -15 -100 -76 -142c-39 -25 -87 -35 -135 -35z" />
    <glyph glyph-name="t" unicode="t" horiz-adv-x="612" 
d="M350 601v-357c0 -77 1 -148 5 -185c3 -24 5 -38 30 -44c12 -3 31 -4 39 -4s12 -3 12 -6c0 -5 -3 -8 -13 -8c-51 0 -110 3 -114 3s-63 -3 -89 -3c-11 0 -15 2 -15 7c0 3 3 7 11 7s14 0 22 1c19 3 22 15 26 49c4 36 4 108 4 183v357c-33 0 -86 0 -126 -1
c-64 -1 -78 -11 -92 -32c-9 -14 -13 -26 -15 -31c-3 -7 -5 -8 -9 -8s-5 4 -5 9c-1 6 14 72 20 99c3 12 6 16 9 16c7 0 26 -9 44 -11c35 -4 63 -5 64 -5h328c28 0 58 2 72 5c13 3 16 4 19 4c4 0 6 -5 6 -9c0 -28 -2 -94 -2 -102c0 -9 -4 -12 -7 -12c-5 0 -7 4 -7 12
c0 3 0 4 -1 14c-4 40 -17 50 -118 51c-38 0 -69 1 -98 1z" />
    <glyph glyph-name="u" unicode="u" horiz-adv-x="727" 
d="M187 394v-119c0 -122 23 -174 61 -208c43 -38 91 -46 132 -46c52 0 99 14 137 58c40 46 49 122 49 209v106c0 131 0 154 -2 181c-2 29 -5 44 -37 49c-7 1 -19 2 -28 2c-6 0 -10 3 -10 6c0 6 5 8 14 8c43 0 93 -3 97 -3c5 0 48 3 76 3c10 0 14 -2 14 -7c0 -4 -4 -7 -10 -7
s-8 0 -18 -1c-28 -3 -32 -21 -34 -50c-1 -27 -1 -50 -1 -181v-89c0 -90 -10 -198 -81 -259c-65 -55 -129 -60 -183 -60c-28 0 -122 0 -187 60c-43 40 -74 100 -74 224v124c0 132 0 155 -3 182c-1 27 -6 44 -37 48c-6 1 -18 2 -26 2c-7 0 -11 3 -11 6c0 6 4 8 15 8
c43 0 97 -3 104 -3c8 0 67 3 94 3c11 0 14 -2 14 -7s-7 -7 -12 -7c-6 0 -14 -1 -22 -2c-24 -3 -28 -20 -30 -48c-1 -27 -1 -50 -1 -182z" />
    <glyph glyph-name="v" unicode="v" horiz-adv-x="654" 
d="M296 42l-216 516c-20 47 -27 59 -63 65c-14 2 -25 3 -30 3c-8 0 -12 3 -12 7c0 5 7 7 16 7c46 0 104 -3 114 -3c9 0 56 3 93 3c12 0 16 -2 16 -6c0 -5 -4 -8 -15 -8c-14 0 -23 -2 -31 -5c-9 -5 -9 -11 -9 -17c0 -7 6 -26 16 -50l176 -442c50 111 165 401 183 461
c5 13 8 26 8 33c0 6 -1 13 -9 16s-21 4 -32 4c-7 0 -13 2 -13 6c0 5 3 8 15 8c36 0 84 -3 95 -3c4 0 44 3 69 3c10 0 15 -2 15 -6c0 -5 -4 -8 -11 -8c-12 0 -25 0 -43 -10c-11 -8 -23 -20 -47 -78c-5 -12 -55 -127 -100 -230c-53 -124 -94 -218 -111 -252
c-27 -55 -30 -70 -40 -70c-12 0 -17 12 -34 56z" />
    <glyph glyph-name="w" unicode="w" horiz-adv-x="966" 
d="M238 62l-154 493c-14 44 -21 59 -49 67c-11 3 -29 4 -36 4c-5 0 -12 2 -12 8c0 4 5 6 15 6c52 0 98 -3 108 -3c7 0 51 3 98 3c12 0 14 -4 14 -7c0 -6 -6 -8 -14 -8c-7 0 -21 0 -32 -4c-9 -3 -10 -11 -10 -21c0 -11 8 -39 17 -77c13 -54 99 -351 114 -399l185 470
c14 38 19 43 24 43c7 0 12 -12 24 -44l177 -470c24 82 108 336 135 435c7 26 8 31 8 42c0 15 -5 26 -48 26c-9 0 -13 4 -13 8s4 6 15 6c37 0 77 -3 84 -3c6 0 55 3 82 3c8 0 12 -3 12 -6c0 -5 -5 -8 -13 -8c-3 0 -16 -1 -26 -3c-30 -7 -40 -49 -56 -94
c-39 -108 -128 -376 -158 -459c-26 -70 -33 -84 -41 -84c-10 0 -16 14 -29 51l-172 456c-32 -78 -153 -380 -183 -456c-15 -39 -22 -51 -31 -51c-10 0 -15 13 -35 76z" />
    <glyph glyph-name="x" unicode="x" horiz-adv-x="598" 
d="M98 83l160 241l-142 230c-24 38 -36 57 -65 66c-15 5 -30 6 -35 6c-10 0 -13 4 -13 7c0 4 3 7 15 7c23 0 102 -3 108 -3c8 0 55 3 86 3c13 0 16 -2 16 -6c0 -5 -4 -8 -12 -8c-5 0 -18 -1 -24 -3c-7 -2 -10 -7 -10 -12c0 -9 4 -17 12 -31c41 -75 70 -124 116 -197
c26 37 118 176 126 195c7 13 11 19 11 30c0 6 -3 14 -18 16c-7 1 -17 2 -22 2c-7 0 -12 3 -12 8c0 3 3 6 14 6c36 0 76 -3 83 -3c8 0 47 3 79 3c9 0 12 -3 12 -6c0 -5 -5 -8 -11 -8c-9 0 -21 -2 -32 -5c-24 -7 -42 -36 -65 -68l-141 -203c18 -28 167 -273 186 -296
c12 -15 25 -33 50 -39c13 -3 23 -4 27 -4c10 0 12 -4 12 -7c0 -5 -4 -7 -13 -7c-56 0 -112 -1 -161 2c-16 1 -15 4 -15 9c0 3 4 4 10 6c10 3 7 11 -1 24c-46 83 -96 165 -147 248l-135 -220c-7 -12 -15 -28 -15 -37c0 -8 6 -15 18 -17c6 -1 7 -1 12 -1c9 0 12 -3 12 -7
s-3 -7 -11 -7c-21 0 -80 3 -88 3c-6 0 -46 -3 -77 -3c-10 0 -13 4 -13 7c0 4 4 7 11 7c6 0 15 1 29 4c26 7 45 26 73 68z" />
    <glyph glyph-name="y" unicode="y" horiz-adv-x="579" 
d="M252 142v73c0 48 -7 66 -22 92c-6 11 -122 200 -153 243c-27 38 -37 50 -51 61c-14 10 -27 14 -47 15c-6 0 -11 3 -11 8c0 3 4 6 12 6c16 0 92 -3 94 -3c6 0 39 3 76 3c10 0 13 -3 13 -6c0 -4 -3 -6 -11 -8c-14 -3 -16 -8 -16 -16c0 -10 6 -20 13 -33
c13 -25 145 -237 160 -262c16 35 128 218 142 243c19 33 23 42 23 53c0 13 -12 13 -23 15c-8 1 -11 4 -11 8c0 3 2 6 12 6c24 0 45 -3 61 -3c13 0 71 3 88 3c9 0 12 -3 12 -6c0 -5 -5 -8 -12 -8c-21 -1 -36 -3 -50 -13c-15 -10 -21 -19 -37 -41c-58 -80 -155 -243 -170 -278
c-12 -31 -10 -53 -10 -79v-73c0 -7 0 -44 2 -80c2 -24 4 -41 35 -47c13 -3 30 -4 37 -4c8 0 11 -3 11 -6c0 -5 -3 -8 -12 -8c-50 0 -112 3 -115 3c-2 0 -62 -3 -90 -3c-10 0 -14 3 -14 8c0 3 3 6 10 6c8 0 17 1 25 3c17 3 24 24 26 48c3 36 3 72 3 80z" />
    <glyph glyph-name="z" unicode="z" horiz-adv-x="612" 
d="M173 37h232c90 0 125 9 141 41c10 18 12 32 15 47c2 8 4 14 8 14c6 0 7 -5 7 -15c0 -28 -12 -83 -18 -104c-7 -23 -8 -24 -30 -24c-147 0 -289 4 -446 4c-11 0 -16 1 -16 7c0 5 2 9 12 24c131 193 259 377 380 571h-183c-54 0 -102 0 -133 -11s-39 -51 -44 -75
c-3 -13 -6 -16 -10 -16s-5 5 -5 12c0 11 13 91 17 117c2 13 4 17 10 17c9 0 14 -5 40 -6c95 -3 139 -3 151 -3h244c13 0 20 0 20 -6c0 -4 -2 -9 -7 -16c-132 -199 -252 -384 -385 -578z" />
    <glyph glyph-name="braceleft" unicode="{" horiz-adv-x="404" 
d="M121 363c55 -15 108 -54 108 -139c0 -31 -3 -77 -3 -140c0 -135 57 -159 98 -173c6 -2 10 -5 10 -8c0 -4 -3 -5 -10 -5c-24 0 -79 11 -113 45c-40 40 -53 89 -53 166c0 42 7 102 7 160c0 59 -34 77 -76 84c-11 2 -15 4 -15 9s10 7 19 9c35 8 72 31 72 91
c0 39 -7 86 -7 125c0 154 114 198 164 198c7 0 11 -2 11 -5c0 -1 -2 -5 -9 -7c-36 -11 -98 -41 -98 -134c0 -50 3 -86 3 -118c0 -72 -40 -136 -108 -158z" />
    <glyph glyph-name="bar" unicode="|" horiz-adv-x="495" 
d="M269 -250h-42v1000h42v-1000z" />
    <glyph glyph-name="braceright" unicode="}" horiz-adv-x="404" 
d="M282 361c-54 16 -108 54 -108 139c0 31 4 39 4 102c0 135 -56 156 -97 170c-7 3 -11 4 -11 7c0 5 8 6 14 6c25 0 74 -12 108 -45c40 -40 54 -86 54 -163c0 -42 -7 -63 -7 -122c0 -58 34 -77 75 -84c11 -2 15 -4 15 -8c0 -5 -9 -8 -18 -10c-36 -7 -72 -30 -72 -91
c0 -38 7 -125 7 -164c0 -153 -115 -200 -166 -200c-7 0 -9 2 -9 5s2 5 9 7c37 11 98 40 98 133c0 50 -4 125 -4 157c0 72 40 139 108 161z" />
    <glyph glyph-name="asciitilde" unicode="~" horiz-adv-x="661" 
d="M144 278h-50c-4 95 40 145 111 145c44 0 72 -15 131 -49c45 -26 76 -43 109 -43c44 0 60 22 61 91h49c3 -111 -49 -145 -110 -145c-44 0 -74 15 -131 49c-43 26 -76 44 -107 44c-41 0 -61 -23 -63 -92z" />
    <glyph glyph-name="exclamdown" unicode="&#xa1;" horiz-adv-x="360" 
d="M162 566c10 0 13 -13 14 -34c3 -46 5 -63 16 -255c1 -15 11 -157 19 -188c2 -8 4 -14 4 -19s-2 -9 -5 -14c-13 -22 -66 -73 -95 -73c-4 0 -6 2 -6 10c0 7 8 58 13 132c1 18 26 385 28 409c1 14 4 32 12 32zM160 767c35 0 50 -28 50 -51c0 -21 -15 -51 -51 -51
c-29 0 -51 19 -51 48c0 30 21 54 52 54z" />
    <glyph glyph-name="cent" unicode="&#xa2;" horiz-adv-x="571" 
d="M372 599l-41 -444c13 -2 27 -3 42 -3c63 0 113 26 128 85c3 12 6 17 10 17s5 -5 5 -11c0 -7 -11 -72 -15 -91c-3 -11 -6 -16 -14 -18c-37 -13 -91 -20 -131 -20c-10 0 -19 0 -29 1l-12 -133c0 -5 -5 -7 -10 -8l-19 -6c-6 -1 -8 2 -7 10l13 141c-127 20 -235 102 -235 262
c0 96 53 156 82 181c48 40 103 66 200 70l9 101c0 5 2 8 6 9l23 7c5 1 8 0 8 -5l-10 -111c33 0 90 -8 137 -26c7 -4 7 -6 7 -14c0 -23 -4 -80 -6 -94c-1 -11 -4 -15 -8 -15c-5 0 -7 4 -7 14c-2 17 -3 40 -18 59c-12 14 -33 35 -108 42zM296 163l40 438
c-123 -2 -192 -85 -192 -205c0 -113 55 -202 152 -233z" />
    <glyph glyph-name="sterling" unicode="&#xa3;" horiz-adv-x="571" 
d="M251 0h-233c-15 0 -29 1 -29 10c0 10 9 15 20 17c100 21 121 113 135 225l13 105h-75c-12 0 -17 -2 -21 -2s-6 4 -3 9l12 21c3 7 7 8 14 8h79l10 70c14 97 36 189 104 248c55 48 113 56 151 56c32 0 66 -6 87 -12c10 -3 18 -4 27 -5c5 -1 7 -6 7 -12
c0 -49 -3 -102 -5 -114c-1 -7 -3 -12 -8 -12s-7 4 -8 15c-2 22 -6 45 -22 66c-18 24 -52 39 -101 39c-90 0 -132 -88 -144 -185l-18 -154h109c28 0 42 5 47 5s8 -3 5 -10l-11 -24c-3 -6 -8 -8 -16 -8h-140l-5 -42c-7 -55 -33 -185 -115 -256l2 -2l312 3c55 1 83 22 93 82
c1 7 4 10 8 10s7 -3 7 -15c0 -11 -10 -86 -17 -121c-4 -17 -6 -20 -61 -20c-65 0 -160 5 -210 5z" />
    <glyph glyph-name="fraction" unicode="&#x2044;" horiz-adv-x="241" 
d="M384 781l21 -17c2 -2 3 -5 0 -8l-542 -771c-2 -3 -5 -3 -7 -1l-20 16c-2 2 -2 4 0 8l541 771c3 4 5 4 7 2z" />
    <glyph glyph-name="yen" unicode="&#xa5;" horiz-adv-x="571" 
d="M106 397h127c-34 64 -103 197 -134 255c-28 53 -45 79 -79 84c-7 1 -14 2 -24 3c-8 1 -9 4 -9 8c0 3 0 6 12 6c27 0 63 -3 91 -3c10 0 57 3 87 3c10 0 13 -3 13 -6c0 -5 -2 -7 -12 -8c-23 -2 -27 -9 -27 -17c0 -7 11 -27 19 -42c18 -36 111 -214 134 -257
c29 56 85 175 114 234c11 23 22 49 22 62c0 11 -7 18 -39 20c-9 1 -12 4 -12 8s5 6 14 6c26 0 59 -3 81 -3c25 0 62 3 80 3c10 0 12 -3 12 -6c0 -5 -3 -7 -13 -8c-46 -5 -58 -16 -88 -65c-28 -46 -110 -208 -144 -277h134c6 0 7 0 6 -6l-5 -22c-1 -5 -2 -5 -9 -5h-133v-72
h141c6 0 6 -1 5 -7l-4 -21c-1 -4 -4 -5 -12 -5h-130v-69c0 -36 0 -78 3 -120c2 -29 11 -51 41 -55c14 -2 35 -4 41 -4c9 0 12 -3 12 -6c0 -5 -4 -8 -15 -8c-55 0 -119 3 -124 3s-68 -3 -98 -3c-11 0 -16 2 -16 8c0 3 2 6 11 6c6 0 17 1 26 3c20 4 30 27 32 56
c3 40 3 94 3 120v69h-139c-8 0 -8 2 -6 9l5 20c1 3 3 4 7 4h133v72h-139c-9 0 -10 1 -6 13l5 16c1 3 2 4 6 4z" />
    <glyph glyph-name="florin" unicode="&#x192;" horiz-adv-x="571" 
d="M307 341h-70c-12 -83 -30 -256 -47 -340c-21 -104 -67 -233 -201 -233c-26 0 -37 3 -37 9s3 10 25 10c108 0 128 84 150 274l32 281h-41c-44 0 -67 -1 -78 -3c-7 -1 -10 2 -7 8l12 22c3 6 7 10 11 10c5 0 24 -2 48 -2h61c18 149 41 243 97 311c36 43 79 79 164 79
c41 0 72 -6 100 -18c11 -5 12 -10 12 -15c0 -14 -3 -50 -11 -108c-2 -14 -5 -19 -9 -19c-6 0 -7 5 -7 19c0 26 -6 46 -16 66c-11 21 -39 41 -82 41c-149 0 -147 -186 -173 -356h116c45 0 67 4 74 4s7 -4 2 -13l-16 -25c-3 -5 -4 -6 -12 -6c-7 0 -59 4 -97 4z" />
    <glyph glyph-name="section" unicode="&#xa7;" horiz-adv-x="583" 
d="M180 495c-49 39 -66 79 -66 123c0 95 80 150 186 150c39 0 71 -4 96 -8c14 -2 24 -5 34 -5c5 0 7 -2 6 -6c-1 -8 -6 -41 -6 -98c0 -10 -3 -18 -8 -18c-6 0 -6 7 -7 14c-2 16 -5 41 -17 57c-16 18 -40 36 -114 36c-59 0 -107 -36 -107 -99c0 -55 28 -79 90 -121
c15 -9 33 -20 49 -31c95 -63 159 -108 159 -203c0 -68 -45 -123 -98 -157c33 -31 48 -68 48 -110c0 -91 -76 -177 -209 -177c-53 0 -106 14 -133 29c-10 7 -13 16 -13 29c0 41 2 73 5 88c2 11 6 15 9 15c4 0 6 -4 6 -11c0 -9 1 -23 3 -31c10 -59 65 -84 139 -84
c67 0 127 43 127 111c0 66 -35 95 -124 154l-31 21c-94 62 -138 107 -138 183c0 70 56 125 114 149zM199 479c-59 -28 -79 -72 -79 -104c0 -49 22 -79 135 -155l35 -23c23 -15 51 -35 68 -49c34 15 62 67 62 107c0 42 -6 74 -143 171c-23 14 -52 35 -78 53z" />
    <glyph glyph-name="currency" unicode="&#xa4;" horiz-adv-x="571" 
d="M519 553l-79 -71c22 -28 38 -76 38 -125c0 -63 -18 -107 -40 -134l76 -73l-33 -35l-71 80c-33 -33 -78 -50 -124 -50c-53 0 -95 17 -125 48l-66 -77l-31 34l71 70c-23 28 -40 80 -40 130c0 55 17 99 42 132l-75 71l33 37l67 -80c31 32 80 49 127 49s96 -18 124 -48l73 77
zM429 354c0 84 -52 163 -143 163c-89 0 -143 -65 -143 -165c0 -114 76 -165 143 -165c74 0 143 48 143 167z" />
    <glyph glyph-name="quotesingle" unicode="'" horiz-adv-x="201" 
d="M100 820c23 0 43 -4 43 -14s-22 -63 -32 -217c-1 -12 -5 -21 -10 -21c-6 0 -9 8 -10 21c-9 155 -33 208 -33 217c0 10 20 14 42 14z" />
    <glyph glyph-name="quotedblleft" unicode="&#x201c;" horiz-adv-x="367" 
d="M48 614c0 67 53 146 93 193c8 10 14 13 18 13c8 0 -1 -15 -3 -18c-25 -42 -45 -94 -45 -143c0 -54 15 -69 28 -82c5 -4 2 -9 -4 -9c-21 0 -53 7 -67 14c-15 8 -20 15 -20 32zM205 614c0 67 53 146 93 193c8 10 14 13 18 13c8 0 -1 -15 -3 -18c-25 -42 -45 -94 -45 -143
c0 -54 15 -69 28 -82c5 -4 2 -9 -4 -9c-21 0 -53 7 -67 14c-15 8 -20 15 -20 32z" />
    <glyph glyph-name="guillemotleft" unicode="&#xab;" horiz-adv-x="588" 
d="M292 134l-26 -28c-4 -4 -6 -5 -9 -5c-2 0 -9 5 -26 25c-24 29 -119 135 -142 158c-10 10 -17 18 -17 22c0 3 7 10 16 18c38 33 152 144 192 180c9 9 14 12 18 12c12 0 -5 -20 -8 -23c-42 -52 -129 -143 -157 -179c18 -25 106 -114 148 -158c11 -11 15 -13 15 -15
s-2 -5 -4 -7zM506 134l-26 -27c-4 -4 -6 -6 -9 -6c-2 0 -9 5 -26 25c-24 29 -119 135 -142 158c-10 10 -17 18 -17 22c0 3 7 10 16 18c38 33 152 144 192 180c9 9 14 12 18 12c11 0 -6 -20 -8 -23c-42 -52 -129 -143 -157 -179c18 -25 106 -114 148 -158
c11 -11 15 -13 15 -15s-2 -5 -4 -7z" />
    <glyph glyph-name="guilsinglleft" unicode="&#x2039;" horiz-adv-x="374" 
d="M292 134l-26 -28c-4 -4 -7 -5 -9 -5s-9 5 -26 25c-24 29 -119 135 -142 158c-10 10 -17 18 -17 22c0 3 7 10 16 18c38 33 152 144 192 180c9 9 14 12 18 12c11 0 -6 -20 -8 -23c-42 -52 -129 -143 -157 -179c18 -25 106 -114 148 -158c11 -11 15 -13 15 -15s-2 -5 -4 -7z
" />
    <glyph glyph-name="guilsinglright" unicode="&#x203a;" horiz-adv-x="374" 
d="M82 484l26 28c4 4 7 5 9 5s9 -5 26 -25c24 -29 119 -135 142 -158c10 -10 17 -18 17 -22c0 -3 -7 -10 -16 -18c-38 -33 -152 -144 -192 -180c-9 -9 -14 -12 -18 -12c-12 0 6 20 8 23c42 52 129 143 157 179c-18 25 -106 114 -148 158c-11 11 -15 13 -15 15s2 5 4 7z" />
    <glyph glyph-name="fi" unicode="&#xfb01;" horiz-adv-x="917" 
d="M155 244v150c0 131 0 155 -2 182c-2 28 -7 44 -38 47c-9 1 -16 1 -25 2c-8 1 -13 4 -13 8c0 5 5 7 15 7c36 0 69 -3 102 -3c15 0 197 0 218 1c20 1 35 3 45 7c5 2 8 3 10 3c3 0 5 -3 3 -9c-2 -7 -5 -21 -6 -31c-4 -26 -3 -44 -5 -70c0 -11 -3 -15 -7 -15c-5 0 -7 5 -8 12
c0 11 -4 38 -16 50c-13 12 -31 13 -56 14c-43 1 -82 2 -126 2c-7 0 -9 -2 -9 -10v-226c0 -5 1 -9 7 -9c41 0 89 0 122 1c41 1 54 3 67 19c4 5 6 8 10 8c3 0 4 -4 4 -9s-4 -22 -7 -52c-3 -27 -4 -44 -4 -58c0 -10 -2 -15 -7 -15c-6 0 -6 6 -7 15c-1 14 -3 48 -52 54
c-20 3 -110 3 -126 3c-6 0 -7 -2 -7 -9v-70c0 -67 1 -127 2 -167c1 -50 8 -57 36 -61c13 -2 22 -3 31 -4c8 -1 12 -3 12 -7s-3 -7 -13 -7c-52 0 -107 3 -111 3h-7c-19 -1 -60 -3 -81 -3c-9 0 -14 2 -14 7c0 3 2 6 10 7c10 1 15 1 21 2c23 3 26 19 28 55c3 37 4 96 4 176z
M680 244v150c0 132 0 156 -2 183s-8 42 -29 46c-10 2 -17 2 -23 3c-7 1 -11 3 -11 7c0 5 4 7 15 7c31 0 88 -3 91 -3c4 0 62 3 90 3c10 0 15 -2 15 -7c0 -4 -3 -6 -11 -7c-6 -1 -11 -1 -18 -2c-29 -4 -32 -19 -34 -48c-2 -27 -1 -50 -1 -182v-150c0 -77 -1 -147 4 -183
c4 -29 8 -40 34 -46c13 -3 34 -4 38 -4c9 -1 11 -3 11 -7s-4 -7 -14 -7c-51 0 -109 3 -114 3c-3 0 -62 -3 -90 -3c-9 0 -16 2 -16 7c0 4 4 7 13 7c5 0 16 1 24 3c17 4 20 24 23 48c5 36 5 107 5 182z" />
    <glyph glyph-name="fl" unicode="&#xfb02;" horiz-adv-x="1049" 
d="M155 244v150c0 131 0 155 -2 182c-2 28 -7 44 -38 47c-9 1 -16 1 -25 2c-8 1 -13 4 -13 8c0 5 5 7 15 7c36 0 69 -3 102 -3c15 0 197 0 218 1c20 1 35 3 45 7c5 2 8 3 10 3c3 0 5 -3 3 -9c-2 -7 -5 -21 -6 -31c-4 -26 -3 -44 -5 -70c0 -11 -3 -15 -7 -15c-5 0 -7 5 -8 12
c0 11 -4 38 -16 50c-13 12 -31 13 -56 14c-43 1 -82 2 -126 2c-7 0 -9 -2 -9 -10v-226c0 -5 1 -9 7 -9c41 0 89 0 122 1c41 1 54 3 67 19c4 5 6 8 10 8c3 0 4 -4 4 -9s-4 -22 -7 -52c-3 -27 -4 -44 -4 -58c0 -10 -2 -15 -7 -15c-6 0 -6 6 -7 15c-1 14 -3 48 -52 54
c-20 3 -110 3 -126 3c-6 0 -7 -2 -7 -9v-70c0 -67 1 -127 2 -167c1 -50 8 -57 36 -61c13 -2 22 -3 31 -4c8 -1 12 -3 12 -7s-3 -7 -13 -7c-52 0 -107 3 -111 3h-7c-19 -1 -60 -3 -81 -3c-9 0 -14 2 -14 7c0 3 2 6 10 7c10 1 15 1 21 2c23 3 26 19 28 55c3 37 4 96 4 176z
M762 394v-152c0 -115 4 -173 21 -189c16 -14 36 -20 105 -20c44 0 84 0 106 28c10 15 17 35 19 50c1 8 3 12 8 12c4 0 6 -3 6 -13s-6 -67 -12 -90c-6 -20 -5 -25 -53 -25c-68 0 -143 5 -243 5c-33 0 -53 -3 -88 -3c-10 0 -16 2 -16 8c0 3 3 6 11 6s16 0 24 2
c17 3 23 23 26 47c6 38 4 107 4 184v150c0 132 0 154 -2 181c-2 28 -6 46 -40 50c-6 1 -17 1 -25 1c-7 0 -11 3 -11 7c0 5 5 7 15 7c42 0 102 -3 104 -3c14 0 75 3 103 3c10 0 13 -3 13 -7s-5 -7 -11 -7c-7 0 -17 -1 -27 -2c-28 -4 -34 -20 -36 -49c-2 -27 -1 -49 -1 -181z
" />
    <glyph glyph-name="endash" unicode="&#x2013;" horiz-adv-x="507" 
d="M436 315h-365c-34 0 -39 1 -40 4c-2 3 1 30 6 38c3 4 6 4 33 4h366c36 0 39 -1 40 -5c1 -5 -1 -28 -6 -36c-2 -4 -7 -5 -34 -5z" />
    <glyph glyph-name="dagger" unicode="&#x2020;" horiz-adv-x="500" 
d="M214 440c-1 109 -1 165 -3 185c0 4 -1 16 -3 26c-1 3 0 7 3 10c10 10 30 24 42 32c6 4 8 4 10 4s3 -1 3 -7s-3 -30 -5 -102c-1 -30 -2 -69 -4 -148l118 2c35 1 52 5 59 6c5 1 7 -1 5 -6l-18 -36c-3 -4 -4 -7 -9 -7s-42 8 -156 11c-4 -165 -11 -446 -12 -458
c-1 -13 -3 -24 -9 -24s-10 5 -11 27c-1 25 -10 443 -10 455c-72 -1 -127 -5 -161 -10c-6 -1 -9 0 -6 7l12 31c4 8 6 11 10 10c6 0 26 -5 50 -6z" />
    <glyph glyph-name="daggerdbl" unicode="&#x2021;" horiz-adv-x="500" 
d="M253 273l122 2c35 1 52 4 59 5c5 2 7 -1 5 -5l-18 -36c-3 -6 -4 -7 -9 -7s-46 8 -160 11c-2 -143 -7 -283 -8 -290c-1 -14 -3 -25 -9 -25s-9 7 -11 32c-1 13 -7 153 -8 283c-73 -1 -129 -5 -163 -10c-6 -1 -9 0 -6 7l12 31c4 7 6 11 10 9c12 -2 26 -4 50 -5l97 -2
c-2 97 -2 173 -2 178c-72 -1 -127 -5 -161 -10c-6 -1 -9 1 -6 8l12 30c4 7 5 10 9 9c12 -2 32 -5 56 -5l90 -2c-1 109 -2 131 -3 146c0 4 -2 20 -3 23s-1 7 3 11c10 9 30 21 42 31c5 4 8 5 10 5s3 -1 3 -7c-2 -33 -7 -132 -9 -209l118 2c35 1 52 4 59 5c5 2 7 -1 5 -5
l-18 -36c-2 -5 -4 -7 -9 -7s-42 8 -156 11c-2 -53 -2 -107 -3 -178z" />
    <glyph glyph-name="periodcentered" unicode="&#xb7;" horiz-adv-x="244" 
d="M74 397c12 0 59 -8 94 -16c14 -3 21 -7 21 -12s-3 -10 -5 -14c-20 -33 -49 -57 -78 -83c-5 -4 -11 -10 -14 -10c-1 0 -4 2 -4 4c0 3 3 10 5 14c5 17 7 42 7 56c0 32 -16 43 -24 47c-6 3 -10 4 -10 8s3 6 8 6z" />
    <glyph glyph-name="paragraph" unicode="&#xb6;" horiz-adv-x="749" 
d="M64 519c0 70 33 126 68 159c41 39 108 75 229 75c19 0 84 -3 106 -3c10 0 116 3 161 3c11 0 18 -1 18 -7c0 -4 -6 -7 -13 -7c-9 0 -17 -1 -25 -3c-26 -7 -34 -23 -36 -57c-2 -32 -2 -60 -2 -216v-393c0 -96 -1 -158 2 -200c0 -5 -3 -10 -7 -14c-13 -12 -35 -21 -48 -21
c-5 0 -6 2 -6 5c0 5 4 17 5 38c2 22 5 96 5 192v621c0 21 -3 32 -39 32c-23 0 -35 -3 -37 -30c-2 -39 -1 -74 -1 -230v-389c0 -96 -1 -200 3 -242c1 -5 -2 -9 -6 -13c-13 -12 -35 -21 -50 -21c-4 0 -8 1 -8 6c0 2 3 10 6 38c4 41 6 136 6 232v609c0 30 -1 36 -24 36
c-33 0 -73 -19 -97 -57c-29 -45 -35 -110 -35 -143c0 -92 28 -161 75 -192c17 -11 29 -8 29 -19c0 -9 -20 -8 -32 -8c-142 0 -247 85 -247 219z" />
    <glyph glyph-name="bullet" unicode="&#x2022;" horiz-adv-x="420" 
d="M135 431c17 0 83 -11 133 -22c21 -4 30 -10 30 -17c0 -8 -3 -15 -6 -20c-29 -47 -71 -82 -112 -119c-7 -6 -15 -14 -20 -14c-2 0 -5 2 -5 5c0 4 4 14 6 20c7 24 11 60 11 80c0 46 -23 62 -35 68c-8 4 -14 5 -14 11s4 8 12 8z" />
    <glyph glyph-name="quotesinglbase" unicode="&#x201a;" horiz-adv-x="210" 
d="M162 68c0 -67 -53 -146 -93 -193c-8 -10 -14 -13 -18 -13c-8 0 1 15 3 18c25 42 45 94 45 143c0 54 -15 69 -28 82c-5 4 -2 9 4 9c21 0 53 -7 67 -14c15 -8 20 -15 20 -32z" />
    <glyph glyph-name="quotedblbase" unicode="&#x201e;" horiz-adv-x="367" 
d="M162 68c0 -67 -53 -146 -93 -193c-8 -10 -14 -13 -18 -13c-8 0 1 15 3 18c25 42 45 94 45 143c0 54 -15 69 -28 82c-5 4 -2 9 4 9c21 0 53 -7 67 -14c15 -8 20 -15 20 -32zM319 68c0 -67 -53 -146 -93 -193c-8 -10 -14 -13 -18 -13c-8 0 1 15 3 18c25 42 45 94 45 143
c0 54 -15 69 -28 82c-5 4 -2 9 4 9c21 0 53 -7 67 -14c15 -8 20 -15 20 -32z" />
    <glyph glyph-name="quotedblright" unicode="&#x201d;" horiz-adv-x="367" 
d="M162 774c0 -67 -53 -146 -93 -193c-8 -10 -14 -13 -18 -13c-8 0 1 15 3 18c25 42 45 94 45 143c0 54 -15 69 -28 82c-5 4 -2 9 4 9c21 0 53 -7 67 -14c15 -8 20 -15 20 -32zM319 774c0 -67 -53 -146 -93 -193c-8 -10 -14 -13 -18 -13c-8 0 1 15 3 18c25 42 45 94 45 143
c0 54 -15 69 -28 82c-5 4 -2 9 4 9c21 0 53 -7 67 -14c15 -8 20 -15 20 -32z" />
    <glyph glyph-name="guillemotright" unicode="&#xbb;" horiz-adv-x="588" 
d="M296 485l26 28c4 4 6 5 9 5c2 0 9 -5 26 -25c24 -29 119 -135 142 -158c10 -10 17 -18 17 -22c0 -3 -7 -10 -16 -18c-38 -33 -152 -144 -192 -180c-9 -9 -14 -12 -18 -12c-12 0 5 20 8 23c42 52 129 143 157 179c-18 25 -106 114 -148 158c-11 11 -15 13 -15 15s2 5 4 7z
M82 485l26 27c4 4 6 6 9 6c2 0 9 -5 26 -25c24 -29 119 -135 142 -158c10 -10 17 -18 17 -22c0 -3 -7 -10 -16 -18c-38 -33 -152 -144 -192 -180c-9 -9 -14 -12 -18 -12c-11 0 6 20 8 23c42 52 129 143 157 179c-18 25 -106 114 -148 158c-11 11 -15 13 -15 15s2 5 4 7z" />
    <glyph glyph-name="ellipsis" unicode="&#x2026;" horiz-adv-x="915" 
d="M138 -8c-35 0 -52 29 -52 53c0 23 17 53 53 53c29 0 51 -21 51 -52s-22 -54 -52 -54zM464 -8c-35 0 -52 29 -52 53c0 23 17 53 53 53c29 0 51 -21 51 -52s-22 -54 -52 -54zM790 -8c-35 0 -52 29 -52 53c0 23 17 53 53 53c29 0 51 -21 51 -52s-22 -54 -52 -54z" />
    <glyph glyph-name="perthousand" unicode="&#x2030;" horiz-adv-x="1216" 
d="M285 -4l-48 -7c-10 -2 -9 4 -6 10c95 213 291 678 300 698c-60 -3 -208 -16 -224 -15v-2c34 -24 62 -75 62 -136c0 -86 -52 -181 -164 -181c-110 0 -158 93 -158 167c0 88 55 182 170 182c161 0 336 22 361 22c4 0 6 0 6 -3c0 -5 -4 -14 -10 -28l-280 -695
c-4 -9 -4 -11 -9 -12zM209 389c73 0 101 66 101 142c0 74 -36 155 -103 155c-72 0 -101 -66 -101 -143c0 -74 34 -154 103 -154zM615 0c-110 0 -158 93 -158 167c0 87 48 182 164 182c108 0 158 -93 158 -168c0 -86 -50 -181 -164 -181zM618 27c73 0 102 65 102 141
c0 74 -36 154 -103 154c-72 0 -101 -65 -101 -142c0 -74 33 -153 102 -153zM1005 0c-110 0 -158 93 -158 167c0 87 48 182 164 182c108 0 158 -93 158 -168c0 -86 -50 -181 -164 -181zM1008 27c73 0 102 65 102 141c0 74 -36 154 -103 154c-72 0 -101 -65 -101 -142
c0 -74 33 -153 102 -153z" />
    <glyph glyph-name="questiondown" unicode="&#xbf;" horiz-adv-x="538" 
d="M241 -17c-132 0 -181 84 -181 156c0 117 76 168 172 287c37 47 41 63 41 80c0 15 -4 33 -16 52c-6 9 -8 14 -8 17c0 4 2 8 6 8c9 0 31 -20 43 -35c20 -25 29 -41 29 -59c0 -14 -7 -31 -22 -50c-23 -30 -47 -55 -69 -83c-70 -89 -88 -144 -88 -210c0 -49 26 -129 117 -129
c49 0 82 19 98 39c24 29 32 59 35 93c1 10 3 17 8 17s7 -3 8 -10c3 -14 4 -78 4 -117c0 -6 -1 -10 -11 -16c-30 -18 -89 -40 -166 -40zM264 767c35 0 52 -29 52 -53c0 -23 -17 -53 -53 -53c-29 0 -51 21 -51 52s22 54 52 54z" />
    <glyph glyph-name="grave" unicode="`" horiz-adv-x="500" 
d="M311 716c0 -2 -1 -2 -5 -2c-16 0 -133 66 -185 102c-9 7 -15 11 -14 15c0 3 1 5 10 8c11 5 39 14 46 15c12 2 13 0 24 -11c21 -21 74 -80 116 -115c6 -5 8 -9 8 -12z" />
    <glyph glyph-name="acute" unicode="&#xb4;" horiz-adv-x="500" 
d="M353 850c10 -8 23 -19 33 -35c6 -9 1 -12 -3 -12c-3 -1 -23 -5 -37 -11c-45 -21 -98 -51 -128 -69c-2 -1 -21 -14 -21 -4c0 3 2 7 7 12c25 26 83 90 106 108c12 10 23 17 26 17c5 0 10 0 17 -6z" />
    <glyph glyph-name="circumflex" unicode="&#x2c6;" horiz-adv-x="500" 
d="M258 848c4 0 7 -2 17 -7c16 -11 102 -69 118 -81c10 -7 11 -9 11 -11c0 -3 -2 -3 -5 -5l-35 -22c-3 -2 -6 -4 -10 0c-24 21 -79 58 -98 68c-5 3 -9 4 -12 4c-2 0 -6 -1 -14 -5c-24 -13 -75 -43 -107 -62c-8 -5 -15 -8 -19 -8c-6 0 -8 5 2 12c36 27 122 97 135 108
c9 6 14 9 17 9z" />
    <glyph glyph-name="tilde" unicode="&#x2dc;" horiz-adv-x="500" 
d="M315 732c-40 0 -107 43 -149 43c-27 0 -43 -9 -61 -29c-7 -9 -9 -9 -13 -9c-3 0 -5 5 1 14c27 41 60 69 90 69c14 0 42 -5 87 -23c28 -11 47 -17 61 -17c30 0 47 10 70 34c5 6 9 8 11 8c4 0 5 -7 1 -13c-22 -35 -57 -77 -98 -77z" />
    <glyph glyph-name="macron" unicode="&#xaf;" horiz-adv-x="500" 
d="M122 778h265c8 0 10 -6 8 -11l-8 -24c-1 -4 -4 -6 -9 -6h-265c-7 0 -11 1 -10 7l8 28c1 5 5 6 11 6z" />
    <glyph glyph-name="breve" unicode="&#x2d8;" horiz-adv-x="500" 
d="M94 803c0 2 1 6 5 11c7 8 24 22 29 22c3 0 4 -1 5 -5c15 -27 59 -60 126 -60c60 0 96 15 131 54c7 8 10 10 14 10s2 -10 -6 -21c-38 -49 -91 -83 -161 -83c-49 0 -87 13 -119 36c-17 13 -24 25 -24 36z" />
    <glyph glyph-name="dotaccent" unicode="&#x2d9;" horiz-adv-x="500" 
d="M249 748c-28 0 -42 21 -42 41c0 19 15 43 42 43c24 0 43 -18 43 -42c0 -22 -17 -42 -43 -42z" />
    <glyph glyph-name="dieresis" unicode="&#xa8;" horiz-adv-x="500" 
d="M361 750c-27 0 -39 21 -39 39c0 16 12 39 40 39c22 0 38 -15 38 -37c0 -24 -14 -41 -39 -41zM138 750c-28 0 -38 22 -38 39s11 39 39 39c22 0 38 -15 38 -37c0 -24 -15 -41 -39 -41z" />
    <glyph glyph-name="ring" unicode="&#x2da;" horiz-adv-x="500" 
d="M230 713c-45 0 -72 26 -72 58c0 43 45 80 110 80c48 0 74 -24 74 -56c0 -52 -58 -82 -112 -82zM197 782c0 -31 27 -49 51 -49c35 0 54 22 54 50c0 24 -16 47 -52 47c-24 0 -53 -14 -53 -48z" />
    <glyph glyph-name="cedilla" unicode="&#xb8;" horiz-adv-x="500" 
d="M268 1h36c-22 -19 -55 -49 -68 -60c46 -7 105 -25 105 -77c0 -55 -71 -89 -151 -89c-7 0 -13 4 -13 8c0 3 6 5 19 8c45 9 77 30 77 66c0 30 -22 53 -79 62c-6 1 -11 4 -11 7s6 9 12 13z" />
    <glyph glyph-name="hungarumlaut" unicode="&#x2dd;" horiz-adv-x="500" 
d="M202 816c11 14 15 19 19 19s9 -1 14 -3c9 -4 34 -15 44 -22c6 -4 6 -7 3 -8c-4 -2 -14 -7 -28 -16c-30 -19 -77 -53 -101 -75c-7 -8 -12 -9 -16 -9c-3 0 -4 4 -2 8c4 10 57 92 67 106zM387 817c11 12 16 18 19 18c4 0 10 -1 15 -4c9 -4 32 -16 43 -23c6 -5 4 -10 1 -11
c-4 -1 -15 -6 -29 -13c-33 -19 -82 -51 -108 -74c-8 -7 -12 -8 -15 -8c-2 0 -5 3 -2 7c2 10 61 89 76 108z" />
    <glyph glyph-name="ogonek" unicode="&#x2db;" horiz-adv-x="500" 
d="M298 -169c14 0 32 3 46 11c9 5 14 4 14 0c0 -5 -2 -7 -7 -13c-13 -15 -43 -38 -94 -38c-50 0 -80 32 -80 72c0 53 68 109 133 139h22c-52 -31 -85 -75 -85 -118c0 -37 21 -53 51 -53z" />
    <glyph glyph-name="caron" unicode="&#x2c7;" horiz-adv-x="500" 
d="M240 713c-3 0 -7 2 -17 7c-16 11 -101 68 -117 80c-10 7 -11 9 -11 11c0 3 2 3 5 5l35 22c3 2 6 4 10 0c24 -21 80 -59 99 -69c5 -3 9 -4 12 -4c2 0 6 1 14 5c24 13 75 43 107 62c8 6 15 8 19 8c6 0 8 -5 -2 -12c-37 -27 -124 -95 -137 -106c-9 -6 -14 -9 -17 -9z" />
    <glyph glyph-name="uni00200326" horiz-adv-x="500" 
d="M219 -117c0 9 35 48 67 48c14 0 32 -25 32 -60c0 -34 -20 -86 -78 -130c-17 -13 -27 -15 -27 -7c0 3 3 8 7 12c36 35 41 56 41 78s-15 36 -38 51c-3 2 -4 4 -4 8z" />
    <glyph glyph-name="uni00200323" horiz-adv-x="500" 
d="M249 -186c-28 0 -42 21 -42 42c0 19 15 42 42 42c24 0 43 -17 43 -41c0 -22 -17 -43 -43 -43z" />
    <glyph glyph-name="emdash" unicode="&#x2014;" horiz-adv-x="930" 
d="M858 314h-787c-34 0 -39 1 -40 4c-2 3 1 30 6 38c3 4 6 4 33 4h788c36 0 39 -1 40 -5c1 -5 -1 -28 -6 -36c-2 -4 -7 -5 -34 -5z" />
    <glyph glyph-name="uni2014.alt" horiz-adv-x="711" 
d="M640 314h-569c-38 0 -39 3 -40 6c-2 3 1 28 6 36c3 4 6 4 33 4h570c36 0 39 -1 40 -5c1 -5 -1 -28 -6 -36c-2 -4 -7 -5 -34 -5z" />
    <glyph glyph-name="ordfeminine" unicode="&#xaa;" horiz-adv-x="438" 
d="M330 553l-2 -133c0 -44 9 -64 34 -64c6 0 13 1 20 3c5 2 7 0 7 -2s-2 -6 -4 -9c-15 -14 -38 -21 -56 -21c-38 0 -58 21 -61 45c-22 -22 -60 -47 -104 -47c-62 0 -95 43 -95 93c0 73 89 104 202 119v27c0 42 -13 104 -84 104c-50 0 -81 -26 -88 -70c-1 -6 -3 -10 -6 -10
c-2 0 -5 4 -5 11c0 11 2 47 2 58c0 10 2 11 7 14c13 6 28 11 43 17c25 9 47 13 69 13c95 0 123 -74 121 -148zM268 413l3 98c-120 -15 -141 -47 -141 -86c0 -43 34 -61 67 -61s52 16 65 30c5 6 6 10 6 19z" />
    <glyph glyph-name="ordmasculine" unicode="&#xba;" horiz-adv-x="478" 
d="M236 326c-123 0 -186 94 -186 187c0 85 57 188 192 188c107 0 186 -71 186 -180c0 -110 -76 -195 -192 -195zM363 507c0 103 -60 163 -131 163c-66 0 -116 -45 -116 -146c0 -104 60 -166 130 -166c47 0 117 30 117 149z" />
    <glyph glyph-name="AE" unicode="&#xc6;" horiz-adv-x="912" 
d="M522 750c7 0 206 0 229 1c22 1 40 3 46 6s8 4 11 4s4 -4 4 -9c0 -7 -6 -19 -8 -47c-1 -15 -2 -34 -4 -60c-1 -10 -4 -17 -8 -17c-6 0 -8 5 -8 13c0 13 -2 25 -5 33c-7 23 -28 33 -72 37c-17 2 -126 3 -137 3c-4 0 -6 -3 -6 -10v-317c0 -7 1 -10 6 -10c13 0 136 0 159 2
c27 2 40 5 50 17c5 6 8 10 12 10c3 0 5 -2 5 -8s-5 -23 -8 -56c-3 -31 -3 -54 -4 -68c-1 -10 -3 -15 -7 -15c-6 0 -7 8 -7 16c0 9 -1 19 -4 28c-4 15 -16 29 -52 33c-27 3 -126 5 -143 5c-5 0 -7 -3 -7 -7v-88c0 -34 -1 -109 0 -130c2 -41 8 -63 33 -73c17 -7 44 -9 83 -9
c30 0 63 1 90 9c32 10 43 31 51 74c2 11 4 15 9 15c6 0 6 -8 6 -15c0 -8 -8 -76 -13 -97c-7 -26 -15 -26 -54 -26c-74 0 -107 2 -146 3c-40 1 -56 3 -101 3c-46 0 -70 -4 -96 -3c-11 0 -16 2 -16 8c0 3 5 5 11 6c10 1 16 1 23 3c21 5 34 19 36 94c1 39 2 90 2 179v46
c0 6 -3 8 -9 8h-176c-8 0 -13 0 -18 -7c-11 -15 -97 -156 -114 -185c-34 -56 -43 -83 -43 -101c0 -30 39 -37 64 -37c7 0 12 -2 12 -7c0 -4 -8 -7 -17 -7c-56 0 -115 3 -125 3c-8 0 -65 -3 -113 -3c-10 0 -13 3 -13 8c0 4 4 6 11 6c62 0 106 60 147 117
c32 44 184 282 367 569c18 28 20 35 22 42c2 8 3 14 10 14s23 -3 35 -3zM313 377h160c7 0 9 3 9 8v270c0 6 -5 6 -9 0c-18 -27 -156 -253 -164 -269c-4 -7 -2 -9 4 -9z" />
    <glyph glyph-name="Lslash" unicode="&#x141;" horiz-adv-x="602" 
d="M272 364v-79c0 -147 4 -211 22 -229c16 -16 42 -23 120 -23c53 0 97 1 121 30c13 16 23 41 26 60c1 8 3 13 9 13c5 0 6 -4 6 -15s-7 -71 -15 -100c-7 -23 -10 -27 -63 -27c-86 0 -171 6 -268 6c-31 0 -61 -3 -98 -3c-11 0 -16 2 -16 8c0 3 2 6 8 6c9 0 21 2 30 4
c20 4 25 26 29 55c5 42 5 121 5 217v32l-88 -47c-3 -2 -5 -2 -7 1c-5 7 -9 25 -9 30c0 3 0 3 2 5l102 55v100c0 156 0 184 -2 216c-2 34 -10 50 -43 57c-8 2 -25 3 -34 3c-4 0 -8 2 -8 6c0 6 5 8 16 8c45 0 108 -3 113 -3s78 3 108 3c11 0 16 -2 16 -8c0 -4 -4 -6 -8 -6
c-7 0 -21 -1 -33 -3c-29 -5 -37 -22 -39 -57c-2 -32 -2 -60 -2 -216v-54l155 84c2 1 4 1 6 -1c5 -7 11 -22 13 -30c0 -1 1 -4 -1 -5z" />
    <glyph glyph-name="Oslash" unicode="&#xd8;" horiz-adv-x="915" 
d="M829 741l-79 -85c63 -64 101 -154 101 -264c0 -224 -158 -409 -399 -409c-107 0 -189 32 -250 83l-88 -95c-2 -2 -5 -2 -7 0c-9 6 -19 16 -24 23c-2 3 -3 5 0 9l86 93c-72 77 -105 183 -105 280c0 162 118 391 394 391c102 0 192 -29 260 -82l77 83c2 2 5 2 9 0
c8 -4 18 -13 24 -19c3 -3 3 -6 1 -8zM227 158l441 474c-57 66 -135 101 -217 101c-167 0 -292 -110 -292 -329c0 -99 25 -183 68 -246zM694 596l-440 -474c58 -65 136 -101 225 -101c90 0 276 52 276 343c0 95 -23 173 -61 232z" />
    <glyph glyph-name="OE" unicode="&#x152;" horiz-adv-x="1187" 
d="M159 404c0 -233 140 -383 319 -383c90 0 277 52 277 343c0 240 -147 369 -305 369c-166 0 -291 -110 -291 -329zM797 750c3 0 206 0 229 1c22 1 40 3 46 6s8 4 11 4s4 -4 4 -9c0 -7 -6 -19 -8 -47c-1 -15 -2 -34 -4 -60c-1 -10 -4 -17 -8 -17c-6 0 -8 5 -8 13
c0 13 -2 25 -5 33c-7 23 -28 32 -72 37c-17 2 -130 3 -141 3c-4 0 -6 -3 -6 -10v-276c0 -7 1 -10 6 -10c13 0 140 0 163 2c27 2 40 5 50 17c5 6 8 10 12 10c3 0 5 -2 5 -8s-5 -23 -8 -56c-3 -31 -3 -54 -4 -68c-1 -10 -3 -15 -7 -15c-6 0 -7 8 -7 16c0 9 -1 19 -4 28
c-4 15 -16 29 -52 33c-27 3 -130 5 -147 5c-5 0 -7 -3 -7 -7v-88c0 -34 -1 -150 0 -171c2 -41 8 -63 33 -73c17 -7 48 -9 87 -9c30 0 63 1 90 9c32 10 43 31 51 74c2 11 4 15 9 15c6 0 6 -8 6 -15c0 -8 -8 -76 -13 -97c-7 -26 -15 -26 -54 -26c-74 0 -111 2 -150 3
c-40 1 -61 3 -98 3c-11 0 -21 -3 -33 -3c-6 0 -10 3 -10 7c1 10 5 26 5 121c-27 -30 -112 -142 -306 -142c-273 0 -388 211 -388 392c0 166 120 391 400 392c159 0 247 -73 288 -125c2 -3 4 -2 4 0c0 81 -2 95 -2 102c0 5 4 9 10 9c9 0 21 -3 33 -3z" />
    <glyph glyph-name="Eth" unicode="&#xd0;" horiz-adv-x="927" 
d="M188 405v58c0 156 0 184 -2 216c-2 34 -7 50 -40 57c-8 2 -25 3 -34 3c-7 0 -11 2 -11 6c0 6 5 8 16 8c45 0 108 -3 113 -3c12 0 75 3 135 3c99 0 282 9 401 -114c50 -52 97 -135 97 -254c0 -126 -52 -223 -108 -282c-43 -45 -133 -115 -303 -115c-43 0 -96 3 -139 6
c-44 3 -78 6 -83 6c-2 0 -19 0 -40 -1c-20 0 -43 -2 -58 -2c-11 0 -16 2 -16 8c0 3 2 6 10 6c11 1 19 2 28 4c20 4 25 26 29 55c5 42 5 121 5 217v81h-100c-8 0 -9 1 -8 8c1 8 3 17 5 23c2 5 3 6 17 6h86zM272 368v-13c0 -106 1 -198 2 -217c1 -25 3 -65 11 -76
c13 -19 52 -40 170 -40c93 0 179 34 238 93c52 51 80 147 80 239c0 127 -55 209 -96 252c-94 99 -208 113 -327 113c-20 0 -57 -3 -65 -7c-9 -4 -12 -9 -12 -20c-1 -34 -1 -136 -1 -213v-74h193c8 0 9 -2 8 -7c-1 -6 -4 -19 -7 -25c-2 -4 -5 -5 -15 -5h-179z" />
    <glyph glyph-name="Thorn" unicode="&#xde;" horiz-adv-x="646" 
d="M262 679c-1 -42 -2 -71 -2 -91c29 2 48 4 87 4c125 0 167 -42 184 -57c23 -20 51 -64 51 -130c0 -131 -104 -226 -246 -226c-5 0 -16 0 -21 1c-5 0 -11 2 -11 7c0 8 6 9 27 9c97 0 173 68 173 163c0 33 -3 100 -56 154s-114 50 -137 50c-17 0 -34 -2 -43 -6
c-6 -2 -8 -9 -8 -19v-251c0 -96 0 -175 5 -217c3 -29 9 -51 39 -55c14 -2 35 -4 41 -4c9 0 12 -3 12 -6c0 -5 -4 -8 -15 -8c-55 0 -117 3 -122 3s-68 -3 -98 -3c-11 0 -16 2 -16 8c0 3 2 6 11 6c6 0 17 1 26 3c20 4 26 27 30 56c5 42 5 121 5 217v176c0 156 0 184 -2 216
c-2 34 -12 51 -34 56c-11 3 -24 4 -31 4c-4 0 -8 2 -8 6c0 6 5 8 16 8c33 0 96 -3 101 -3s80 3 110 3c11 0 16 -2 16 -8c0 -4 -4 -6 -8 -6c-7 0 -21 -1 -33 -3c-27 -5 -42 -19 -43 -57z" />
    <glyph glyph-name="Q.alt" horiz-adv-x="920" 
d="M607 11c-36 -17 -99 -28 -152 -28c-277 0 -391 213 -391 393c0 162 118 391 394 391c225 0 393 -143 393 -375c0 -190 -115 -297 -181 -340l211 -137c382 -248 582 -278 692 -278c144 0 229 23 333 98c6 4 12 7 15 7c4 0 7 -4 7 -7c0 -4 -5 -9 -11 -14
c-118 -95 -266 -132 -424 -132c-196 0 -391 79 -710 300zM479 21c90 0 276 52 276 343c0 240 -146 369 -304 369c-167 0 -292 -110 -292 -329c0 -233 140 -383 320 -383z" />
    <glyph glyph-name="N_N" horiz-adv-x="1547" 
d="M798 607l-2 -546c0 -66 -2 -71 -9 -71c-8 0 -20 11 -73 64c-11 10 -155 157 -261 271c-116 125 -229 251 -261 287l13 -479c2 -82 12 -108 39 -116c19 -5 41 -6 50 -6c5 0 8 -2 8 -6c0 -6 -6 -8 -18 -8c-57 0 -97 3 -106 3s-51 -3 -96 -3c-10 0 -16 1 -16 8c0 4 3 6 8 6
c8 0 26 1 41 6c25 7 30 36 30 127v148c0 361 2 231 1 425c0 39 3 50 11 50s25 -22 35 -32c15 -17 164 -178 318 -343c99 -106 208 -228 240 -261l-4 586c0 39 3 50 11 50s25 -22 35 -32c15 -17 164 -178 318 -343c99 -106 208 -228 240 -261l-11 508c-1 65 -8 87 -39 95
c-18 4 -34 5 -43 5c-11 0 -14 3 -14 7c0 6 8 7 20 7c45 0 93 -3 104 -3s44 3 85 3c11 0 18 -1 18 -7c0 -4 -4 -6 -11 -7c-8 -1 -14 -2 -26 -4c-28 -6 -35 -21 -35 -90l-2 -584c0 -66 -2 -71 -9 -71c-8 0 -20 11 -73 64c-11 10 -155 157 -261 271c-116 125 -223 246 -255 282
z" />
    <glyph glyph-name="T_T" horiz-adv-x="1185" 
d="M876 710v-423c0 -108 1 -180 3 -222c2 -32 10 -45 40 -50c10 -2 25 -3 39 -5c11 -1 16 -3 16 -7s-6 -6 -20 -6c-47 0 -117 3 -125 3c-12 0 -70 -3 -98 -3c-13 0 -19 2 -19 7c0 4 7 5 16 6s21 3 31 5c20 4 24 19 27 48c3 42 4 95 4 224v423h-398v-423
c0 -108 1 -180 3 -222c2 -32 10 -45 40 -50c10 -2 24 -3 39 -5c11 -1 16 -3 16 -7s-6 -6 -20 -6c-47 0 -117 3 -125 3c-12 0 -70 -3 -98 -3c-13 0 -19 2 -19 7c0 4 7 5 16 6s20 3 30 5c20 4 25 19 28 48c3 42 4 95 4 224v423c-47 0 -86 0 -147 -2c-62 -1 -86 -8 -102 -32
c-11 -17 -14 -24 -17 -31c-3 -8 -6 -10 -10 -10c-3 0 -5 3 -5 9c0 10 20 96 22 104c2 6 6 19 10 19c7 0 17 -10 44 -12c29 -3 67 -5 79 -5h869c32 0 55 2 71 5c15 2 24 5 28 5c5 0 5 -6 5 -12c0 -30 -3 -99 -3 -110c0 -9 -3 -13 -7 -13c-5 0 -7 3 -8 17c0 4 -1 7 -1 11
c-3 30 -27 53 -123 55c-37 1 -97 2 -135 2z" />
    <glyph glyph-name="uni1E9E" unicode="&#x1e9e;" horiz-adv-x="780" 
d="M165 287v238c0 122 -2 170 -5 202c0 5 1 9 7 10c40 8 115 22 199 22c196 0 254 -87 254 -155c0 -91 -74 -138 -149 -164c166 -83 223 -152 223 -251c0 -55 -23 -116 -86 -159c-39 -28 -94 -45 -149 -45c-47 0 -85 7 -115 22c-13 6 -16 15 -16 27c0 46 4 79 4 97
c0 14 5 19 8 19c5 0 7 -8 7 -15c1 -18 3 -27 6 -42c14 -55 77 -72 118 -72c97 0 147 66 147 133c0 59 -23 106 -100 163c-78 59 -125 74 -158 90c-10 4 -12 8 -12 12c0 5 2 9 13 12c141 38 177 87 177 152c0 68 -51 135 -203 135c-29 0 -51 -2 -77 -8c-3 -1 -5 -5 -5 -10
c-1 -24 -4 -118 -4 -178v-235c0 -230 9 -266 15 -278c2 -3 2 -11 -4 -11c-27 0 -52 2 -57 2c-11 0 -65 -3 -93 -3c-13 0 -17 2 -17 6s2 7 11 8s13 0 23 3c22 4 31 27 33 56c4 42 5 88 5 217z" />
    <glyph glyph-name="ae" unicode="&#xe6;" horiz-adv-x="807" 
d="M458 637c5 0 186 0 206 1s34 3 39 6c6 3 8 4 12 4c2 0 3 -2 3 -7c0 -6 -6 -22 -8 -47c-1 -17 -2 -31 -3 -50c0 -9 -2 -15 -7 -15s-6 4 -7 11s-2 20 -5 27c-6 20 -17 30 -67 33c-13 1 -94 2 -114 2c-3 0 -5 -2 -5 -8v-265c0 -6 1 -10 6 -10c12 0 114 1 135 3
c23 1 38 4 46 15c4 6 7 8 11 8c2 0 4 -1 4 -6s-4 -24 -7 -53c-3 -28 -3 -48 -4 -61c-1 -8 -3 -11 -7 -11c-5 0 -6 6 -6 13c0 6 -1 16 -3 24c-4 13 -10 27 -48 30c-23 2 -104 4 -120 4c-6 0 -7 -3 -7 -7v-35c0 -31 -1 -119 0 -136c2 -37 7 -56 28 -65c15 -7 39 -9 73 -9
c19 0 51 -1 76 6c30 9 37 29 45 66c2 10 5 14 9 14c6 0 6 -9 6 -15c0 -7 -8 -70 -11 -87c-4 -20 -11 -22 -44 -22c-66 0 -94 2 -129 2c-35 1 -81 3 -118 3c-23 0 -42 -3 -66 -3c-9 0 -14 2 -14 7c0 4 4 7 9 7c9 1 13 1 20 3c18 4 30 17 34 79c1 34 2 73 2 149v36
c0 6 -3 7 -8 7h-151c-7 0 -13 1 -17 -5c-9 -13 -83 -125 -97 -149c-31 -47 -41 -71 -41 -86c0 -23 13 -32 61 -34c7 0 11 -2 11 -7c0 -3 -2 -7 -12 -7c-52 0 -111 3 -119 3c-4 0 -57 -3 -104 -3c-8 0 -11 3 -11 7s3 7 10 7c57 0 100 57 135 106c24 30 182 265 319 474
c16 24 17 30 19 35c3 8 4 14 10 14s20 -3 31 -3zM276 319h138c6 0 8 3 8 7v226c0 4 -5 4 -8 -1c-15 -21 -134 -213 -139 -223c-4 -6 -4 -9 1 -9z" />
    <glyph glyph-name="dotlessi" unicode="&#x131;" horiz-adv-x="392" 
d="M155 244v150c0 132 0 156 -2 183s-8 42 -29 46c-10 2 -17 2 -23 3c-7 1 -11 3 -11 7c0 5 4 7 15 7c31 0 88 -3 91 -3c4 0 62 3 90 3c10 0 15 -2 15 -7c0 -4 -3 -6 -11 -7c-6 -1 -11 -1 -18 -2c-29 -4 -32 -19 -34 -48c-2 -27 -1 -50 -1 -182v-150c0 -77 -1 -147 4 -183
c4 -29 8 -40 34 -46c13 -3 34 -4 38 -4c9 -1 11 -3 11 -7s-4 -7 -14 -7c-51 0 -109 3 -114 3c-3 0 -62 -3 -90 -3c-9 0 -16 2 -16 7c0 4 4 7 13 7c5 0 16 1 24 3c17 4 20 24 23 48c5 36 5 107 5 182z" />
    <glyph glyph-name="lslash" unicode="&#x142;" horiz-adv-x="533" 
d="M245 310v-68c0 -115 4 -173 21 -189c16 -14 36 -20 105 -20c44 0 84 0 106 28c10 15 17 35 19 50c1 8 3 12 8 12c4 0 6 -3 6 -13s-6 -67 -12 -90c-6 -20 -5 -25 -53 -25c-68 0 -143 5 -243 5c-33 0 -53 -3 -88 -3c-10 0 -16 2 -16 8c0 3 3 6 11 6s16 0 24 2
c17 3 23 23 26 47c6 38 4 107 4 184v24l-76 -40c-3 -2 -4 -2 -6 1c-4 6 -8 23 -8 29c0 2 0 2 2 4l88 46v86c0 132 0 154 -2 181c-2 28 -6 46 -40 50c-6 1 -17 1 -25 1c-7 0 -11 3 -11 7c0 5 5 7 15 7c42 0 102 -3 104 -3c14 0 75 3 103 3c10 0 13 -3 13 -7s-5 -7 -11 -7
c-7 0 -17 -1 -27 -2c-28 -4 -34 -20 -36 -49c-2 -27 -1 -49 -1 -181v-43l136 72c2 1 4 1 5 -1c5 -6 11 -20 13 -28c0 0 1 -3 -1 -4z" />
    <glyph glyph-name="oslash" unicode="&#xf8;" 
d="M736 629l-70 -72c55 -54 88 -130 88 -224c0 -191 -141 -347 -354 -347c-94 0 -167 27 -221 69l-78 -81c-2 -2 -4 -2 -6 0c-9 5 -18 14 -23 21c-2 2 -2 4 0 8l77 79c-65 66 -94 156 -94 238c0 133 103 332 350 332c89 0 169 -24 230 -69l68 71c2 1 5 1 9 0
c8 -5 18 -12 23 -18c2 -3 2 -5 1 -7zM203 138l383 396c-48 57 -116 87 -187 87c-139 0 -251 -86 -251 -275c0 -83 19 -154 55 -208zM611 500l-383 -395c48 -54 115 -85 197 -85c67 0 235 34 235 288c0 78 -19 142 -49 192z" />
    <glyph glyph-name="oe" unicode="&#x153;" horiz-adv-x="1048" 
d="M148 346c0 -210 124 -326 275 -326c87 0 238 50 238 286c0 200 -122 315 -264 315c-138 0 -249 -88 -249 -275zM701 0c-9 0 -26 -1 -36 -3c-5 -1 -5 3 -5 6c1 4 4 52 4 88c-25 -19 -99 -105 -264 -105c-242 0 -345 179 -345 334c0 141 106 331 355 332
c141 1 215 -60 248 -96c3 -3 4 0 5 0c0 26 -2 70 -2 75s1 8 8 8c8 0 21 -2 31 -2c5 0 185 0 205 1s34 3 39 6c6 3 8 4 12 4c2 0 3 -2 3 -7c0 -6 -6 -22 -8 -47c-1 -17 -2 -31 -3 -50c0 -9 -2 -15 -7 -15s-6 4 -7 11s-2 20 -5 27c-6 20 -17 30 -67 33c-13 1 -91 2 -114 2
c-3 0 -5 -2 -5 -8v-227c0 -6 1 -10 6 -10c12 0 114 1 135 3c23 1 38 4 46 15c4 6 7 8 11 8c2 0 4 -1 4 -6s-4 -24 -7 -53c-3 -28 -3 -48 -4 -61c-1 -8 -3 -11 -7 -11c-5 0 -6 6 -6 13c0 6 -1 16 -3 24c-4 13 -10 27 -48 30c-23 2 -104 4 -120 4c-6 0 -7 -3 -7 -7v-73
c0 -31 -1 -119 0 -136c1 -37 7 -56 28 -65c15 -7 39 -9 73 -9c19 0 51 -1 76 6c30 9 37 29 45 66c2 10 5 14 9 14c6 0 6 -9 6 -15c0 -7 -8 -70 -11 -87c-4 -20 -11 -22 -44 -22c-66 0 -94 2 -129 2c-35 1 -58 3 -95 3z" />
    <glyph glyph-name="eth" unicode="&#xf0;" 
d="M155 346v48c0 132 0 157 -2 183c-2 27 -10 41 -39 47c-6 1 -21 2 -29 2c-5 0 -10 3 -10 6c0 6 6 8 15 8c41 0 104 -3 107 -3c7 0 59 3 115 3c88 0 252 9 358 -98c44 -44 85 -114 85 -215c0 -106 -46 -189 -95 -239c-39 -39 -115 -98 -267 -98c-38 0 -87 2 -125 5
c-38 2 -69 5 -72 5c-2 0 -15 0 -34 -1c-19 0 -43 -2 -58 -2c-9 0 -14 2 -14 7c0 3 3 7 11 7s15 1 23 3c17 3 23 24 26 46c6 37 5 105 5 186v67h-77c-7 0 -8 1 -7 7c2 7 4 16 6 21c1 4 2 5 15 5h63zM237 313v-4c0 -90 1 -168 1 -183c1 -31 3 -58 10 -67
c11 -17 43 -38 147 -38c82 0 156 26 208 78c44 44 65 119 65 199c0 113 -52 182 -86 215c-85 85 -183 95 -282 95c-14 0 -45 -3 -51 -7c-8 -4 -11 -8 -11 -17c-1 -29 -1 -114 -1 -174v-64h172c7 0 8 -2 7 -6c-1 -5 -3 -18 -7 -23c-2 -3 -4 -4 -13 -4h-159z" />
    <glyph glyph-name="thorn" unicode="&#xfe;" horiz-adv-x="573" 
d="M235 244c0 -77 0 -148 4 -184c3 -23 9 -43 36 -46c11 -2 28 -3 33 -3c8 0 13 -3 13 -7s-4 -7 -14 -7c-51 0 -106 3 -111 3c-3 0 -62 -3 -90 -3c-9 0 -16 2 -16 7c0 4 3 7 12 7c5 0 15 0 22 2c17 3 24 18 27 48c4 36 4 108 4 183v150c0 132 0 155 -2 182s-9 43 -26 47
c-10 2 -21 4 -27 4c-5 0 -10 2 -10 5c0 6 4 8 15 8c31 0 88 -3 91 -3c4 0 74 3 102 3c10 0 14 -2 14 -7c0 -4 -6 -7 -10 -7c-6 0 -15 -1 -26 -2c-32 -4 -39 -16 -40 -49c-1 -35 -1 -59 -1 -75c19 2 42 3 75 3c113 0 147 -35 162 -47c20 -17 45 -54 45 -112
c0 -111 -92 -194 -217 -194c-4 0 -15 0 -19 1c-5 1 -9 3 -9 7c0 6 5 8 24 8c80 0 146 56 146 141c0 41 -5 83 -42 121c-40 42 -79 47 -125 47c-12 0 -27 -2 -33 -5c-5 -2 -7 -9 -7 -16v-210z" />
    <glyph glyph-name="q.alt" horiz-adv-x="814" 
d="M536 8c-25 -11 -84 -22 -133 -22c-247 0 -348 181 -348 335c0 133 103 331 350 331c200 0 349 -120 349 -319c0 -168 -107 -254 -157 -286l195 -122c337 -208 511 -228 598 -228c133 0 199 22 285 79c5 4 10 6 13 6s6 -3 6 -6c0 -4 -4 -8 -10 -12
c-100 -78 -228 -112 -375 -112c-176 0 -350 75 -614 250zM425 20c74 0 235 39 235 289c0 198 -122 312 -262 312c-139 0 -250 -86 -250 -276c0 -193 119 -325 277 -325z" />
    <glyph glyph-name="n_n" horiz-adv-x="1368" 
d="M708 500l-2 -454c0 -50 -2 -55 -9 -55s-17 7 -66 53c-4 2 -143 140 -230 225c-104 108 -204 212 -229 238l13 -391c2 -69 8 -95 33 -101c16 -4 33 -4 41 -4s12 -3 12 -7c0 -5 -5 -7 -16 -7c-54 0 -90 3 -97 3s-44 -3 -87 -3c-9 0 -15 1 -15 7c0 4 4 7 14 7c7 0 18 0 31 4
c22 7 27 34 27 107v489c0 31 3 41 11 41c7 0 24 -20 31 -27c9 -10 148 -152 288 -295c78 -76 178 -179 204 -203l-5 484c0 31 3 41 11 41c7 0 24 -20 31 -27c9 -10 148 -152 288 -295c78 -76 178 -179 204 -203l-11 416c-1 54 -7 72 -34 79c-17 3 -32 4 -39 4
c-10 0 -12 4 -12 8c0 5 8 6 18 6c43 0 85 -3 94 -3c10 0 41 3 80 3c11 0 14 -1 14 -6c0 -4 -3 -7 -9 -8s-14 -1 -25 -3c-23 -5 -30 -15 -30 -75l-2 -502c0 -50 -2 -55 -9 -55s-17 7 -66 53c-4 2 -143 140 -230 225c-104 108 -197 205 -222 231z" />
    <glyph glyph-name="t_t" horiz-adv-x="1053" 
d="M780 601v-357c0 -77 1 -148 5 -185c3 -24 5 -38 30 -44c12 -3 31 -4 39 -4s12 -3 12 -6c0 -5 -3 -8 -13 -8c-51 0 -110 3 -114 3s-63 -3 -89 -3c-11 0 -15 2 -15 7c0 3 3 7 11 7s14 0 22 1c19 3 22 15 26 49c4 36 4 108 4 183v357h-348v-357c0 -77 1 -148 5 -185
c3 -24 5 -38 30 -44c12 -3 31 -4 39 -4s12 -3 12 -6c0 -5 -3 -8 -13 -8c-51 0 -110 3 -114 3s-63 -3 -89 -3c-11 0 -15 2 -15 7c0 3 3 7 11 7s14 0 22 1c19 3 22 15 26 49c4 36 4 108 4 183v357c-41 0 -78 -2 -132 -3c-54 -3 -70 -6 -85 -27c-11 -15 -13 -26 -16 -31
c-2 -7 -5 -9 -9 -9c-3 0 -5 3 -5 8c-1 6 18 98 20 104c2 8 5 10 8 10c7 0 14 -4 36 -9c24 -6 52 -7 83 -7h769c27 0 40 2 54 4c15 2 25 5 29 5c5 0 5 -5 5 -9c0 -28 -2 -95 -2 -103c0 -9 -3 -12 -7 -12c-5 0 -7 3 -8 13c0 4 0 5 -1 12c-5 33 -26 51 -118 52
c-34 0 -74 2 -109 2z" />
    <glyph glyph-name="germandbls" unicode="&#xdf;" horiz-adv-x="700" 
d="M150 244v200c0 107 -2 145 -5 173c0 4 1 9 7 9c35 6 101 20 182 20c175 0 225 -75 225 -133c0 -75 -60 -116 -126 -139c141 -70 192 -126 192 -212c0 -49 -22 -103 -79 -139c-35 -24 -82 -36 -131 -36c-44 0 -83 9 -103 20c-10 6 -15 14 -15 24c0 41 4 78 5 88
c1 12 5 14 8 14c4 0 7 -6 7 -12c1 -14 2 -21 5 -34c11 -48 68 -64 108 -64c78 0 121 54 121 106c0 49 -19 88 -86 136c-71 53 -112 65 -140 78c-10 5 -12 8 -12 11c0 6 2 9 13 11c123 34 154 74 154 129c0 57 -43 113 -175 113c-25 0 -42 -2 -66 -7c-2 -1 -4 -5 -4 -9
c0 -21 -4 -102 -4 -149v-198c0 -194 8 -220 14 -237c1 -2 2 -9 -3 -9c-7 0 -51 2 -55 2c-10 0 -62 -3 -87 -3c-9 0 -14 2 -14 6s2 7 10 8s10 1 19 2c19 2 27 15 30 48c3 36 5 76 5 183z" />
    <glyph glyph-name="onesuperior" unicode="&#xb9;" horiz-adv-x="277" 
d="M122 658v181c0 17 -2 23 -10 23c-10 0 -26 -4 -52 -13c-4 -1 -19 -7 -19 2c0 2 2 6 9 9c34 15 82 39 117 59c6 3 16 9 20 9c3 0 3 -6 3 -12c0 -4 -3 -74 -3 -152v-106c0 -59 0 -111 2 -137c1 -19 7 -26 23 -29c10 -2 22 -2 31 -3c7 0 11 -2 11 -6s-3 -6 -13 -6
c-31 0 -76 2 -84 2c-6 0 -61 -2 -90 -2c-11 0 -14 3 -14 6c0 4 3 7 13 7c8 0 16 0 30 2c18 3 22 10 24 31c2 27 2 76 2 135z" />
    <glyph glyph-name="twosuperior" unicode="&#xb2;" horiz-adv-x="370" 
d="M283 478c-81 0 -168 1 -250 1c-7 0 -10 2 -10 5s8 11 15 17c119 97 211 186 211 295c0 81 -47 107 -98 107c-25 0 -49 -6 -67 -20c-15 -9 -20 -29 -20 -51c-1 -8 -3 -12 -7 -12c-3 0 -4 3 -6 9c0 5 -3 50 -3 67c0 4 1 7 6 10c25 9 65 22 114 22c100 0 154 -52 154 -123
c0 -117 -109 -191 -210 -276c-2 -1 -2 -3 1 -3h41c11 0 88 1 121 3c40 3 51 14 59 49c1 6 3 11 6 11c2 0 3 -5 3 -9c0 -8 -9 -71 -16 -90c-3 -10 -11 -12 -44 -12z" />
    <glyph glyph-name="threesuperior" unicode="&#xb3;" horiz-adv-x="371" 
d="M136 471c-34 0 -67 6 -85 15c-8 4 -12 10 -12 17c-1 21 1 64 4 77c1 6 3 11 7 11c3 0 6 -4 6 -12c2 -50 32 -82 89 -82c61 0 113 36 113 108c0 73 -54 101 -113 107c-12 1 -18 4 -18 8c0 3 8 8 17 9c54 7 96 31 96 94c0 34 -18 80 -83 80c-59 0 -78 -40 -81 -77
c-1 -9 -3 -12 -6 -12c-4 0 -7 5 -7 10c-3 16 -4 55 -4 68c0 8 1 12 9 15c19 8 59 21 106 21c100 0 135 -54 135 -92c0 -69 -59 -95 -101 -109c-2 -1 -2 -2 0 -3c46 -9 123 -36 123 -111c0 -79 -76 -142 -195 -142z" />
    <glyph glyph-name="onequarter" unicode="&#xbc;" horiz-adv-x="874" 
d="M701 781l21 -17c2 -2 3 -5 0 -8l-542 -771c-2 -3 -5 -3 -7 -1l-20 16c-2 2 -2 4 0 8l541 771c3 4 5 4 7 2zM144 497v181c0 17 -2 23 -10 23c-10 0 -26 -4 -52 -13c-4 -1 -19 -7 -19 2c0 2 2 6 9 9c34 15 82 39 117 59c6 3 16 9 20 9c3 0 3 -6 3 -12c0 -4 -3 -74 -3 -152
v-106c0 -59 0 -111 2 -137c1 -19 7 -26 23 -29c10 -2 22 -2 31 -3c7 0 11 -2 11 -6s-3 -6 -13 -6c-31 0 -76 2 -84 2c-6 0 -61 -2 -90 -2c-11 0 -14 3 -14 6c0 4 3 7 13 7c8 0 16 0 30 2c18 3 22 10 24 31c2 27 2 76 2 135zM721 343v-184h48c20 1 27 5 33 11c5 5 11 6 9 -4
c-1 -6 -8 -29 -11 -36c-3 -4 -5 -6 -13 -6c-11 -1 -44 -1 -66 -1c0 -43 0 -66 2 -86s4 -29 24 -33c6 -1 13 -1 20 -2c9 -1 11 -3 11 -7s-5 -6 -13 -6c-35 0 -67 2 -80 2c-14 0 -39 -2 -69 -2c-8 0 -14 2 -14 7c0 4 5 6 11 6c5 1 11 1 19 1c22 2 26 14 28 34c1 22 1 42 1 86
c-59 0 -164 1 -191 2c-10 1 -16 2 -16 6c0 3 2 7 9 17c17 22 187 225 236 279c7 7 12 13 18 13c4 0 5 -4 5 -16c0 -9 -1 -48 -1 -81zM661 159v189c-14 -17 -139 -166 -153 -189h153z" />
    <glyph glyph-name="onehalf" unicode="&#xbd;" horiz-adv-x="900" 
d="M675 781l21 -17c2 -2 3 -5 0 -8l-542 -771c-2 -3 -5 -3 -7 -1l-20 16c-2 2 -2 4 0 8l541 771c3 4 5 4 7 2zM144 497v181c0 17 -2 23 -10 23c-10 0 -26 -4 -52 -13c-4 -1 -19 -7 -19 2c0 2 2 6 9 9c34 15 82 39 117 59c6 3 16 9 20 9c3 0 3 -6 3 -12c0 -4 -3 -74 -3 -152
v-106c0 -59 0 -111 2 -137c1 -19 7 -26 23 -29c10 -2 22 -2 31 -3c7 0 11 -2 11 -6s-3 -6 -13 -6c-31 0 -76 2 -84 2c-6 0 -61 -2 -90 -2c-11 0 -14 3 -14 6c0 4 3 7 13 7c8 0 16 0 30 2c18 3 22 10 24 31c2 27 2 76 2 135zM778 -11c-81 0 -168 1 -250 1c-7 0 -10 2 -10 5
s8 11 15 17c119 97 211 186 211 295c0 81 -47 107 -98 107c-25 0 -49 -6 -67 -20c-15 -9 -20 -29 -20 -51c-1 -8 -3 -12 -7 -12c-3 0 -4 3 -6 9c0 5 -3 50 -3 67c0 4 1 7 6 10c25 9 65 22 114 22c100 0 154 -52 154 -123c0 -117 -109 -191 -210 -276c-2 -1 -2 -3 1 -3h41
c11 0 88 1 121 3c40 3 51 14 59 49c1 6 3 11 6 11c2 0 3 -5 3 -9c0 -8 -9 -71 -16 -90c-3 -10 -11 -12 -44 -12z" />
    <glyph glyph-name="threequarters" unicode="&#xbe;" horiz-adv-x="911" 
d="M743 781l21 -17c2 -2 3 -5 0 -8l-542 -771c-2 -3 -5 -3 -7 -1l-20 16c-2 2 -2 4 0 8l541 771c3 4 5 4 7 2zM758 343v-184h48c20 1 27 5 33 11c5 5 11 6 9 -4c-1 -6 -8 -29 -11 -36c-3 -4 -5 -6 -13 -6c-11 -1 -44 -1 -66 -1c0 -43 0 -66 2 -86s4 -29 24 -33
c6 -1 13 -1 20 -2c9 -1 11 -3 11 -7s-5 -6 -13 -6c-35 0 -67 2 -80 2c-14 0 -39 -2 -69 -2c-8 0 -14 2 -14 7c0 4 5 6 11 6c5 1 11 1 19 1c22 2 26 14 28 34c1 22 1 42 1 86c-59 0 -164 1 -191 2c-10 1 -16 2 -16 6c0 3 2 7 9 17c17 22 187 225 236 279c7 7 12 13 18 13
c4 0 5 -4 5 -16c0 -9 -1 -48 -1 -81zM698 159v189c-14 -17 -139 -166 -153 -189h153zM159 310c-34 0 -67 6 -85 15c-8 4 -12 10 -12 17c-1 21 1 64 4 77c1 6 3 11 7 11c3 0 6 -4 6 -12c2 -50 32 -82 89 -82c61 0 113 36 113 108c0 73 -54 101 -113 107c-12 1 -18 4 -18 8
c0 3 8 8 17 9c54 7 96 31 96 94c0 34 -18 80 -83 80c-59 0 -78 -40 -81 -77c-1 -9 -3 -12 -6 -12c-4 0 -7 5 -7 10c-3 16 -4 55 -4 68c0 8 1 12 9 15c19 8 59 21 106 21c100 0 135 -54 135 -92c0 -69 -59 -95 -101 -109c-2 -1 -2 -2 0 -3c46 -9 123 -36 123 -111
c0 -79 -76 -142 -195 -142z" />
    <glyph glyph-name="plusminus" unicode="&#xb1;" horiz-adv-x="661" 
d="M567 53h-472l-1 52h473v-52zM567 393h-209v-212h-53v212h-211v52h210v205h53v-205h210v-52z" />
    <glyph glyph-name="minus" unicode="&#x2212;" horiz-adv-x="661" 
d="M567 338h-472l-1 52h473v-52z" />
    <glyph glyph-name="multiply" unicode="&#xd7;" horiz-adv-x="661" 
d="M498 155l-167 166l-168 -168l-42 42l169 168l-169 168l42 42l167 -169l169 169l41 -41l-168 -169l167 -167z" />
    <glyph glyph-name="divide" unicode="&#xf7;" horiz-adv-x="661" 
d="M330 494c-24 0 -40 17 -40 40c0 26 16 42 39 42c24 0 42 -16 42 -40c1 -24 -16 -42 -41 -42zM329 223c24 0 42 -16 42 -40c1 -23 -16 -42 -42 -42c-23 0 -39 18 -39 41c0 25 16 41 39 41zM567 333h-472l-1 52h473v-52z" />
    <glyph glyph-name="brokenbar" unicode="&#xa6;" horiz-adv-x="495" 
d="M269 325h-42v350h42v-350zM269 -175h-42v350h42v-350z" />
    <glyph glyph-name="logicalnot" unicode="&#xac;" horiz-adv-x="661" 
d="M567 141h-52v195h-422v53h474v-248z" />
    <glyph glyph-name="degree" unicode="&#xb0;" horiz-adv-x="308" 
d="M253 595c-1 -62 -52 -105 -107 -105c-62 0 -104 47 -104 101c0 59 46 105 105 105c66 0 106 -47 106 -101zM206 595c0 29 -18 63 -61 63c-38 0 -59 -34 -59 -65c0 -34 26 -62 60 -62s60 28 60 64z" />
    <glyph glyph-name="registered" unicode="&#xae;" horiz-adv-x="206" 
d="M103 592c-50 0 -88 38 -88 87c0 51 38 88 88 88s88 -37 88 -88c0 -49 -38 -87 -88 -87zM104 604c41 0 73 29 73 76c0 44 -32 75 -74 75s-74 -31 -74 -75c0 -43 32 -76 75 -76zM72 655v57c0 10 -3 11 -11 12c-3 0 -4 2 -4 3c0 2 3 2 5 2c7 0 14 -1 17 -1c9 0 13 1 20 1
c15 0 37 -4 37 -26c0 -9 -6 -19 -17 -24l12 -17c11 -16 19 -19 21 -20c3 -1 4 -1 4 -3c0 -1 -1 -2 -6 -2c-11 0 -21 -1 -34 17l-13 19h-14v-15c0 -14 1 -15 11 -16c3 0 5 -1 5 -3c0 -1 -1 -2 -5 -2c-6 0 -14 1 -19 1c-3 0 -13 -1 -20 -1c-1 0 -4 0 -4 2s3 3 5 3
c8 1 10 2 10 13zM89 719v-36c2 -1 7 -2 12 -2s8 1 11 3c4 3 6 8 6 14c0 13 -7 23 -21 23c-1 0 -6 0 -8 -2z" />
    <glyph glyph-name="trademark" unicode="&#x2122;" horiz-adv-x="280" 
d="M22 750h80c6 0 11 2 18 2c1 0 0 -5 0 -9v-17c0 -4 -2 -7 -3 -7s-2 2 -3 5l-1 5c-1 5 -2 9 -18 9h-26v-98c0 -9 3 -11 13 -13c5 -1 6 -2 6 -3s-2 -2 -6 -2c-7 0 -24 1 -26 1s-16 -1 -24 -1c-4 0 -5 1 -5 2c0 2 2 2 5 3c12 3 13 6 14 11l1 100h-28c-12 0 -15 -4 -18 -11
c-1 -4 -2 -6 -4 -6s-2 2 -2 5c0 5 4 23 4 24c0 2 0 3 1 3c7 0 14 -3 22 -3zM160 706l-6 -65c0 -11 2 -12 16 -14c4 -1 4 -2 4 -3s-1 -2 -4 -2c-6 0 -24 1 -27 1c-2 0 -11 -1 -18 -1c-2 0 -4 1 -4 2c0 2 1 3 5 3c8 1 12 3 14 14l14 106c0 4 2 7 4 7c3 0 4 -3 6 -6l47 -91
l47 92c2 4 3 5 5 5s4 -4 4 -7l13 -102c2 -15 8 -18 15 -18h2c4 0 5 -1 5 -3c0 -1 -1 -2 -5 -2c-6 0 -30 1 -34 2c-2 0 -4 1 -4 4l-8 78h-1l-36 -74c-3 -6 -5 -10 -7 -10c-3 0 -4 3 -7 8l-39 76h-1z" />
    <glyph glyph-name="copyright" unicode="&#xa9;" horiz-adv-x="916" 
d="M447 -17c-229 0 -387 173 -387 391c0 211 166 393 387 393c232 0 385 -175 385 -393c0 -217 -177 -391 -385 -391zM94 375c0 -195 154 -364 353 -364c219 0 351 163 351 364c0 204 -147 365 -351 365c-219 0 -353 -163 -353 -365zM486 163c-76 0 -140 21 -183 60
c-53 48 -68 113 -68 163c0 40 12 99 61 147c34 34 91 62 173 62c28 0 51 -2 79 -7c25 -5 44 -9 57 -9c3 0 4 -2 4 -5c0 -4 -3 -20 -4 -36c-1 -18 -1 -44 -1 -53c-1 -7 -3 -11 -6 -11c-4 0 -6 4 -6 11c-1 24 -7 43 -20 55c-19 17 -56 29 -108 29c-70 0 -97 -21 -119 -42
c-33 -31 -44 -82 -44 -134c0 -90 52 -201 187 -201c39 0 65 5 86 25c11 11 19 33 23 51c2 7 5 9 7 9s4 -3 4 -8c0 -20 -6 -49 -11 -75c-2 -8 -5 -13 -14 -17c-22 -11 -62 -14 -97 -14z" />
    <glyph glyph-name="Aacute" unicode="&#xc1;" horiz-adv-x="700" 
d="M439 292h-215c-5 0 -8 -3 -10 -8l-60 -177c-9 -25 -14 -49 -14 -67c0 -20 19 -29 36 -29h9c10 0 13 -2 13 -6c0 -6 -9 -8 -18 -8c-24 0 -64 3 -75 3s-66 -3 -113 -3c-13 0 -19 2 -19 8c0 4 5 6 14 6c7 0 16 1 24 2c46 6 66 44 84 94l227 621c12 33 16 39 22 39
s10 -5 22 -36c15 -38 172 -451 233 -603c36 -89 65 -105 86 -111c15 -5 31 -6 39 -6c6 0 11 -1 11 -6c0 -6 -9 -8 -20 -8c-15 0 -88 0 -157 2c-19 1 -30 1 -30 7c0 4 3 6 7 7c6 2 12 11 6 27l-93 246c-2 4 -4 6 -9 6zM235 328h191c5 0 5 3 4 7l-95 270c-5 15 -10 15 -15 0
l-88 -270c-2 -5 0 -7 3 -7zM463 939c10 -9 23 -22 32 -40c5 -10 0 -13 -4 -13s-25 -2 -41 -8c-50 -18 -108 -45 -142 -61c-7 -3 -14 -6 -16 -6s-6 2 -6 4c0 3 3 7 8 12c28 26 97 87 123 104c14 10 25 16 29 16c5 0 10 -1 17 -8z" />
    <glyph glyph-name="Acircumflex" unicode="&#xc2;" horiz-adv-x="700" 
d="M439 292h-215c-5 0 -8 -3 -10 -8l-60 -177c-9 -25 -14 -49 -14 -67c0 -20 19 -29 36 -29h9c10 0 13 -2 13 -6c0 -6 -9 -8 -18 -8c-24 0 -64 3 -75 3s-66 -3 -113 -3c-13 0 -19 2 -19 8c0 4 5 6 14 6c7 0 16 1 24 2c46 6 66 44 84 94l227 621c12 33 16 39 22 39
s10 -5 22 -36c15 -38 172 -451 233 -603c36 -89 65 -105 86 -111c15 -5 31 -6 39 -6c6 0 11 -1 11 -6c0 -6 -9 -8 -20 -8c-15 0 -88 0 -157 2c-19 1 -30 1 -30 7c0 4 3 6 7 7c6 2 12 11 6 27l-93 246c-2 4 -4 6 -9 6zM235 328h191c5 0 5 3 4 7l-95 270c-5 15 -10 15 -15 0
l-88 -270c-2 -5 0 -7 3 -7zM353 932c4 0 9 -2 19 -8c18 -12 111 -74 129 -87c11 -8 12 -10 12 -12c0 -3 -2 -4 -5 -6l-34 -19c-3 -2 -6 -4 -12 0c-26 21 -85 60 -106 71c-5 3 -8 5 -11 5c-2 0 -7 -3 -16 -7c-26 -13 -84 -43 -119 -63c-9 -5 -16 -9 -21 -9c-6 0 -8 8 3 16
c39 29 129 97 143 109c10 7 15 10 18 10z" />
    <glyph glyph-name="Adieresis" unicode="&#xc4;" horiz-adv-x="700" 
d="M439 292h-215c-5 0 -8 -3 -10 -8l-60 -177c-9 -25 -14 -49 -14 -67c0 -20 19 -29 36 -29h9c10 0 13 -2 13 -6c0 -6 -9 -8 -18 -8c-24 0 -64 3 -75 3s-66 -3 -113 -3c-13 0 -19 2 -19 8c0 4 5 6 14 6c7 0 16 1 24 2c46 6 66 44 84 94l227 621c12 33 16 39 22 39
s10 -5 22 -36c15 -38 172 -451 233 -603c36 -89 65 -105 86 -111c15 -5 31 -6 39 -6c6 0 11 -1 11 -6c0 -6 -9 -8 -20 -8c-15 0 -88 0 -157 2c-19 1 -30 1 -30 7c0 4 3 6 7 7c6 2 12 11 6 27l-93 246c-2 4 -4 6 -9 6zM235 328h191c5 0 5 3 4 7l-95 270c-5 15 -10 15 -15 0
l-88 -270c-2 -5 0 -7 3 -7zM455 819c-27 0 -39 21 -39 39c0 16 12 39 40 39c22 0 38 -15 38 -37c0 -24 -14 -41 -39 -41zM232 819c-28 0 -38 22 -38 39s11 39 39 39c22 0 38 -15 38 -37c0 -24 -15 -41 -39 -41z" />
    <glyph glyph-name="Agrave" unicode="&#xc0;" horiz-adv-x="700" 
d="M439 292h-215c-5 0 -8 -3 -10 -8l-60 -177c-9 -25 -14 -49 -14 -67c0 -20 19 -29 36 -29h9c10 0 13 -2 13 -6c0 -6 -9 -8 -18 -8c-24 0 -64 3 -75 3s-66 -3 -113 -3c-13 0 -19 2 -19 8c0 4 5 6 14 6c7 0 16 1 24 2c46 6 66 44 84 94l227 621c12 33 16 39 22 39
s10 -5 22 -36c15 -38 172 -451 233 -603c36 -89 65 -105 86 -111c15 -5 31 -6 39 -6c6 0 11 -1 11 -6c0 -6 -9 -8 -20 -8c-15 0 -88 0 -157 2c-19 1 -30 1 -30 7c0 4 3 6 7 7c6 2 12 11 6 27l-93 246c-2 4 -4 6 -9 6zM235 328h191c5 0 5 3 4 7l-95 270c-5 15 -10 15 -15 0
l-88 -270c-2 -5 0 -7 3 -7zM391 815c0 -2 -2 -4 -6 -4c-17 0 -146 59 -205 92c-10 6 -17 10 -17 14c0 3 2 5 11 10c11 6 36 17 44 19c7 2 12 3 16 3s9 -5 14 -11c15 -16 85 -78 133 -112c7 -5 10 -8 10 -11z" />
    <glyph glyph-name="Aring" unicode="&#xc5;" horiz-adv-x="700" 
d="M439 292h-215c-5 0 -8 -3 -10 -8l-60 -177c-9 -25 -14 -49 -14 -67c0 -20 19 -29 36 -29h9c10 0 13 -2 13 -6c0 -6 -9 -8 -18 -8c-24 0 -64 3 -75 3s-66 -3 -113 -3c-13 0 -19 2 -19 8c0 4 5 6 14 6c7 0 16 1 24 2c46 6 66 44 84 94l227 621c12 33 16 39 22 39
s10 -5 22 -36c15 -38 172 -451 233 -603c36 -89 65 -105 86 -111c15 -5 31 -6 39 -6c6 0 11 -1 11 -6c0 -6 -9 -8 -20 -8c-15 0 -88 0 -157 2c-19 1 -30 1 -30 7c0 4 3 6 7 7c6 2 12 11 6 27l-93 246c-2 4 -4 6 -9 6zM235 328h191c5 0 5 3 4 7l-95 270c-5 15 -10 15 -15 0
l-88 -270c-2 -5 0 -7 3 -7zM324 794c-45 0 -72 27 -72 61c0 44 45 83 110 83c48 0 74 -25 74 -58c0 -55 -58 -86 -112 -86zM291 866c0 -31 27 -49 51 -49c35 0 54 22 54 50c0 24 -16 47 -52 47c-24 0 -53 -14 -53 -48z" />
    <glyph glyph-name="Atilde" unicode="&#xc3;" horiz-adv-x="700" 
d="M439 292h-215c-5 0 -8 -3 -10 -8l-60 -177c-9 -25 -14 -49 -14 -67c0 -20 19 -29 36 -29h9c10 0 13 -2 13 -6c0 -6 -9 -8 -18 -8c-24 0 -64 3 -75 3s-66 -3 -113 -3c-13 0 -19 2 -19 8c0 4 5 6 14 6c7 0 16 1 24 2c46 6 66 44 84 94l227 621c12 33 16 39 22 39
s10 -5 22 -36c15 -38 172 -451 233 -603c36 -89 65 -105 86 -111c15 -5 31 -6 39 -6c6 0 11 -1 11 -6c0 -6 -9 -8 -20 -8c-15 0 -88 0 -157 2c-19 1 -30 1 -30 7c0 4 3 6 7 7c6 2 12 11 6 27l-93 246c-2 4 -4 6 -9 6zM235 328h191c5 0 5 3 4 7l-95 270c-5 15 -10 15 -15 0
l-88 -270c-2 -5 0 -7 3 -7zM420 821c-43 0 -115 45 -161 45c-29 0 -47 -9 -65 -31c-8 -9 -10 -10 -15 -10c-3 0 -5 5 1 15c28 45 65 73 98 73c18 0 43 -6 91 -25c31 -12 53 -18 68 -18c33 0 49 9 74 36c5 6 10 9 12 9c7 0 5 -8 1 -15c-24 -37 -60 -79 -104 -79z" />
    <glyph glyph-name="Ccedilla" unicode="&#xc7;" horiz-adv-x="805" 
d="M398 -61l55 46c-117 9 -200 45 -268 106c-97 87 -121 201 -121 296c0 67 23 184 112 273c60 60 151 107 305 107c40 0 96 -3 145 -12c38 -7 69 -10 106 -15c7 -1 9 -5 9 -11c0 -8 -3 -20 -5 -56c-2 -33 -2 -88 -3 -103s-3 -21 -9 -21c-7 0 -8 7 -8 21
c0 39 -16 80 -42 102c-35 30 -112 57 -200 57c-133 0 -195 -39 -230 -73c-73 -70 -90 -159 -90 -261c0 -191 147 -366 361 -366c75 0 134 9 174 50c21 22 34 66 37 84c2 11 4 15 10 15c5 0 7 -7 7 -15c0 -7 -12 -94 -22 -128c-6 -19 -8 -21 -26 -29
c-40 -16 -116 -23 -180 -23h-28c-19 -16 -39 -34 -48 -42c46 -7 105 -25 105 -77c0 -55 -71 -89 -151 -89c-7 0 -13 4 -13 8c0 3 6 5 19 8c45 9 77 30 77 66c0 30 -22 53 -79 62c-6 1 -11 4 -11 7s6 9 12 13z" />
    <glyph glyph-name="Eacute" unicode="&#xc9;" horiz-adv-x="610" 
d="M178 287v176c0 156 0 184 -2 216c-2 34 -10 50 -43 57c-7 2 -20 2 -29 3c-7 1 -13 2 -13 6c0 6 5 8 16 8c23 0 50 0 113 -3c7 0 206 0 229 1c22 1 40 3 46 6s8 4 11 4s4 -4 4 -9c0 -7 -6 -19 -8 -47c-1 -15 -2 -34 -4 -60c-1 -10 -4 -17 -8 -17c-6 0 -8 5 -8 13
c0 13 -2 25 -5 33c-7 23 -28 33 -72 37c-17 2 -126 3 -137 3c-4 0 -6 -3 -6 -10v-276c0 -7 1 -10 6 -10c13 0 136 0 159 2c27 2 40 5 50 17c5 6 8 10 12 10c3 0 5 -2 5 -8s-5 -23 -8 -56c-3 -31 -3 -54 -4 -68c-1 -10 -3 -15 -7 -15c-6 0 -7 8 -7 16c0 9 -1 19 -4 28
c-4 15 -16 29 -52 33c-27 3 -126 5 -143 5c-5 0 -7 -3 -7 -7v-88c0 -34 -1 -150 0 -171c2 -41 8 -63 33 -73c17 -7 44 -9 83 -9c30 0 63 1 90 9c32 10 43 31 51 74c2 11 4 15 9 15c6 0 6 -8 6 -15c0 -8 -8 -76 -13 -97c-7 -26 -15 -26 -54 -26c-74 0 -107 2 -146 3
c-40 1 -86 3 -125 3c-24 0 -48 -4 -74 -3c-11 0 -16 2 -16 8c0 3 5 5 11 6c10 1 16 1 23 3c21 5 34 19 36 94c1 39 2 90 2 179zM448 934c10 -9 23 -22 32 -40c5 -10 0 -13 -4 -13s-25 -2 -41 -8c-50 -18 -108 -45 -142 -61c-7 -3 -14 -6 -16 -6s-6 2 -6 4c0 3 3 7 8 12
c28 26 97 87 123 104c14 10 25 16 29 16c5 0 10 -1 17 -8z" />
    <glyph glyph-name="Ecircumflex" unicode="&#xca;" horiz-adv-x="610" 
d="M178 287v176c0 156 0 184 -2 216c-2 34 -10 50 -43 57c-7 2 -20 2 -29 3c-7 1 -13 2 -13 6c0 6 5 8 16 8c23 0 50 0 113 -3c7 0 206 0 229 1c22 1 40 3 46 6s8 4 11 4s4 -4 4 -9c0 -7 -6 -19 -8 -47c-1 -15 -2 -34 -4 -60c-1 -10 -4 -17 -8 -17c-6 0 -8 5 -8 13
c0 13 -2 25 -5 33c-7 23 -28 33 -72 37c-17 2 -126 3 -137 3c-4 0 -6 -3 -6 -10v-276c0 -7 1 -10 6 -10c13 0 136 0 159 2c27 2 40 5 50 17c5 6 8 10 12 10c3 0 5 -2 5 -8s-5 -23 -8 -56c-3 -31 -3 -54 -4 -68c-1 -10 -3 -15 -7 -15c-6 0 -7 8 -7 16c0 9 -1 19 -4 28
c-4 15 -16 29 -52 33c-27 3 -126 5 -143 5c-5 0 -7 -3 -7 -7v-88c0 -34 -1 -150 0 -171c2 -41 8 -63 33 -73c17 -7 44 -9 83 -9c30 0 63 1 90 9c32 10 43 31 51 74c2 11 4 15 9 15c6 0 6 -8 6 -15c0 -8 -8 -76 -13 -97c-7 -26 -15 -26 -54 -26c-74 0 -107 2 -146 3
c-40 1 -86 3 -125 3c-24 0 -48 -4 -74 -3c-11 0 -16 2 -16 8c0 3 5 5 11 6c10 1 16 1 23 3c21 5 34 19 36 94c1 39 2 90 2 179zM324 952c4 0 9 -2 19 -8c18 -12 111 -74 129 -87c11 -8 12 -10 12 -12c0 -3 -2 -4 -5 -6l-34 -19c-3 -2 -6 -4 -12 0c-26 21 -85 60 -106 71
c-5 3 -8 5 -11 5c-2 0 -7 -3 -16 -7c-26 -13 -84 -43 -119 -63c-9 -5 -16 -9 -21 -9c-6 0 -8 8 3 16c39 29 129 97 143 109c10 7 15 10 18 10z" />
    <glyph glyph-name="Edieresis" unicode="&#xcb;" horiz-adv-x="610" 
d="M178 287v176c0 156 0 184 -2 216c-2 34 -10 50 -43 57c-7 2 -20 2 -29 3c-7 1 -13 2 -13 6c0 6 5 8 16 8c23 0 50 0 113 -3c7 0 206 0 229 1c22 1 40 3 46 6s8 4 11 4s4 -4 4 -9c0 -7 -6 -19 -8 -47c-1 -15 -2 -34 -4 -60c-1 -10 -4 -17 -8 -17c-6 0 -8 5 -8 13
c0 13 -2 25 -5 33c-7 23 -28 33 -72 37c-17 2 -126 3 -137 3c-4 0 -6 -3 -6 -10v-276c0 -7 1 -10 6 -10c13 0 136 0 159 2c27 2 40 5 50 17c5 6 8 10 12 10c3 0 5 -2 5 -8s-5 -23 -8 -56c-3 -31 -3 -54 -4 -68c-1 -10 -3 -15 -7 -15c-6 0 -7 8 -7 16c0 9 -1 19 -4 28
c-4 15 -16 29 -52 33c-27 3 -126 5 -143 5c-5 0 -7 -3 -7 -7v-88c0 -34 -1 -150 0 -171c2 -41 8 -63 33 -73c17 -7 44 -9 83 -9c30 0 63 1 90 9c32 10 43 31 51 74c2 11 4 15 9 15c6 0 6 -8 6 -15c0 -8 -8 -76 -13 -97c-7 -26 -15 -26 -54 -26c-74 0 -107 2 -146 3
c-40 1 -86 3 -125 3c-24 0 -48 -4 -74 -3c-11 0 -16 2 -16 8c0 3 5 5 11 6c10 1 16 1 23 3c21 5 34 19 36 94c1 39 2 90 2 179zM430 840c-27 0 -39 21 -39 39c0 16 12 39 40 39c22 0 38 -15 38 -37c0 -24 -14 -41 -39 -41zM207 840c-28 0 -38 22 -38 39s11 39 39 39
c22 0 38 -15 38 -37c0 -24 -15 -41 -39 -41z" />
    <glyph glyph-name="Egrave" unicode="&#xc8;" horiz-adv-x="610" 
d="M178 287v176c0 156 0 184 -2 216c-2 34 -10 50 -43 57c-7 2 -20 2 -29 3c-7 1 -13 2 -13 6c0 6 5 8 16 8c23 0 50 0 113 -3c7 0 206 0 229 1c22 1 40 3 46 6s8 4 11 4s4 -4 4 -9c0 -7 -6 -19 -8 -47c-1 -15 -2 -34 -4 -60c-1 -10 -4 -17 -8 -17c-6 0 -8 5 -8 13
c0 13 -2 25 -5 33c-7 23 -28 33 -72 37c-17 2 -126 3 -137 3c-4 0 -6 -3 -6 -10v-276c0 -7 1 -10 6 -10c13 0 136 0 159 2c27 2 40 5 50 17c5 6 8 10 12 10c3 0 5 -2 5 -8s-5 -23 -8 -56c-3 -31 -3 -54 -4 -68c-1 -10 -3 -15 -7 -15c-6 0 -7 8 -7 16c0 9 -1 19 -4 28
c-4 15 -16 29 -52 33c-27 3 -126 5 -143 5c-5 0 -7 -3 -7 -7v-88c0 -34 -1 -150 0 -171c2 -41 8 -63 33 -73c17 -7 44 -9 83 -9c30 0 63 1 90 9c32 10 43 31 51 74c2 11 4 15 9 15c6 0 6 -8 6 -15c0 -8 -8 -76 -13 -97c-7 -26 -15 -26 -54 -26c-74 0 -107 2 -146 3
c-40 1 -86 3 -125 3c-24 0 -48 -4 -74 -3c-11 0 -16 2 -16 8c0 3 5 5 11 6c10 1 16 1 23 3c21 5 34 19 36 94c1 39 2 90 2 179zM364 818c0 -2 -2 -4 -6 -4c-17 0 -146 59 -205 92c-10 6 -17 10 -17 14c0 3 2 5 11 10c11 6 36 17 44 19c7 2 12 3 16 3s9 -5 14 -11
c15 -16 85 -78 133 -112c7 -5 10 -8 10 -11z" />
    <glyph glyph-name="Iacute" unicode="&#xcd;" horiz-adv-x="440" 
d="M178 287v176c0 156 0 184 -2 216c-2 34 -12 51 -34 56c-11 3 -24 4 -31 4c-4 0 -8 2 -8 6c0 6 5 8 16 8c33 0 96 -3 101 -3s68 3 98 3c11 0 16 -2 16 -8c0 -4 -4 -6 -8 -6c-7 0 -13 -1 -25 -3c-27 -5 -35 -22 -37 -57c-2 -32 -2 -60 -2 -216v-176c0 -96 0 -175 5 -217
c3 -29 9 -51 39 -55c14 -2 35 -4 41 -4c9 0 12 -3 12 -6c0 -5 -4 -8 -15 -8c-55 0 -119 3 -124 3s-68 -3 -98 -3c-11 0 -16 2 -16 8c0 3 2 6 11 6c6 0 17 1 26 3c20 4 26 27 30 56c5 42 5 121 5 217zM353 950c10 -9 23 -22 32 -40c5 -10 0 -13 -4 -13s-25 -2 -41 -8
c-50 -18 -108 -45 -142 -61c-7 -3 -14 -6 -16 -6s-6 2 -6 4c0 3 3 7 8 12c28 26 97 87 123 104c14 10 25 16 29 16c5 0 10 -1 17 -8z" />
    <glyph glyph-name="Icircumflex" unicode="&#xce;" horiz-adv-x="440" 
d="M178 287v176c0 156 0 184 -2 216c-2 34 -12 51 -34 56c-11 3 -24 4 -31 4c-4 0 -8 2 -8 6c0 6 5 8 16 8c33 0 96 -3 101 -3s68 3 98 3c11 0 16 -2 16 -8c0 -4 -4 -6 -8 -6c-7 0 -13 -1 -25 -3c-27 -5 -35 -22 -37 -57c-2 -32 -2 -60 -2 -216v-176c0 -96 0 -175 5 -217
c3 -29 9 -51 39 -55c14 -2 35 -4 41 -4c9 0 12 -3 12 -6c0 -5 -4 -8 -15 -8c-55 0 -119 3 -124 3s-68 -3 -98 -3c-11 0 -16 2 -16 8c0 3 2 6 11 6c6 0 17 1 26 3c20 4 26 27 30 56c5 42 5 121 5 217zM226 951c4 0 9 -2 19 -8c18 -12 111 -74 129 -87c11 -8 12 -10 12 -12
c0 -3 -2 -4 -5 -6l-34 -19c-3 -2 -6 -4 -12 0c-26 21 -85 60 -106 71c-5 3 -8 5 -11 5c-2 0 -7 -3 -16 -7c-26 -13 -84 -43 -119 -63c-9 -5 -16 -9 -21 -9c-6 0 -8 8 3 16c39 29 129 97 143 109c10 7 15 10 18 10z" />
    <glyph glyph-name="Idieresis" unicode="&#xcf;" horiz-adv-x="440" 
d="M178 287v176c0 156 0 184 -2 216c-2 34 -12 51 -34 56c-11 3 -24 4 -31 4c-4 0 -8 2 -8 6c0 6 5 8 16 8c33 0 96 -3 101 -3s68 3 98 3c11 0 16 -2 16 -8c0 -4 -4 -6 -8 -6c-7 0 -13 -1 -25 -3c-27 -5 -35 -22 -37 -57c-2 -32 -2 -60 -2 -216v-176c0 -96 0 -175 5 -217
c3 -29 9 -51 39 -55c14 -2 35 -4 41 -4c9 0 12 -3 12 -6c0 -5 -4 -8 -15 -8c-55 0 -119 3 -124 3s-68 -3 -98 -3c-11 0 -16 2 -16 8c0 3 2 6 11 6c6 0 17 1 26 3c20 4 26 27 30 56c5 42 5 121 5 217zM331 839c-27 0 -39 21 -39 39c0 16 12 39 40 39c22 0 38 -15 38 -37
c0 -24 -14 -41 -39 -41zM108 839c-28 0 -38 22 -38 39s11 39 39 39c22 0 38 -15 38 -37c0 -24 -15 -41 -39 -41z" />
    <glyph glyph-name="Igrave" unicode="&#xcc;" horiz-adv-x="440" 
d="M178 287v176c0 156 0 184 -2 216c-2 34 -12 51 -34 56c-11 3 -24 4 -31 4c-4 0 -8 2 -8 6c0 6 5 8 16 8c33 0 96 -3 101 -3s68 3 98 3c11 0 16 -2 16 -8c0 -4 -4 -6 -8 -6c-7 0 -13 -1 -25 -3c-27 -5 -35 -22 -37 -57c-2 -32 -2 -60 -2 -216v-176c0 -96 0 -175 5 -217
c3 -29 9 -51 39 -55c14 -2 35 -4 41 -4c9 0 12 -3 12 -6c0 -5 -4 -8 -15 -8c-55 0 -119 3 -124 3s-68 -3 -98 -3c-11 0 -16 2 -16 8c0 3 2 6 11 6c6 0 17 1 26 3c20 4 26 27 30 56c5 42 5 121 5 217zM260 818c0 -2 -2 -4 -6 -4c-17 0 -146 59 -205 92c-10 6 -17 10 -17 14
c0 3 2 5 11 10c11 6 36 17 44 19c7 2 12 3 16 3s9 -5 14 -11c15 -16 85 -78 133 -112c7 -5 10 -8 10 -11z" />
    <glyph glyph-name="Ntilde" unicode="&#xd1;" horiz-adv-x="947" 
d="M145 144v148c0 361 2 231 1 425c0 39 3 50 11 50s25 -22 35 -32c15 -17 164 -178 318 -343c99 -106 208 -228 240 -261l-11 508c-1 65 -8 87 -39 95c-18 4 -34 5 -43 5c-11 0 -14 3 -14 7c0 6 8 7 20 7c45 0 93 -3 104 -3s44 3 85 3c11 0 18 -1 18 -7c0 -4 -4 -6 -11 -7
c-8 -1 -14 -2 -26 -4c-28 -6 -35 -21 -35 -90l-2 -584c0 -66 -2 -71 -9 -71c-8 0 -20 11 -73 64c-11 10 -155 157 -261 271c-116 125 -229 251 -261 287l13 -479c2 -82 12 -108 39 -116c19 -5 41 -6 50 -6c5 0 8 -2 8 -6c0 -6 -6 -8 -18 -8c-57 0 -97 3 -106 3
s-51 -3 -96 -3c-10 0 -16 1 -16 8c0 4 3 6 8 6c8 0 26 1 41 6c25 7 30 36 30 127zM543 830c-43 0 -115 45 -161 45c-29 0 -47 -9 -65 -31c-8 -9 -10 -10 -15 -10c-3 0 -5 5 1 15c28 45 65 73 98 73c18 0 43 -6 91 -25c31 -12 53 -18 68 -18c33 0 49 9 74 36c5 6 10 9 12 9
c7 0 5 -8 1 -15c-24 -37 -60 -79 -104 -79z" />
    <glyph glyph-name="Oacute" unicode="&#xd3;" horiz-adv-x="915" 
d="M452 -17c-274 0 -388 213 -388 393c0 162 118 391 394 391c225 0 393 -142 393 -375c0 -224 -158 -409 -399 -409zM479 21c90 0 276 52 276 343c0 240 -146 369 -304 369c-167 0 -292 -110 -292 -329c0 -233 140 -383 320 -383zM570 949c10 -9 23 -22 32 -40
c5 -10 0 -13 -4 -13s-25 -2 -41 -8c-50 -18 -108 -45 -142 -61c-7 -3 -14 -6 -16 -6s-6 2 -6 4c0 3 3 7 8 12c28 26 97 87 123 104c14 10 25 16 29 16c5 0 10 -1 17 -8z" />
    <glyph glyph-name="Ocircumflex" unicode="&#xd4;" horiz-adv-x="915" 
d="M452 -17c-274 0 -388 213 -388 393c0 162 118 391 394 391c225 0 393 -142 393 -375c0 -224 -158 -409 -399 -409zM479 21c90 0 276 52 276 343c0 240 -146 369 -304 369c-167 0 -292 -110 -292 -329c0 -233 140 -383 320 -383zM463 964c4 0 9 -2 19 -8
c18 -12 111 -74 129 -87c11 -8 12 -10 12 -12c0 -3 -2 -4 -5 -6l-34 -19c-3 -2 -6 -4 -12 0c-26 21 -85 60 -106 71c-5 3 -8 5 -11 5c-2 0 -7 -3 -16 -7c-26 -13 -84 -43 -119 -63c-9 -5 -16 -9 -21 -9c-6 0 -8 8 3 16c39 29 129 97 143 109c10 7 15 10 18 10z" />
    <glyph glyph-name="Odieresis" unicode="&#xd6;" horiz-adv-x="915" 
d="M452 -17c-274 0 -388 213 -388 393c0 162 118 391 394 391c225 0 393 -142 393 -375c0 -224 -158 -409 -399 -409zM479 21c90 0 276 52 276 343c0 240 -146 369 -304 369c-167 0 -292 -110 -292 -329c0 -233 140 -383 320 -383zM568 845c-27 0 -39 21 -39 39
c0 16 12 39 40 39c22 0 38 -15 38 -37c0 -24 -14 -41 -39 -41zM345 845c-28 0 -38 22 -38 39s11 39 39 39c22 0 38 -15 38 -37c0 -24 -15 -41 -39 -41z" />
    <glyph glyph-name="Ograve" unicode="&#xd2;" horiz-adv-x="915" 
d="M452 -17c-274 0 -388 213 -388 393c0 162 118 391 394 391c225 0 393 -142 393 -375c0 -224 -158 -409 -399 -409zM479 21c90 0 276 52 276 343c0 240 -146 369 -304 369c-167 0 -292 -110 -292 -329c0 -233 140 -383 320 -383zM516 827c0 -2 -2 -4 -6 -4
c-17 0 -146 59 -205 92c-10 6 -17 10 -17 14c0 3 2 5 11 10c11 6 36 17 44 19c7 2 12 3 16 3s9 -5 14 -11c15 -16 85 -78 133 -112c7 -5 10 -8 10 -11z" />
    <glyph glyph-name="Otilde" unicode="&#xd5;" horiz-adv-x="915" 
d="M452 -17c-274 0 -388 213 -388 393c0 162 118 391 394 391c225 0 393 -142 393 -375c0 -224 -158 -409 -399 -409zM479 21c90 0 276 52 276 343c0 240 -146 369 -304 369c-167 0 -292 -110 -292 -329c0 -233 140 -383 320 -383zM527 842c-43 0 -115 45 -161 45
c-29 0 -47 -9 -65 -31c-8 -9 -10 -10 -15 -10c-3 0 -5 5 1 15c28 45 65 73 98 73c18 0 43 -6 91 -25c31 -12 53 -18 68 -18c33 0 49 9 74 36c5 6 10 9 12 9c7 0 5 -8 1 -15c-24 -37 -60 -79 -104 -79z" />
    <glyph glyph-name="Scaron" unicode="&#x160;" horiz-adv-x="570" 
d="M248 -17c-47 0 -93 7 -134 27c-14 7 -15 11 -15 38c0 50 4 90 5 106c1 11 3 16 8 16c6 0 7 -3 7 -11c0 -9 0 -23 3 -37c15 -74 81 -102 148 -102c96 0 143 69 143 133c0 69 -29 109 -115 180l-45 37c-106 87 -130 149 -130 217c0 107 80 180 207 180c39 0 68 -4 93 -10
c19 -4 27 -5 35 -5s10 -2 10 -7s-4 -38 -4 -106c0 -16 -2 -23 -7 -23c-6 0 -7 5 -8 13c-1 12 -7 39 -13 50s-33 53 -125 53c-69 0 -123 -43 -123 -116c0 -57 26 -93 122 -168l28 -22c118 -93 146 -155 146 -235c0 -41 -16 -117 -85 -166c-43 -30 -97 -42 -151 -42zM310 826
c-5 0 -9 2 -19 8c-18 12 -110 72 -128 85c-11 8 -12 10 -12 12c0 3 2 4 5 6l32 21c3 2 6 4 11 0c27 -23 88 -65 109 -76c5 -3 9 -5 12 -5c2 0 8 2 16 6c26 14 82 47 116 68c10 6 17 9 21 9c7 0 9 -6 -2 -14c-40 -29 -129 -98 -143 -110c-10 -7 -15 -10 -18 -10z" />
    <glyph glyph-name="Uacute" unicode="&#xda;" horiz-adv-x="830" 
d="M207 463v-140c0 -144 32 -206 75 -247c49 -46 94 -55 151 -55c61 0 121 29 157 72c46 57 58 142 58 245v125c0 156 0 184 -2 216c-2 34 -10 50 -43 57c-8 2 -25 3 -34 3c-4 0 -8 2 -8 6c0 6 5 8 16 8c45 0 100 -3 106 -3c7 0 54 3 84 3c11 0 16 -2 16 -8
c0 -4 -4 -6 -8 -6c-7 0 -13 -1 -25 -3c-27 -6 -35 -22 -37 -57c-2 -32 -2 -60 -2 -216v-107c0 -108 -12 -228 -92 -299c-72 -64 -147 -74 -206 -74c-34 0 -135 4 -206 71c-49 47 -87 117 -87 263v146c0 156 0 184 -2 216c-2 34 -10 50 -43 57c-8 2 -25 3 -34 3
c-4 0 -8 2 -8 6c0 6 5 8 16 8c45 0 106 -3 115 -3s69 3 99 3c11 0 16 -2 16 -8c0 -4 -4 -6 -8 -6c-7 0 -13 -1 -25 -3c-27 -4 -35 -22 -37 -57c-2 -32 -2 -60 -2 -216zM538 946c10 -9 23 -22 32 -40c5 -10 0 -13 -4 -13s-25 -2 -41 -8c-50 -18 -108 -45 -142 -61
c-7 -3 -14 -6 -16 -6s-6 2 -6 4c0 3 3 7 8 12c28 26 97 87 123 104c14 10 25 16 29 16c5 0 10 -1 17 -8z" />
    <glyph glyph-name="Ucircumflex" unicode="&#xdb;" horiz-adv-x="830" 
d="M207 463v-140c0 -144 32 -206 75 -247c49 -46 94 -55 151 -55c61 0 121 29 157 72c46 57 58 142 58 245v125c0 156 0 184 -2 216c-2 34 -10 50 -43 57c-8 2 -25 3 -34 3c-4 0 -8 2 -8 6c0 6 5 8 16 8c45 0 100 -3 106 -3c7 0 54 3 84 3c11 0 16 -2 16 -8
c0 -4 -4 -6 -8 -6c-7 0 -13 -1 -25 -3c-27 -6 -35 -22 -37 -57c-2 -32 -2 -60 -2 -216v-107c0 -108 -12 -228 -92 -299c-72 -64 -147 -74 -206 -74c-34 0 -135 4 -206 71c-49 47 -87 117 -87 263v146c0 156 0 184 -2 216c-2 34 -10 50 -43 57c-8 2 -25 3 -34 3
c-4 0 -8 2 -8 6c0 6 5 8 16 8c45 0 106 -3 115 -3s69 3 99 3c11 0 16 -2 16 -8c0 -4 -4 -6 -8 -6c-7 0 -13 -1 -25 -3c-27 -4 -35 -22 -37 -57c-2 -32 -2 -60 -2 -216zM421 960c4 0 9 -2 19 -8c18 -12 111 -74 129 -87c11 -8 12 -10 12 -12c0 -3 -2 -4 -5 -6l-34 -19
c-3 -2 -6 -4 -12 0c-26 21 -85 60 -106 71c-5 3 -8 5 -11 5c-2 0 -7 -3 -16 -7c-26 -13 -84 -43 -119 -63c-9 -5 -16 -9 -21 -9c-6 0 -8 8 3 16c39 29 129 97 143 109c10 7 15 10 18 10z" />
    <glyph glyph-name="Udieresis" unicode="&#xdc;" horiz-adv-x="830" 
d="M207 463v-140c0 -144 32 -206 75 -247c49 -46 94 -55 151 -55c61 0 121 29 157 72c46 57 58 142 58 245v125c0 156 0 184 -2 216c-2 34 -10 50 -43 57c-8 2 -25 3 -34 3c-4 0 -8 2 -8 6c0 6 5 8 16 8c45 0 100 -3 106 -3c7 0 54 3 84 3c11 0 16 -2 16 -8
c0 -4 -4 -6 -8 -6c-7 0 -13 -1 -25 -3c-27 -6 -35 -22 -37 -57c-2 -32 -2 -60 -2 -216v-107c0 -108 -12 -228 -92 -299c-72 -64 -147 -74 -206 -74c-34 0 -135 4 -206 71c-49 47 -87 117 -87 263v146c0 156 0 184 -2 216c-2 34 -10 50 -43 57c-8 2 -25 3 -34 3
c-4 0 -8 2 -8 6c0 6 5 8 16 8c45 0 106 -3 115 -3s69 3 99 3c11 0 16 -2 16 -8c0 -4 -4 -6 -8 -6c-7 0 -13 -1 -25 -3c-27 -4 -35 -22 -37 -57c-2 -32 -2 -60 -2 -216zM532 839c-27 0 -39 21 -39 39c0 16 12 39 40 39c22 0 38 -15 38 -37c0 -24 -14 -41 -39 -41zM309 839
c-28 0 -38 22 -38 39s11 39 39 39c22 0 38 -15 38 -37c0 -24 -15 -41 -39 -41z" />
    <glyph glyph-name="Ugrave" unicode="&#xd9;" horiz-adv-x="830" 
d="M207 463v-140c0 -144 32 -206 75 -247c49 -46 94 -55 151 -55c61 0 121 29 157 72c46 57 58 142 58 245v125c0 156 0 184 -2 216c-2 34 -10 50 -43 57c-8 2 -25 3 -34 3c-4 0 -8 2 -8 6c0 6 5 8 16 8c45 0 100 -3 106 -3c7 0 54 3 84 3c11 0 16 -2 16 -8
c0 -4 -4 -6 -8 -6c-7 0 -13 -1 -25 -3c-27 -6 -35 -22 -37 -57c-2 -32 -2 -60 -2 -216v-107c0 -108 -12 -228 -92 -299c-72 -64 -147 -74 -206 -74c-34 0 -135 4 -206 71c-49 47 -87 117 -87 263v146c0 156 0 184 -2 216c-2 34 -10 50 -43 57c-8 2 -25 3 -34 3
c-4 0 -8 2 -8 6c0 6 5 8 16 8c45 0 106 -3 115 -3s69 3 99 3c11 0 16 -2 16 -8c0 -4 -4 -6 -8 -6c-7 0 -13 -1 -25 -3c-27 -4 -35 -22 -37 -57c-2 -32 -2 -60 -2 -216zM465 818c0 -2 -2 -4 -6 -4c-17 0 -146 59 -205 92c-10 6 -17 10 -17 14c0 3 2 5 11 10c11 6 36 17 44 19
c7 2 12 3 16 3s9 -5 14 -11c15 -16 85 -78 133 -112c7 -5 10 -8 10 -11z" />
    <glyph glyph-name="Yacute" unicode="&#xdd;" horiz-adv-x="654" 
d="M289 170v86c0 54 -10 76 -23 105c-7 16 -141 236 -176 288c-25 37 -50 62 -68 74c-15 10 -34 16 -43 16c-5 0 -10 2 -10 7c0 4 4 7 13 7c19 0 94 -3 99 -3c7 0 45 3 84 3c11 0 13 -3 13 -7s-6 -5 -15 -9c-8 -4 -13 -10 -13 -18c0 -12 5 -24 13 -39
c16 -29 166 -287 184 -316c19 42 146 261 166 294c13 21 17 38 17 51c0 14 -4 25 -16 28c-9 3 -15 5 -15 10c0 4 6 6 16 6c26 0 58 -3 66 -3c6 0 78 3 97 3c7 0 13 -2 13 -6c0 -5 -5 -8 -13 -8c-11 0 -30 -4 -46 -14c-20 -12 -31 -24 -53 -51c-33 -40 -173 -275 -191 -318
c-15 -36 -15 -67 -15 -100v-86c0 -16 0 -58 3 -100c2 -29 11 -51 41 -55c14 -2 36 -4 45 -4c6 0 8 -3 8 -6c0 -5 -5 -8 -16 -8c-55 0 -118 3 -123 3s-68 -3 -98 -3c-11 0 -16 2 -16 8c0 3 2 6 8 6c9 0 21 2 30 4c20 4 29 26 31 55c3 42 3 84 3 100zM461 945
c10 -9 23 -22 32 -40c5 -10 0 -13 -4 -13s-25 -2 -41 -8c-50 -18 -108 -45 -142 -61c-7 -3 -14 -6 -16 -6s-6 2 -6 4c0 3 3 7 8 12c28 26 97 87 123 104c14 10 25 16 29 16c5 0 10 -1 17 -8z" />
    <glyph glyph-name="Ydieresis" unicode="&#x178;" horiz-adv-x="654" 
d="M289 170v86c0 54 -10 76 -23 105c-7 16 -141 236 -176 288c-25 37 -50 62 -68 74c-15 10 -34 16 -43 16c-5 0 -10 2 -10 7c0 4 4 7 13 7c19 0 94 -3 99 -3c7 0 45 3 84 3c11 0 13 -3 13 -7s-6 -5 -15 -9c-8 -4 -13 -10 -13 -18c0 -12 5 -24 13 -39
c16 -29 166 -287 184 -316c19 42 146 261 166 294c13 21 17 38 17 51c0 14 -4 25 -16 28c-9 3 -15 5 -15 10c0 4 6 6 16 6c26 0 58 -3 66 -3c6 0 78 3 97 3c7 0 13 -2 13 -6c0 -5 -5 -8 -13 -8c-11 0 -30 -4 -46 -14c-20 -12 -31 -24 -53 -51c-33 -40 -173 -275 -191 -318
c-15 -36 -15 -67 -15 -100v-86c0 -16 0 -58 3 -100c2 -29 11 -51 41 -55c14 -2 36 -4 45 -4c6 0 8 -3 8 -6c0 -5 -5 -8 -16 -8c-55 0 -118 3 -123 3s-68 -3 -98 -3c-11 0 -16 2 -16 8c0 3 2 6 8 6c9 0 21 2 30 4c20 4 29 26 31 55c3 42 3 84 3 100zM442 839
c-27 0 -39 21 -39 39c0 16 12 39 40 39c22 0 38 -15 38 -37c0 -24 -14 -41 -39 -41zM219 839c-28 0 -38 22 -38 39s11 39 39 39c22 0 38 -15 38 -37c0 -24 -15 -41 -39 -41z" />
    <glyph glyph-name="Zcaron" unicode="&#x17d;" horiz-adv-x="692" 
d="M184 40h272c105 0 137 19 158 49c9 13 18 40 20 54c2 10 4 16 9 16c6 0 8 -4 8 -23c0 -31 -14 -90 -20 -115c-6 -24 -7 -26 -30 -26c-167 0 -335 5 -510 5c-12 0 -18 1 -18 8c0 5 2 10 14 28c149 225 300 450 439 676h-217c-51 0 -112 -3 -144 -20
c-36 -19 -54 -56 -57 -79c-2 -15 -6 -18 -11 -18s-6 5 -6 13c0 12 15 103 20 133c2 14 4 19 10 19c9 0 15 -6 42 -7c95 -4 143 -3 174 -3h279c15 0 20 -2 20 -8c0 -4 0 -6 -4 -12c-145 -230 -296 -460 -448 -690zM366 819c-5 0 -9 2 -19 8c-18 12 -110 72 -128 85
c-11 8 -12 10 -12 12c0 3 2 4 5 6l32 21c3 2 6 4 11 0c27 -23 88 -65 109 -76c5 -3 9 -5 12 -5c2 0 8 2 16 6c26 14 82 47 116 68c10 6 17 9 21 9c7 0 9 -6 -2 -14c-40 -29 -129 -98 -143 -110c-10 -7 -15 -10 -18 -10z" />
    <glyph glyph-name="Dcroat" unicode="&#x110;" horiz-adv-x="927" 
d="M188 405v58c0 156 0 184 -2 216c-2 34 -7 50 -40 57c-8 2 -25 3 -34 3c-7 0 -11 2 -11 6c0 6 5 8 16 8c45 0 108 -3 113 -3c12 0 75 3 135 3c99 0 282 9 401 -114c50 -52 97 -135 97 -254c0 -126 -52 -223 -108 -282c-43 -45 -133 -115 -303 -115c-43 0 -96 3 -139 6
c-44 3 -78 6 -83 6c-2 0 -19 0 -40 -1c-20 0 -43 -2 -58 -2c-11 0 -16 2 -16 8c0 3 2 6 10 6c11 1 19 2 28 4c20 4 25 26 29 55c5 42 5 121 5 217v81h-100c-8 0 -9 1 -8 8c1 8 3 17 5 23c2 5 3 6 17 6h86zM272 368v-13c0 -106 1 -198 2 -217c1 -25 3 -65 11 -76
c13 -19 52 -40 170 -40c93 0 179 34 238 93c52 51 80 147 80 239c0 127 -55 209 -96 252c-94 99 -208 113 -327 113c-20 0 -57 -3 -65 -7c-9 -4 -12 -9 -12 -20c-1 -34 -1 -136 -1 -213v-74h193c8 0 9 -2 8 -7c-1 -6 -4 -19 -7 -25c-2 -4 -5 -5 -15 -5h-179z" />
    <glyph glyph-name="Hbar" unicode="&#x126;" horiz-adv-x="960" 
d="M782 463v-176c0 -96 0 -175 5 -217c3 -29 9 -51 39 -55c14 -2 36 -4 45 -4c6 0 8 -3 8 -6c0 -5 -5 -8 -16 -8c-55 0 -118 3 -123 3s-68 -3 -98 -3c-11 0 -16 2 -16 8c0 3 2 6 8 6c9 0 21 2 30 4c20 4 25 26 29 55c5 42 5 121 5 217v85c0 4 -3 6 -6 6h-424
c-3 0 -6 -1 -6 -6v-85c0 -96 0 -175 5 -217c3 -29 9 -51 39 -55c14 -2 36 -4 45 -4c6 0 8 -3 8 -6c0 -5 -5 -8 -16 -8c-55 0 -118 3 -123 3s-68 -3 -98 -3c-11 0 -16 2 -16 8c0 3 2 6 8 6c9 0 21 2 30 4c20 4 25 26 29 55c5 42 5 121 5 217v176v80h-63c-29 0 -30 1 -31 4
c-1 4 4 23 7 26c2 2 3 3 29 3h58c0 61 -1 81 -2 103c-2 34 -10 50 -43 57c-8 2 -25 3 -34 3c-4 0 -8 2 -8 6c0 6 5 8 16 8c45 0 108 -3 113 -3s68 3 98 3c11 0 16 -2 16 -8c0 -4 -4 -6 -8 -6c-7 0 -13 -1 -25 -3c-27 -5 -35 -22 -37 -57c-1 -22 -2 -42 -2 -103h436
c0 61 -1 81 -2 103c-2 34 -10 50 -43 57c-8 2 -25 3 -34 3c-4 0 -8 2 -8 6c0 6 5 8 16 8c45 0 108 -3 113 -3s68 3 98 3c11 0 16 -2 16 -8c0 -4 -4 -6 -8 -6c-7 0 -13 -1 -25 -3c-27 -5 -35 -22 -37 -57c-1 -22 -2 -42 -2 -103h68c27 0 28 -1 29 -3c2 -5 -1 -20 -5 -27
c-2 -3 -9 -3 -16 -3h-76v-80zM698 422v41v80h-436v-80v-41c0 -5 3 -6 6 -6h424c3 0 6 1 6 6z" />
    <glyph glyph-name="aacute" unicode="&#xe1;" horiz-adv-x="616" 
d="M381 241h-182c-5 0 -8 -3 -10 -8l-44 -125c-10 -28 -17 -55 -17 -71c0 -18 11 -26 33 -26h7c9 0 12 -3 12 -7c0 -5 -8 -7 -15 -7c-22 0 -68 3 -79 3c-10 0 -54 -3 -96 -3c-11 0 -16 2 -16 7c0 4 4 7 12 7c5 0 14 0 20 1c43 4 60 37 77 79l200 527c11 29 14 34 21 34
c5 0 9 -4 20 -32c14 -33 150 -382 203 -507c33 -79 62 -92 76 -97c13 -5 27 -5 34 -5s12 -2 12 -7s-4 -7 -15 -7c-10 0 -85 0 -152 2c-19 1 -25 2 -25 7c0 3 3 6 7 7c4 2 10 7 4 22l-79 201c-2 3 -4 5 -8 5zM209 276h160c4 0 4 3 3 6l-79 221c-5 14 -6 14 -11 0l-75 -221
c-2 -4 0 -6 2 -6zM421 846c10 -8 23 -19 33 -35c6 -9 1 -12 -3 -12c-3 -1 -23 -5 -37 -11c-45 -21 -98 -51 -128 -69c-2 -1 -21 -14 -21 -4c0 3 2 7 7 12c25 26 83 90 106 108c12 10 23 17 26 17c5 0 10 0 17 -6z" />
    <glyph glyph-name="acircumflex" unicode="&#xe2;" horiz-adv-x="616" 
d="M381 241h-182c-5 0 -8 -3 -10 -8l-44 -125c-10 -28 -17 -55 -17 -71c0 -18 11 -26 33 -26h7c9 0 12 -3 12 -7c0 -5 -8 -7 -15 -7c-22 0 -68 3 -79 3c-10 0 -54 -3 -96 -3c-11 0 -16 2 -16 7c0 4 4 7 12 7c5 0 14 0 20 1c43 4 60 37 77 79l200 527c11 29 14 34 21 34
c5 0 9 -4 20 -32c14 -33 150 -382 203 -507c33 -79 62 -92 76 -97c13 -5 27 -5 34 -5s12 -2 12 -7s-4 -7 -15 -7c-10 0 -85 0 -152 2c-19 1 -25 2 -25 7c0 3 3 6 7 7c4 2 10 7 4 22l-79 201c-2 3 -4 5 -8 5zM209 276h160c4 0 4 3 3 6l-79 221c-5 14 -6 14 -11 0l-75 -221
c-2 -4 0 -6 2 -6zM316 832c4 0 7 -2 17 -7c16 -11 102 -69 118 -81c10 -7 11 -9 11 -11c0 -3 -2 -3 -5 -5l-35 -22c-3 -2 -6 -4 -10 0c-24 21 -79 58 -98 68c-5 3 -9 4 -12 4c-2 0 -6 -1 -14 -5c-24 -13 -75 -43 -107 -62c-8 -5 -15 -8 -19 -8c-6 0 -8 5 2 12
c36 27 122 97 135 108c9 6 14 9 17 9z" />
    <glyph glyph-name="adieresis" unicode="&#xe4;" horiz-adv-x="616" 
d="M381 241h-182c-5 0 -8 -3 -10 -8l-44 -125c-10 -28 -17 -55 -17 -71c0 -18 11 -26 33 -26h7c9 0 12 -3 12 -7c0 -5 -8 -7 -15 -7c-22 0 -68 3 -79 3c-10 0 -54 -3 -96 -3c-11 0 -16 2 -16 7c0 4 4 7 12 7c5 0 14 0 20 1c43 4 60 37 77 79l200 527c11 29 14 34 21 34
c5 0 9 -4 20 -32c14 -33 150 -382 203 -507c33 -79 62 -92 76 -97c13 -5 27 -5 34 -5s12 -2 12 -7s-4 -7 -15 -7c-10 0 -85 0 -152 2c-19 1 -25 2 -25 7c0 3 3 6 7 7c4 2 10 7 4 22l-79 201c-2 3 -4 5 -8 5zM209 276h160c4 0 4 3 3 6l-79 221c-5 14 -6 14 -11 0l-75 -221
c-2 -4 0 -6 2 -6zM416 730c-27 0 -39 21 -39 39c0 16 12 39 40 39c22 0 38 -15 38 -37c0 -24 -14 -41 -39 -41zM193 730c-28 0 -38 22 -38 39s11 39 39 39c22 0 38 -15 38 -37c0 -24 -15 -41 -39 -41z" />
    <glyph glyph-name="agrave" unicode="&#xe0;" horiz-adv-x="616" 
d="M381 241h-182c-5 0 -8 -3 -10 -8l-44 -125c-10 -28 -17 -55 -17 -71c0 -18 11 -26 33 -26h7c9 0 12 -3 12 -7c0 -5 -8 -7 -15 -7c-22 0 -68 3 -79 3c-10 0 -54 -3 -96 -3c-11 0 -16 2 -16 7c0 4 4 7 12 7c5 0 14 0 20 1c43 4 60 37 77 79l200 527c11 29 14 34 21 34
c5 0 9 -4 20 -32c14 -33 150 -382 203 -507c33 -79 62 -92 76 -97c13 -5 27 -5 34 -5s12 -2 12 -7s-4 -7 -15 -7c-10 0 -85 0 -152 2c-19 1 -25 2 -25 7c0 3 3 6 7 7c4 2 10 7 4 22l-79 201c-2 3 -4 5 -8 5zM209 276h160c4 0 4 3 3 6l-79 221c-5 14 -6 14 -11 0l-75 -221
c-2 -4 0 -6 2 -6zM349 716c0 -2 -1 -2 -5 -2c-16 0 -133 66 -185 102c-9 7 -15 11 -14 15c0 3 1 5 10 8c11 5 39 14 46 15c12 2 13 0 24 -11c21 -21 74 -80 116 -115c6 -5 8 -9 8 -12z" />
    <glyph glyph-name="aring" unicode="&#xe5;" horiz-adv-x="616" 
d="M381 241h-182c-5 0 -8 -3 -10 -8l-44 -125c-10 -28 -17 -55 -17 -71c0 -18 11 -26 33 -26h7c9 0 12 -3 12 -7c0 -5 -8 -7 -15 -7c-22 0 -68 3 -79 3c-10 0 -54 -3 -96 -3c-11 0 -16 2 -16 7c0 4 4 7 12 7c5 0 14 0 20 1c43 4 60 37 77 79l200 527c11 29 14 34 21 34
c5 0 9 -4 20 -32c14 -33 150 -382 203 -507c33 -79 62 -92 76 -97c13 -5 27 -5 34 -5s12 -2 12 -7s-4 -7 -15 -7c-10 0 -85 0 -152 2c-19 1 -25 2 -25 7c0 3 3 6 7 7c4 2 10 7 4 22l-79 201c-2 3 -4 5 -8 5zM209 276h160c4 0 4 3 3 6l-79 221c-5 14 -6 14 -11 0l-75 -221
c-2 -4 0 -6 2 -6zM283 688c-45 0 -72 26 -72 58c0 43 45 80 110 80c48 0 74 -24 74 -56c0 -52 -58 -82 -112 -82zM250 757c0 -31 27 -49 51 -49c35 0 54 22 54 50c0 24 -16 47 -52 47c-24 0 -53 -14 -53 -48z" />
    <glyph glyph-name="atilde" unicode="&#xe3;" horiz-adv-x="616" 
d="M381 241h-182c-5 0 -8 -3 -10 -8l-44 -125c-10 -28 -17 -55 -17 -71c0 -18 11 -26 33 -26h7c9 0 12 -3 12 -7c0 -5 -8 -7 -15 -7c-22 0 -68 3 -79 3c-10 0 -54 -3 -96 -3c-11 0 -16 2 -16 7c0 4 4 7 12 7c5 0 14 0 20 1c43 4 60 37 77 79l200 527c11 29 14 34 21 34
c5 0 9 -4 20 -32c14 -33 150 -382 203 -507c33 -79 62 -92 76 -97c13 -5 27 -5 34 -5s12 -2 12 -7s-4 -7 -15 -7c-10 0 -85 0 -152 2c-19 1 -25 2 -25 7c0 3 3 6 7 7c4 2 10 7 4 22l-79 201c-2 3 -4 5 -8 5zM209 276h160c4 0 4 3 3 6l-79 221c-5 14 -6 14 -11 0l-75 -221
c-2 -4 0 -6 2 -6zM373 721c-40 0 -107 43 -149 43c-27 0 -43 -9 -61 -29c-7 -9 -9 -9 -13 -9c-3 0 -5 5 1 14c27 41 60 69 90 69c14 0 42 -5 87 -23c28 -11 47 -17 61 -17c30 0 47 10 70 34c5 6 9 8 11 8c4 0 5 -7 1 -13c-22 -35 -57 -77 -98 -77z" />
    <glyph glyph-name="ccedilla" unicode="&#xe7;" horiz-adv-x="709" 
d="M339 -61l58 49c-101 8 -175 37 -235 89c-85 74 -107 172 -107 255c0 56 22 155 101 231c54 52 135 89 269 89c46 0 83 -4 132 -11c32 -5 64 -10 88 -11c8 0 9 -5 9 -10c0 -8 -3 -17 -5 -49c-1 -28 -1 -80 -2 -92c-1 -14 -3 -19 -8 -19c-7 0 -8 6 -8 19
c0 29 -14 68 -39 87c-30 26 -100 51 -177 51c-111 0 -162 -31 -192 -58c-65 -59 -80 -131 -80 -219c0 -166 135 -312 311 -312c68 0 118 7 153 41c18 19 28 44 33 72c2 10 5 15 11 15c5 0 5 -7 5 -14c0 -8 -13 -89 -20 -111c-6 -16 -9 -19 -23 -25
c-35 -15 -102 -20 -158 -20h-24c-19 -17 -41 -37 -51 -45c46 -7 105 -25 105 -77c0 -55 -71 -89 -151 -89c-7 0 -13 4 -13 8c0 3 6 5 19 8c45 9 77 30 77 66c0 30 -22 53 -79 62c-6 1 -11 4 -11 7s6 9 12 13z" />
    <glyph glyph-name="eacute" unicode="&#xe9;" horiz-adv-x="542" 
d="M155 244v150c0 131 0 155 -2 182c-2 28 -9 42 -38 48c-6 1 -16 2 -24 2c-7 0 -13 3 -13 6c0 6 5 8 15 8c20 0 47 -2 103 -3c5 0 183 0 203 1s31 2 39 5c6 2 7 3 11 3c2 0 4 -2 4 -7c0 -6 -6 -20 -8 -45c-1 -17 -2 -33 -3 -52c0 -9 -2 -15 -7 -15s-7 4 -7 11
c-1 15 -4 25 -7 32c-6 20 -15 27 -65 30c-13 1 -112 2 -114 2c-3 0 -5 -2 -5 -8v-227c0 -6 1 -10 6 -10c12 0 114 1 135 3c23 1 38 4 46 15c4 6 7 8 11 8c2 0 4 -1 4 -6s-4 -24 -7 -53c-3 -28 -3 -48 -4 -61c-1 -8 -3 -11 -7 -11c-5 0 -6 6 -6 13c0 6 -1 16 -3 24
c-4 13 -10 27 -48 30c-23 2 -104 4 -120 4c-6 0 -7 -3 -7 -7v-73c0 -31 -1 -119 0 -136c2 -37 7 -56 28 -65c15 -7 39 -9 73 -9c19 0 51 -1 76 6c30 9 37 29 45 66c2 10 5 14 9 14c6 0 6 -9 6 -15c0 -7 -8 -70 -11 -87c-4 -20 -11 -22 -44 -22c-66 0 -94 2 -129 2
c-35 1 -81 3 -118 3c-23 0 -42 -3 -66 -3c-9 0 -14 2 -14 7c0 4 4 7 9 7c6 0 13 1 20 3c18 4 30 17 32 79c1 34 2 75 2 151zM404 835c10 -8 23 -19 33 -35c6 -9 1 -12 -3 -12c-3 -1 -23 -5 -37 -11c-45 -21 -98 -51 -128 -69c-2 -1 -21 -14 -21 -4c0 3 2 7 7 12
c25 26 83 90 106 108c12 10 23 17 26 17c5 0 10 0 17 -6z" />
    <glyph glyph-name="ecircumflex" unicode="&#xea;" horiz-adv-x="542" 
d="M155 244v150c0 131 0 155 -2 182c-2 28 -9 42 -38 48c-6 1 -16 2 -24 2c-7 0 -13 3 -13 6c0 6 5 8 15 8c20 0 47 -2 103 -3c5 0 183 0 203 1s31 2 39 5c6 2 7 3 11 3c2 0 4 -2 4 -7c0 -6 -6 -20 -8 -45c-1 -17 -2 -33 -3 -52c0 -9 -2 -15 -7 -15s-7 4 -7 11
c-1 15 -4 25 -7 32c-6 20 -15 27 -65 30c-13 1 -112 2 -114 2c-3 0 -5 -2 -5 -8v-227c0 -6 1 -10 6 -10c12 0 114 1 135 3c23 1 38 4 46 15c4 6 7 8 11 8c2 0 4 -1 4 -6s-4 -24 -7 -53c-3 -28 -3 -48 -4 -61c-1 -8 -3 -11 -7 -11c-5 0 -6 6 -6 13c0 6 -1 16 -3 24
c-4 13 -10 27 -48 30c-23 2 -104 4 -120 4c-6 0 -7 -3 -7 -7v-73c0 -31 -1 -119 0 -136c2 -37 7 -56 28 -65c15 -7 39 -9 73 -9c19 0 51 -1 76 6c30 9 37 29 45 66c2 10 5 14 9 14c6 0 6 -9 6 -15c0 -7 -8 -70 -11 -87c-4 -20 -11 -22 -44 -22c-66 0 -94 2 -129 2
c-35 1 -81 3 -118 3c-23 0 -42 -3 -66 -3c-9 0 -14 2 -14 7c0 4 4 7 9 7c6 0 13 1 20 3c18 4 30 17 32 79c1 34 2 75 2 151zM280 843c4 0 7 -2 17 -7c16 -11 102 -69 118 -81c10 -7 11 -9 11 -11c0 -3 -2 -3 -5 -5l-35 -22c-3 -2 -6 -4 -10 0c-24 21 -79 58 -98 68
c-5 3 -9 4 -12 4c-2 0 -6 -1 -14 -5c-24 -13 -75 -43 -107 -62c-8 -5 -15 -8 -19 -8c-6 0 -8 5 2 12c36 27 122 97 135 108c9 6 14 9 17 9z" />
    <glyph glyph-name="edieresis" unicode="&#xeb;" horiz-adv-x="542" 
d="M155 244v150c0 131 0 155 -2 182c-2 28 -9 42 -38 48c-6 1 -16 2 -24 2c-7 0 -13 3 -13 6c0 6 5 8 15 8c20 0 47 -2 103 -3c5 0 183 0 203 1s31 2 39 5c6 2 7 3 11 3c2 0 4 -2 4 -7c0 -6 -6 -20 -8 -45c-1 -17 -2 -33 -3 -52c0 -9 -2 -15 -7 -15s-7 4 -7 11
c-1 15 -4 25 -7 32c-6 20 -15 27 -65 30c-13 1 -112 2 -114 2c-3 0 -5 -2 -5 -8v-227c0 -6 1 -10 6 -10c12 0 114 1 135 3c23 1 38 4 46 15c4 6 7 8 11 8c2 0 4 -1 4 -6s-4 -24 -7 -53c-3 -28 -3 -48 -4 -61c-1 -8 -3 -11 -7 -11c-5 0 -6 6 -6 13c0 6 -1 16 -3 24
c-4 13 -10 27 -48 30c-23 2 -104 4 -120 4c-6 0 -7 -3 -7 -7v-73c0 -31 -1 -119 0 -136c2 -37 7 -56 28 -65c15 -7 39 -9 73 -9c19 0 51 -1 76 6c30 9 37 29 45 66c2 10 5 14 9 14c6 0 6 -9 6 -15c0 -7 -8 -70 -11 -87c-4 -20 -11 -22 -44 -22c-66 0 -94 2 -129 2
c-35 1 -81 3 -118 3c-23 0 -42 -3 -66 -3c-9 0 -14 2 -14 7c0 4 4 7 9 7c6 0 13 1 20 3c18 4 30 17 32 79c1 34 2 75 2 151zM396 733c-27 0 -39 21 -39 39c0 16 12 39 40 39c22 0 38 -15 38 -37c0 -24 -14 -41 -39 -41zM173 733c-28 0 -38 22 -38 39s11 39 39 39
c22 0 38 -15 38 -37c0 -24 -15 -41 -39 -41z" />
    <glyph glyph-name="egrave" unicode="&#xe8;" horiz-adv-x="542" 
d="M155 244v150c0 131 0 155 -2 182c-2 28 -9 42 -38 48c-6 1 -16 2 -24 2c-7 0 -13 3 -13 6c0 6 5 8 15 8c20 0 47 -2 103 -3c5 0 183 0 203 1s31 2 39 5c6 2 7 3 11 3c2 0 4 -2 4 -7c0 -6 -6 -20 -8 -45c-1 -17 -2 -33 -3 -52c0 -9 -2 -15 -7 -15s-7 4 -7 11
c-1 15 -4 25 -7 32c-6 20 -15 27 -65 30c-13 1 -112 2 -114 2c-3 0 -5 -2 -5 -8v-227c0 -6 1 -10 6 -10c12 0 114 1 135 3c23 1 38 4 46 15c4 6 7 8 11 8c2 0 4 -1 4 -6s-4 -24 -7 -53c-3 -28 -3 -48 -4 -61c-1 -8 -3 -11 -7 -11c-5 0 -6 6 -6 13c0 6 -1 16 -3 24
c-4 13 -10 27 -48 30c-23 2 -104 4 -120 4c-6 0 -7 -3 -7 -7v-73c0 -31 -1 -119 0 -136c2 -37 7 -56 28 -65c15 -7 39 -9 73 -9c19 0 51 -1 76 6c30 9 37 29 45 66c2 10 5 14 9 14c6 0 6 -9 6 -15c0 -7 -8 -70 -11 -87c-4 -20 -11 -22 -44 -22c-66 0 -94 2 -129 2
c-35 1 -81 3 -118 3c-23 0 -42 -3 -66 -3c-9 0 -14 2 -14 7c0 4 4 7 9 7c6 0 13 1 20 3c18 4 30 17 32 79c1 34 2 75 2 151zM328 706c0 -2 -1 -2 -5 -2c-16 0 -133 66 -185 102c-9 7 -15 11 -14 15c0 3 1 5 10 8c11 5 39 14 46 15c12 2 13 0 24 -11c21 -21 74 -80 116 -115
c6 -5 8 -9 8 -12z" />
    <glyph glyph-name="iacute" unicode="&#xed;" horiz-adv-x="392" 
d="M155 244v150c0 132 0 156 -2 183s-8 42 -29 46c-10 2 -17 2 -23 3c-7 1 -11 3 -11 7c0 5 4 7 15 7c31 0 88 -3 91 -3c4 0 62 3 90 3c10 0 15 -2 15 -7c0 -4 -3 -6 -11 -7c-6 -1 -11 -1 -18 -2c-29 -4 -32 -19 -34 -48c-2 -27 -1 -50 -1 -182v-150c0 -77 -1 -147 4 -183
c4 -29 8 -40 34 -46c13 -3 34 -4 38 -4c9 -1 11 -3 11 -7s-4 -7 -14 -7c-51 0 -109 3 -114 3c-3 0 -62 -3 -90 -3c-9 0 -16 2 -16 7c0 4 4 7 13 7c5 0 16 1 24 3c17 4 20 24 23 48c5 36 5 107 5 182zM319 840c10 -8 23 -19 33 -35c6 -9 1 -12 -3 -12c-3 -1 -23 -5 -37 -11
c-45 -21 -98 -51 -128 -69c-2 -1 -21 -14 -21 -4c0 3 2 7 7 12c25 26 83 90 106 108c12 10 23 17 26 17c5 0 10 0 17 -6z" />
    <glyph glyph-name="icircumflex" unicode="&#xee;" horiz-adv-x="392" 
d="M155 244v150c0 132 0 156 -2 183s-8 42 -29 46c-10 2 -17 2 -23 3c-7 1 -11 3 -11 7c0 5 4 7 15 7c31 0 88 -3 91 -3c4 0 62 3 90 3c10 0 15 -2 15 -7c0 -4 -3 -6 -11 -7c-6 -1 -11 -1 -18 -2c-29 -4 -32 -19 -34 -48c-2 -27 -1 -50 -1 -182v-150c0 -77 -1 -147 4 -183
c4 -29 8 -40 34 -46c13 -3 34 -4 38 -4c9 -1 11 -3 11 -7s-4 -7 -14 -7c-51 0 -109 3 -114 3c-3 0 -62 -3 -90 -3c-9 0 -16 2 -16 7c0 4 4 7 13 7c5 0 16 1 24 3c17 4 20 24 23 48c5 36 5 107 5 182zM205 838c4 0 7 -2 17 -7c16 -11 102 -69 118 -81c10 -7 11 -9 11 -11
c0 -3 -2 -3 -5 -5l-35 -22c-3 -2 -6 -4 -10 0c-24 21 -79 58 -98 68c-5 3 -9 4 -12 4c-2 0 -6 -1 -14 -5c-24 -13 -75 -43 -107 -62c-8 -5 -15 -8 -19 -8c-6 0 -8 5 2 12c36 27 122 97 135 108c9 6 14 9 17 9z" />
    <glyph glyph-name="idieresis" unicode="&#xef;" horiz-adv-x="392" 
d="M155 244v150c0 132 0 156 -2 183s-8 42 -29 46c-10 2 -17 2 -23 3c-7 1 -11 3 -11 7c0 5 4 7 15 7c31 0 88 -3 91 -3c4 0 62 3 90 3c10 0 15 -2 15 -7c0 -4 -3 -6 -11 -7c-6 -1 -11 -1 -18 -2c-29 -4 -32 -19 -34 -48c-2 -27 -1 -50 -1 -182v-150c0 -77 -1 -147 4 -183
c4 -29 8 -40 34 -46c13 -3 34 -4 38 -4c9 -1 11 -3 11 -7s-4 -7 -14 -7c-51 0 -109 3 -114 3c-3 0 -62 -3 -90 -3c-9 0 -16 2 -16 7c0 4 4 7 13 7c5 0 16 1 24 3c17 4 20 24 23 48c5 36 5 107 5 182zM307 730c-27 0 -39 21 -39 39c0 16 12 39 40 39c22 0 38 -15 38 -37
c0 -24 -14 -41 -39 -41zM84 730c-28 0 -38 22 -38 39s11 39 39 39c22 0 38 -15 38 -37c0 -24 -15 -41 -39 -41z" />
    <glyph glyph-name="igrave" unicode="&#xec;" horiz-adv-x="392" 
d="M155 244v150c0 132 0 156 -2 183s-8 42 -29 46c-10 2 -17 2 -23 3c-7 1 -11 3 -11 7c0 5 4 7 15 7c31 0 88 -3 91 -3c4 0 62 3 90 3c10 0 15 -2 15 -7c0 -4 -3 -6 -11 -7c-6 -1 -11 -1 -18 -2c-29 -4 -32 -19 -34 -48c-2 -27 -1 -50 -1 -182v-150c0 -77 -1 -147 4 -183
c4 -29 8 -40 34 -46c13 -3 34 -4 38 -4c9 -1 11 -3 11 -7s-4 -7 -14 -7c-51 0 -109 3 -114 3c-3 0 -62 -3 -90 -3c-9 0 -16 2 -16 7c0 4 4 7 13 7c5 0 16 1 24 3c17 4 20 24 23 48c5 36 5 107 5 182zM237 716c0 -2 -1 -2 -5 -2c-16 0 -133 66 -185 102c-9 7 -15 11 -14 15
c0 3 1 5 10 8c11 5 39 14 46 15c12 2 13 0 24 -11c21 -21 74 -80 116 -115c6 -5 8 -9 8 -12z" />
    <glyph glyph-name="ntilde" unicode="&#xf1;" horiz-adv-x="839" 
d="M128 122c0 477 1 323 0 489c0 31 3 41 11 41c7 0 24 -20 31 -27c9 -10 148 -152 288 -295c78 -76 178 -179 204 -203l-11 416c-1 54 -7 72 -34 79c-17 3 -32 4 -39 4c-10 0 -12 4 -12 8c0 5 8 6 18 6c43 0 85 -3 94 -3c10 0 41 3 80 3c11 0 14 -1 14 -6c0 -4 -3 -7 -9 -8
s-14 -1 -25 -3c-23 -5 -30 -15 -30 -75l-2 -502c0 -50 -2 -55 -9 -55s-17 7 -66 53c-4 2 -143 140 -230 225c-104 108 -204 212 -229 238l13 -391c2 -69 8 -95 33 -101c16 -4 33 -4 41 -4s12 -3 12 -7c0 -5 -5 -7 -16 -7c-54 0 -90 3 -97 3s-44 -3 -87 -3c-9 0 -15 1 -15 7
c0 4 4 7 14 7c7 0 18 0 31 4c22 7 27 34 27 107zM484 731c-40 0 -107 43 -149 43c-27 0 -43 -9 -61 -29c-7 -9 -9 -9 -13 -9c-3 0 -5 5 1 14c27 41 60 69 90 69c14 0 42 -5 87 -23c28 -11 47 -17 61 -17c30 0 47 10 70 34c5 6 9 8 11 8c4 0 5 -7 1 -13
c-22 -35 -57 -77 -98 -77z" />
    <glyph glyph-name="oacute" unicode="&#xf3;" 
d="M400 -14c-245 0 -345 182 -345 334c0 133 103 332 350 332c198 0 349 -118 349 -319c0 -191 -141 -347 -354 -347zM425 20c67 0 235 34 235 288c0 201 -124 313 -261 313c-139 0 -251 -86 -251 -275c0 -196 109 -326 277 -326zM506 844c10 -8 23 -19 33 -35
c6 -9 1 -12 -3 -12c-3 -1 -23 -5 -37 -11c-45 -21 -98 -51 -128 -69c-2 -1 -21 -14 -21 -4c0 3 2 7 7 12c25 26 83 90 106 108c12 10 23 17 26 17c5 0 10 0 17 -6z" />
    <glyph glyph-name="ocircumflex" unicode="&#xf4;" 
d="M400 -14c-245 0 -345 182 -345 334c0 133 103 332 350 332c198 0 349 -118 349 -319c0 -191 -141 -347 -354 -347zM425 20c67 0 235 34 235 288c0 201 -124 313 -261 313c-139 0 -251 -86 -251 -275c0 -196 109 -326 277 -326zM413 848c4 0 7 -2 17 -7
c16 -11 102 -69 118 -81c10 -7 11 -9 11 -11c0 -3 -2 -3 -5 -5l-35 -22c-3 -2 -6 -4 -10 0c-24 21 -79 58 -98 68c-5 3 -9 4 -12 4c-2 0 -6 -1 -14 -5c-24 -13 -75 -43 -107 -62c-8 -5 -15 -8 -19 -8c-6 0 -8 5 2 12c36 27 122 97 135 108c9 6 14 9 17 9z" />
    <glyph glyph-name="odieresis" unicode="&#xf6;" 
d="M400 -14c-245 0 -345 182 -345 334c0 133 103 332 350 332c198 0 349 -118 349 -319c0 -191 -141 -347 -354 -347zM425 20c67 0 235 34 235 288c0 201 -124 313 -261 313c-139 0 -251 -86 -251 -275c0 -196 109 -326 277 -326zM516 750c-27 0 -39 21 -39 39
c0 16 12 39 40 39c22 0 38 -15 38 -37c0 -24 -14 -41 -39 -41zM293 750c-28 0 -38 22 -38 39s11 39 39 39c22 0 38 -15 38 -37c0 -24 -15 -41 -39 -41z" />
    <glyph glyph-name="ograve" unicode="&#xf2;" 
d="M400 -14c-245 0 -345 182 -345 334c0 133 103 332 350 332c198 0 349 -118 349 -319c0 -191 -141 -347 -354 -347zM425 20c67 0 235 34 235 288c0 201 -124 313 -261 313c-139 0 -251 -86 -251 -275c0 -196 109 -326 277 -326zM466 716c0 -2 -1 -2 -5 -2
c-16 0 -133 66 -185 102c-9 7 -15 11 -14 15c0 3 1 5 10 8c11 5 39 14 46 15c12 2 13 0 24 -11c21 -21 74 -80 116 -115c6 -5 8 -9 8 -12z" />
    <glyph glyph-name="otilde" unicode="&#xf5;" 
d="M400 -14c-245 0 -345 182 -345 334c0 133 103 332 350 332c198 0 349 -118 349 -319c0 -191 -141 -347 -354 -347zM425 20c67 0 235 34 235 288c0 201 -124 313 -261 313c-139 0 -251 -86 -251 -275c0 -196 109 -326 277 -326zM470 732c-40 0 -107 43 -149 43
c-27 0 -43 -9 -61 -29c-7 -9 -9 -9 -13 -9c-3 0 -5 5 1 14c27 41 60 69 90 69c14 0 42 -5 87 -23c28 -11 47 -17 61 -17c30 0 47 10 70 34c5 6 9 8 11 8c4 0 5 -7 1 -13c-22 -35 -57 -77 -98 -77z" />
    <glyph glyph-name="scaron" unicode="&#x161;" horiz-adv-x="512" 
d="M224 -14c-42 0 -81 5 -119 22c-13 6 -13 10 -13 34c0 46 3 80 4 94c1 9 3 14 8 14s7 -3 7 -10c0 -6 0 -18 3 -30c13 -65 72 -90 130 -90c83 0 123 57 123 107c0 57 -26 92 -99 151l-40 31c-96 77 -116 130 -116 189c0 92 73 154 185 154c35 0 59 -3 81 -8
c19 -4 27 -5 34 -5s9 -2 9 -6s-4 -39 -4 -97c0 -15 -2 -21 -7 -21s-6 4 -7 11c-1 9 -3 30 -12 47c-5 9 -28 47 -112 47c-60 0 -105 -36 -105 -96c0 -47 24 -76 107 -139l23 -18c104 -80 131 -133 131 -204c0 -36 -15 -100 -76 -142c-39 -25 -87 -35 -135 -35zM274 713
c-3 0 -7 2 -17 7c-16 11 -101 68 -117 80c-10 7 -11 9 -11 11c0 3 2 3 5 5l35 22c3 2 6 4 10 0c24 -21 80 -59 99 -69c5 -3 9 -4 12 -4c2 0 6 1 14 5c24 13 75 43 107 62c8 6 15 8 19 8c6 0 8 -5 -2 -12c-37 -27 -124 -95 -137 -106c-9 -6 -14 -9 -17 -9z" />
    <glyph glyph-name="uacute" unicode="&#xfa;" horiz-adv-x="727" 
d="M187 394v-119c0 -122 23 -174 61 -208c43 -38 91 -46 132 -46c52 0 99 14 137 58c40 46 49 122 49 209v106c0 131 0 154 -2 181c-2 29 -5 44 -37 49c-7 1 -19 2 -28 2c-6 0 -10 3 -10 6c0 6 5 8 14 8c43 0 93 -3 97 -3c5 0 48 3 76 3c10 0 14 -2 14 -7c0 -4 -4 -7 -10 -7
s-8 0 -18 -1c-28 -3 -32 -21 -34 -50c-1 -27 -1 -50 -1 -181v-89c0 -90 -10 -198 -81 -259c-65 -55 -129 -60 -183 -60c-28 0 -122 0 -187 60c-43 40 -74 100 -74 224v124c0 132 0 155 -3 182c-1 27 -6 44 -37 48c-6 1 -18 2 -26 2c-7 0 -11 3 -11 6c0 6 4 8 15 8
c43 0 97 -3 104 -3c8 0 67 3 94 3c11 0 14 -2 14 -7s-7 -7 -12 -7c-6 0 -14 -1 -22 -2c-24 -3 -28 -20 -30 -48c-1 -27 -1 -50 -1 -182zM476 839c10 -8 23 -19 33 -35c6 -9 1 -12 -3 -12c-3 -1 -23 -5 -37 -11c-45 -21 -98 -51 -128 -69c-2 -1 -21 -14 -21 -4c0 3 2 7 7 12
c25 26 83 90 106 108c12 10 23 17 26 17c5 0 10 0 17 -6z" />
    <glyph glyph-name="ucircumflex" unicode="&#xfb;" horiz-adv-x="727" 
d="M187 394v-119c0 -122 23 -174 61 -208c43 -38 91 -46 132 -46c52 0 99 14 137 58c40 46 49 122 49 209v106c0 131 0 154 -2 181c-2 29 -5 44 -37 49c-7 1 -19 2 -28 2c-6 0 -10 3 -10 6c0 6 5 8 14 8c43 0 93 -3 97 -3c5 0 48 3 76 3c10 0 14 -2 14 -7c0 -4 -4 -7 -10 -7
s-8 0 -18 -1c-28 -3 -32 -21 -34 -50c-1 -27 -1 -50 -1 -181v-89c0 -90 -10 -198 -81 -259c-65 -55 -129 -60 -183 -60c-28 0 -122 0 -187 60c-43 40 -74 100 -74 224v124c0 132 0 155 -3 182c-1 27 -6 44 -37 48c-6 1 -18 2 -26 2c-7 0 -11 3 -11 6c0 6 4 8 15 8
c43 0 97 -3 104 -3c8 0 67 3 94 3c11 0 14 -2 14 -7s-7 -7 -12 -7c-6 0 -14 -1 -22 -2c-24 -3 -28 -20 -30 -48c-1 -27 -1 -50 -1 -182zM371 848c4 0 7 -2 17 -7c16 -11 102 -69 118 -81c10 -7 11 -9 11 -11c0 -3 -2 -3 -5 -5l-35 -22c-3 -2 -6 -4 -10 0
c-24 21 -79 58 -98 68c-5 3 -9 4 -12 4c-2 0 -6 -1 -14 -5c-24 -13 -75 -43 -107 -62c-8 -5 -15 -8 -19 -8c-6 0 -8 5 2 12c36 27 122 97 135 108c9 6 14 9 17 9z" />
    <glyph glyph-name="udieresis" unicode="&#xfc;" horiz-adv-x="727" 
d="M187 394v-119c0 -122 23 -174 61 -208c43 -38 91 -46 132 -46c52 0 99 14 137 58c40 46 49 122 49 209v106c0 131 0 154 -2 181c-2 29 -5 44 -37 49c-7 1 -19 2 -28 2c-6 0 -10 3 -10 6c0 6 5 8 14 8c43 0 93 -3 97 -3c5 0 48 3 76 3c10 0 14 -2 14 -7c0 -4 -4 -7 -10 -7
s-8 0 -18 -1c-28 -3 -32 -21 -34 -50c-1 -27 -1 -50 -1 -181v-89c0 -90 -10 -198 -81 -259c-65 -55 -129 -60 -183 -60c-28 0 -122 0 -187 60c-43 40 -74 100 -74 224v124c0 132 0 155 -3 182c-1 27 -6 44 -37 48c-6 1 -18 2 -26 2c-7 0 -11 3 -11 6c0 6 4 8 15 8
c43 0 97 -3 104 -3c8 0 67 3 94 3c11 0 14 -2 14 -7s-7 -7 -12 -7c-6 0 -14 -1 -22 -2c-24 -3 -28 -20 -30 -48c-1 -27 -1 -50 -1 -182zM479 740c-27 0 -39 21 -39 39c0 16 12 39 40 39c22 0 38 -15 38 -37c0 -24 -14 -41 -39 -41zM256 740c-28 0 -38 22 -38 39s11 39 39 39
c22 0 38 -15 38 -37c0 -24 -15 -41 -39 -41z" />
    <glyph glyph-name="ugrave" unicode="&#xf9;" horiz-adv-x="727" 
d="M187 394v-119c0 -122 23 -174 61 -208c43 -38 91 -46 132 -46c52 0 99 14 137 58c40 46 49 122 49 209v106c0 131 0 154 -2 181c-2 29 -5 44 -37 49c-7 1 -19 2 -28 2c-6 0 -10 3 -10 6c0 6 5 8 14 8c43 0 93 -3 97 -3c5 0 48 3 76 3c10 0 14 -2 14 -7c0 -4 -4 -7 -10 -7
s-8 0 -18 -1c-28 -3 -32 -21 -34 -50c-1 -27 -1 -50 -1 -181v-89c0 -90 -10 -198 -81 -259c-65 -55 -129 -60 -183 -60c-28 0 -122 0 -187 60c-43 40 -74 100 -74 224v124c0 132 0 155 -3 182c-1 27 -6 44 -37 48c-6 1 -18 2 -26 2c-7 0 -11 3 -11 6c0 6 4 8 15 8
c43 0 97 -3 104 -3c8 0 67 3 94 3c11 0 14 -2 14 -7s-7 -7 -12 -7c-6 0 -14 -1 -22 -2c-24 -3 -28 -20 -30 -48c-1 -27 -1 -50 -1 -182zM414 709c0 -2 -1 -2 -5 -2c-16 0 -133 66 -185 102c-9 7 -15 11 -14 15c0 3 1 5 10 8c11 5 39 14 46 15c12 2 13 0 24 -11
c21 -21 74 -80 116 -115c6 -5 8 -9 8 -12z" />
    <glyph glyph-name="yacute" unicode="&#xfd;" horiz-adv-x="579" 
d="M252 142v73c0 48 -7 66 -22 92c-6 11 -122 200 -153 243c-27 38 -37 50 -51 61c-14 10 -27 14 -47 15c-6 0 -11 3 -11 8c0 3 4 6 12 6c16 0 92 -3 94 -3c6 0 39 3 76 3c10 0 13 -3 13 -6c0 -4 -3 -6 -11 -8c-14 -3 -16 -8 -16 -16c0 -10 6 -20 13 -33
c13 -25 145 -237 160 -262c16 35 128 218 142 243c19 33 23 42 23 53c0 13 -12 13 -23 15c-8 1 -11 4 -11 8c0 3 2 6 12 6c24 0 45 -3 61 -3c13 0 71 3 88 3c9 0 12 -3 12 -6c0 -5 -5 -8 -12 -8c-21 -1 -36 -3 -50 -13c-15 -10 -21 -19 -37 -41c-58 -80 -155 -243 -170 -278
c-12 -31 -10 -53 -10 -79v-73c0 -7 0 -44 2 -80c2 -24 4 -41 35 -47c13 -3 30 -4 37 -4c8 0 11 -3 11 -6c0 -5 -3 -8 -12 -8c-50 0 -112 3 -115 3c-2 0 -62 -3 -90 -3c-10 0 -14 3 -14 8c0 3 3 6 10 6c8 0 17 1 25 3c17 3 24 24 26 48c3 36 3 72 3 80zM416 840
c10 -8 23 -19 33 -35c6 -9 1 -12 -3 -12c-3 -1 -23 -5 -37 -11c-45 -21 -98 -51 -128 -69c-2 -1 -21 -14 -21 -4c0 3 2 7 7 12c25 26 83 90 106 108c12 10 23 17 26 17c5 0 10 0 17 -6z" />
    <glyph glyph-name="ydieresis" unicode="&#xff;" horiz-adv-x="579" 
d="M252 142v73c0 48 -7 66 -22 92c-6 11 -122 200 -153 243c-27 38 -37 50 -51 61c-14 10 -27 14 -47 15c-6 0 -11 3 -11 8c0 3 4 6 12 6c16 0 92 -3 94 -3c6 0 39 3 76 3c10 0 13 -3 13 -6c0 -4 -3 -6 -11 -8c-14 -3 -16 -8 -16 -16c0 -10 6 -20 13 -33
c13 -25 145 -237 160 -262c16 35 128 218 142 243c19 33 23 42 23 53c0 13 -12 13 -23 15c-8 1 -11 4 -11 8c0 3 2 6 12 6c24 0 45 -3 61 -3c13 0 71 3 88 3c9 0 12 -3 12 -6c0 -5 -5 -8 -12 -8c-21 -1 -36 -3 -50 -13c-15 -10 -21 -19 -37 -41c-58 -80 -155 -243 -170 -278
c-12 -31 -10 -53 -10 -79v-73c0 -7 0 -44 2 -80c2 -24 4 -41 35 -47c13 -3 30 -4 37 -4c8 0 11 -3 11 -6c0 -5 -3 -8 -12 -8c-50 0 -112 3 -115 3c-2 0 -62 -3 -90 -3c-10 0 -14 3 -14 8c0 3 3 6 10 6c8 0 17 1 25 3c17 3 24 24 26 48c3 36 3 72 3 80zM407 740
c-27 0 -39 21 -39 39c0 16 12 39 40 39c22 0 38 -15 38 -37c0 -24 -14 -41 -39 -41zM184 740c-28 0 -38 22 -38 39s11 39 39 39c22 0 38 -15 38 -37c0 -24 -15 -41 -39 -41z" />
    <glyph glyph-name="zcaron" unicode="&#x17e;" horiz-adv-x="612" 
d="M173 37h232c90 0 125 9 141 41c10 18 12 32 15 47c2 8 4 14 8 14c6 0 7 -5 7 -15c0 -28 -12 -83 -18 -104c-7 -23 -8 -24 -30 -24c-147 0 -289 4 -446 4c-11 0 -16 1 -16 7c0 5 2 9 12 24c131 193 259 377 380 571h-183c-54 0 -102 0 -133 -11s-39 -51 -44 -75
c-3 -13 -6 -16 -10 -16s-5 5 -5 12c0 11 13 91 17 117c2 13 4 17 10 17c9 0 14 -5 40 -6c95 -3 139 -3 151 -3h244c13 0 20 0 20 -6c0 -4 -2 -9 -7 -16c-132 -199 -252 -384 -385 -578zM317 711c-3 0 -7 2 -17 7c-16 11 -101 68 -117 80c-10 7 -11 9 -11 11c0 3 2 3 5 5
l35 22c3 2 6 4 10 0c24 -21 80 -59 99 -69c5 -3 9 -4 12 -4c2 0 6 1 14 5c24 13 75 43 107 62c8 6 15 8 19 8c6 0 8 -5 -2 -12c-37 -27 -124 -95 -137 -106c-9 -6 -14 -9 -17 -9z" />
    <glyph glyph-name="dcroat" unicode="&#x111;" 
d="M155 346v48c0 132 0 157 -2 183c-2 27 -10 41 -39 47c-6 1 -21 2 -29 2c-5 0 -10 3 -10 6c0 6 6 8 15 8c41 0 104 -3 107 -3c7 0 59 3 115 3c88 0 252 9 358 -98c44 -44 85 -114 85 -215c0 -106 -46 -189 -95 -239c-39 -39 -115 -98 -267 -98c-38 0 -87 2 -125 5
c-38 2 -69 5 -72 5c-2 0 -15 0 -34 -1c-19 0 -43 -2 -58 -2c-9 0 -14 2 -14 7c0 3 3 7 11 7s15 1 23 3c17 3 23 24 26 46c6 37 5 105 5 186v67h-77c-7 0 -8 1 -7 7c2 7 4 16 6 21c1 4 2 5 15 5h63zM237 313v-4c0 -90 1 -168 1 -183c1 -31 3 -58 10 -67
c11 -17 43 -38 147 -38c82 0 156 26 208 78c44 44 65 119 65 199c0 113 -52 182 -86 215c-85 85 -183 95 -282 95c-14 0 -45 -3 -51 -7c-8 -4 -11 -8 -11 -17c-1 -29 -1 -114 -1 -174v-64h172c7 0 8 -2 7 -6c-1 -5 -3 -18 -7 -23c-2 -3 -4 -4 -13 -4h-159z" />
    <glyph glyph-name="hbar" unicode="&#x127;" horiz-adv-x="846" 
d="M693 394v-150c0 -82 0 -147 4 -183c3 -24 8 -44 34 -47c13 -2 26 -3 35 -3c8 0 13 -3 13 -7c0 -5 -5 -7 -15 -7c-50 0 -108 3 -113 3c-4 0 -62 -3 -89 -3c-10 0 -15 2 -15 8c0 3 3 6 11 6s15 0 23 2c17 3 22 25 25 48c5 36 5 99 5 180v71c0 4 -3 6 -6 6h-363
c-3 0 -5 -1 -5 -6v-71c0 -81 0 -146 5 -182c3 -22 8 -42 34 -45c13 -2 28 -3 36 -3c7 0 12 -3 12 -7s-4 -7 -13 -7c-51 0 -110 3 -115 3c-3 0 -64 -3 -90 -3c-10 0 -16 2 -16 7c0 3 2 7 11 7c8 0 16 1 24 3c18 4 22 23 25 45c6 36 5 103 5 185v148v70h-48c-20 0 -22 1 -22 4
s3 18 5 21c1 2 3 3 23 3h42c0 51 -1 69 -2 87c-2 26 -9 45 -38 48c-9 1 -19 2 -27 2c-7 0 -11 3 -11 6c0 6 5 7 15 7c43 0 91 -3 104 -3c4 0 62 3 90 3c10 0 15 -2 15 -7c0 -4 -4 -6 -10 -6s-9 0 -20 -2c-25 -4 -31 -21 -33 -49c-1 -19 -1 -35 -1 -86h374c0 52 -1 68 -2 87
c-2 27 -6 41 -39 47c-7 1 -17 2 -25 2c-7 0 -12 3 -12 7c0 6 5 7 14 7c42 0 101 -3 105 -3s60 3 90 3c10 0 16 -1 16 -7c0 -3 -3 -7 -11 -7c-6 0 -14 -1 -20 -2c-27 -4 -31 -20 -33 -48c-1 -18 -1 -35 -1 -86h44c21 0 22 0 23 -3c1 -4 -2 -19 -5 -22c-1 -2 -3 -3 -14 -3h-48
v-68zM611 359v36v67h-374v-67v-36c0 -5 3 -5 6 -5h362c3 0 6 0 6 5z" />
    <glyph glyph-name="kgreenlandic" unicode="&#x138;" horiz-adv-x="688" 
d="M237 394v-47c46 41 155 145 200 194c48 53 52 58 52 69c0 7 -4 12 -16 16c-7 2 -11 4 -11 8c0 3 2 6 10 6c6 0 36 -3 68 -3c30 0 85 3 98 3c14 0 16 -2 16 -6s-3 -7 -11 -8c-16 -1 -37 -5 -49 -10c-24 -8 -37 -19 -89 -66c-73 -66 -160 -151 -204 -191
c54 -56 216 -216 258 -254c70 -64 104 -82 144 -91c11 -2 6 -1 23 -3c9 -1 14 -3 14 -8c0 -4 -5 -6 -16 -6h-65c-78 0 -98 9 -138 37c-45 32 -205 196 -284 289v-79c0 -77 -1 -147 4 -183c4 -29 8 -40 34 -46c13 -3 34 -4 38 -4c9 -1 11 -3 11 -7s-4 -7 -14 -7
c-51 0 -109 3 -114 3c-3 0 -62 -3 -90 -3c-9 0 -16 2 -16 7c0 4 4 7 13 7c5 0 16 1 24 3c17 4 20 24 23 48c5 36 5 107 5 182v150c0 132 0 156 -2 183s-8 42 -29 46c-10 2 -17 2 -23 3c-7 1 -11 3 -11 7c0 5 4 7 15 7c31 0 88 -3 91 -3c4 0 62 3 90 3c10 0 15 -2 15 -7
c0 -4 -3 -6 -11 -7c-6 -1 -11 -1 -18 -2c-29 -4 -32 -19 -34 -48c-2 -27 -1 -50 -1 -182z" />
    <glyph glyph-name="Euro" unicode="&#x20ac;" horiz-adv-x="571" 
d="M420 316l-271 1c17 -154 85 -295 224 -295c44 0 86 9 109 41c12 17 18 40 23 65c2 11 6 12 10 12c2 0 5 -3 5 -10c0 -14 -7 -48 -13 -95c-2 -15 -5 -21 -18 -29c-27 -16 -77 -23 -121 -23c-96 0 -170 36 -225 109c-49 65 -71 149 -79 225h-40c-12 0 -17 -1 -21 -1
s-5 3 -3 8c3 8 6 15 10 21c4 7 8 8 15 8h37c-1 11 -1 22 -1 33s0 23 1 36h-28c-8 0 -15 0 -21 -1c-4 -1 -5 2 -3 7c3 7 8 18 12 24s6 6 13 6h30c8 64 27 139 72 201c42 59 109 108 215 108c32 0 65 -3 94 -10c35 -8 53 -13 68 -13c5 0 5 -4 5 -10s-3 -22 -4 -51
c-1 -33 -2 -51 -2 -67c0 -8 -2 -14 -7 -14c-6 0 -9 7 -9 15c1 40 -8 61 -20 75c-24 28 -66 43 -130 43c-81 0 -118 -41 -144 -79c-35 -50 -51 -123 -56 -198h257c28 0 43 0 49 1c5 1 6 -1 4 -6c-2 -7 -7 -21 -11 -27c-3 -4 -8 -5 -16 -5l-285 1v-26c0 -14 0 -29 1 -43h248
c28 0 37 0 48 1c5 0 6 -1 4 -7c-2 -7 -8 -22 -11 -26c-4 -5 -7 -5 -15 -5z" />
    <glyph glyph-name="estimated" unicode="&#x212e;" horiz-adv-x="984" 
d="M927 365h-705c-3 0 -6 -2 -6 -5v-213c0 -10 4 -18 10 -25c67 -71 162 -115 268 -115c113 0 211 50 279 129h64c-79 -92 -204 -153 -345 -153c-241 0 -436 176 -436 393s195 391 436 391s435 -174 435 -391v-11zM768 393v214c0 10 -5 19 -12 26c-67 68 -159 111 -262 111
c-105 0 -200 -46 -267 -115c-7 -7 -11 -17 -11 -27v-209c0 -3 3 -6 6 -6h541c3 0 5 3 5 6z" />
    <glyph glyph-name="zero.tab" horiz-adv-x="571" 
d="M529 398c0 -230 -89 -415 -252 -415c-156 0 -235 190 -235 369c0 242 91 415 251 415c183 0 236 -238 236 -369zM445 355c0 190 -59 375 -172 375c-93 0 -147 -134 -147 -337c0 -175 48 -373 171 -373c90 0 148 138 148 335z" />
    <glyph glyph-name="one.tab" horiz-adv-x="571" 
d="M272 301v327c0 20 -2 31 -18 31c-20 0 -83 -30 -111 -43c-3 -1 -22 -10 -22 0c0 4 4 7 8 10l192 129c9 6 17 12 24 12c8 0 11 -11 11 -21c0 -3 -6 -217 -6 -445c0 -100 0 -186 5 -230c4 -31 12 -50 45 -54c16 -2 48 -3 66 -4c14 -1 24 -3 24 -9c0 -5 -5 -7 -17 -7
c-75 0 -159 3 -164 3s-99 -3 -163 -3c-11 0 -17 2 -17 7c0 4 4 9 19 9c17 0 51 1 68 3c43 6 51 22 53 55c3 44 3 130 3 230z" />
    <glyph glyph-name="two.tab" horiz-adv-x="571" 
d="M418 -1c-207 -1 -339 1 -379 1c-7 0 -14 6 -14 14s10 17 18 24c200 178 349 316 349 508c0 143 -92 185 -159 185c-48 0 -78 -11 -107 -38c-24 -23 -36 -58 -36 -97c0 -9 -3 -15 -8 -15c-4 0 -7 4 -8 13s-6 92 -6 123c0 6 1 9 10 15c37 17 95 35 176 35
c151 0 226 -96 226 -202c0 -207 -224 -392 -348 -498c-5 -4 -3 -7 2 -7h73c17 0 135 1 171 5c73 7 105 37 118 96c2 11 5 15 11 15c5 0 6 -6 6 -12c0 -19 -20 -100 -30 -134c-8 -27 -23 -31 -65 -31z" />
    <glyph glyph-name="three.tab" horiz-adv-x="571" 
d="M197 -17c-41 0 -101 12 -122 24c-14 9 -16 16 -16 28c0 47 4 103 7 125c1 10 3 15 8 15s6 -3 7 -14c1 -6 1 -17 2 -23c11 -67 52 -112 148 -112c101 0 181 58 181 177c0 134 -120 181 -185 194c-19 4 -26 6 -26 13s10 10 23 12c49 9 159 57 159 174
c0 42 -26 135 -144 135c-73 0 -126 -41 -126 -118c0 -10 -4 -12 -7 -12s-6 2 -7 11c-4 32 -7 77 -7 100c0 9 1 13 13 21c31 15 87 34 162 34c163 0 198 -100 198 -150c0 -100 -103 -166 -134 -180v-5c63 -15 165 -76 165 -192c0 -140 -121 -257 -299 -257z" />
    <glyph glyph-name="three.tabalt" horiz-adv-x="571" 
d="M187 750h298c16 0 19 -2 19 -6s-1 -7 -9 -18l-220 -284c-1 -1 -2 -2 0 -3c118 -17 236 -80 236 -214c0 -132 -111 -242 -292 -242c-60 0 -113 13 -133 25c-15 9 -19 18 -19 31c-1 34 2 84 5 106c1 11 4 17 7 17c4 0 6 -5 7 -19c3 -65 54 -123 152 -123
c97 0 184 60 184 182c0 133 -97 179 -200 196c-15 3 -25 4 -25 11c0 4 4 10 8 14l201 266h-189c-56 0 -74 -1 -90 -13c-12 -10 -24 -31 -33 -63c-2 -9 -4 -15 -8 -15c-5 0 -6 4 -6 17c0 24 13 115 13 130c1 9 4 11 8 11c5 0 26 -6 86 -6z" />
    <glyph glyph-name="four.tab" horiz-adv-x="571" 
d="M348 225h-305c-12 0 -21 3 -21 12c0 8 5 16 9 21c6 7 331 447 363 491c8 11 14 18 21 18s10 -7 10 -17c0 -15 -1 -95 -1 -150v-321h76c27 0 37 11 41 11c5 0 5 -7 5 -12c0 -8 -7 -32 -9 -39c-4 -11 -8 -14 -18 -14h-95c0 -33 -2 -110 2 -154c4 -40 19 -56 72 -58
c13 0 24 -2 24 -9c0 -5 -5 -7 -16 -7c-56 0 -120 3 -126 3c-7 0 -61 -3 -116 -3c-11 0 -16 2 -16 7c0 4 3 8 17 8c60 0 79 13 81 59c2 44 2 121 2 154zM348 279v354c-1 0 -239 -332 -256 -354h256z" />
    <glyph glyph-name="five.tab" horiz-adv-x="571" 
d="M372 686h-189l-14 -154c139 -36 312 -96 312 -274c0 -129 -98 -276 -300 -276c-30 0 -67 4 -92 18c-17 9 -19 18 -19 28c0 34 -1 94 4 126c2 10 5 18 9 18c6 0 8 -5 8 -17c0 -107 64 -129 137 -129c84 0 176 56 176 194c0 161 -157 224 -254 243c-20 4 -27 7 -26 18
l23 255c1 10 8 13 19 13h235c28 0 46 2 58 4c12 1 18 3 21 3c4 0 7 -2 7 -10c0 -9 -3 -53 -13 -126c-1 -5 -4 -11 -8 -11s-6 6 -6 13c0 38 -9 64 -88 64z" />
    <glyph glyph-name="six.tab" horiz-adv-x="571" 
d="M289 -17c-158 0 -241 118 -241 283c0 241 184 428 389 494c12 4 23 7 28 7s9 -3 9 -6c0 -6 -13 -13 -26 -19c-145 -66 -313 -214 -313 -465c0 -138 58 -256 170 -256c78 0 140 65 140 177c0 116 -73 207 -156 207c-35 0 -57 -5 -82 -17c-7 -3 -11 0 -11 3s3 8 10 13
c20 14 60 39 126 39c129 0 196 -108 196 -206c0 -143 -97 -254 -239 -254z" />
    <glyph glyph-name="seven.tab" horiz-adv-x="571" 
d="M196 750h324c13 0 18 -4 18 -10c0 -4 -1 -11 -6 -19c-81 -120 -246 -512 -261 -642c-2 -17 0 -24 0 -35c0 -20 -78 -61 -98 -61c-6 0 -9 3 -9 10c0 10 3 25 6 34c39 131 147 398 298 660h-246c-29 0 -69 -5 -93 -25c-21 -17 -35 -49 -38 -77c-1 -9 -4 -14 -9 -14
s-6 5 -6 16c0 32 15 149 15 159s4 14 10 14s30 -10 95 -10z" />
    <glyph glyph-name="eight.tab" horiz-adv-x="571" 
d="M345 423c66 -34 173 -97 173 -220c0 -116 -95 -220 -238 -220c-125 0 -227 75 -227 196c0 112 89 177 176 219c-78 46 -138 101 -138 190c0 78 67 179 213 179c104 0 183 -64 183 -160c0 -105 -86 -156 -142 -184zM263 382c-74 -38 -132 -94 -132 -194
c0 -89 64 -167 157 -167c92 0 153 70 153 159c0 109 -88 155 -178 202zM311 439c39 23 106 54 106 156c0 76 -48 138 -125 138c-90 0 -130 -71 -130 -126c0 -84 67 -124 149 -168z" />
    <glyph glyph-name="nine.tab" horiz-adv-x="571" 
d="M288 767c141 0 229 -120 229 -272c0 -300 -235 -454 -358 -515c-4 -2 -24 -9 -24 2c0 6 7 11 13 14c118 65 281 235 281 470c0 175 -77 264 -165 264c-90 0 -137 -74 -137 -153c0 -166 112 -199 155 -199c37 0 62 10 75 18c6 4 12 6 15 6c8 0 3 -11 -1 -15
c-29 -31 -80 -46 -120 -46c-142 0 -202 109 -202 193c0 138 101 233 239 233z" />
    <glyph glyph-name="zero.slashtab" horiz-adv-x="571" 
d="M293 767c183 0 236 -238 236 -369c0 -230 -89 -415 -252 -415c-156 0 -235 190 -235 369c0 242 91 415 251 415zM163 147l216 511c-27 45 -63 72 -106 72c-93 0 -147 -134 -147 -337c0 -85 11 -175 37 -246zM401 615l-217 -514c26 -49 64 -81 113 -81
c90 0 148 138 148 335c0 96 -15 190 -44 260z" />
    <glyph glyph-name="zero.superior" unicode="&#x2070;" horiz-adv-x="414" 
d="M371 713c0 -149 -65 -242 -170 -242c-103 0 -157 100 -157 220c0 143 67 237 169 237c115 0 158 -133 158 -215zM302 693c0 112 -31 205 -100 205c-58 0 -90 -55 -90 -190c0 -107 29 -206 103 -206c56 0 87 67 87 191z" />
    <glyph glyph-name="one.superior" horiz-adv-x="277" 
d="M122 658v181c0 17 -2 23 -10 23c-10 0 -26 -4 -52 -13c-4 -1 -19 -7 -19 2c0 2 2 6 9 9c34 15 82 39 117 59c6 3 16 9 20 9c3 0 3 -6 3 -12c0 -4 -3 -74 -3 -152v-106c0 -59 0 -111 2 -137c1 -19 7 -26 23 -29c10 -2 22 -2 31 -3c7 0 11 -2 11 -6s-3 -6 -13 -6
c-31 0 -76 2 -84 2c-6 0 -61 -2 -90 -2c-11 0 -14 3 -14 6c0 4 3 7 13 7c8 0 16 0 30 2c18 3 22 10 24 31c2 27 2 76 2 135z" />
    <glyph glyph-name="two.superior" horiz-adv-x="370" 
d="M283 478c-81 0 -168 1 -250 1c-7 0 -10 2 -10 5s8 11 15 17c119 97 211 186 211 295c0 81 -47 107 -98 107c-25 0 -49 -6 -67 -20c-15 -9 -20 -29 -20 -51c-1 -8 -3 -12 -7 -12c-3 0 -4 3 -6 9c0 5 -3 50 -3 67c0 4 1 7 6 10c25 9 65 22 114 22c100 0 154 -52 154 -123
c0 -117 -109 -191 -210 -276c-2 -1 -2 -3 1 -3h41c11 0 88 1 121 3c40 3 51 14 59 49c1 6 3 11 6 11c2 0 3 -5 3 -9c0 -8 -9 -71 -16 -90c-3 -10 -11 -12 -44 -12z" />
    <glyph glyph-name="three.superior" horiz-adv-x="371" 
d="M136 471c-34 0 -67 6 -85 15c-8 4 -12 10 -12 17c-1 21 1 64 4 77c1 6 3 11 7 11c3 0 6 -4 6 -12c2 -50 32 -82 89 -82c61 0 113 36 113 108c0 73 -54 101 -113 107c-12 1 -18 4 -18 8c0 3 8 8 17 9c54 7 96 31 96 94c0 34 -18 80 -83 80c-59 0 -78 -40 -81 -77
c-1 -9 -3 -12 -6 -12c-4 0 -7 5 -7 10c-3 16 -4 55 -4 68c0 8 1 12 9 15c19 8 59 21 106 21c100 0 135 -54 135 -92c0 -69 -59 -95 -101 -109c-2 -1 -2 -2 0 -3c46 -9 123 -36 123 -111c0 -79 -76 -142 -195 -142z" />
    <glyph glyph-name="four.superior" unicode="&#x2074;" horiz-adv-x="405" 
d="M288 831v-184h48c20 1 27 5 33 11c5 5 11 6 9 -4c-1 -6 -8 -29 -11 -36c-3 -4 -5 -6 -13 -6c-11 -1 -44 -1 -66 -1c0 -43 0 -66 2 -86s4 -29 24 -33c6 -1 13 -1 20 -2c9 -1 11 -3 11 -7s-5 -6 -13 -6c-35 0 -67 2 -80 2c-14 0 -39 -2 -69 -2c-8 0 -14 2 -14 7
c0 4 5 6 11 6c5 1 11 1 19 1c22 2 26 14 28 34c1 22 1 42 1 86c-59 0 -164 1 -191 2c-10 1 -16 2 -16 6c0 3 2 7 9 17c17 22 187 225 236 279c7 7 12 13 18 13c4 0 5 -4 5 -16c0 -9 -1 -48 -1 -81zM228 647v189c-14 -17 -139 -166 -153 -189h153z" />
    <glyph glyph-name="five.superior" unicode="&#x2075;" horiz-adv-x="368" 
d="M241 871h-127l-12 -87c112 -18 219 -58 219 -159c0 -82 -65 -154 -193 -154c-22 0 -64 6 -80 15c-9 4 -14 10 -14 16c0 49 2 58 4 77c0 8 5 11 7 11c4 0 6 -3 6 -10c2 -56 42 -83 91 -83c64 0 112 37 112 110c0 84 -72 114 -175 133c-6 0 -9 2 -8 8l21 164c1 6 2 8 6 8
h161c18 0 34 1 52 3c2 0 3 -2 3 -8c0 -9 -3 -41 -8 -80c-1 -6 -4 -7 -6 -7c-3 0 -5 2 -6 9c-5 28 -1 34 -53 34z" />
    <glyph glyph-name="six.superior" unicode="&#x2076;" horiz-adv-x="409" 
d="M207 471c-100 0 -159 76 -159 169c0 144 121 245 250 284c9 3 16 4 19 4s6 -1 6 -5c0 -7 -12 -11 -20 -14c-94 -37 -186 -120 -186 -267c0 -85 36 -146 102 -146c50 0 81 39 81 102c0 81 -41 114 -91 114c-23 0 -36 -4 -50 -11c-8 -4 -15 -4 -15 0s5 9 11 13
c14 10 48 31 91 31c80 0 118 -69 118 -123c0 -87 -67 -151 -157 -151z" />
    <glyph glyph-name="seven.superior" unicode="&#x2077;" horiz-adv-x="368" 
d="M108 919h219c10 0 12 -1 12 -4c0 -2 -1 -5 -5 -12c-55 -93 -151 -293 -165 -380c-2 -10 0 -16 0 -21c0 -9 -48 -31 -66 -31c-5 0 -7 1 -7 5s2 10 5 19c28 85 90 213 183 375h-165c-35 0 -48 0 -58 -9c-6 -6 -12 -18 -17 -41c-1 -5 -4 -9 -7 -9s-5 3 -5 10c0 15 8 86 9 95
c0 6 3 6 6 6s12 -3 61 -3z" />
    <glyph glyph-name="eight.superior" unicode="&#x2078;" horiz-adv-x="395" 
d="M243 727c50 -24 109 -55 109 -126c0 -69 -70 -130 -163 -130c-79 0 -145 43 -145 113c0 62 60 92 111 117c-50 25 -90 60 -90 116c0 53 50 111 145 111c67 0 124 -40 124 -95c0 -60 -52 -88 -91 -106zM174 691c-44 -26 -72 -55 -72 -103c0 -52 38 -92 100 -92
c55 0 88 34 88 83c0 53 -45 79 -116 112zM221 739c34 22 56 48 56 88c0 43 -30 76 -80 76c-58 0 -78 -36 -78 -67c0 -51 39 -68 102 -97z" />
    <glyph glyph-name="nine.superior" unicode="&#x2079;" horiz-adv-x="401" 
d="M200 928c99 0 157 -77 157 -170c0 -180 -162 -262 -246 -290c-4 -1 -24 -7 -24 2c0 3 2 6 8 8c119 48 191 138 191 273c0 93 -38 153 -98 153c-63 0 -81 -51 -81 -95c0 -91 56 -112 91 -112c19 0 31 3 44 8c3 1 15 6 15 -1c0 -3 -3 -6 -6 -8c-27 -18 -54 -28 -88 -28
c-79 0 -123 59 -123 119c0 81 65 141 160 141z" />
    <glyph glyph-name="period.superior" horiz-adv-x="154" 
d="M77 471c-26 0 -38 21 -38 38c0 18 12 40 38 40c22 0 38 -16 38 -39s-18 -39 -38 -39z" />
    <glyph glyph-name="comma.superior" horiz-adv-x="160" 
d="M46 524c0 18 25 39 44 39c17 0 31 -29 31 -52c0 -39 -28 -84 -66 -117c-9 -8 -15 -13 -20 -13c-3 0 -4 3 -4 5c0 3 7 10 9 12c29 33 35 53 35 75c0 15 -10 27 -22 38c-6 7 -7 10 -7 13z" />
    <glyph glyph-name="dollar.superior" horiz-adv-x="360" 
d="M173 482l-7 -55c-1 -4 -2 -4 -5 -5l-16 -2c-3 0 -4 1 -4 5l7 57c-16 0 -59 8 -86 22c-16 9 -17 10 -17 24c0 20 4 62 5 73c1 7 3 11 7 11c2 0 6 0 7 -11c1 -18 6 -40 15 -54c20 -29 54 -35 72 -36l21 173c-76 45 -100 80 -100 130c0 68 57 111 133 111l6 46c1 5 3 5 6 6
l16 3c2 1 4 0 4 -2l-7 -54c17 -1 40 -6 55 -10c9 -1 17 -3 24 -3c4 0 4 -3 4 -7c0 -14 -1 -71 -3 -81c-1 -7 -3 -11 -6 -11s-6 3 -7 12c-2 23 -9 41 -21 53c-12 13 -29 21 -50 22l-22 -161c74 -42 112 -75 112 -135c0 -88 -87 -120 -143 -121zM181 749l21 152
c-42 2 -80 -24 -80 -70c0 -33 11 -49 59 -82zM195 671l-19 -160c41 0 86 20 86 72c0 38 -17 57 -67 88z" />
    <glyph glyph-name="cent.superior" horiz-adv-x="384" 
d="M242 825l-30 -243c44 -6 84 8 106 23c6 4 8 5 11 5c2 0 3 -5 -2 -11c-23 -29 -75 -49 -120 -49l-8 -72c0 -3 -1 -5 -5 -6l-14 -2c-5 -1 -6 0 -6 4l10 78c-69 11 -126 59 -126 145c0 54 22 88 49 112c31 28 74 42 115 43l7 58c0 2 1 4 4 5l16 2c3 0 4 -1 4 -3l-8 -63
c22 0 54 -6 84 -16c5 -2 5 -3 5 -8c0 -13 -4 -62 -5 -71c0 -5 -2 -9 -5 -9c-4 0 -5 4 -6 9c-2 20 -6 34 -16 45c-9 10 -27 22 -60 24zM189 587l30 239c-75 -2 -99 -65 -99 -120c0 -77 38 -107 69 -119z" />
    <glyph glyph-name="hyphen.superior" horiz-adv-x="273" 
d="M71 722h135c16 0 18 -2 18 -6s-6 -7 -18 -9c-44 -7 -98 -18 -128 -26c-12 -3 -21 -8 -25 -8s-4 4 -3 9l8 35c1 4 3 5 13 5z" />
    <glyph glyph-name="parenleft.superior" unicode="&#x207d;" horiz-adv-x="268" 
d="M115 681c0 -118 34 -201 94 -256c5 -4 6 -6 6 -9c0 -2 -2 -5 -5 -5c-2 0 -7 1 -15 6c-54 34 -135 121 -135 257c0 131 90 227 141 259c3 2 7 4 10 4s4 -2 4 -3c0 -3 -2 -6 -6 -10c-46 -43 -94 -127 -94 -243z" />
    <glyph glyph-name="parenright.superior" unicode="&#x207e;" horiz-adv-x="268" 
d="M153 667c0 118 -34 201 -94 256c-5 4 -6 6 -6 9c0 2 2 5 5 5c2 0 7 -1 15 -6c54 -34 135 -121 135 -257c0 -131 -90 -227 -141 -259c-3 -2 -7 -4 -10 -4s-4 2 -4 3c0 3 2 6 6 10c46 43 94 127 94 243z" />
    <glyph glyph-name="zero.inferior" unicode="&#x2080;" horiz-adv-x="414" 
d="M371 135c0 -149 -65 -242 -170 -242c-103 0 -157 100 -157 220c0 143 67 237 169 237c115 0 158 -133 158 -215zM302 115c0 112 -31 205 -100 205c-58 0 -90 -55 -90 -190c0 -107 29 -206 103 -206c56 0 87 67 87 191z" />
    <glyph glyph-name="one.inferior" unicode="&#x2081;" horiz-adv-x="277" 
d="M122 80v181c0 17 -2 23 -10 23c-10 0 -26 -4 -52 -13c-4 -1 -19 -7 -19 2c0 2 2 6 9 9c34 15 82 39 117 59c6 3 16 9 20 9c3 0 3 -6 3 -12c0 -4 -3 -74 -3 -152v-106c0 -59 0 -111 2 -137c1 -19 7 -26 23 -29c10 -2 22 -2 31 -3c7 0 11 -2 11 -6s-3 -6 -13 -6
c-31 0 -76 2 -84 2c-6 0 -61 -2 -90 -2c-11 0 -14 3 -14 6c0 4 3 7 13 7c8 0 16 0 30 2c18 3 22 10 24 31c2 27 2 76 2 135z" />
    <glyph glyph-name="two.inferior" unicode="&#x2082;" horiz-adv-x="370" 
d="M283 -100c-81 0 -168 1 -250 1c-7 0 -10 2 -10 5s8 11 15 17c119 97 211 186 211 295c0 81 -47 107 -98 107c-25 0 -49 -6 -67 -20c-15 -9 -20 -29 -20 -51c-1 -8 -3 -12 -7 -12c-3 0 -4 3 -6 9c0 5 -3 50 -3 67c0 4 1 7 6 10c25 9 65 22 114 22c100 0 154 -52 154 -123
c0 -117 -109 -191 -210 -276c-2 -1 -2 -3 1 -3h41c11 0 88 1 121 3c40 3 51 14 59 49c1 6 3 11 6 11c2 0 3 -5 3 -9c0 -8 -9 -71 -16 -90c-3 -10 -11 -12 -44 -12z" />
    <glyph glyph-name="three.inferior" unicode="&#x2083;" horiz-adv-x="371" 
d="M136 -107c-34 0 -67 6 -85 15c-8 4 -12 10 -12 17c-1 21 1 64 4 77c1 6 3 11 7 11c3 0 6 -4 6 -12c2 -50 32 -82 89 -82c61 0 113 36 113 108c0 73 -54 101 -113 107c-12 1 -18 4 -18 8c0 3 8 8 17 9c54 7 96 31 96 94c0 34 -18 80 -83 80c-59 0 -78 -40 -81 -77
c-1 -9 -3 -12 -6 -12c-4 0 -7 5 -7 10c-3 16 -4 55 -4 68c0 8 1 12 9 15c19 8 59 21 106 21c100 0 135 -54 135 -92c0 -69 -59 -95 -101 -109c-2 -1 -2 -2 0 -3c46 -9 123 -36 123 -111c0 -79 -76 -142 -195 -142z" />
    <glyph glyph-name="four.inferior" unicode="&#x2084;" horiz-adv-x="405" 
d="M288 253v-184h48c20 1 27 5 33 11c5 5 11 6 9 -4c-1 -6 -8 -29 -11 -36c-3 -4 -5 -6 -13 -6c-11 -1 -44 -1 -66 -1c0 -43 0 -66 2 -86s4 -29 24 -33c6 -1 13 -1 20 -2c9 -1 11 -3 11 -7s-5 -6 -13 -6c-35 0 -67 2 -80 2c-14 0 -39 -2 -69 -2c-8 0 -14 2 -14 7
c0 4 5 6 11 6c5 1 11 1 19 1c22 2 26 14 28 34c1 22 1 42 1 86c-59 0 -164 1 -191 2c-10 1 -16 2 -16 6c0 3 2 7 9 17c17 22 187 225 236 279c7 7 12 13 18 13c4 0 5 -4 5 -16c0 -9 -1 -48 -1 -81zM228 69v189c-14 -17 -139 -166 -153 -189h153z" />
    <glyph glyph-name="five.inferior" unicode="&#x2085;" horiz-adv-x="368" 
d="M241 293h-127l-12 -87c112 -18 219 -58 219 -159c0 -82 -65 -154 -193 -154c-22 0 -64 6 -80 15c-9 4 -14 10 -14 16c0 49 2 58 4 77c0 8 5 11 7 11c4 0 6 -3 6 -10c2 -56 42 -83 91 -83c64 0 112 37 112 110c0 84 -72 114 -175 133c-6 0 -9 2 -8 8l21 164c1 6 2 8 6 8
h161c18 0 34 1 52 3c2 0 3 -2 3 -8c0 -9 -3 -41 -8 -80c-1 -6 -4 -7 -6 -7c-3 0 -5 2 -6 9c-5 28 -1 34 -53 34z" />
    <glyph glyph-name="six.inferior" unicode="&#x2086;" horiz-adv-x="409" 
d="M207 -107c-100 0 -159 76 -159 169c0 144 121 245 250 284c9 3 16 4 19 4s6 -1 6 -5c0 -7 -12 -11 -20 -14c-94 -37 -186 -120 -186 -267c0 -85 36 -146 102 -146c50 0 81 39 81 102c0 81 -41 114 -91 114c-23 0 -36 -4 -50 -11c-8 -4 -15 -4 -15 0s5 9 11 13
c14 10 48 31 91 31c80 0 118 -69 118 -123c0 -87 -67 -151 -157 -151z" />
    <glyph glyph-name="seven.inferior" unicode="&#x2087;" horiz-adv-x="368" 
d="M108 341h219c10 0 12 -1 12 -4c0 -2 -1 -5 -5 -12c-55 -93 -151 -293 -165 -380c-2 -10 0 -16 0 -21c0 -9 -48 -31 -66 -31c-5 0 -7 1 -7 5s2 10 5 19c28 85 90 213 183 375h-165c-35 0 -48 0 -58 -9c-6 -6 -12 -18 -17 -41c-1 -5 -4 -9 -7 -9s-5 3 -5 10c0 15 8 86 9 95
c0 6 3 6 6 6s12 -3 61 -3z" />
    <glyph glyph-name="eight.inferior" unicode="&#x2088;" horiz-adv-x="395" 
d="M243 149c50 -24 109 -55 109 -126c0 -69 -70 -130 -163 -130c-79 0 -145 43 -145 113c0 62 60 92 111 117c-50 25 -90 60 -90 116c0 53 50 111 145 111c67 0 124 -40 124 -95c0 -60 -52 -88 -91 -106zM174 113c-44 -26 -72 -55 -72 -103c0 -52 38 -92 100 -92
c55 0 88 34 88 83c0 53 -45 79 -116 112zM221 161c34 22 56 48 56 88c0 43 -30 76 -80 76c-58 0 -78 -36 -78 -67c0 -51 39 -68 102 -97z" />
    <glyph glyph-name="nine.inferior" unicode="&#x2089;" horiz-adv-x="401" 
d="M200 350c99 0 157 -77 157 -170c0 -180 -162 -262 -246 -290c-4 -1 -24 -7 -24 2c0 3 2 6 8 8c119 48 191 138 191 273c0 93 -38 153 -98 153c-63 0 -81 -51 -81 -95c0 -91 56 -112 91 -112c19 0 31 3 44 8c3 1 15 6 15 -1c0 -3 -3 -6 -6 -8c-27 -18 -54 -28 -88 -28
c-79 0 -123 59 -123 119c0 81 65 141 160 141z" />
    <glyph glyph-name="period.inferior" horiz-adv-x="154" 
d="M77 -107c-26 0 -38 21 -38 38c0 18 12 40 38 40c22 0 38 -16 38 -39s-18 -39 -38 -39z" />
    <glyph glyph-name="comma.inferior" horiz-adv-x="160" 
d="M46 -54c0 18 25 39 44 39c17 0 31 -29 31 -52c0 -39 -28 -84 -66 -117c-9 -8 -15 -13 -20 -13c-3 0 -4 3 -4 5c0 3 7 10 9 12c29 33 35 53 35 75c0 15 -10 27 -22 38c-6 7 -7 10 -7 13z" />
    <glyph glyph-name="dollar.inferior" horiz-adv-x="360" 
d="M173 -96l-7 -55c-1 -4 -2 -4 -5 -5l-16 -2c-3 0 -4 1 -4 5l7 57c-16 0 -59 8 -86 22c-16 9 -17 10 -17 24c0 20 4 62 5 73c1 7 3 11 7 11c2 0 6 0 7 -11c1 -18 6 -40 15 -54c20 -29 54 -35 72 -36l21 173c-76 45 -100 80 -100 130c0 68 57 111 133 111l6 46c1 5 3 5 6 6
l16 3c2 1 4 0 4 -2l-7 -54c17 -1 40 -6 55 -10c9 -1 17 -3 24 -3c4 0 4 -3 4 -7c0 -14 -1 -71 -3 -81c-1 -7 -3 -11 -6 -11s-6 3 -7 12c-2 23 -9 41 -21 53c-12 13 -29 21 -50 22l-22 -161c74 -42 112 -75 112 -135c0 -88 -87 -120 -143 -121zM181 171l21 152
c-42 2 -80 -24 -80 -70c0 -33 11 -49 59 -82zM195 93l-19 -160c41 0 86 20 86 72c0 38 -17 57 -67 88z" />
    <glyph glyph-name="cent.inferior" horiz-adv-x="384" 
d="M242 247l-30 -243c44 -6 84 8 106 23c6 4 8 5 11 5c2 0 3 -5 -2 -11c-23 -29 -75 -49 -120 -49l-8 -72c0 -3 -1 -5 -5 -6l-14 -2c-5 -1 -6 0 -6 4l10 78c-69 11 -126 59 -126 145c0 54 22 88 49 112c31 28 74 42 115 43l7 58c0 2 1 4 4 5l16 2c3 0 4 -1 4 -3l-8 -63
c22 0 54 -6 84 -16c5 -2 5 -3 5 -8c0 -13 -4 -62 -5 -71c0 -5 -2 -9 -5 -9c-4 0 -5 4 -6 9c-2 20 -6 34 -16 45c-9 10 -27 22 -60 24zM189 9l30 239c-75 -2 -99 -65 -99 -120c0 -77 38 -107 69 -119z" />
    <glyph glyph-name="hyphen.inferior" horiz-adv-x="273" 
d="M71 144h135c16 0 18 -2 18 -6s-6 -7 -18 -9c-44 -7 -98 -18 -128 -26c-12 -3 -21 -8 -25 -8s-4 4 -3 9l8 35c1 4 3 5 13 5z" />
    <glyph glyph-name="parenleft.inferior" unicode="&#x208d;" horiz-adv-x="268" 
d="M115 103c0 -118 34 -201 94 -256c5 -4 6 -6 6 -9c0 -2 -2 -5 -5 -5c-2 0 -7 1 -15 6c-54 34 -135 121 -135 257c0 131 90 227 141 259c3 2 7 4 10 4s4 -2 4 -3c0 -3 -2 -6 -6 -10c-46 -43 -94 -127 -94 -243z" />
    <glyph glyph-name="parenright.inferior" unicode="&#x208e;" horiz-adv-x="268" 
d="M153 89c0 118 -34 201 -94 256c-5 4 -6 6 -6 9c0 2 2 5 5 5c2 0 7 -1 15 -6c54 -34 135 -121 135 -257c0 -131 -90 -227 -141 -259c-3 -2 -7 -4 -10 -4s-4 2 -4 3c0 3 2 6 6 10c46 43 94 127 94 243z" />
    <glyph glyph-name="zero.numerator" horiz-adv-x="414" 
d="M371 552c0 -149 -65 -242 -170 -242c-103 0 -157 100 -157 220c0 143 67 237 169 237c115 0 158 -133 158 -215zM302 532c0 112 -31 205 -100 205c-58 0 -90 -55 -90 -190c0 -107 29 -206 103 -206c56 0 87 67 87 191z" />
    <glyph glyph-name="one.numerator" horiz-adv-x="277" 
d="M122 497v181c0 17 -2 23 -10 23c-10 0 -26 -4 -52 -13c-4 -1 -19 -7 -19 2c0 2 2 6 9 9c34 15 82 39 117 59c6 3 16 9 20 9c3 0 3 -6 3 -12c0 -4 -3 -74 -3 -152v-106c0 -59 0 -111 2 -137c1 -19 7 -26 23 -29c10 -2 22 -2 31 -3c7 0 11 -2 11 -6s-3 -6 -13 -6
c-31 0 -76 2 -84 2c-6 0 -61 -2 -90 -2c-11 0 -14 3 -14 6c0 4 3 7 13 7c8 0 16 0 30 2c18 3 22 10 24 31c2 27 2 76 2 135z" />
    <glyph glyph-name="two.numerator" horiz-adv-x="370" 
d="M283 317c-81 0 -168 1 -250 1c-7 0 -10 2 -10 5s8 11 15 17c119 97 211 186 211 295c0 81 -47 107 -98 107c-25 0 -49 -6 -67 -20c-15 -9 -20 -29 -20 -51c-1 -8 -3 -12 -7 -12c-3 0 -4 3 -6 9c0 5 -3 50 -3 67c0 4 1 7 6 10c25 9 65 22 114 22c100 0 154 -52 154 -123
c0 -117 -109 -191 -210 -276c-2 -1 -2 -3 1 -3h41c11 0 88 1 121 3c40 3 51 14 59 49c1 6 3 11 6 11c2 0 3 -5 3 -9c0 -8 -9 -71 -16 -90c-3 -10 -11 -12 -44 -12z" />
    <glyph glyph-name="three.numerator" horiz-adv-x="371" 
d="M136 310c-34 0 -67 6 -85 15c-8 4 -12 10 -12 17c-1 21 1 64 4 77c1 6 3 11 7 11c3 0 6 -4 6 -12c2 -50 32 -82 89 -82c61 0 113 36 113 108c0 73 -54 101 -113 107c-12 1 -18 4 -18 8c0 3 8 8 17 9c54 7 96 31 96 94c0 34 -18 80 -83 80c-59 0 -78 -40 -81 -77
c-1 -9 -3 -12 -6 -12c-4 0 -7 5 -7 10c-3 16 -4 55 -4 68c0 8 1 12 9 15c19 8 59 21 106 21c100 0 135 -54 135 -92c0 -69 -59 -95 -101 -109c-2 -1 -2 -2 0 -3c46 -9 123 -36 123 -111c0 -79 -76 -142 -195 -142z" />
    <glyph glyph-name="four.numerator" horiz-adv-x="405" 
d="M288 670v-184h48c20 1 27 5 33 11c5 5 11 6 9 -4c-1 -6 -8 -29 -11 -36c-3 -4 -5 -6 -13 -6c-11 -1 -44 -1 -66 -1c0 -43 0 -66 2 -86s4 -29 24 -33c6 -1 13 -1 20 -2c9 -1 11 -3 11 -7s-5 -6 -13 -6c-35 0 -67 2 -80 2c-14 0 -39 -2 -69 -2c-8 0 -14 2 -14 7
c0 4 5 6 11 6c5 1 11 1 19 1c22 2 26 14 28 34c1 22 1 42 1 86c-59 0 -164 1 -191 2c-10 1 -16 2 -16 6c0 3 2 7 9 17c17 22 187 225 236 279c7 7 12 13 18 13c4 0 5 -4 5 -16c0 -9 -1 -48 -1 -81zM228 486v189c-14 -17 -139 -166 -153 -189h153z" />
    <glyph glyph-name="five.numerator" horiz-adv-x="368" 
d="M241 710h-127l-12 -87c112 -18 219 -58 219 -159c0 -82 -65 -154 -193 -154c-22 0 -64 6 -80 15c-9 4 -14 10 -14 16c0 49 2 58 4 77c0 8 5 11 7 11c4 0 6 -3 6 -10c2 -56 42 -83 91 -83c64 0 112 37 112 110c0 84 -72 114 -175 133c-6 0 -9 2 -8 8l21 164c1 6 2 8 6 8
h161c18 0 34 1 52 3c2 0 3 -2 3 -8c0 -9 -3 -41 -8 -80c-1 -6 -4 -7 -6 -7c-3 0 -5 2 -6 9c-5 28 -1 34 -53 34z" />
    <glyph glyph-name="six.numerator" horiz-adv-x="409" 
d="M207 310c-100 0 -159 76 -159 169c0 144 121 245 250 284c9 3 16 4 19 4s6 -1 6 -5c0 -7 -12 -11 -20 -14c-94 -37 -186 -120 -186 -267c0 -85 36 -146 102 -146c50 0 81 39 81 102c0 81 -41 114 -91 114c-23 0 -36 -4 -50 -11c-8 -4 -15 -4 -15 0s5 9 11 13
c14 10 48 31 91 31c80 0 118 -69 118 -123c0 -87 -67 -151 -157 -151z" />
    <glyph glyph-name="seven.numerator" horiz-adv-x="368" 
d="M108 758h219c10 0 12 -1 12 -4c0 -2 -1 -5 -5 -12c-55 -93 -151 -293 -165 -380c-2 -10 0 -16 0 -21c0 -9 -48 -31 -66 -31c-5 0 -7 1 -7 5s2 10 5 19c28 85 90 213 183 375h-165c-35 0 -48 0 -58 -9c-6 -6 -12 -18 -17 -41c-1 -5 -4 -9 -7 -9s-5 3 -5 10c0 15 8 86 9 95
c0 6 3 6 6 6s12 -3 61 -3z" />
    <glyph glyph-name="eight.numerator" horiz-adv-x="395" 
d="M243 566c50 -24 109 -55 109 -126c0 -69 -70 -130 -163 -130c-79 0 -145 43 -145 113c0 62 60 92 111 117c-50 25 -90 60 -90 116c0 53 50 111 145 111c67 0 124 -40 124 -95c0 -60 -52 -88 -91 -106zM174 530c-44 -26 -72 -55 -72 -103c0 -52 38 -92 100 -92
c55 0 88 34 88 83c0 53 -45 79 -116 112zM221 578c34 22 56 48 56 88c0 43 -30 76 -80 76c-58 0 -78 -36 -78 -67c0 -51 39 -68 102 -97z" />
    <glyph glyph-name="nine.numerator" horiz-adv-x="401" 
d="M200 767c99 0 157 -77 157 -170c0 -180 -162 -262 -246 -290c-4 -1 -24 -7 -24 2c0 3 2 6 8 8c119 48 191 138 191 273c0 93 -38 153 -98 153c-63 0 -81 -51 -81 -95c0 -91 56 -112 91 -112c19 0 31 3 44 8c3 1 15 6 15 -1c0 -3 -3 -6 -6 -8c-27 -18 -54 -28 -88 -28
c-79 0 -123 59 -123 119c0 81 65 141 160 141z" />
    <glyph glyph-name="period.numerator" horiz-adv-x="154" 
d="M77 310c-26 0 -38 21 -38 38c0 18 12 40 38 40c22 0 38 -16 38 -39s-18 -39 -38 -39z" />
    <glyph glyph-name="comma.numerator" horiz-adv-x="160" 
d="M46 363c0 18 25 39 44 39c17 0 31 -29 31 -52c0 -39 -28 -84 -66 -117c-9 -8 -15 -13 -20 -13c-3 0 -4 3 -4 5c0 3 7 10 9 12c29 33 35 53 35 75c0 15 -10 27 -22 38c-6 7 -7 10 -7 13z" />
    <glyph glyph-name="dollar.numerator" horiz-adv-x="360" 
d="M173 321l-7 -55c-1 -4 -2 -4 -5 -5l-16 -2c-3 0 -4 1 -4 5l7 57c-16 0 -59 8 -86 22c-16 9 -17 10 -17 24c0 20 4 62 5 73c1 7 3 11 7 11c2 0 6 0 7 -11c1 -18 6 -40 15 -54c20 -29 54 -35 72 -36l21 173c-76 45 -100 80 -100 130c0 68 57 111 133 111l6 46c1 5 3 5 6 6
l16 3c2 1 4 0 4 -2l-7 -54c17 -1 40 -6 55 -10c9 -1 17 -3 24 -3c4 0 4 -3 4 -7c0 -14 -1 -71 -3 -81c-1 -7 -3 -11 -6 -11s-6 3 -7 12c-2 23 -9 41 -21 53c-12 13 -29 21 -50 22l-22 -161c74 -42 112 -75 112 -135c0 -88 -87 -120 -143 -121zM181 588l21 152
c-42 2 -80 -24 -80 -70c0 -33 11 -49 59 -82zM195 510l-19 -160c41 0 86 20 86 72c0 38 -17 57 -67 88z" />
    <glyph glyph-name="cent.numerator" horiz-adv-x="384" 
d="M242 664l-30 -243c44 -6 84 8 106 23c6 4 8 5 11 5c2 0 3 -5 -2 -11c-23 -29 -75 -49 -120 -49l-8 -72c0 -3 -1 -5 -5 -6l-14 -2c-5 -1 -6 0 -6 4l10 78c-69 11 -126 59 -126 145c0 54 22 88 49 112c31 28 74 42 115 43l7 58c0 2 1 4 4 5l16 2c3 0 4 -1 4 -3l-8 -63
c22 0 54 -6 84 -16c5 -2 5 -3 5 -8c0 -13 -4 -62 -5 -71c0 -5 -2 -9 -5 -9c-4 0 -5 4 -6 9c-2 20 -6 34 -16 45c-9 10 -27 22 -60 24zM189 426l30 239c-75 -2 -99 -65 -99 -120c0 -77 38 -107 69 -119z" />
    <glyph glyph-name="hyphen.numerator" horiz-adv-x="273" 
d="M71 561h135c16 0 18 -2 18 -6s-6 -7 -18 -9c-44 -7 -98 -18 -128 -26c-12 -3 -21 -8 -25 -8s-4 4 -3 9l8 35c1 4 3 5 13 5z" />
    <glyph glyph-name="parenleft.numerator" horiz-adv-x="268" 
d="M115 520c0 -118 34 -201 94 -256c5 -4 6 -6 6 -9c0 -2 -2 -5 -5 -5c-2 0 -7 1 -15 6c-54 34 -135 121 -135 257c0 131 90 227 141 259c3 2 7 4 10 4s4 -2 4 -3c0 -3 -2 -6 -6 -10c-46 -43 -94 -127 -94 -243z" />
    <glyph glyph-name="parenright.numerator" horiz-adv-x="268" 
d="M153 506c0 118 -34 201 -94 256c-5 4 -6 6 -6 9c0 2 2 5 5 5c2 0 7 -1 15 -6c54 -34 135 -121 135 -257c0 -131 -90 -227 -141 -259c-3 -2 -7 -4 -10 -4s-4 2 -4 3c0 3 2 6 6 10c46 43 94 127 94 243z" />
    <glyph glyph-name="space.frac" horiz-adv-x="160" 
 />
    <glyph glyph-name="uni00A0.frac" horiz-adv-x="160" 
 />
    <glyph glyph-name="uni2007.frac" horiz-adv-x="160" 
 />
    <glyph glyph-name="slash.frac" horiz-adv-x="241" 
d="M384 781l21 -17c2 -2 3 -5 0 -8l-542 -771c-2 -3 -5 -3 -7 -1l-20 16c-2 2 -2 4 0 8l541 771c3 4 5 4 7 2z" />
    <glyph glyph-name="zero.denominator" horiz-adv-x="414" 
d="M371 229c0 -149 -65 -242 -170 -242c-103 0 -157 100 -157 220c0 143 67 237 169 237c115 0 158 -133 158 -215zM302 209c0 112 -31 205 -100 205c-58 0 -90 -55 -90 -190c0 -107 29 -206 103 -206c56 0 87 67 87 191z" />
    <glyph glyph-name="one.denominator" horiz-adv-x="277" 
d="M122 174v181c0 17 -2 23 -10 23c-10 0 -26 -4 -52 -13c-4 -1 -19 -7 -19 2c0 2 2 6 9 9c34 15 82 39 117 59c6 3 16 9 20 9c3 0 3 -6 3 -12c0 -4 -3 -74 -3 -152v-106c0 -59 0 -111 2 -137c1 -19 7 -26 23 -29c10 -2 22 -2 31 -3c7 0 11 -2 11 -6s-3 -6 -13 -6
c-31 0 -76 2 -84 2c-6 0 -61 -2 -90 -2c-11 0 -14 3 -14 6c0 4 3 7 13 7c8 0 16 0 30 2c18 3 22 10 24 31c2 27 2 76 2 135z" />
    <glyph glyph-name="two.denominator" horiz-adv-x="370" 
d="M283 -6c-81 0 -168 1 -250 1c-7 0 -10 2 -10 5s8 11 15 17c119 97 211 186 211 295c0 81 -47 107 -98 107c-25 0 -49 -6 -67 -20c-15 -9 -20 -29 -20 -51c-1 -8 -3 -12 -7 -12c-3 0 -4 3 -6 9c0 5 -3 50 -3 67c0 4 1 7 6 10c25 9 65 22 114 22c100 0 154 -52 154 -123
c0 -117 -109 -191 -210 -276c-2 -1 -2 -3 1 -3h41c11 0 88 1 121 3c40 3 51 14 59 49c1 6 3 11 6 11c2 0 3 -5 3 -9c0 -8 -9 -71 -16 -90c-3 -10 -11 -12 -44 -12z" />
    <glyph glyph-name="three.denominator" horiz-adv-x="371" 
d="M136 -13c-34 0 -67 6 -85 15c-8 4 -12 10 -12 17c-1 21 1 64 4 77c1 6 3 11 7 11c3 0 6 -4 6 -12c2 -50 32 -82 89 -82c61 0 113 36 113 108c0 73 -54 101 -113 107c-12 1 -18 4 -18 8c0 3 8 8 17 9c54 7 96 31 96 94c0 34 -18 80 -83 80c-59 0 -78 -40 -81 -77
c-1 -9 -3 -12 -6 -12c-4 0 -7 5 -7 10c-3 16 -4 55 -4 68c0 8 1 12 9 15c19 8 59 21 106 21c100 0 135 -54 135 -92c0 -69 -59 -95 -101 -109c-2 -1 -2 -2 0 -3c46 -9 123 -36 123 -111c0 -79 -76 -142 -195 -142z" />
    <glyph glyph-name="four.denominator" horiz-adv-x="405" 
d="M288 347v-184h48c20 1 27 5 33 11c5 5 11 6 9 -4c-1 -6 -8 -29 -11 -36c-3 -4 -5 -6 -13 -6c-11 -1 -44 -1 -66 -1c0 -43 0 -66 2 -86s4 -29 24 -33c6 -1 13 -1 20 -2c9 -1 11 -3 11 -7s-5 -6 -13 -6c-35 0 -67 2 -80 2c-14 0 -39 -2 -69 -2c-8 0 -14 2 -14 7
c0 4 5 6 11 6c5 1 11 1 19 1c22 2 26 14 28 34c1 22 1 42 1 86c-59 0 -164 1 -191 2c-10 1 -16 2 -16 6c0 3 2 7 9 17c17 22 187 225 236 279c7 7 12 13 18 13c4 0 5 -4 5 -16c0 -9 -1 -48 -1 -81zM228 163v189c-14 -17 -139 -166 -153 -189h153z" />
    <glyph glyph-name="five.denominator" horiz-adv-x="368" 
d="M241 387h-127l-12 -87c112 -18 219 -58 219 -159c0 -82 -65 -154 -193 -154c-22 0 -64 6 -80 15c-9 4 -14 10 -14 16c0 49 2 58 4 77c0 8 5 11 7 11c4 0 6 -3 6 -10c2 -56 42 -83 91 -83c64 0 112 37 112 110c0 84 -72 114 -175 133c-6 0 -9 2 -8 8l21 164c1 6 2 8 6 8
h161c18 0 34 1 52 3c2 0 3 -2 3 -8c0 -9 -3 -41 -8 -80c-1 -6 -4 -7 -6 -7c-3 0 -5 2 -6 9c-5 28 -1 34 -53 34z" />
    <glyph glyph-name="six.denominator" horiz-adv-x="409" 
d="M207 -13c-100 0 -159 76 -159 169c0 144 121 245 250 284c9 3 16 4 19 4s6 -1 6 -5c0 -7 -12 -11 -20 -14c-94 -37 -186 -120 -186 -267c0 -85 36 -146 102 -146c50 0 81 39 81 102c0 81 -41 114 -91 114c-23 0 -36 -4 -50 -11c-8 -4 -15 -4 -15 0s5 9 11 13
c14 10 48 31 91 31c80 0 118 -69 118 -123c0 -87 -67 -151 -157 -151z" />
    <glyph glyph-name="seven.denominator" horiz-adv-x="368" 
d="M108 435h219c10 0 12 -1 12 -4c0 -2 -1 -5 -5 -12c-55 -93 -151 -293 -165 -380c-2 -10 0 -16 0 -21c0 -9 -48 -31 -66 -31c-5 0 -7 1 -7 5s2 10 5 19c28 85 90 213 183 375h-165c-35 0 -48 0 -58 -9c-6 -6 -12 -18 -17 -41c-1 -5 -4 -9 -7 -9s-5 3 -5 10c0 15 8 86 9 95
c0 6 3 6 6 6s12 -3 61 -3z" />
    <glyph glyph-name="eight.denominator" horiz-adv-x="395" 
d="M243 243c50 -24 109 -55 109 -126c0 -69 -70 -130 -163 -130c-79 0 -145 43 -145 113c0 62 60 92 111 117c-50 25 -90 60 -90 116c0 53 50 111 145 111c67 0 124 -40 124 -95c0 -60 -52 -88 -91 -106zM174 207c-44 -26 -72 -55 -72 -103c0 -52 38 -92 100 -92
c55 0 88 34 88 83c0 53 -45 79 -116 112zM221 255c34 22 56 48 56 88c0 43 -30 76 -80 76c-58 0 -78 -36 -78 -67c0 -51 39 -68 102 -97z" />
    <glyph glyph-name="nine.denominator" horiz-adv-x="401" 
d="M200 444c99 0 157 -77 157 -170c0 -180 -162 -262 -246 -290c-4 -1 -24 -7 -24 2c0 3 2 6 8 8c119 48 191 138 191 273c0 93 -38 153 -98 153c-63 0 -81 -51 -81 -95c0 -91 56 -112 91 -112c19 0 31 3 44 8c3 1 15 6 15 -1c0 -3 -3 -6 -6 -8c-27 -18 -54 -28 -88 -28
c-79 0 -123 59 -123 119c0 81 65 141 160 141z" />
    <glyph glyph-name="period.denominator" horiz-adv-x="154" 
d="M77 -13c-26 0 -38 21 -38 38c0 18 12 40 38 40c22 0 38 -16 38 -39s-18 -39 -38 -39z" />
    <glyph glyph-name="comma.denominator" horiz-adv-x="160" 
d="M46 40c0 18 25 39 44 39c17 0 31 -29 31 -52c0 -39 -28 -84 -66 -117c-9 -8 -15 -13 -20 -13c-3 0 -4 3 -4 5c0 3 7 10 9 12c29 33 35 53 35 75c0 15 -10 27 -22 38c-6 7 -7 10 -7 13z" />
    <glyph glyph-name="dollar.denominator" horiz-adv-x="360" 
d="M173 -2l-7 -55c-1 -4 -2 -4 -5 -5l-16 -2c-3 0 -4 1 -4 5l7 57c-16 0 -59 8 -86 22c-16 9 -17 10 -17 24c0 20 4 62 5 73c1 7 3 11 7 11c2 0 6 0 7 -11c1 -18 6 -40 15 -54c20 -29 54 -35 72 -36l21 173c-76 45 -100 80 -100 130c0 68 57 111 133 111l6 46c1 5 3 5 6 6
l16 3c2 1 4 0 4 -2l-7 -54c17 -1 40 -6 55 -10c9 -1 17 -3 24 -3c4 0 4 -3 4 -7c0 -14 -1 -71 -3 -81c-1 -7 -3 -11 -6 -11s-6 3 -7 12c-2 23 -9 41 -21 53c-12 13 -29 21 -50 22l-22 -161c74 -42 112 -75 112 -135c0 -88 -87 -120 -143 -121zM181 265l21 152
c-42 2 -80 -24 -80 -70c0 -33 11 -49 59 -82zM195 187l-19 -160c41 0 86 20 86 72c0 38 -17 57 -67 88z" />
    <glyph glyph-name="cent.denominator" horiz-adv-x="384" 
d="M242 341l-30 -243c44 -6 84 8 106 23c6 4 8 5 11 5c2 0 3 -5 -2 -11c-23 -29 -75 -49 -120 -49l-8 -72c0 -3 -1 -5 -5 -6l-14 -2c-5 -1 -6 0 -6 4l10 78c-69 11 -126 59 -126 145c0 54 22 88 49 112c31 28 74 42 115 43l7 58c0 2 1 4 4 5l16 2c3 0 4 -1 4 -3l-8 -63
c22 0 54 -6 84 -16c5 -2 5 -3 5 -8c0 -13 -4 -62 -5 -71c0 -5 -2 -9 -5 -9c-4 0 -5 4 -6 9c-2 20 -6 34 -16 45c-9 10 -27 22 -60 24zM189 103l30 239c-75 -2 -99 -65 -99 -120c0 -77 38 -107 69 -119z" />
    <glyph glyph-name="hyphen.denominator" horiz-adv-x="273" 
d="M71 238h135c16 0 18 -2 18 -6s-6 -7 -18 -9c-44 -7 -98 -18 -128 -26c-12 -3 -21 -8 -25 -8s-4 4 -3 9l8 35c1 4 3 5 13 5z" />
    <glyph glyph-name="parenleft.denominator" horiz-adv-x="268" 
d="M115 197c0 -118 34 -201 94 -256c5 -4 6 -6 6 -9c0 -2 -2 -5 -5 -5c-2 0 -7 1 -15 6c-54 34 -135 121 -135 257c0 131 90 227 141 259c3 2 7 4 10 4s4 -2 4 -3c0 -3 -2 -6 -6 -10c-46 -43 -94 -127 -94 -243z" />
    <glyph glyph-name="parenright.denominator" horiz-adv-x="268" 
d="M153 183c0 118 -34 201 -94 256c-5 4 -6 6 -6 9c0 2 2 5 5 5c2 0 7 -1 15 -6c54 -34 135 -121 135 -257c0 -131 -90 -227 -141 -259c-3 -2 -7 -4 -10 -4s-4 2 -4 3c0 3 2 6 6 10c46 43 94 127 94 243z" />
    <glyph glyph-name="emdash.cap" horiz-adv-x="930" 
d="M858 340h-787c-34 0 -39 1 -40 4c-2 3 1 30 6 38c3 4 6 4 33 4h788c36 0 39 -1 40 -5c1 -5 -1 -28 -6 -36c-2 -4 -7 -5 -34 -5z" />
    <glyph glyph-name="endash.cap" horiz-adv-x="507" 
d="M436 341h-365c-34 0 -39 1 -40 4c-2 3 1 30 6 38c3 4 6 4 33 4h366c36 0 39 -1 40 -5c1 -5 -1 -28 -6 -36c-2 -4 -7 -5 -34 -5z" />
    <glyph glyph-name="exclamdown.cap" horiz-adv-x="360" 
d="M162 566c10 0 13 -13 14 -34c3 -46 5 -63 16 -255c1 -15 11 -157 19 -188c2 -8 4 -14 4 -19s-2 -9 -5 -14c-13 -22 -66 -73 -95 -73c-4 0 -6 2 -6 10c0 7 8 58 13 132c1 18 26 385 28 409c1 14 4 32 12 32zM160 767c35 0 50 -28 50 -51c0 -21 -15 -51 -51 -51
c-29 0 -51 19 -51 48c0 30 21 54 52 54z" />
    <glyph glyph-name="guillemotleft.cap" horiz-adv-x="588" 
d="M292 154l-26 -28c-4 -4 -6 -5 -9 -5c-2 0 -9 5 -26 25c-24 29 -119 135 -142 158c-10 10 -17 18 -17 22c0 3 7 10 16 18c38 33 152 144 192 180c9 9 14 12 18 12c12 0 -5 -20 -8 -23c-42 -52 -129 -143 -157 -179c18 -25 106 -114 148 -158c11 -11 15 -13 15 -15
s-2 -5 -4 -7zM506 154l-26 -27c-4 -4 -6 -6 -9 -6c-2 0 -9 5 -26 25c-24 29 -119 135 -142 158c-10 10 -17 18 -17 22c0 3 7 10 16 18c38 33 152 144 192 180c9 9 14 12 18 12c11 0 -6 -20 -8 -23c-42 -52 -129 -143 -157 -179c18 -25 106 -114 148 -158
c11 -11 15 -13 15 -15s-2 -5 -4 -7z" />
    <glyph glyph-name="guillemotright.cap" horiz-adv-x="588" 
d="M296 505l26 28c4 4 6 5 9 5c2 0 9 -5 26 -25c24 -29 119 -135 142 -158c10 -10 17 -18 17 -22c0 -3 -7 -10 -16 -18c-38 -33 -152 -144 -192 -180c-9 -9 -14 -12 -18 -12c-12 0 5 20 8 23c42 52 129 143 157 179c-18 25 -106 114 -148 158c-11 11 -15 13 -15 15s2 5 4 7z
M82 505l26 27c4 4 6 6 9 6c2 0 9 -5 26 -25c24 -29 119 -135 142 -158c10 -10 17 -18 17 -22c0 -3 -7 -10 -16 -18c-38 -33 -152 -144 -192 -180c-9 -9 -14 -12 -18 -12c-11 0 6 20 8 23c42 52 129 143 157 179c-18 25 -106 114 -148 158c-11 11 -15 13 -15 15s2 5 4 7z" />
    <glyph glyph-name="guilsinglleft.cap" horiz-adv-x="374" 
d="M292 154l-26 -28c-4 -4 -7 -5 -9 -5s-9 5 -26 25c-24 29 -119 135 -142 158c-10 10 -17 18 -17 22c0 3 7 10 16 18c38 33 152 144 192 180c9 9 14 12 18 12c11 0 -6 -20 -8 -23c-42 -52 -129 -143 -157 -179c18 -25 106 -114 148 -158c11 -11 15 -13 15 -15s-2 -5 -4 -7z
" />
    <glyph glyph-name="guilsinglright.cap" horiz-adv-x="340" 
d="M82 504l26 28c4 4 7 5 9 5s9 -5 26 -25c24 -29 119 -135 142 -158c10 -10 17 -18 17 -22c0 -3 -7 -10 -16 -18c-38 -33 -152 -144 -192 -180c-9 -9 -14 -12 -18 -12c-12 0 6 20 8 23c42 52 129 143 157 179c-18 25 -106 114 -148 158c-11 11 -15 13 -15 15s2 5 4 7z" />
    <glyph glyph-name="hyphen.cap" horiz-adv-x="345" 
d="M69 431h216c22 0 25 -3 25 -8c0 -8 -14 -11 -33 -15c-68 -12 -153 -25 -198 -39c-20 -6 -34 -12 -39 -12s-5 6 -4 14l13 52c2 7 6 8 20 8z" />
    <glyph glyph-name="questiondown.cap" horiz-adv-x="538" 
d="M241 -17c-132 0 -181 84 -181 156c0 117 76 168 172 287c37 47 41 63 41 80c0 15 -4 33 -16 52c-6 9 -8 14 -8 17c0 4 2 8 6 8c9 0 31 -20 43 -35c20 -25 29 -41 29 -59c0 -14 -7 -31 -22 -50c-23 -30 -47 -55 -69 -83c-70 -89 -88 -144 -88 -210c0 -49 26 -129 117 -129
c49 0 82 19 98 39c24 29 32 59 35 93c1 10 3 17 8 17s7 -3 8 -10c3 -14 4 -78 4 -117c0 -6 -1 -10 -11 -16c-30 -18 -89 -40 -166 -40zM264 767c35 0 52 -29 52 -53c0 -23 -17 -53 -53 -53c-29 0 -51 21 -51 52s22 54 52 54z" />
    <glyph glyph-name="braceleft.cap" horiz-adv-x="404" 
d="M121 363c55 -15 108 -54 108 -139c0 -31 -3 -77 -3 -140c0 -135 57 -159 98 -173c6 -2 10 -5 10 -8c0 -4 -3 -5 -10 -5c-24 0 -79 11 -113 45c-40 40 -53 89 -53 166c0 42 7 102 7 160c0 59 -34 77 -76 84c-11 2 -15 4 -15 9s10 7 19 9c35 8 72 31 72 91
c0 39 -7 86 -7 125c0 154 114 198 164 198c7 0 11 -2 11 -5c0 -1 -2 -5 -9 -7c-36 -11 -98 -41 -98 -134c0 -50 3 -86 3 -118c0 -72 -40 -136 -108 -158z" />
    <glyph glyph-name="braceright.cap" horiz-adv-x="404" 
d="M282 361c-54 16 -108 54 -108 139c0 31 4 39 4 102c0 135 -56 156 -97 170c-7 3 -11 4 -11 7c0 5 8 6 14 6c25 0 74 -12 108 -45c40 -40 54 -86 54 -163c0 -42 -7 -63 -7 -122c0 -58 34 -77 75 -84c11 -2 15 -4 15 -8c0 -5 -9 -8 -18 -10c-36 -7 -72 -30 -72 -91
c0 -38 7 -125 7 -164c0 -153 -115 -200 -166 -200c-7 0 -9 2 -9 5s2 5 9 7c37 11 98 40 98 133c0 50 -4 125 -4 157c0 72 40 139 108 161z" />
    <glyph glyph-name="bracketleft.cap" horiz-adv-x="388" 
d="M183 658v-625c0 -42 2 -78 7 -99c19 -8 55 -13 105 -16c12 -1 20 -3 20 -8s-8 -6 -16 -6h-158c-15 0 -16 1 -16 16v848c0 11 2 13 17 13h157c8 0 17 -1 17 -7c0 -4 -10 -8 -22 -8c-46 -3 -78 -7 -104 -15c-5 -21 -7 -52 -7 -93z" />
    <glyph glyph-name="bracketright.cap" horiz-adv-x="388" 
d="M203 27v625c0 42 -2 78 -7 99c-19 8 -55 13 -105 16c-12 1 -20 3 -20 8s8 6 16 6h158c15 0 16 -1 16 -16v-848c0 -11 -2 -13 -17 -13h-157c-8 0 -17 1 -17 7c0 4 10 8 22 8c46 3 78 7 104 15c5 21 7 52 7 93z" />
    <glyph glyph-name="parenleft.cap" horiz-adv-x="375" 
d="M136 351c0 -201 58 -340 158 -443c2 -3 15 -18 2 -18c-3 0 -8 4 -12 7c-79 59 -222 199 -222 443c0 241 154 391 224 446c5 3 9 6 13 6c9 0 -5 -14 -6 -16c-75 -80 -157 -224 -157 -425z" />
    <glyph glyph-name="parenright.cap" horiz-adv-x="389" 
d="M254 331c0 201 -58 340 -158 443c-2 2 -14 18 -3 18c3 0 9 -4 13 -7c79 -59 222 -199 222 -443c0 -241 -154 -391 -224 -446c-5 -3 -9 -6 -13 -6c-9 0 5 14 6 16c75 80 157 224 157 425z" />
    <glyph glyph-name="periodcentered.cap" horiz-adv-x="264" 
d="M74 467c12 0 59 -8 94 -16c14 -3 21 -7 21 -12s-3 -10 -5 -14c-20 -33 -49 -57 -78 -83c-5 -4 -11 -10 -14 -10c-1 0 -4 2 -4 4c0 3 3 10 5 14c5 17 7 42 7 56c0 32 -16 43 -24 47c-6 3 -10 4 -10 8s3 6 8 6z" />
    <glyph glyph-name="lessequal" unicode="&#x2264;" horiz-adv-x="610" 
d="M517 145l-423 227v49l423 225v-57l-368 -193l368 -194v-57zM517 19h-422l-1 52h423v-52z" />
    <glyph glyph-name="greaterequal" unicode="&#x2265;" horiz-adv-x="611" 
d="M94 646l423 -227v-49l-423 -225v57l367 193l-367 194v57zM517 19h-422l-1 52h423v-52z" />
    <glyph glyph-name="approxequal" unicode="&#x2248;" horiz-adv-x="661" 
d="M109 403l-39 33c50 83 131 120 238 76l65 -27c80 -33 127 -25 179 53l39 -33c-57 -97 -129 -121 -232 -76l-66 29c-114 50 -154 -18 -184 -55zM109 190l-39 33c50 83 131 120 238 76l65 -27c80 -33 127 -25 179 53l39 -33c-57 -97 -129 -121 -232 -76l-66 29
c-114 50 -154 -18 -184 -55z" />
    <glyph glyph-name="notequal" unicode="&#x2260;" horiz-adv-x="661" 
d="M567 439h-164l-89 -154h253v-54h-284l-77 -132l-45 25l62 107h-129v54h161l90 154h-251v54h282l74 127l43 -26l-59 -101h133v-54z" />
    <glyph glyph-name="infinity" unicode="&#x221e;" horiz-adv-x="833" 
d="M415 331c-35 -32 -97 -113 -194 -113c-85 0 -150 59 -150 146c0 84 68 144 151 144c84 0 128 -49 196 -115c68 71 122 115 196 115c83 0 147 -50 147 -146c0 -88 -69 -144 -147 -144c-97 0 -150 69 -199 113zM387 360c-72 74 -108 104 -170 104c-56 0 -100 -38 -100 -105
c0 -60 54 -97 107 -97c59 0 96 34 163 98zM445 363c72 -67 106 -101 170 -101c55 0 100 42 100 97s-33 105 -99 105c-65 0 -100 -34 -171 -101z" />
    <glyph glyph-name="lozenge" unicode="&#x25ca;" horiz-adv-x="585" 
d="M321 0h-57l-204 382l204 368h57l204 -368zM468 382l-176 322l-175 -322l177 -333z" />
    <glyph glyph-name="integral" unicode="&#x222b;" horiz-adv-x="413" 
d="M324 877c41 0 61 -22 61 -41c0 -15 -15 -41 -36 -41c-12 0 -18 7 -36 22c-9 8 -24 15 -37 15c-34 0 -49 -32 -49 -147c0 -117 17 -366 16 -508c-1 -225 -42 -365 -158 -365c-37 0 -63 23 -63 44c0 22 21 44 42 44c12 0 20 -9 40 -26c10 -9 26 -13 34 -12
c29 1 46 32 45 160c-2 198 -13 402 -15 522c-3 204 44 333 156 333z" />
    <glyph glyph-name="partialdiff" unicode="&#x2202;" horiz-adv-x="597" 
d="M442 356v22c0 150 -74 370 -268 373c-36 1 -59 -4 -92 -15c-5 -2 -13 -3 -13 2c-1 8 10 14 17 18c28 15 67 27 128 27c204 0 303 -227 305 -415c2 -216 -78 -385 -241 -385c-116 0 -217 90 -217 224c0 70 28 117 50 143c39 48 100 77 171 77c69 0 126 -26 160 -71z
M441 311c-32 44 -87 73 -149 73c-103 0 -154 -91 -153 -194c0 -75 36 -172 137 -172c66 0 104 51 128 109c25 61 31 107 37 184z" />
    <glyph glyph-name="product" unicode="&#x220f;" horiz-adv-x="893" 
d="M178 167v298c0 156 0 182 -2 214c-2 38 -14 51 -42 57c-11 2 -22 2 -31 3s-12 4 -12 8s6 6 17 6c37 0 94 -3 109 -3h453c5 0 81 3 103 3c14 0 15 -3 15 -6c0 -4 -3 -6 -13 -8c-6 -1 -11 -1 -19 -3c-25 -6 -36 -12 -38 -56c-2 -32 -2 -61 -2 -217v-296
c0 -96 0 -171 4 -213c3 -38 12 -54 41 -59c14 -3 27 -3 39 -4c11 -1 13 -4 13 -7c0 -4 -4 -7 -13 -7c-47 0 -120 3 -128 3c-9 0 -66 -3 -97 -3c-14 0 -16 3 -16 7c0 3 1 6 15 7c7 1 11 1 20 3c16 3 31 13 34 57c3 42 4 127 4 223v527c0 4 -3 7 -6 7c-15 1 -29 1 -181 1
c-147 0 -152 0 -166 -1c-12 -1 -17 -3 -17 -19v-525c0 -96 1 -166 4 -208c2 -34 9 -56 39 -61c14 -2 32 -3 41 -4c12 -1 15 -4 15 -8c0 -3 -4 -6 -18 -6c-42 0 -121 3 -126 3c-8 0 -63 -3 -93 -3c-11 0 -18 1 -18 6c0 3 1 6 12 8c9 1 11 1 22 3c23 4 32 24 34 67
c3 42 4 110 4 206z" />
    <glyph glyph-name="radical" unicode="&#x221a;" horiz-adv-x="600" 
d="M343 -110l-164 455c-1 4 -3 4 -6 3l-113 -54c-5 -3 -8 -1 -8 5v20c0 7 1 9 8 12l164 77c5 2 9 1 11 -8c53 -175 89 -260 141 -422h2l144 928c1 8 3 10 11 12s20 4 24 4c7 0 7 -4 6 -16l-165 -1016c-8 -53 -10 -81 -21 -81c-8 0 -13 17 -34 81z" />
    <glyph glyph-name="summation" unicode="&#x2211;" horiz-adv-x="692" 
d="M620 27c5 0 6 -6 6 -14c-2 -30 -12 -94 -17 -115c-6 -23 -15 -24 -54 -24c-146 0 -322 6 -392 6c-33 0 -67 1 -112 -1c-10 0 -10 7 -6 12c15 18 37 45 47 56c104 135 248 317 278 358c2 2 4 6 -1 11c-22 28 -212 286 -295 389c-14 17 -23 27 -30 35c-5 6 -1 11 6 11
c15 0 48 -1 92 -1c17 0 364 1 385 1c28 0 46 2 54 5c6 2 10 5 14 5s4 -5 3 -10s-4 -19 -6 -38c-2 -12 -6 -45 -6 -73c0 -10 -2 -17 -7 -17c-6 0 -7 7 -8 14c-2 23 -3 32 -8 43c-6 12 -18 24 -44 27c-44 4 -65 6 -343 6c-4 0 -4 -3 -2 -5c22 -28 257 -338 282 -366
c4 -4 3 -6 -1 -10c-35 -31 -266 -337 -304 -388c-2 -2 -3 -5 2 -5c33 -2 135 -4 274 -3c87 1 121 2 141 8c28 9 37 31 43 71c2 11 5 12 9 12z" />
    <glyph glyph-name="uni2206" unicode="&#x2206;" horiz-adv-x="716" 
d="M369 763c6 0 10 -10 21 -32c95 -221 190 -451 284 -677c13 -32 18 -43 18 -48s-1 -7 -22 -7c-40 0 -66 1 -190 1h-249c-60 0 -147 0 -193 -1c-11 -1 -15 1 -15 6c0 2 2 8 7 18l307 693c21 41 25 47 32 47zM103 54c8 -2 459 -2 470 0c4 1 4 2 3 7l-223 552
c-5 12 -8 17 -10 17s-5 -6 -10 -18c-78 -182 -155 -369 -232 -552c-2 -4 -1 -5 2 -6z" />
    <glyph glyph-name="uni2126" unicode="&#x2126;" horiz-adv-x="916" 
d="M825 -3l-270 3c-19 0 -30 0 -39 -1c-3 0 -4 1 -3 6c2 14 6 37 10 48c2 4 5 6 9 9c108 67 208 168 208 354c0 194 -124 317 -287 317c-146 0 -271 -117 -271 -306c0 -181 99 -299 193 -361c4 -3 9 -7 10 -13c2 -13 3 -38 4 -50c0 -3 -3 -4 -5 -4c-9 1 -22 1 -51 1l-270 -3
c-20 0 -22 5 -23 23c-1 47 -2 91 -1 117c1 12 4 16 7 16c5 0 7 -6 8 -14c8 -72 24 -75 103 -78c49 -3 117 -4 180 -4c-109 45 -250 148 -250 357c0 190 143 353 388 353c219 0 360 -146 360 -334c0 -226 -168 -328 -258 -375c178 1 218 3 247 17c24 11 30 23 39 62
c2 10 4 12 9 12s6 -8 6 -15c0 -23 -10 -88 -17 -112c-5 -19 -8 -25 -36 -25z" />
    <glyph glyph-name="pi.alt" horiz-adv-x="692" 
d="M606 427c-14 -2 -45 0 -91 -1c-5 -68 -13 -196 -13 -307c0 -69 23 -92 61 -92c19 0 36 7 41 9c9 3 12 -4 2 -13c-27 -26 -65 -35 -93 -35c-44 0 -90 14 -90 111c0 94 10 246 15 328c-56 1 -134 2 -173 2c-13 -98 -34 -355 -21 -398c2 -6 -1 -10 -7 -15
c-13 -11 -52 -29 -67 -30c-4 0 -6 5 -5 12c7 75 38 351 47 432c-113 3 -141 -9 -166 -32c-10 -8 -13 2 -8 10c30 52 84 78 181 78c64 0 278 -2 350 -1c27 0 47 2 59 17c2 3 5 6 8 6c4 0 5 -5 4 -10c0 -7 -9 -39 -14 -56c-3 -11 -7 -13 -20 -15z" />
    <glyph glyph-name="Abreve" unicode="&#x102;" horiz-adv-x="700" 
d="M439 292h-215c-5 0 -8 -3 -10 -8l-60 -177c-9 -25 -14 -49 -14 -67c0 -20 19 -29 36 -29h9c10 0 13 -2 13 -6c0 -6 -9 -8 -18 -8c-24 0 -64 3 -75 3s-66 -3 -113 -3c-13 0 -19 2 -19 8c0 4 5 6 14 6c7 0 16 1 24 2c46 6 66 44 84 94l227 621c12 33 16 39 22 39
s10 -5 22 -36c15 -38 172 -451 233 -603c36 -89 65 -105 86 -111c15 -5 31 -6 39 -6c6 0 11 -1 11 -6c0 -6 -9 -8 -20 -8c-15 0 -88 0 -157 2c-19 1 -30 1 -30 7c0 4 3 6 7 7c6 2 12 11 6 27l-93 246c-2 4 -4 6 -9 6zM235 328h191c5 0 5 3 4 7l-95 270c-5 15 -10 15 -15 0
l-88 -270c-2 -5 0 -7 3 -7zM183 899c0 2 0 5 6 10c8 9 26 25 31 25c3 0 4 -1 6 -5c16 -30 62 -67 135 -67c64 0 104 18 142 60c8 9 11 11 15 11c5 0 2 -11 -6 -23c-41 -53 -106 -87 -174 -87c-47 0 -91 11 -125 36c-19 14 -30 28 -30 40z" />
    <glyph glyph-name="Amacron" unicode="&#x100;" horiz-adv-x="700" 
d="M439 292h-215c-5 0 -8 -3 -10 -8l-60 -177c-9 -25 -14 -49 -14 -67c0 -20 19 -29 36 -29h9c10 0 13 -2 13 -6c0 -6 -9 -8 -18 -8c-24 0 -64 3 -75 3s-66 -3 -113 -3c-13 0 -19 2 -19 8c0 4 5 6 14 6c7 0 16 1 24 2c46 6 66 44 84 94l227 621c12 33 16 39 22 39
s10 -5 22 -36c15 -38 172 -451 233 -603c36 -89 65 -105 86 -111c15 -5 31 -6 39 -6c6 0 11 -1 11 -6c0 -6 -9 -8 -20 -8c-15 0 -88 0 -157 2c-19 1 -30 1 -30 7c0 4 3 6 7 7c6 2 12 11 6 27l-93 246c-2 4 -4 6 -9 6zM235 328h191c5 0 5 3 4 7l-95 270c-5 15 -10 15 -15 0
l-88 -270c-2 -5 0 -7 3 -7zM218 878h265c8 0 10 -5 8 -10l-8 -27c-1 -4 -4 -6 -9 -6h-265c-7 0 -11 1 -10 7l8 30c1 5 5 6 11 6z" />
    <glyph glyph-name="Aogonek" unicode="&#x104;" horiz-adv-x="700" 
d="M95 107l227 621c12 33 16 39 22 39s10 -5 22 -36c15 -38 172 -451 233 -603c36 -89 65 -105 86 -111c15 -5 31 -6 39 -6c6 0 11 -1 11 -6c0 -6 -9 -8 -20 -8h-52c-48 -30 -80 -72 -80 -113c0 -37 24 -53 54 -53c14 0 32 3 46 11c9 5 14 4 14 0c0 -5 -2 -7 -7 -13
c-13 -15 -43 -38 -94 -38c-50 0 -80 32 -80 72c0 50 62 104 123 134c-25 1 -53 1 -81 2c-19 1 -30 1 -30 7c0 4 3 6 7 7c6 2 12 11 6 27l-93 246c-2 4 -4 6 -9 6h-215c-5 0 -8 -3 -10 -8l-60 -177c-9 -25 -14 -49 -14 -67c0 -20 19 -29 36 -29h9c10 0 13 -2 13 -6
c0 -6 -9 -8 -18 -8c-24 0 -64 3 -75 3s-66 -3 -113 -3c-13 0 -19 2 -19 8c0 4 5 6 14 6c7 0 16 1 24 2c46 6 66 44 84 94zM235 328h191c5 0 5 3 4 7l-95 270c-5 15 -10 15 -15 0l-88 -270c-2 -5 0 -7 3 -7z" />
    <glyph glyph-name="Cacute" unicode="&#x106;" horiz-adv-x="805" 
d="M515 -17c-150 0 -251 37 -330 108c-97 87 -121 201 -121 296c0 67 23 184 112 273c60 60 151 107 305 107c40 0 96 -3 145 -12c38 -7 69 -10 106 -15c7 -1 9 -5 9 -11c0 -8 -3 -20 -5 -56c-2 -33 -2 -88 -3 -103s-3 -21 -9 -21c-7 0 -8 7 -8 21c0 39 -16 80 -42 102
c-35 30 -112 57 -200 57c-133 0 -195 -39 -230 -73c-73 -70 -90 -159 -90 -261c0 -191 147 -366 361 -366c75 0 134 9 174 50c21 22 34 66 37 84c2 11 4 15 10 15c5 0 7 -7 7 -15c0 -7 -12 -94 -22 -128c-6 -19 -8 -21 -26 -29c-40 -16 -116 -23 -180 -23zM575 959
c10 -9 23 -22 32 -40c5 -10 0 -13 -4 -13s-25 -2 -41 -8c-50 -18 -108 -45 -142 -61c-7 -3 -14 -6 -16 -6s-6 2 -6 4c0 3 3 7 8 12c28 26 97 87 123 104c14 10 25 16 29 16c5 0 10 -1 17 -8z" />
    <glyph glyph-name="Ccaron" unicode="&#x10c;" horiz-adv-x="805" 
d="M515 -17c-150 0 -251 37 -330 108c-97 87 -121 201 -121 296c0 67 23 184 112 273c60 60 151 107 305 107c40 0 96 -3 145 -12c38 -7 69 -10 106 -15c7 -1 9 -5 9 -11c0 -8 -3 -20 -5 -56c-2 -33 -2 -88 -3 -103s-3 -21 -9 -21c-7 0 -8 7 -8 21c0 39 -16 80 -42 102
c-35 30 -112 57 -200 57c-133 0 -195 -39 -230 -73c-73 -70 -90 -159 -90 -261c0 -191 147 -366 361 -366c75 0 134 9 174 50c21 22 34 66 37 84c2 11 4 15 10 15c5 0 7 -7 7 -15c0 -7 -12 -94 -22 -128c-6 -19 -8 -21 -26 -29c-40 -16 -116 -23 -180 -23zM463 826
c-5 0 -9 2 -19 8c-18 12 -110 72 -128 85c-11 8 -12 10 -12 12c0 3 2 4 5 6l32 21c3 2 6 4 11 0c27 -23 88 -65 109 -76c5 -3 9 -5 12 -5c2 0 8 2 16 6c26 14 82 47 116 68c10 6 17 9 21 9c7 0 9 -6 -2 -14c-40 -29 -129 -98 -143 -110c-10 -7 -15 -10 -18 -10z" />
    <glyph glyph-name="Ccircumflex" unicode="&#x108;" horiz-adv-x="805" 
d="M515 -17c-150 0 -251 37 -330 108c-97 87 -121 201 -121 296c0 67 23 184 112 273c60 60 151 107 305 107c40 0 96 -3 145 -12c38 -7 69 -10 106 -15c7 -1 9 -5 9 -11c0 -8 -3 -20 -5 -56c-2 -33 -2 -88 -3 -103s-3 -21 -9 -21c-7 0 -8 7 -8 21c0 39 -16 80 -42 102
c-35 30 -112 57 -200 57c-133 0 -195 -39 -230 -73c-73 -70 -90 -159 -90 -261c0 -191 147 -366 361 -366c75 0 134 9 174 50c21 22 34 66 37 84c2 11 4 15 10 15c5 0 7 -7 7 -15c0 -7 -12 -94 -22 -128c-6 -19 -8 -21 -26 -29c-40 -16 -116 -23 -180 -23zM467 955
c4 0 9 -2 19 -8c18 -12 111 -74 129 -87c11 -8 12 -10 12 -12c0 -3 -2 -4 -5 -6l-34 -19c-3 -2 -6 -4 -12 0c-26 21 -85 60 -106 71c-5 3 -8 5 -11 5c-2 0 -7 -3 -16 -7c-26 -13 -84 -43 -119 -63c-9 -5 -16 -9 -21 -9c-6 0 -8 8 3 16c39 29 129 97 143 109
c10 7 15 10 18 10z" />
    <glyph glyph-name="Cdotaccent" unicode="&#x10a;" horiz-adv-x="805" 
d="M515 -17c-150 0 -251 37 -330 108c-97 87 -121 201 -121 296c0 67 23 184 112 273c60 60 151 107 305 107c40 0 96 -3 145 -12c38 -7 69 -10 106 -15c7 -1 9 -5 9 -11c0 -8 -3 -20 -5 -56c-2 -33 -2 -88 -3 -103s-3 -21 -9 -21c-7 0 -8 7 -8 21c0 39 -16 80 -42 102
c-35 30 -112 57 -200 57c-133 0 -195 -39 -230 -73c-73 -70 -90 -159 -90 -261c0 -191 147 -366 361 -366c75 0 134 9 174 50c21 22 34 66 37 84c2 11 4 15 10 15c5 0 7 -7 7 -15c0 -7 -12 -94 -22 -128c-6 -19 -8 -21 -26 -29c-40 -16 -116 -23 -180 -23zM461 848
c-28 0 -42 21 -42 41c0 19 15 43 42 43c24 0 43 -18 43 -42c0 -22 -17 -42 -43 -42z" />
    <glyph glyph-name="Dcaron" unicode="&#x10e;" horiz-adv-x="917" 
d="M178 287v176c0 156 0 184 -2 216c-2 34 -7 50 -40 57c-8 2 -25 3 -34 3c-7 0 -11 2 -11 6c0 6 5 8 16 8c45 0 108 -3 113 -3c12 0 75 3 135 3c99 0 282 9 401 -114c50 -52 97 -135 97 -254c0 -126 -52 -223 -108 -282c-43 -45 -133 -115 -303 -115c-43 0 -96 3 -139 6
c-44 3 -78 6 -83 6c-2 0 -19 0 -40 -1c-20 0 -43 -2 -58 -2c-11 0 -16 2 -16 8c0 3 2 6 10 6c11 1 19 2 28 4c20 4 25 26 29 55c5 42 5 121 5 217zM262 479v-124c0 -106 1 -198 2 -217c1 -25 3 -65 11 -76c13 -19 52 -40 170 -40c93 0 179 34 238 93c52 51 80 147 80 239
c0 127 -55 209 -96 252c-94 99 -208 113 -327 113c-20 0 -57 -3 -65 -7c-9 -4 -12 -9 -12 -20c-1 -34 -1 -136 -1 -213zM441 814c-5 0 -9 2 -19 8c-18 12 -110 72 -128 85c-11 8 -12 10 -12 12c0 3 2 4 5 6l32 21c3 2 6 4 11 0c27 -23 88 -65 109 -76c5 -3 9 -5 12 -5
c2 0 8 2 16 6c26 14 82 47 116 68c10 6 17 9 21 9c7 0 9 -6 -2 -14c-40 -29 -129 -98 -143 -110c-10 -7 -15 -10 -18 -10z" />
    <glyph glyph-name="Ebreve" unicode="&#x114;" horiz-adv-x="610" 
d="M178 287v176c0 156 0 184 -2 216c-2 34 -10 50 -43 57c-7 2 -20 2 -29 3c-7 1 -13 2 -13 6c0 6 5 8 16 8c23 0 50 0 113 -3c7 0 206 0 229 1c22 1 40 3 46 6s8 4 11 4s4 -4 4 -9c0 -7 -6 -19 -8 -47c-1 -15 -2 -34 -4 -60c-1 -10 -4 -17 -8 -17c-6 0 -8 5 -8 13
c0 13 -2 25 -5 33c-7 23 -28 33 -72 37c-17 2 -126 3 -137 3c-4 0 -6 -3 -6 -10v-276c0 -7 1 -10 6 -10c13 0 136 0 159 2c27 2 40 5 50 17c5 6 8 10 12 10c3 0 5 -2 5 -8s-5 -23 -8 -56c-3 -31 -3 -54 -4 -68c-1 -10 -3 -15 -7 -15c-6 0 -7 8 -7 16c0 9 -1 19 -4 28
c-4 15 -16 29 -52 33c-27 3 -126 5 -143 5c-5 0 -7 -3 -7 -7v-88c0 -34 -1 -150 0 -171c2 -41 8 -63 33 -73c17 -7 44 -9 83 -9c30 0 63 1 90 9c32 10 43 31 51 74c2 11 4 15 9 15c6 0 6 -8 6 -15c0 -8 -8 -76 -13 -97c-7 -26 -15 -26 -54 -26c-74 0 -107 2 -146 3
c-40 1 -86 3 -125 3c-24 0 -48 -4 -74 -3c-11 0 -16 2 -16 8c0 3 5 5 11 6c10 1 16 1 23 3c21 5 34 19 36 94c1 39 2 90 2 179zM162 906c0 2 0 5 6 10c8 9 26 25 31 25c3 0 4 -1 6 -5c16 -30 62 -67 135 -67c64 0 104 18 142 60c8 9 11 11 15 11c5 0 2 -11 -6 -23
c-41 -53 -106 -87 -174 -87c-47 0 -91 11 -125 36c-19 14 -30 28 -30 40z" />
    <glyph glyph-name="Ecaron" unicode="&#x11a;" horiz-adv-x="610" 
d="M178 287v176c0 156 0 184 -2 216c-2 34 -10 50 -43 57c-7 2 -20 2 -29 3c-7 1 -13 2 -13 6c0 6 5 8 16 8c23 0 50 0 113 -3c7 0 206 0 229 1c22 1 40 3 46 6s8 4 11 4s4 -4 4 -9c0 -7 -6 -19 -8 -47c-1 -15 -2 -34 -4 -60c-1 -10 -4 -17 -8 -17c-6 0 -8 5 -8 13
c0 13 -2 25 -5 33c-7 23 -28 33 -72 37c-17 2 -126 3 -137 3c-4 0 -6 -3 -6 -10v-276c0 -7 1 -10 6 -10c13 0 136 0 159 2c27 2 40 5 50 17c5 6 8 10 12 10c3 0 5 -2 5 -8s-5 -23 -8 -56c-3 -31 -3 -54 -4 -68c-1 -10 -3 -15 -7 -15c-6 0 -7 8 -7 16c0 9 -1 19 -4 28
c-4 15 -16 29 -52 33c-27 3 -126 5 -143 5c-5 0 -7 -3 -7 -7v-88c0 -34 -1 -150 0 -171c2 -41 8 -63 33 -73c17 -7 44 -9 83 -9c30 0 63 1 90 9c32 10 43 31 51 74c2 11 4 15 9 15c6 0 6 -8 6 -15c0 -8 -8 -76 -13 -97c-7 -26 -15 -26 -54 -26c-74 0 -107 2 -146 3
c-40 1 -86 3 -125 3c-24 0 -48 -4 -74 -3c-11 0 -16 2 -16 8c0 3 5 5 11 6c10 1 16 1 23 3c21 5 34 19 36 94c1 39 2 90 2 179zM325 813c-5 0 -9 2 -19 8c-18 12 -110 72 -128 85c-11 8 -12 10 -12 12c0 3 2 4 5 6l32 21c3 2 6 4 11 0c27 -23 88 -65 109 -76
c5 -3 9 -5 12 -5c2 0 8 2 16 6c26 14 82 47 116 68c10 6 17 9 21 9c7 0 9 -6 -2 -14c-40 -29 -129 -98 -143 -110c-10 -7 -15 -10 -18 -10z" />
    </font>
</defs>
</svg>
