<?xml version="1.0" standalone="no"?>
<!DOCTYPE svg PUBLIC "-//W3C//DTD SVG 1.1//EN" "http://www.w3.org/Graphics/SVG/1.1/DTD/svg11.dtd" >
<svg xmlns="http://www.w3.org/2000/svg" xmlns:xlink="http://www.w3.org/1999/xlink" version="1.1">
<metadata>
Created by FontForge 20160407 at Sun Dec 11 07:00:11 2016
 By Jimmy Wärting
Digitized data copyright (C) 1992 - 1997 The Monotype Corporation. Rockwell is a trademark of The Monotype Corporation which may be registered in certain jurisdictions. Portions copyright Microsoft corporation.  All rights reserved.
</metadata>
<defs>
<font id="Rockwell-Bold" horiz-adv-x="725" >
  <font-face 
    font-family="Rockwell"
    font-weight="700"
    font-stretch="normal"
    units-per-em="2048"
    panose-1="2 6 8 3 3 5 5 2 4 3"
    ascent="1638"
    descent="-410"
    x-height="968"
    cap-height="1391"
    bbox="-252 -559 2298 1930"
    underline-thickness="140"
    underline-position="-230"
    unicode-range="U+0020-F002"
  />
<missing-glyph horiz-adv-x="1536" 
d="M256 0v1280h1024v-1280h-1024zM288 32h960v1216h-960v-1216z" />
    <glyph glyph-name=".notdef" horiz-adv-x="1536" 
d="M256 0v1280h1024v-1280h-1024zM288 32h960v1216h-960v-1216z" />
    <glyph glyph-name=".null" horiz-adv-x="0" 
 />
    <glyph glyph-name="nonmarkingreturn" horiz-adv-x="512" 
 />
    <glyph glyph-name="space" unicode=" " horiz-adv-x="512" 
 />
    <glyph glyph-name="exclam" unicode="!" 
d="M288 485l-86 525v381h309v-381l-79 -525h-144zM195 0v335h335v-335h-335z" />
    <glyph glyph-name="quotedbl" unicode="&#x22;" horiz-adv-x="1130" 
d="M349 749h-48l-105 383q-20 71 -20 128q0 67 42.5 111t104.5 44q64 0 106.5 -44.5t42.5 -98.5q0 -48 -24 -140zM831 749h-48l-105 383q-19 71 -19 128q0 67 42.5 111t104.5 44q64 0 106 -44.5t42 -98.5q0 -48 -24 -140z" />
    <glyph glyph-name="numbersign" unicode="#" horiz-adv-x="1368" 
d="M378 1052l78 372h216l-79 -372h329l79 372h215l-78 -372h156v-216h-201l-58 -275h259v-216h-304l-78 -372h-216l78 372h-329l-78 -372h-216l78 372h-155v216h201l57 275h-258v216h304zM877 836h-329l-58 -275h329z" />
    <glyph glyph-name="dollar" unicode="$" horiz-adv-x="1153" 
d="M617 -179h-141v175q-157 21 -262.5 110.5t-120.5 301.5h247q-1 -11 -1 -16q0 -70 36 -122t101 -69v424q-212 98 -286 193.5t-74 209.5q0 138 99 236t261 111v52h141v-52q174 -14 277 -112t103 -256h-246q-17 157 -134 170v-333l136 -61q115 -52 183.5 -118.5t95 -138.5
t26.5 -146q0 -161 -119.5 -270t-321.5 -114v-175zM476 1176q-113 -21 -113 -118q0 -83 113 -150v268zM617 192q86 -1 141.5 48t55.5 117q0 131 -197 207v-372z" />
    <glyph glyph-name="percent" unicode="%" horiz-adv-x="1898" 
d="M431 671q-294 0 -294 372t295 372q145 0 219 -96.5t74 -275.5q0 -372 -294 -372zM429 799q85 0 85 243q0 245 -83 245t-83 -243q0 -245 81 -245zM356 0l1007 1391h179l-1007 -1391h-179zM1464 -18q-294 0 -294 372t295 372q145 0 219 -97t74 -275q0 -372 -294 -372z
M1462 110q84 0 84 243q0 245 -82 245q-83 0 -83 -243q0 -245 81 -245z" />
    <glyph glyph-name="ampersand" unicode="&#x26;" horiz-adv-x="1642" 
d="M1559 223v-223h-412l-126 154q-199 -178 -449 -178q-227 0 -361.5 127t-134.5 300q0 133 85.5 240t298.5 209q-109 126 -109 253q0 148 110.5 228t268.5 80q160 0 266 -80t106 -204q0 -193 -242 -316l198 -251q112 152 172 289h329v-223h-170q-76 -158 -168 -262
l114 -143h224zM721 988q134 60 134 139q0 41 -33.5 71t-80.5 30q-45 0 -78.5 -25.5t-33.5 -62.5q0 -38 92 -152zM601 681q-207 -86 -207 -233q0 -83 65.5 -146.5t168.5 -63.5q120 0 238 109z" />
    <glyph glyph-name="quotesingle" unicode="'" horiz-adv-x="575" 
d="M313 749h-48l-105 383q-20 71 -20 128q0 67 42.5 111t104.5 44q64 0 106.5 -44.5t42.5 -98.5q0 -48 -24 -140z" />
    <glyph glyph-name="parenleft" unicode="(" horiz-adv-x="705" 
d="M648 1410v-199q-130 -68 -183.5 -236.5t-53.5 -487.5q0 -325 54 -491.5t183 -233.5v-199q-233 84 -393.5 320.5t-160.5 603.5q0 373 162 606.5t392 316.5z" />
    <glyph glyph-name="parenright" unicode=")" horiz-adv-x="705" 
d="M58 -437v199q130 68 183.5 236.5t53.5 488.5q0 324 -54 490.5t-183 233.5v199q233 -84 393.5 -320.5t160.5 -602.5t-160 -603t-394 -321z" />
    <glyph glyph-name="asterisk" unicode="*" horiz-adv-x="1174" 
d="M986 558l-199 -139l-105 139q-2 100 -96 241q-84 -133 -84 -241l-97 -139l-201 139l98 140q96 28 209 161q-11 1 -55 10q-66 13 -114 13q-51 0 -94 -11l-168 56l81 234l167 -55q48 -75 208 -151q-18 181 -72 265v171h244v-171q-71 -107 -71 -265q185 89 219 151l161 55
l78 -234l-155 -56q-55 15 -104 15q-57 0 -167 -27q100 -122 214 -161z" />
    <glyph glyph-name="plus" unicode="+" horiz-adv-x="1368" 
d="M122 823h438v438h248v-438h438v-249h-438v-438h-248v438h-438v249z" />
    <glyph glyph-name="comma" unicode="," 
d="M196 -366v150q164 17 164 198v18h-164v335h334v-311q0 -150 -32.5 -231t-110 -120t-191.5 -39z" />
    <glyph glyph-name="hyphen" unicode="-" horiz-adv-x="705" 
d="M73 349v270h559v-270h-559z" />
    <glyph glyph-name="hyphen" unicode="&#xad;" horiz-adv-x="705" 
d="M73 349v270h559v-270h-559z" />
    <glyph glyph-name="period" unicode="." 
d="M195 0v335h335v-335h-335z" />
    <glyph glyph-name="slash" unicode="/" horiz-adv-x="1040" 
d="M748 1415h284l-738 -1432h-285z" />
    <glyph glyph-name="zero" unicode="0" horiz-adv-x="1130" 
d="M565 -18q-233 0 -355.5 184.5t-122.5 532.5q0 341 119.5 528.5t358.5 187.5q238 0 358 -186.5t120 -529.5q0 -349 -123 -533t-355 -184zM563 208q107 0 135 170t28 321q0 242 -37.5 366.5t-123.5 124.5q-87 0 -124 -127.5t-37 -364.5q0 -242 37.5 -366t121.5 -124z" />
    <glyph glyph-name="one" unicode="1" horiz-adv-x="1130" 
d="M233 0v223h192v945h-204v223h510v-1168h182v-223h-680z" />
    <glyph glyph-name="two" unicode="2" horiz-adv-x="1130" 
d="M1001 404l-12 -404h-891q0 182 29.5 282t97 194t188.5 206q159 146 209.5 214.5t50.5 154.5q0 64 -38 105.5t-95 41.5q-83 0 -122.5 -68.5t-45.5 -223.5l-255 12q0 201 60 303t163 148t224 46q199 0 312.5 -110t113.5 -274q0 -88 -34.5 -162.5t-87 -125t-185.5 -145.5
q-200 -143 -251 -227t-60 -148h405v181h224z" />
    <glyph glyph-name="three" unicode="3" horiz-adv-x="1130" 
d="M73 425l268 22q5 -245 184 -245q81 0 132 59t51 150q0 89 -50 148.5t-150 59.5q-24 0 -62 -2v234q119 0 173 53.5t54 130.5q0 68 -41 111.5t-107 43.5q-148 0 -148 -184l-261 20q8 189 126.5 289t300.5 100q205 0 318.5 -98t113.5 -268q0 -221 -208 -316
q258 -84 258 -332q0 -197 -133 -308t-338 -111q-447 0 -481 443z" />
    <glyph glyph-name="four" unicode="4" horiz-adv-x="1130" 
d="M1030 204v-204h-558v204h154v179h-511q-36 107 -74 178l598 854h274v-842h135v-190h-135v-179h117zM626 573v485l-346 -485h346z" />
    <glyph glyph-name="five" unicode="5" horiz-adv-x="1130" 
d="M73 374l263 31q27 -200 184 -200q90 0 138.5 60.5t48.5 171.5q0 247 -181 247q-100 0 -167 -109l-223 111l41 705h781v-327h-203l-19 104h-358l-19 -334q110 79 237 79q204 0 316.5 -132.5t112.5 -322.5q0 -203 -120.5 -339.5t-364.5 -136.5q-209 0 -325 106t-142 286z
" />
    <glyph glyph-name="six" unicode="6" horiz-adv-x="1130" 
d="M1020 1045l-239 -22q-42 177 -162 177q-97 0 -151 -110.5t-57 -289.5q97 92 246 92q161 0 271 -111t110 -322q0 -235 -117 -356t-310 -121q-254 0 -377.5 169.5t-123.5 532.5q0 388 139.5 559.5t380.5 171.5q346 0 390 -370zM411 604q5 -231 54.5 -315.5t140.5 -84.5
q67 0 108.5 60t41.5 178q0 110 -49.5 166t-121.5 56q-89 0 -174 -60z" />
    <glyph glyph-name="seven" unicode="7" horiz-adv-x="1130" 
d="M864 223v-223h-671v223h176q9 204 115 487.5t235 463.5h-358v-195h-222v412h869v-171q-105 -125 -212.5 -439.5t-107.5 -557.5h176z" />
    <glyph glyph-name="eight" unicode="8" horiz-adv-x="1130" 
d="M811 730q243 -92 243 -344q0 -185 -124.5 -294.5t-365.5 -109.5t-362.5 116.5t-121.5 293.5q0 245 248 338q-206 116 -206 320q0 163 119.5 264t326.5 101q214 0 329.5 -100.5t115.5 -258.5q0 -209 -202 -326zM730 1013q0 83 -42 134.5t-120 51.5q-72 0 -117.5 -48
t-45.5 -141q0 -78 43.5 -130t119.5 -52q74 0 118 51t44 134zM759 413q0 97 -52.5 158.5t-137.5 61.5q-82 0 -135.5 -60t-53.5 -160q0 -99 53 -156.5t136 -57.5t136.5 57.5t53.5 156.5z" />
    <glyph glyph-name="nine" unicode="9" horiz-adv-x="1130" 
d="M115 356l237 23q42 -178 160 -178q186 0 212 396q-110 -87 -259 -87q-155 0 -264.5 116.5t-109.5 318.5q0 204 118 337t328 133q234 0 360 -165.5t126 -548.5q0 -719 -512 -719q-167 0 -274.5 94.5t-121.5 279.5zM724 797v15q0 160 -50.5 271t-154.5 111
q-65 0 -105.5 -62.5t-40.5 -168.5q0 -98 43 -164t132 -66q82 0 176 64z" />
    <glyph glyph-name="colon" unicode=":" 
d="M195 635v333h335v-333h-335zM195 0v335h335v-335h-335z" />
    <glyph glyph-name="semicolon" unicode=";" 
d="M195 642v335h335v-335h-335zM195 -366v150q164 17 164 198v18h-164v335h335v-311q0 -144 -31 -226t-108 -123t-196 -41z" />
    <glyph glyph-name="less" unicode="&#x3c;" horiz-adv-x="1368" 
d="M1246 120l-1124 466v225l1124 466v-265l-778 -313l778 -314v-265z" />
    <glyph glyph-name="equal" unicode="=" horiz-adv-x="1368" 
d="M122 1064h1124v-248h-1124v248zM122 581h1124v-248h-1124v248z" />
    <glyph glyph-name="greater" unicode="&#x3e;" horiz-adv-x="1368" 
d="M122 1277l1124 -466v-225l-1124 -466v265l778 314l-778 313v265z" />
    <glyph glyph-name="question" unicode="?" horiz-adv-x="1153" 
d="M596 481h-143l-29 368q50 -18 104 -18q88 0 151.5 48t63.5 137q0 83 -54 133.5t-136 50.5q-89 0 -133 -47t-44 -119q0 -18 5 -42h-309q0 106 41.5 197t162 158.5t297.5 67.5q239 0 363.5 -116.5t124.5 -291.5q0 -172 -111 -277t-276 -105q-15 0 -45 2zM355 0v335h335
v-335h-335z" />
    <glyph glyph-name="at" unicode="@" horiz-adv-x="2005" 
d="M1778 -1h213q-104 -217 -336.5 -333t-531.5 -116q-529 0 -795 251.5t-266 659.5q0 289 132.5 526t362 361t531.5 124q383 0 616.5 -216.5t233.5 -547.5q0 -290 -191 -508.5t-465 -218.5q-157 0 -187 114q-115 -114 -275 -114q-171 0 -276 118t-105 309q0 241 152 448.5
t387 207.5q180 0 265 -135l25 111h264l-151 -717q-14 -69 -14 -89q0 -49 39 -49q49 0 133.5 64.5t151.5 189.5t67 272q0 235 -172 406.5t-504 171.5q-244 0 -434.5 -97t-297 -303.5t-106.5 -438.5q0 -317 218.5 -516.5t625.5 -199.5q485 0 690 265zM697 388q0 -99 50 -161.5
t129 -62.5q141 0 226.5 156.5t85.5 335.5q0 92 -46 160.5t-139 68.5q-137 0 -221.5 -148.5t-84.5 -348.5z" />
    <glyph glyph-name="A" unicode="A" horiz-adv-x="1430" 
d="M1432 235v-235h-684v235h178l-66 239h-361l-74 -239h186v-235h-616v235h172l271 921h-185v235h908v-235h-187l292 -921h166zM803 678l-116 419l-125 -419h241z" />
    <glyph glyph-name="B" unicode="B" horiz-adv-x="1430" 
d="M68 0v235h171v921h-171v235h635q211 0 314 -24.5t178 -119t75 -221.5q0 -203 -196 -287q250 -93 250 -333q0 -138 -77.5 -236.5t-200 -134t-343.5 -35.5h-635zM601 842h102q106 0 156 36t50 127q0 83 -48.5 117t-169.5 34h-90v-314zM601 235h102q139 0 194 40t55 141
q0 106 -59.5 148.5t-189.5 42.5h-102v-372z" />
    <glyph glyph-name="C" unicode="C" horiz-adv-x="1599" 
d="M1251 1391h235v-490h-235q-100 264 -347 264q-204 0 -308.5 -139t-104.5 -333q0 -203 110.5 -328.5t281.5 -125.5q140 0 245 95t142 264l274 -131q-156 -484 -687 -484q-375 0 -565.5 202t-190.5 511q0 220 99 385t266.5 248.5t367.5 83.5q249 0 417 -130v108z" />
    <glyph glyph-name="D" unicode="D" horiz-adv-x="1642" 
d="M48 0v235h211v921h-211v235h659q208 0 335 -25.5t243 -113t186 -234.5t70 -326q0 -145 -49 -276.5t-121.5 -212t-173.5 -128t-185.5 -61.5t-261.5 -14h-702zM620 235h87q158 0 250.5 41t148.5 144.5t56 270.5q0 159 -56.5 270t-153 153t-245.5 42h-87v-921z" />
    <glyph glyph-name="E" unicode="E" horiz-adv-x="1366" 
d="M68 0v235h167v921h-167v235h1226v-441h-266v206h-431v-321h348v-235h-348v-365h431v208h266v-443h-1226z" />
    <glyph glyph-name="F" unicode="F" horiz-adv-x="1323" 
d="M58 0v235h199v921h-199v235h1245v-429h-266v194h-418v-322h301v-235h-301v-364h214v-235h-775z" />
    <glyph glyph-name="G" unicode="G" horiz-adv-x="1729" 
d="M982 467v235h652q0 -253 -91.5 -401t-266 -233t-391.5 -85q-377 0 -578.5 202t-201.5 513q0 216 100 381.5t269 249.5t367 84q280 0 436 -136v114h236v-494h-236q-37 125 -147 197t-236 72q-166 0 -283 -117.5t-117 -325.5q0 -238 119 -362.5t290 -124.5q126 0 209 61
t115 170h-245z" />
    <glyph glyph-name="H" unicode="H" horiz-adv-x="1556" 
d="M63 0v235h174v921h-174v235h672v-235h-146v-305h379v305h-141v235h668v-235h-175v-921h175v-235h-668v235h141v380h-379v-380h146v-235h-672z" />
    <glyph glyph-name="I" unicode="I" horiz-adv-x="874" 
d="M45 0v235h211v921h-211v235h786v-235h-213v-921h213v-235h-786z" />
    <glyph glyph-name="J" unicode="J" horiz-adv-x="831" 
d="M-14 -403v252q59 -17 104 -17q83 0 119 46t36 162v1116h-207v235h758v-235h-189v-1129q0 -232 -112.5 -343.5t-299.5 -111.5q-94 0 -209 25z" />
    <glyph glyph-name="K" unicode="K" horiz-adv-x="1599" 
d="M41 0v235h187v921h-187v235h725v-235h-176v-921h162v-235h-711zM860 0v235h162l-421 495l454 426h-166v235h679v-235h-170l-392 -384l456 -537h144v-235h-746z" />
    <glyph glyph-name="L" unicode="L" horiz-adv-x="1323" 
d="M57 0v235h199v921h-199v235h764v-235h-203v-921h411v430h271v-665h-1243z" />
    <glyph glyph-name="M" unicode="M" horiz-adv-x="2134" 
d="M56 0v235h180v921h-180v235h697l306 -816l307 816h711v-235h-180v-921h180v-235h-700v235h168v921h-33l-431 -1156h-150l-436 1156h-33v-921h182v-235h-588z" />
    <glyph glyph-name="N" unicode="N" horiz-adv-x="1622" 
d="M55 0v235h186v921h-186v235h583l513 -868v633h-181v235h624v-235h-195v-1166h-310l-600 1031v-786h175v-235h-609z" />
    <glyph glyph-name="O" unicode="O" horiz-adv-x="1749" 
d="M874 1413q360 0 566.5 -208t206.5 -507q0 -300 -207 -507.5t-566 -207.5q-373 0 -573 213.5t-200 501.5q0 298 205.5 506.5t567.5 208.5zM874 1159q-160 0 -271.5 -120t-111.5 -352q0 -205 110 -328t273 -123q160 0 272 120.5t112 347.5q0 203 -107 329t-277 126z" />
    <glyph glyph-name="P" unicode="P" horiz-adv-x="1366" 
d="M794 235v-235h-733v235h177v921h-177v235h733q256 0 395.5 -120t139.5 -323q0 -116 -49 -210.5t-125.5 -145t-175 -69t-246.5 -18.5h-133v-270h194zM600 737h54q186 0 239.5 60.5t53.5 150.5q0 76 -37 129.5t-85 66t-157 12.5h-68v-419z" />
    <glyph glyph-name="Q" unicode="Q" horiz-adv-x="1749" 
d="M664 3q-255 55 -409 246t-154 449q0 287 199.5 501t573.5 214t573.5 -214t199.5 -501q0 -289 -191 -491.5t-508 -221.5q67 -24 133 -52q141 -60 245 -60q24 0 57 3l-85 -223q-24 -2 -36 -2q-67 0 -129 21t-198 88q-143 71 -225 71q-105 0 -204 -84l-89 139q81 96 247 117
zM874 1159q-160 0 -271.5 -120t-111.5 -352q0 -205 110 -328t273 -123q160 0 272 120.5t112 347.5q0 203 -107 329t-277 126z" />
    <glyph glyph-name="R" unicode="R" horiz-adv-x="1493" 
d="M1497 235v-235h-424l-314 609h-159v-374h174v-235h-727v235h191v921h-191v235h839q237 0 341.5 -119.5t104.5 -270.5q0 -237 -241 -346l226 -420h180zM600 831h124q230 0 230 164q0 81 -52.5 121t-144.5 40h-157v-325z" />
    <glyph glyph-name="S" unicode="S" horiz-adv-x="1087" 
d="M97 0v474h236q4 -130 68 -191.5t146 -61.5q64 0 108 44.5t44 104.5q0 64 -43 107.5t-157 99.5q-241 117 -327.5 206t-86.5 240q0 182 114 282t259 100q166 0 257 -129v115h235v-423h-235q-11 98 -67.5 151.5t-131.5 53.5q-58 0 -98 -31t-40 -81q0 -43 33 -81.5
t193 -109.5q154 -69 236.5 -124.5t130.5 -144t48 -204.5q0 -206 -120 -310t-284 -104q-183 0 -282 135v-118h-236z" />
    <glyph glyph-name="T" unicode="T" horiz-adv-x="1386" 
d="M302 0v235h209v921h-209v-324h-239v559h1261v-559h-236v324h-215v-921h209v-235h-780z" />
    <glyph glyph-name="U" unicode="U" horiz-adv-x="1386" 
d="M37 1156v235h664v-235h-137v-629q0 -126 10.5 -181.5t55.5 -91.5t114 -36q71 0 118 34t60.5 85t13.5 208v611h-135v235h554v-235h-170v-696q0 -142 -15 -206.5t-69 -128t-156.5 -103t-235.5 -39.5q-154 0 -262.5 43.5t-161.5 115.5t-68 143t-15 242v629h-165z" />
    <glyph glyph-name="V" unicode="V" horiz-adv-x="1430" 
d="M577 -9l-414 1165h-166v235h710v-235h-180l234 -697l235 697h-177v235h615v-235h-169l-399 -1165h-289z" />
    <glyph glyph-name="W" unicode="W" horiz-adv-x="2028" 
d="M542 -9l-397 1165h-147v235h627v-235h-144l226 -668l212 668h-126v235h500v-235h-129l228 -668l219 668h-139v235h557v-235h-151l-384 -1165h-260l-219 635l-207 -635h-266z" />
    <glyph glyph-name="X" unicode="X" horiz-adv-x="1516" 
d="M-3 0v235h205l339 479l-339 442h-191v235h715v-222h-133l207 -259l188 259h-126v222h617v-235h-193l-330 -457l364 -464h200v-235h-738v226h139l-218 285l-207 -285h143v-226h-642z" />
    <glyph glyph-name="Y" unicode="Y" horiz-adv-x="1430" 
d="M347 0v235h195v376l-377 545h-170v235h696v-235h-137l204 -340l207 340h-143v235h613v-235h-171l-360 -545v-376h194v-235h-751z" />
    <glyph glyph-name="Z" unicode="Z" horiz-adv-x="1323" 
d="M102 0v235l660 921h-387v-253h-236v488h1074v-209l-679 -947h458v267h235v-502h-1125z" />
    <glyph glyph-name="bracketleft" unicode="[" horiz-adv-x="854" 
d="M226 -416v1807h564v-208h-255v-1392h255v-207h-564z" />
    <glyph glyph-name="backslash" unicode="\" horiz-adv-x="1040" 
d="M293 1415l739 -1432h-285l-738 1432h284z" />
    <glyph glyph-name="bracketright" unicode="]" horiz-adv-x="854" 
d="M628 1391v-1807h-564v207h255v1392h-255v208h564z" />
    <glyph glyph-name="asciicircum" unicode="^" horiz-adv-x="1194" 
d="M114 592l376 799h223l366 -799h-284l-198 489l-197 -489h-286z" />
    <glyph glyph-name="underscore" unicode="_" horiz-adv-x="1024" 
d="M-12 -154h1048v-102h-1048v102z" />
    <glyph glyph-name="grave" unicode="`" horiz-adv-x="682" 
d="M495 1095h-165l-363 318h375z" />
    <glyph glyph-name="a" unicode="a" horiz-adv-x="1194" 
d="M1165 223v-223h-465v76q-125 -90 -264 -90q-144 0 -248.5 82t-104.5 220q0 139 110 233t284 94q97 0 223 -49v59q0 74 -50 121.5t-134 47.5q-104 0 -178 -76l-249 45q108 229 469 229q140 0 232 -31.5t137 -81.5t63.5 -109.5t18.5 -193.5v-353h156zM700 358
q-112 70 -179 70q-53 0 -96.5 -31t-43.5 -90q0 -53 35 -91t90 -38q86 0 194 101v79z" />
    <glyph glyph-name="b" unicode="b" horiz-adv-x="1280" 
d="M506 1391v-532q116 133 275 133q186 0 302.5 -141t116.5 -361q0 -235 -116.5 -369.5t-294.5 -134.5q-160 0 -283 125v-111h-477v223h168v945h-168v223h477zM883 492q0 124 -51 187t-135 63q-80 0 -137 -62t-57 -202q0 -118 53.5 -185t137.5 -67q81 0 135 65t54 201z" />
    <glyph glyph-name="c" unicode="c" horiz-adv-x="1153" 
d="M1073 968v-393h-220q-75 162 -235 162q-102 0 -162.5 -67.5t-60.5 -180.5q0 -137 64 -202.5t157 -65.5q74 0 140 42.5t106 112.5l240 -106q-134 -292 -470 -292q-253 0 -403.5 138t-150.5 369t147.5 364.5t343.5 133.5q157 0 293 -95v80h211z" />
    <glyph glyph-name="d" unicode="d" horiz-adv-x="1280" 
d="M1244 223v-223h-468v115q-129 -129 -280 -129q-181 0 -300 147t-119 356q0 212 122 357.5t298 145.5q169 0 279 -131v307h-151v223h460v-1168h159zM779 486q0 139 -59.5 198t-135.5 59q-91 0 -140.5 -70.5t-49.5 -185.5q0 -109 49 -183.5t142 -74.5q77 0 135.5 60.5
t58.5 196.5z" />
    <glyph glyph-name="e" unicode="e" horiz-adv-x="1174" 
d="M853 292l240 -77q-151 -237 -472 -237q-256 0 -399.5 135t-143.5 355q0 224 148 374t377 150q166 0 287 -84t168 -209t47 -279h-721q7 -132 83.5 -187t161.5 -55q111 0 224 114zM794 592q-11 81 -63.5 138t-143.5 57q-170 0 -198 -195h405z" />
    <glyph glyph-name="f" unicode="f" 
d="M665 223v-223h-601v223h140v521h-130v224h130v89q0 153 94.5 255.5t281.5 102.5q227 0 323 -136l-224 -175q-30 104 -86 104q-80 0 -80 -134v-106h152v-224h-152v-521h152z" />
    <glyph glyph-name="g" unicode="g" horiz-adv-x="1280" 
d="M1246 968v-224h-160v-715q0 -479 -506 -479q-290 0 -432 105l150 205q117 -72 235 -72q103 0 173.5 53t70.5 206v74q-151 -135 -294 -135q-168 0 -286.5 140.5t-118.5 358.5q0 219 122 358.5t298 139.5q169 0 279 -133v118h469zM778 481q0 117 -52 185t-142 68
q-92 0 -140.5 -70t-48.5 -180t50.5 -179.5t138.5 -69.5q81 0 137.5 64.5t56.5 181.5z" />
    <glyph glyph-name="h" unicode="h" horiz-adv-x="1280" 
d="M56 0v223h156v945h-156v223h464v-501q146 102 275 102q297 0 297 -357v-412h142v-223h-451v621q0 68 -24.5 93.5t-73.5 25.5q-69 0 -165 -61v-456h138v-223h-602z" />
    <glyph glyph-name="i" unicode="i" 
d="M222 1245q0 70 49.5 120t119.5 50q71 0 120 -50t49 -120t-49.5 -119.5t-119.5 -49.5q-69 0 -119 50t-50 119zM86 744v224h456v-745h144v-223h-600v223h147v521h-147z" />
    <glyph glyph-name="j" unicode="j" 
d="M206 1239q0 69 50 119t119 50q70 0 119.5 -49.5t49.5 -119.5t-49.5 -119.5t-119.5 -49.5q-72 0 -120.5 50.5t-48.5 118.5zM80 744v224h459v-937q0 -182 -33 -270t-129 -138.5t-280 -50.5q-68 0 -111 5v249q31 -4 58 -4q89 0 126 19t48.5 49.5t11.5 109.5v744h-150z" />
    <glyph glyph-name="k" unicode="k" horiz-adv-x="1323" 
d="M70 0v223h156v945h-156v223h464v-879l333 271h-205v185h585v-196h-97l-283 -242l258 -307h134v-223h-297l-428 512v-300h117v-212h-581z" />
    <glyph glyph-name="l" unicode="l" 
d="M75 0v223h152v945h-152v223h461v-1168h139v-223h-600z" />
    <glyph glyph-name="m" unicode="m" horiz-adv-x="2028" 
d="M59 744v224h469v-79q158 94 314 94q187 0 290 -133q187 133 391 133q121 0 196.5 -44.5t103.5 -119.5t28 -227v-369h160v-223h-469v567q0 152 -131 152q-103 0 -223 -66v-430h160v-223h-469v558q0 161 -126 161q-98 0 -225 -66v-430h160v-223h-629v223h160v521h-160z" />
    <glyph glyph-name="n" unicode="n" horiz-adv-x="1280" 
d="M73 744v224h457v-90q140 105 284 105q293 0 293 -374v-386h146v-223h-455v586q0 79 -21.5 108t-70.5 29q-86 0 -176 -63v-437h149v-223h-606v223h148v521h-148z" />
    <glyph glyph-name="o" unicode="o" horiz-adv-x="1174" 
d="M587 -22q-214 0 -361.5 135.5t-147.5 371.5t147.5 371.5t361.5 135.5q215 0 362 -135.5t147 -371.5q0 -233 -145.5 -370t-363.5 -137zM586 218q86 0 139.5 66t53.5 207q0 124 -52 193.5t-141 69.5q-191 0 -191 -276q0 -113 47.5 -186.5t143.5 -73.5z" />
    <glyph glyph-name="p" unicode="p" horiz-adv-x="1280" 
d="M699 -214v-223h-666v223h163v958h-136v224h445v-121q129 136 288 136q192 0 302.5 -152.5t110.5 -355.5q0 -215 -114 -356t-304 -141q-155 0 -283 121v-313h194zM889 481q0 127 -52.5 190t-138.5 63q-87 0 -141.5 -64.5t-54.5 -192.5q0 -115 54 -185t144 -70q83 0 136 63
t53 196z" />
    <glyph glyph-name="q" unicode="q" horiz-adv-x="1280" 
d="M581 -214h190v313q-125 -121 -282 -121q-199 0 -307 150t-108 351q0 203 112 353.5t299 150.5q157 0 286 -136v121h476v-224h-167v-958h167v-223h-666v223zM391 486q0 -126 50 -196t138 -70q79 0 136.5 64.5t57.5 203.5q0 118 -53 182t-138 64q-86 0 -138.5 -63.5
t-52.5 -184.5z" />
    <glyph glyph-name="r" unicode="r" horiz-adv-x="918" 
d="M736 223v-223h-681v223h179v521h-168v224h451v-246q26 106 118.5 183.5t218.5 77.5q21 0 50 -1v-292q-117 0 -191 -26t-122 -114t-48 -208v-119h193z" />
    <glyph glyph-name="s" unicode="s" horiz-adv-x="1044" 
d="M119 0v333h226q3 -68 63 -108.5t148 -40.5q76 0 118.5 26.5t42.5 67.5q0 38 -39 59t-153 40q-235 38 -339 115.5t-104 205.5q0 120 98 202.5t260 82.5q131 0 245 -48v33h221v-281h-221q-30 101 -212 101q-134 0 -134 -74q0 -28 27.5 -42.5t140.5 -34.5q179 -31 268 -62
t142.5 -102.5t53.5 -171.5q0 -142 -101.5 -232.5t-287.5 -90.5q-173 0 -237 70v-48h-226z" />
    <glyph glyph-name="t" unicode="t" horiz-adv-x="705" 
d="M39 744v224h123v152l309 222v-374h178v-224h-178v-419q0 -57 14.5 -76.5t66.5 -19.5q43 0 97 20v-214q-119 -49 -233 -49q-254 0 -254 252v506h-123z" />
    <glyph glyph-name="u" unicode="u" horiz-adv-x="1280" 
d="M1230 223v-223h-465v82q-139 -96 -282 -96q-140 0 -219.5 78.5t-79.5 221.5v458h-145v224h453v-603q0 -72 22 -98.5t80 -26.5q78 0 171 69v435h-149v224h458v-745h156z" />
    <glyph glyph-name="v" unicode="v" horiz-adv-x="1174" 
d="M463 -14l-327 758h-140v224h587v-224h-120l151 -440l178 440h-127v224h513v-224h-138l-314 -758h-263z" />
    <glyph glyph-name="w" unicode="w" horiz-adv-x="1665" 
d="M378 -14l-254 758h-123v224h527v-224h-106l119 -360l198 584h256l192 -584l119 360h-109v224h468v-224h-121l-251 -758h-268l-190 569l-187 -569h-270z" />
    <glyph glyph-name="x" unicode="x" horiz-adv-x="1153" 
d="M46 0v223h140l209 250l-209 271h-140v224h372l174 -265l191 265h292v-224h-130l-196 -232l228 -289h130v-223h-371l-188 272l-202 -272h-300z" />
    <glyph glyph-name="y" unicode="y" horiz-adv-x="1217" 
d="M253 -437v223h186l64 173l-352 785h-140v224h580v-224h-114l161 -435l172 435h-126v224h509v-224h-138l-464 -1181h-338z" />
    <glyph glyph-name="z" unicode="z" horiz-adv-x="1087" 
d="M72 0v203l569 569h-311v-150h-211v346h892v-203l-569 -570h365v166h204v-361h-939z" />
    <glyph glyph-name="braceleft" unicode="{" horiz-adv-x="788" 
d="M59 364v228q93 5 139 39.5t63 101t17 223.5q0 214 34.5 281t112.5 110.5t265 43.5h53v-228q-132 0 -168 -25t-36 -112q0 -278 -37 -378.5t-151 -169.5q96 -50 141.5 -146t45.5 -401q0 -84 39.5 -111t164.5 -27v-227h-52q-174 0 -262.5 42t-119 123.5t-30.5 277.5
q0 151 -17.5 216.5t-63 99.5t-138.5 39z" />
    <glyph glyph-name="bar" unicode="|" horiz-adv-x="1251" 
d="M501 1415h249v-1865h-249v1865z" />
    <glyph glyph-name="braceright" unicode="}" horiz-adv-x="788" 
d="M729 592v-228q-93 -4 -139 -38.5t-63 -101t-17 -223.5q0 -198 -34 -277t-125 -118.5t-253 -39.5h-53v227q132 0 168 25.5t36 112.5q0 261 33.5 369.5t154.5 178.5q-95 49 -141 145.5t-46 401.5q0 84 -39.5 110.5t-164.5 26.5v228h53q173 0 262 -42.5t119 -123.5t30 -278
q0 -150 17.5 -215.5t63 -100t138.5 -39.5z" />
    <glyph glyph-name="asciitilde" unicode="~" horiz-adv-x="1194" 
d="M1159 637q-162 -142 -319 -142q-70 0 -135 25t-159 71q-133 65 -202 65q-150 0 -309 -151v255q164 142 328 142q98 0 270 -85q153 -76 229 -76q135 0 297 152v-256z" />
    <glyph glyph-name="Adieresis" unicode="&#xc4;" horiz-adv-x="1430" 
d="M1432 235v-235h-684v235h178l-66 239h-361l-74 -239h186v-235h-616v235h172l271 921h-185v235h908v-235h-187l292 -921h166zM803 678l-116 419l-125 -419h241zM1079 1651q0 -60 -42.5 -102.5t-101.5 -42.5q-60 0 -102.5 42t-42.5 103q0 59 42.5 101.5t102.5 42.5
q59 0 101.5 -42.5t42.5 -101.5zM625 1651q0 -60 -43 -102.5t-102 -42.5q-60 0 -102.5 42.5t-42.5 102.5q0 59 42.5 101.5t102.5 42.5q59 0 102 -42t43 -102z" />
    <glyph glyph-name="Aring" unicode="&#xc5;" horiz-adv-x="1430" 
d="M622 1391q-84 30 -135 102.5t-51 159.5q0 114 81.5 195.5t196.5 81.5q114 0 195.5 -81.5t81.5 -195.5q0 -86 -50 -158t-138 -104h358v-235h-187l292 -921h166v-235h-684v235h178l-66 239h-361l-74 -239h186v-235h-616v235h172l271 921h-185v235h369zM870 1653
q0 63 -45 110t-111 47q-65 0 -111 -46.5t-46 -110.5q0 -65 46 -111t111 -46q64 0 110 46t46 111zM803 678l-116 419l-125 -419h241z" />
    <glyph glyph-name="Ccedilla" unicode="&#xc7;" horiz-adv-x="1599" 
d="M924 -14l-10 -55q85 -12 134.5 -64.5t49.5 -118.5q0 -83 -76 -143.5t-312 -60.5q-38 0 -94 2v102q211 0 211 81q0 62 -120 70l37 190q-307 25 -475 223t-168 484q0 323 206.5 520t526.5 197q254 0 417 -130v108h235v-490h-235q-100 264 -347 264q-204 0 -308.5 -139
t-104.5 -333q0 -203 110.5 -328.5t281.5 -125.5q140 0 245 95t142 264l274 -131q-133 -443 -620 -481z" />
    <glyph glyph-name="Eacute" unicode="&#xc9;" horiz-adv-x="1366" 
d="M68 0v235h167v921h-167v235h1226v-441h-266v206h-431v-321h348v-235h-348v-365h431v208h266v-443h-1226zM533 1524l152 318h376l-364 -318h-164z" />
    <glyph glyph-name="Ntilde" unicode="&#xd1;" horiz-adv-x="1622" 
d="M55 0v235h186v921h-186v235h583l513 -868v633h-181v235h624v-235h-195v-1166h-310l-600 1031v-786h175v-235h-609zM1074 1858h142v-24q0 -118 -63 -209t-169 -91q-39 0 -69.5 11.5t-112.5 52.5q-100 51 -137 51q-77 0 -81 -108h-150q0 151 69 236t159 85q61 0 153 -47
q135 -70 172 -70q33 0 59 32.5t28 80.5z" />
    <glyph glyph-name="Odieresis" unicode="&#xd6;" horiz-adv-x="1749" 
d="M874 1413q360 0 566.5 -208t206.5 -507q0 -300 -207 -507.5t-566 -207.5q-373 0 -573 213.5t-200 501.5q0 298 205.5 506.5t567.5 208.5zM874 1159q-160 0 -271.5 -120t-111.5 -352q0 -205 110 -328t273 -123q160 0 272 120.5t112 347.5q0 203 -107 329t-277 126z
M1247 1651q0 -60 -42.5 -102.5t-101.5 -42.5q-60 0 -102.5 42t-42.5 103q0 59 42.5 101.5t102.5 42.5q59 0 101.5 -42.5t42.5 -101.5zM793 1651q0 -60 -43 -102.5t-102 -42.5q-60 0 -102.5 42.5t-42.5 102.5q0 59 42.5 101.5t102.5 42.5q59 0 102 -42t43 -102z" />
    <glyph glyph-name="Udieresis" unicode="&#xdc;" horiz-adv-x="1386" 
d="M37 1156v235h664v-235h-137v-629q0 -126 10.5 -181.5t55.5 -91.5t114 -36q71 0 118 34t60.5 85t13.5 208v611h-135v235h554v-235h-170v-696q0 -142 -15 -206.5t-69 -128t-156.5 -103t-235.5 -39.5q-154 0 -262.5 43.5t-161.5 115.5t-68 143t-15 242v629h-165zM1068 1651
q0 -60 -42.5 -102.5t-101.5 -42.5q-60 0 -102.5 42t-42.5 103q0 59 42.5 101.5t102.5 42.5q59 0 101.5 -42.5t42.5 -101.5zM614 1651q0 -60 -43 -102.5t-102 -42.5q-60 0 -102.5 42.5t-42.5 102.5q0 59 42.5 101.5t102.5 42.5q59 0 102 -42t43 -102z" />
    <glyph glyph-name="aacute" unicode="&#xe1;" horiz-adv-x="1194" 
d="M1165 223v-223h-465v76q-125 -90 -264 -90q-144 0 -248.5 82t-104.5 220q0 139 110 233t284 94q97 0 223 -49v59q0 74 -50 121.5t-134 47.5q-104 0 -178 -76l-249 45q108 229 469 229q140 0 232 -31.5t137 -81.5t63.5 -109.5t18.5 -193.5v-353h156zM700 358
q-112 70 -179 70q-53 0 -96.5 -31t-43.5 -90q0 -53 35 -91t90 -38q86 0 194 101v79zM452 1095l152 318h376l-364 -318h-164z" />
    <glyph glyph-name="agrave" unicode="&#xe0;" horiz-adv-x="1194" 
d="M1165 223v-223h-465v76q-125 -90 -264 -90q-144 0 -248.5 82t-104.5 220q0 139 110 233t284 94q97 0 223 -49v59q0 74 -50 121.5t-134 47.5q-104 0 -178 -76l-249 45q108 229 469 229q140 0 232 -31.5t137 -81.5t63.5 -109.5t18.5 -193.5v-353h156zM700 358
q-112 70 -179 70q-53 0 -96.5 -31t-43.5 -90q0 -53 35 -91t90 -38q86 0 194 101v79zM745 1095h-165l-363 318h375z" />
    <glyph glyph-name="acircumflex" unicode="&#xe2;" horiz-adv-x="1194" 
d="M1165 223v-223h-465v76q-125 -90 -264 -90q-144 0 -248.5 82t-104.5 220q0 139 110 233t284 94q97 0 223 -49v59q0 74 -50 121.5t-134 47.5q-104 0 -178 -76l-249 45q108 229 469 229q140 0 232 -31.5t137 -81.5t63.5 -109.5t18.5 -193.5v-353h156zM700 358
q-112 70 -179 70q-53 0 -96.5 -31t-43.5 -90q0 -53 35 -91t90 -38q86 0 194 101v79zM408 1437h300l243 -368h-175l-218 218l-218 -218h-175z" />
    <glyph glyph-name="adieresis" unicode="&#xe4;" horiz-adv-x="1194" 
d="M1165 223v-223h-465v76q-125 -90 -264 -90q-144 0 -248.5 82t-104.5 220q0 139 110 233t284 94q97 0 223 -49v59q0 74 -50 121.5t-134 47.5q-104 0 -178 -76l-249 45q108 229 469 229q140 0 232 -31.5t137 -81.5t63.5 -109.5t18.5 -193.5v-353h156zM700 358
q-112 70 -179 70q-53 0 -96.5 -31t-43.5 -90q0 -53 35 -91t90 -38q86 0 194 101v79zM930 1249q0 -60 -42.5 -102.5t-101.5 -42.5q-60 0 -102.5 42t-42.5 103q0 59 42.5 101.5t102.5 42.5q59 0 101.5 -42.5t42.5 -101.5zM476 1249q0 -60 -43 -102.5t-102 -42.5
q-60 0 -102.5 42.5t-42.5 102.5q0 59 42.5 101.5t102.5 42.5q59 0 102 -42t43 -102z" />
    <glyph glyph-name="atilde" unicode="&#xe3;" horiz-adv-x="1194" 
d="M1165 223v-223h-465v76q-125 -90 -264 -90q-144 0 -248.5 82t-104.5 220q0 139 110 233t284 94q97 0 223 -49v59q0 74 -50 121.5t-134 47.5q-104 0 -178 -76l-249 45q108 229 469 229q140 0 232 -31.5t137 -81.5t63.5 -109.5t18.5 -193.5v-353h156zM700 358
q-112 70 -179 70q-53 0 -96.5 -31t-43.5 -90q0 -53 35 -91t90 -38q86 0 194 101v79zM819 1404h142v-24q0 -118 -63 -209t-169 -91q-39 0 -69.5 11.5t-112.5 52.5q-100 51 -137 51q-77 0 -81 -108h-150q0 151 69 236t159 85q61 0 153 -47q135 -70 172 -70q33 0 59 32.5
t28 80.5z" />
    <glyph glyph-name="aring" unicode="&#xe5;" horiz-adv-x="1194" 
d="M1165 223v-223h-465v76q-125 -90 -264 -90q-144 0 -248.5 82t-104.5 220q0 139 110 233t284 94q97 0 223 -49v59q0 74 -50 121.5t-134 47.5q-104 0 -178 -76l-249 45q108 229 469 229q140 0 232 -31.5t137 -81.5t63.5 -109.5t18.5 -193.5v-353h156zM700 358
q-112 70 -179 70q-53 0 -96.5 -31t-43.5 -90q0 -53 35 -91t90 -38q86 0 194 101v79zM805 1267q0 -85 -60.5 -148t-150.5 -63q-87 0 -149 61.5t-62 149.5q0 87 61.5 149t149.5 62q87 0 149 -62t62 -149zM703 1267q0 43 -31 75.5t-78 32.5q-45 0 -76.5 -32t-31.5 -76
q0 -45 31.5 -77t76.5 -32t77 32t32 77z" />
    <glyph glyph-name="ccedilla" unicode="&#xe7;" horiz-adv-x="1153" 
d="M668 -21l-15 -62q171 -49 171 -180q0 -96 -85 -145.5t-293 -49.5q-32 0 -75 2v101q138 3 170.5 18.5t32.5 47.5q0 65 -120 71l49 208q-211 39 -318 173.5t-107 321.5q0 231 147.5 364.5t343.5 133.5q157 0 293 -95v80h211v-393h-220q-75 162 -235 162
q-102 0 -162.5 -67.5t-60.5 -180.5q0 -137 64 -202.5t157 -65.5q74 0 140 42.5t106 112.5l240 -106q-127 -278 -434 -291z" />
    <glyph glyph-name="eacute" unicode="&#xe9;" horiz-adv-x="1174" 
d="M853 292l240 -77q-151 -237 -472 -237q-256 0 -399.5 135t-143.5 355q0 224 148 374t377 150q166 0 287 -84t168 -209t47 -279h-721q7 -132 83.5 -187t161.5 -55q111 0 224 114zM794 592q-11 81 -63.5 138t-143.5 57q-170 0 -198 -195h405zM438 1095l152 318h376
l-364 -318h-164z" />
    <glyph glyph-name="egrave" unicode="&#xe8;" horiz-adv-x="1174" 
d="M853 292l240 -77q-151 -237 -472 -237q-256 0 -399.5 135t-143.5 355q0 224 148 374t377 150q166 0 287 -84t168 -209t47 -279h-721q7 -132 83.5 -187t161.5 -55q111 0 224 114zM794 592q-11 81 -63.5 138t-143.5 57q-170 0 -198 -195h405zM746 1095h-165l-363 318h375z
" />
    <glyph glyph-name="ecircumflex" unicode="&#xea;" horiz-adv-x="1174" 
d="M853 292l240 -77q-151 -237 -472 -237q-256 0 -399.5 135t-143.5 355q0 224 148 374t377 150q166 0 287 -84t168 -209t47 -279h-721q7 -132 83.5 -187t161.5 -55q111 0 224 114zM794 592q-11 81 -63.5 138t-143.5 57q-170 0 -198 -195h405zM442 1437h300l243 -368h-175
l-218 218l-218 -218h-175z" />
    <glyph glyph-name="edieresis" unicode="&#xeb;" horiz-adv-x="1174" 
d="M853 292l240 -77q-151 -237 -472 -237q-256 0 -399.5 135t-143.5 355q0 224 148 374t377 150q166 0 287 -84t168 -209t47 -279h-721q7 -132 83.5 -187t161.5 -55q111 0 224 114zM794 592q-11 81 -63.5 138t-143.5 57q-170 0 -198 -195h405zM964 1249q0 -60 -42.5 -102.5
t-101.5 -42.5q-60 0 -102.5 42t-42.5 103q0 59 42.5 101.5t102.5 42.5q59 0 101.5 -42.5t42.5 -101.5zM510 1249q0 -60 -43 -102.5t-102 -42.5q-60 0 -102.5 42.5t-42.5 102.5q0 59 42.5 101.5t102.5 42.5q59 0 102 -42t43 -102z" />
    <glyph glyph-name="iacute" unicode="&#xed;" 
d="M86 744v224h456v-745h144v-223h-600v223h147v521h-147zM232 1095l152 318h376l-364 -318h-164z" />
    <glyph glyph-name="igrave" unicode="&#xec;" 
d="M86 744v224h456v-745h144v-223h-600v223h147v521h-147zM540 1095h-165l-363 318h375z" />
    <glyph glyph-name="icircumflex" unicode="&#xee;" 
d="M86 744v224h456v-745h144v-223h-600v223h147v521h-147zM213 1437h300l243 -368h-175l-218 218l-218 -218h-175z" />
    <glyph glyph-name="idieresis" unicode="&#xef;" 
d="M86 744v224h456v-745h144v-223h-600v223h147v521h-147zM734 1249q0 -60 -42.5 -102.5t-101.5 -42.5q-60 0 -102.5 42t-42.5 103q0 59 42.5 101.5t102.5 42.5q59 0 101.5 -42.5t42.5 -101.5zM280 1249q0 -60 -43 -102.5t-102 -42.5q-60 0 -102.5 42.5t-42.5 102.5
q0 59 42.5 101.5t102.5 42.5q59 0 102 -42t43 -102z" />
    <glyph glyph-name="ntilde" unicode="&#xf1;" horiz-adv-x="1280" 
d="M73 744v224h457v-90q140 105 284 105q293 0 293 -374v-386h146v-223h-455v586q0 79 -21.5 108t-70.5 29q-86 0 -176 -63v-437h149v-223h-606v223h148v521h-148zM912 1404h142v-24q0 -118 -63 -209t-169 -91q-39 0 -69.5 11.5t-112.5 52.5q-100 51 -137 51q-77 0 -81 -108
h-150q0 151 69 236t159 85q61 0 153 -47q135 -70 172 -70q33 0 59 32.5t28 80.5z" />
    <glyph glyph-name="oacute" unicode="&#xf3;" horiz-adv-x="1174" 
d="M587 -22q-214 0 -361.5 135.5t-147.5 371.5t147.5 371.5t361.5 135.5q215 0 362 -135.5t147 -371.5q0 -233 -145.5 -370t-363.5 -137zM586 218q86 0 139.5 66t53.5 207q0 124 -52 193.5t-141 69.5q-191 0 -191 -276q0 -113 47.5 -186.5t143.5 -73.5zM433 1095l152 318
h376l-364 -318h-164z" />
    <glyph glyph-name="ograve" unicode="&#xf2;" horiz-adv-x="1174" 
d="M587 -22q-214 0 -361.5 135.5t-147.5 371.5t147.5 371.5t361.5 135.5q215 0 362 -135.5t147 -371.5q0 -233 -145.5 -370t-363.5 -137zM586 218q86 0 139.5 66t53.5 207q0 124 -52 193.5t-141 69.5q-191 0 -191 -276q0 -113 47.5 -186.5t143.5 -73.5zM741 1095h-165
l-363 318h375z" />
    <glyph glyph-name="ocircumflex" unicode="&#xf4;" horiz-adv-x="1174" 
d="M587 -22q-214 0 -361.5 135.5t-147.5 371.5t147.5 371.5t361.5 135.5q215 0 362 -135.5t147 -371.5q0 -233 -145.5 -370t-363.5 -137zM586 218q86 0 139.5 66t53.5 207q0 124 -52 193.5t-141 69.5q-191 0 -191 -276q0 -113 47.5 -186.5t143.5 -73.5zM437 1437h300
l243 -368h-175l-218 218l-218 -218h-175z" />
    <glyph glyph-name="odieresis" unicode="&#xf6;" horiz-adv-x="1174" 
d="M587 -22q-214 0 -361.5 135.5t-147.5 371.5t147.5 371.5t361.5 135.5q215 0 362 -135.5t147 -371.5q0 -233 -145.5 -370t-363.5 -137zM586 218q86 0 139.5 66t53.5 207q0 124 -52 193.5t-141 69.5q-191 0 -191 -276q0 -113 47.5 -186.5t143.5 -73.5zM959 1249
q0 -60 -42.5 -102.5t-101.5 -42.5q-60 0 -102.5 42t-42.5 103q0 59 42.5 101.5t102.5 42.5q59 0 101.5 -42.5t42.5 -101.5zM505 1249q0 -60 -43 -102.5t-102 -42.5q-60 0 -102.5 42.5t-42.5 102.5q0 59 42.5 101.5t102.5 42.5q59 0 102 -42t43 -102z" />
    <glyph glyph-name="otilde" unicode="&#xf5;" horiz-adv-x="1174" 
d="M587 -22q-214 0 -361.5 135.5t-147.5 371.5t147.5 371.5t361.5 135.5q215 0 362 -135.5t147 -371.5q0 -233 -145.5 -370t-363.5 -137zM586 218q86 0 139.5 66t53.5 207q0 124 -52 193.5t-141 69.5q-191 0 -191 -276q0 -113 47.5 -186.5t143.5 -73.5zM836 1404h142v-24
q0 -118 -63 -209t-169 -91q-39 0 -69.5 11.5t-112.5 52.5q-100 51 -137 51q-77 0 -81 -108h-150q0 151 69 236t159 85q61 0 153 -47q135 -70 172 -70q33 0 59 32.5t28 80.5z" />
    <glyph glyph-name="uacute" unicode="&#xfa;" horiz-adv-x="1280" 
d="M1230 223v-223h-465v82q-139 -96 -282 -96q-140 0 -219.5 78.5t-79.5 221.5v458h-145v224h453v-603q0 -72 22 -98.5t80 -26.5q78 0 171 69v435h-149v224h458v-745h156zM481 1095l152 318h376l-364 -318h-164z" />
    <glyph glyph-name="ugrave" unicode="&#xf9;" horiz-adv-x="1280" 
d="M1230 223v-223h-465v82q-139 -96 -282 -96q-140 0 -219.5 78.5t-79.5 221.5v458h-145v224h453v-603q0 -72 22 -98.5t80 -26.5q78 0 171 69v435h-149v224h458v-745h156zM789 1095h-165l-363 318h375z" />
    <glyph glyph-name="ucircumflex" unicode="&#xfb;" horiz-adv-x="1280" 
d="M1230 223v-223h-465v82q-139 -96 -282 -96q-140 0 -219.5 78.5t-79.5 221.5v458h-145v224h453v-603q0 -72 22 -98.5t80 -26.5q78 0 171 69v435h-149v224h458v-745h156zM484 1437h300l243 -368h-175l-218 218l-218 -218h-175z" />
    <glyph glyph-name="udieresis" unicode="&#xfc;" horiz-adv-x="1280" 
d="M1230 223v-223h-465v82q-139 -96 -282 -96q-140 0 -219.5 78.5t-79.5 221.5v458h-145v224h453v-603q0 -72 22 -98.5t80 -26.5q78 0 171 69v435h-149v224h458v-745h156zM1007 1249q0 -60 -42.5 -102.5t-101.5 -42.5q-60 0 -102.5 42t-42.5 103q0 59 42.5 101.5t102.5 42.5
q59 0 101.5 -42.5t42.5 -101.5zM553 1249q0 -60 -43 -102.5t-102 -42.5q-60 0 -102.5 42.5t-42.5 102.5q0 59 42.5 101.5t102.5 42.5q59 0 102 -42t43 -102z" />
    <glyph glyph-name="dagger" unicode="&#x2020;" horiz-adv-x="1004" 
d="M435 -415l-71 723v217q64 85 71 251q-177 0 -236 -53h-189v250h189q59 -43 236 -59q2 26 2 39q0 53 -18 121.5t-55 113.5v203h276v-203q-72 -90 -72 -240q0 -10 2 -34q177 17 236 59h189v-250h-189q-59 53 -236 53q6 -166 70 -251v-217l-70 -723h-135z" />
    <glyph glyph-name="degree" unicode="&#xb0;" horiz-adv-x="811" 
d="M406 1415q140 0 243 -99t103 -247q0 -142 -101.5 -244t-244.5 -102q-144 0 -245 101.5t-101 244.5q0 148 103 247t243 99zM406 1284q-88 0 -151.5 -63t-63.5 -152q0 -88 63 -151t152 -63t152 63t63 151q0 89 -63.5 152t-151.5 63z" />
    <glyph glyph-name="cent" unicode="&#xa2;" horiz-adv-x="1153" 
d="M853 386l238 -105q-39 -111 -162.5 -202t-315.5 -91q-85 0 -152 16l-153 -441h-134l173 480q-284 135 -284 446q0 226 147 368t354 142q57 0 115 -14l162 438h129l-173 -487q37 -21 61 -39l25 -18v106h181v-397h-211q-54 96 -137 130l-170 -477q24 -8 56 -8
q166 0 251 153zM592 742q-99 -8 -155.5 -77.5t-56.5 -175.5q0 -110 62 -171z" />
    <glyph glyph-name="sterling" unicode="&#xa3;" horiz-adv-x="1174" 
d="M963 448l142 -28q1 -23 1 -39q0 -183 -75.5 -291t-210.5 -108q-139 0 -264 109q-101 -109 -223 -109q-102 0 -167.5 65.5t-65.5 170.5q0 99 63.5 165.5t157.5 66.5q66 0 153 -43q0 76 -37 181h-304v204h200q-97 191 -97 301q0 147 120.5 234.5t304.5 87.5
q169 0 271.5 -89.5t117.5 -265.5l-242 -30q-4 190 -153 190q-63 0 -101.5 -33.5t-38.5 -77.5q0 -62 73 -203q40 -79 56 -114h258v-204h-213q4 -67 4 -95q0 -107 -26 -180q86 -37 154 -37q126 0 142 172zM437 214q-71 86 -131 86q-32 0 -53.5 -23.5t-21.5 -58.5q0 -40 28 -66
t61 -26q80 0 117 88z" />
    <glyph glyph-name="section" unicode="&#xa7;" horiz-adv-x="1067" 
d="M111 -52h263q2 -82 53 -127t120 -45q72 0 108.5 37.5t36.5 81.5q0 55 -47 92.5t-205 104.5q-219 92 -305 180t-86 200q0 197 208 304q-163 115 -163 284t121.5 262t308.5 93q213 0 323.5 -108t110.5 -265h-263q-9 164 -179 164q-71 0 -107 -33t-36 -73q0 -59 48 -100.5
t212 -109.5q202 -84 293.5 -173t91.5 -205q0 -180 -203 -310q156 -96 156 -278q0 -154 -117.5 -256.5t-308.5 -102.5q-194 0 -311.5 109.5t-122.5 273.5zM671 288q96 73 96 158q0 86 -158 156l-214 94q-93 -62 -93 -147q0 -50 37 -88.5t138 -84.5z" />
    <glyph glyph-name="bullet" unicode="&#x2022;" 
d="M363 981q115 0 200 -81t85 -204q0 -118 -83.5 -202t-201.5 -84q-119 0 -202.5 83.5t-83.5 202.5q0 118 84 201.5t202 83.5z" />
    <glyph glyph-name="paragraph" unicode="&#xb6;" horiz-adv-x="1130" 
d="M633 -434h-240v1003q-193 13 -293.5 124t-100.5 281q0 114 44.5 204t117 137t142 61.5t230.5 14.5h597v-261h-113v-1564h-240v1564h-144v-1564z" />
    <glyph glyph-name="germandbls" unicode="&#xdf;" horiz-adv-x="1323" 
d="M591 223v-223h-543v223h161v701q0 170 40.5 265.5t156.5 160.5t274 65q235 0 355.5 -95.5t120.5 -240.5q0 -198 -214 -287q279 -87 279 -385q0 -181 -96 -301t-284 -120q-77 0 -151 30v207q31 -13 61 -13q159 0 159 200q0 251 -220 256v225q64 0 110.5 42.5t46.5 108.5
q0 76 -49.5 118t-112.5 42t-104.5 -36.5t-52.5 -94t-11 -180.5v-668h74z" />
    <glyph glyph-name="registered" unicode="&#xae;" horiz-adv-x="1516" 
d="M1524 647q0 -317 -225.5 -541.5t-540.5 -224.5q-317 0 -541.5 224t-224.5 542q0 317 224 541.5t542 224.5q315 0 540.5 -225t225.5 -541zM1373 647q0 254 -181 434.5t-434 180.5q-254 0 -434.5 -181t-180.5 -434q0 -254 181 -435t434 -181t434 180.5t181 435.5zM1137 237
h-204l-68 131q-65 125 -112 164t-128 39h-31v-334h-165v813h289q148 0 210.5 -13t110.5 -72.5t48 -145.5q0 -87 -58.5 -150t-160.5 -76q52 -20 80.5 -51.5t92.5 -141.5zM594 700h67q118 0 157 5.5t67 34.5t28 72q0 42 -29.5 71t-71.5 33.5t-152 4.5h-66v-221z" />
    <glyph glyph-name="copyright" unicode="&#xa9;" horiz-adv-x="1516" 
d="M1524 647q0 -317 -225.5 -541.5t-540.5 -224.5q-317 0 -541.5 224t-224.5 542q0 317 224 541.5t542 224.5q315 0 540.5 -225t225.5 -541zM1373 647q0 254 -181 434.5t-434 180.5q-254 0 -434.5 -181t-180.5 -434q0 -254 181 -435t434 -181t434 180.5t181 435.5zM944 533
l161 -54q-35 -122 -123.5 -191t-213.5 -69q-168 0 -277 111t-109 310q0 198 104 314.5t285 116.5q249 0 334 -243l-162 -38q-50 139 -178 139q-99 0 -153 -74.5t-54 -208.5q0 -138 53.5 -211t144.5 -73q138 0 188 171z" />
    <glyph glyph-name="trademark" unicode="&#x2122;" horiz-adv-x="2048" 
d="M401 572v677h-253v142h665v-142h-246v-677h-166zM912 572v819h259l149 -564l150 564h259v-819h-158v653l-177 -653h-150l-176 653v-653h-156z" />
    <glyph glyph-name="acute" unicode="&#xb4;" horiz-adv-x="682" 
d="M187 1095l152 318h376l-364 -318h-164z" />
    <glyph glyph-name="dieresis" unicode="&#xa8;" horiz-adv-x="682" 
d="M713 1249q0 -60 -42.5 -102.5t-101.5 -42.5q-60 0 -102.5 42t-42.5 103q0 59 42.5 101.5t102.5 42.5q59 0 101.5 -42.5t42.5 -101.5zM259 1249q0 -60 -43 -102.5t-102 -42.5q-60 0 -102.5 42.5t-42.5 102.5q0 59 42.5 101.5t102.5 42.5q59 0 102 -42t43 -102z" />
    <glyph glyph-name="notequal" unicode="&#x2260;" horiz-adv-x="1368" 
d="M933 1064h313v-248h-411l-92 -235h503v-248h-600l-204 -521h-211l205 521h-314v248h411l92 235h-503v248h600l205 521h210z" />
    <glyph glyph-name="AE" unicode="&#xc6;" horiz-adv-x="2028" 
d="M-5 0v235h146l399 921h-208v235h1623v-440h-266v205h-417v-318h337v-236h-337v-367h417v212h266v-447h-1203v235h158v367h-335l-163 -367h163v-235h-580zM910 806v372h-91l-157 -372h248z" />
    <glyph glyph-name="Oslash" unicode="&#xd8;" horiz-adv-x="1749" 
d="M1313 1304l121 138l112 -86l-120 -137q221 -209 221 -521q0 -300 -207 -507.5t-566 -207.5q-262 0 -437 107l-136 -155l-116 77l141 161q-225 207 -225 526q0 299 207 506.5t566 207.5q263 0 439 -109zM1111 1073q-101 86 -237 86q-163 0 -273 -122t-110 -336
q0 -159 59 -271zM1201 962l-562 -641q104 -85 235 -85q160 0 272 121t112 344q0 152 -57 261z" />
    <glyph glyph-name="infinity" unicode="&#x221e;" horiz-adv-x="1195" 
d="M547 819q134 229 323 229q125 0 216 -90.5t91 -258.5t-90 -259t-217 -91q-189 0 -323 229q-49 -75 -129.5 -123.5t-157.5 -48.5q-107 0 -174.5 83.5t-67.5 209.5q0 125 67 208.5t175 83.5q163 0 287 -172zM640 701q94 -149 139 -176.5t94 -27.5q73 0 115.5 54.5
t42.5 150.5q0 93 -43 146t-112 53q-112 0 -236 -200zM461 702q-96 141 -190 141q-49 0 -81 -37.5t-32 -98.5q0 -62 30 -104.5t83 -42.5q80 0 190 142z" />
    <glyph glyph-name="plusminus" unicode="&#xb1;" horiz-adv-x="1368" 
d="M122 1007h438v438h248v-438h438v-248h-438v-438h-248v438h-438v248zM122 200h1124v-248h-1124v248z" />
    <glyph glyph-name="lessequal" unicode="&#x2264;" horiz-adv-x="1368" 
d="M1246 319l-1124 467v224l1124 467v-266l-778 -313l778 -313v-266zM122 169h1124v-249h-1124v249z" />
    <glyph glyph-name="greaterequal" unicode="&#x2265;" horiz-adv-x="1368" 
d="M122 1477l1124 -467v-224l-1124 -467v266l778 313l-778 313v266zM122 169h1124v-249h-1124v249z" />
    <glyph glyph-name="yen" unicode="&#xa5;" horiz-adv-x="1430" 
d="M498 674h-461v142h363l-235 340h-170v235h696v-235h-137l204 -340l207 340h-143v235h613v-235h-171l-225 -340h354v-142h-447l-42 -63v-117h489v-141h-489v-118h194v-235h-751v235h195v118h-505v141h505v117z" />
    <glyph glyph-name="uni00B5" unicode="&#xb5;" horiz-adv-x="1260" 
d="M150 968h279v-387q0 -208 47.5 -294t150.5 -86q69 0 121.5 47.5t68 118t15.5 211.5v390h284v-968h-262v128q-80 -154 -219 -154q-66 0 -113.5 35t-92.5 119v-562h-279v1402z" />
    <glyph glyph-name="partialdiff" unicode="&#x2202;" horiz-adv-x="1012" 
d="M377 1123l-137 84q51 147 154 215.5t216 68.5q156 0 260.5 -132t104.5 -417q0 -247 -77.5 -488.5t-222.5 -360t-321 -118.5q-142 0 -227 94t-85 259q0 260 204 437.5t539 177.5q12 0 39 -1q0 179 -58.5 273t-160.5 94q-137 0 -228 -186zM812 758q-29 1 -40 1
q-229 0 -365 -124.5t-136 -296.5q0 -70 39.5 -121.5t101.5 -51.5q137 0 251 160t149 433z" />
    <glyph glyph-name="summation" unicode="&#x2211;" horiz-adv-x="1460" 
d="M139 1415h1237v-164h-988l607 -747l-647 -790h1038v-164h-1264v187l620 759l-603 744v175z" />
    <glyph glyph-name="product" unicode="&#x220f;" horiz-adv-x="1686" 
d="M162 1415h1362v-1865h-193v1691h-976v-1691h-193v1865z" />
    <glyph glyph-name="pi" unicode="&#x3c0;" horiz-adv-x="1124" 
d="M0 1063h1124v-202h-169v-861h-288v861h-208v-861h-292v861h-167v202z" />
    <glyph glyph-name="integral" unicode="&#x222b;" horiz-adv-x="555" 
d="M198 609l13 423q6 196 26.5 273t40.5 118.5t65 71t89 29.5q54 0 89.5 -35t35.5 -72q0 -44 -25.5 -74t-66.5 -30q-35 0 -76 36q-23 20 -40 20q-40 0 -40 -64q0 -42 9 -145q37 -410 37 -683q0 -50 -12 -452.5t-77.5 -493t-149.5 -90.5q-49 0 -84 32t-35 89q0 43 25 71
t65 28t70 -33q28 -31 48 -31q39 0 39 61q0 42 -9 120q-37 315 -37 831z" />
    <glyph glyph-name="ordfeminine" unicode="&#xaa;" horiz-adv-x="811" 
d="M776 951v-134h-302v45q-81 -54 -172 -54q-87 0 -158 47.5t-71 133.5q0 84 71.5 140.5t184.5 56.5q63 0 145 -29v35q0 42 -31.5 71.5t-88.5 29.5q-67 0 -115 -45l-162 26q69 139 308 139q163 0 226.5 -60.5t63.5 -146.5v-255h101zM474 1031q-75 43 -116 43
q-35 0 -63 -18.5t-28 -54.5q0 -31 22.5 -54t59.5 -23q55 0 125 60v47z" />
    <glyph glyph-name="ordmasculine" unicode="&#xba;" horiz-adv-x="768" 
d="M384 805q-147 0 -239 84.5t-92 219.5q0 140 95 222t236 82q140 0 235.5 -81.5t95.5 -222.5q0 -135 -92 -219.5t-239 -84.5zM383 948q126 0 126 162q0 160 -126 160q-124 0 -124 -161t124 -161z" />
    <glyph glyph-name="uni2126" unicode="&#x2126;" horiz-adv-x="1573" 
d="M462 206q-385 162 -385 605q0 301 187 496.5t506 195.5q218 0 370 -66t261 -232.5t109 -393.5q0 -231 -106 -379.5t-276 -223.5l330 23h72v-231h-642v243q306 147 306 542q0 243 -113 371t-296 128q-188 0 -292.5 -141.5t-104.5 -351.5q0 -184 78.5 -332.5t233.5 -215.5
v-243h-645v230h98z" />
    <glyph glyph-name="ae" unicode="&#xe6;" horiz-adv-x="1812" 
d="M1492 297l240 -74q-68 -118 -197.5 -181.5t-278.5 -63.5q-161 0 -269.5 62t-166.5 141q-201 -203 -390 -203q-140 0 -243 85t-103 227q0 151 111.5 238.5t278.5 87.5q128 0 251 -48q1 19 1 34q0 89 -58 139t-146 50q-100 0 -194 -72l-245 46q117 227 489 227
q229 0 363 -96q120 96 291 96q259 0 390 -154t131 -379q0 -12 -1 -35h-710q6 -103 70 -170.5t158 -67.5q116 0 228 111zM1433 595q-15 85 -69 137t-137 52q-78 0 -130 -52.5t-61 -136.5h397zM725 359q-117 73 -194 73q-59 0 -106 -37.5t-47 -98.5q0 -52 36 -84.5t82 -32.5
q101 0 229 108v72z" />
    <glyph glyph-name="oslash" unicode="&#xf8;" horiz-adv-x="1174" 
d="M971 835q125 -131 125 -350q0 -234 -145.5 -370.5t-363.5 -136.5q-158 0 -285 77l-122 -142l-95 78l121 142q-128 131 -128 343q0 244 146 380t363 136q164 0 287 -78l122 143l94 -83zM409 370l292 343q-49 41 -115 41q-89 0 -140 -69.5t-51 -194.5q0 -61 14 -120z
M767 597l-292 -341q46 -38 111 -38q89 0 141 68t52 195q0 63 -12 116z" />
    <glyph glyph-name="questiondown" unicode="&#xbf;" horiz-adv-x="1153" 
d="M798 982v-335h-335v335h335zM557 501h144l28 -368q-50 18 -104 18q-88 0 -151 -48t-63 -137q0 -80 52.5 -132t136.5 -52q89 0 133 47t44 119q0 19 -4 42h308q0 -209 -142.5 -316t-357.5 -107q-240 0 -364.5 116.5t-124.5 291.5q0 172 111.5 277t275.5 105q15 0 46 -2z
" />
    <glyph glyph-name="exclamdown" unicode="&#xa1;" 
d="M530 982v-335h-335v335h335zM437 497l86 -525v-381h-309v381l79 525h144z" />
    <glyph glyph-name="logicalnot" unicode="&#xac;" horiz-adv-x="1368" 
d="M122 1064h1124v-731h-248v483h-876v248z" />
    <glyph glyph-name="radical" unicode="&#x221a;" horiz-adv-x="1131" 
d="M1053 1869h74l-312 -1947l-496 1021l-198 -91l-34 64l301 151l405 -823z" />
    <glyph glyph-name="florin" unicode="&#x192;" horiz-adv-x="1130" 
d="M276 851l36 211h202l16 89q28 150 53.5 207.5t94.5 95t184 37.5q148 0 280 -41l-54 -226q-92 28 -160 28q-55 0 -80 -26t-41 -108l-11 -56h208l-37 -211h-205l-173 -978q-20 -119 -54 -179t-101 -92.5t-174 -32.5q-156 0 -280 40l57 221q107 -23 168 -23t83.5 33.5
t39.5 137.5l150 873h-202z" />
    <glyph glyph-name="approxequal" unicode="&#x2248;" horiz-adv-x="1368" 
d="M1246 878q-162 -141 -319 -141q-64 0 -125 21t-169 74q-133 65 -202 65q-150 0 -309 -151v255q164 142 328 142q98 0 270 -85q153 -75 229 -75q130 0 297 151v-256zM1246 396q-162 -142 -319 -142q-70 0 -135 24.5t-159 70.5q-133 65 -202 65q-150 0 -309 -151v256
q164 141 328 141q98 0 270 -85q153 -75 229 -75q135 0 297 151v-255z" />
    <glyph glyph-name="uni2206" unicode="&#x2206;" horiz-adv-x="1259" 
d="M1229 0h-1200l628 1387zM993 82l-399 967l-440 -967h839z" />
    <glyph glyph-name="guillemotleft" unicode="&#xab;" horiz-adv-x="1110" 
d="M243 0l-231 484l231 484h296l-225 -484l225 -484h-296zM805 0l-232 484l232 484h295l-225 -484l225 -484h-295z" />
    <glyph glyph-name="guillemotright" unicode="&#xbb;" horiz-adv-x="1110" 
d="M306 0h-295l225 484l-225 484h295l232 -484zM865 0h-295l225 484l-225 484h295l232 -484z" />
    <glyph glyph-name="ellipsis" unicode="&#x2026;" horiz-adv-x="2048" 
d="M174 0v335h335v-335h-335zM857 0v335h335v-335h-335zM1540 0v335h335v-335h-335z" />
    <glyph glyph-name="uni00A0" unicode="&#xa0;" horiz-adv-x="512" 
 />
    <glyph glyph-name="Agrave" unicode="&#xc0;" horiz-adv-x="1430" 
d="M1432 235v-235h-684v235h178l-66 239h-361l-74 -239h186v-235h-616v235h172l271 921h-185v235h908v-235h-187l292 -921h166zM803 678l-116 419l-125 -419h241zM813 1524h-165l-363 318h375z" />
    <glyph glyph-name="Atilde" unicode="&#xc3;" horiz-adv-x="1430" 
d="M1432 235v-235h-684v235h178l-66 239h-361l-74 -239h186v-235h-616v235h172l271 921h-185v235h908v-235h-187l292 -921h166zM803 678l-116 419l-125 -419h241zM963 1858h142v-24q0 -118 -63 -209t-169 -91q-39 0 -69.5 11.5t-112.5 52.5q-100 51 -137 51q-77 0 -81 -108
h-150q0 151 69 236t159 85q61 0 153 -47q135 -70 172 -70q33 0 59 32.5t28 80.5z" />
    <glyph glyph-name="Otilde" unicode="&#xd5;" horiz-adv-x="1749" 
d="M874 1413q360 0 566.5 -208t206.5 -507q0 -300 -207 -507.5t-566 -207.5q-373 0 -573 213.5t-200 501.5q0 298 205.5 506.5t567.5 208.5zM874 1159q-160 0 -271.5 -120t-111.5 -352q0 -205 110 -328t273 -123q160 0 272 120.5t112 347.5q0 203 -107 329t-277 126z
M1123 1858h142v-24q0 -118 -63 -209t-169 -91q-39 0 -69.5 11.5t-112.5 52.5q-100 51 -137 51q-77 0 -81 -108h-150q0 151 69 236t159 85q61 0 153 -47q135 -70 172 -70q33 0 59 32.5t28 80.5z" />
    <glyph glyph-name="OE" unicode="&#x152;" horiz-adv-x="2068" 
d="M1995 444v-444h-1075q-182 0 -269.5 12t-197.5 63.5t-192.5 143t-122.5 209t-40 260.5q0 205 74.5 358t176 224.5t233.5 96t378 24.5h1035v-444h-265v209h-401v-322h322v-235h-322v-364h401v209h265zM967 1156q-165 0 -231 -12.5t-130 -70.5t-97 -152t-33 -223
q0 -178 71 -289t152 -140t268 -34v921z" />
    <glyph glyph-name="oe" unicode="&#x153;" horiz-adv-x="2068" 
d="M1745 296l241 -73q-46 -102 -177.5 -173.5t-320.5 -71.5q-283 0 -429 139q-173 -139 -423 -139q-263 0 -410.5 148t-147.5 355q0 212 150 361.5t413 149.5q236 0 418 -145q140 145 390 145q240 0 395 -156.5t155 -365.5q0 -16 -1 -48h-785q8 -108 85.5 -171.5
t189.5 -63.5q169 0 257 109zM1686 593q-20 91 -86.5 141.5t-152.5 50.5q-87 0 -152 -55t-73 -137h464zM894 492q0 127 -70.5 209.5t-176.5 82.5q-109 0 -180.5 -86t-71.5 -209q0 -119 67.5 -212.5t184.5 -93.5q118 0 182.5 92t64.5 217z" />
    <glyph glyph-name="endash" unicode="&#x2013;" horiz-adv-x="1024" 
d="M-12 637h1048v-250h-1048v250z" />
    <glyph glyph-name="emdash" unicode="&#x2014;" horiz-adv-x="2048" 
d="M-12 637h2072v-250h-2072v250z" />
    <glyph glyph-name="quotedblleft" unicode="&#x201c;" horiz-adv-x="1217" 
d="M520 1391v-154q-164 -17 -164 -198v-18h164v-335h-334v311q0 239 88.5 316.5t245.5 77.5zM1032 1391v-154q-164 -17 -164 -198v-18h164v-335h-334v311q0 239 88.5 316.5t245.5 77.5z" />
    <glyph glyph-name="quotedblright" unicode="&#x201d;" horiz-adv-x="1217" 
d="M187 690v151q164 16 164 197v18h-164v335h334v-310q0 -177 -41 -251t-113 -107t-180 -33zM693 690v151q164 16 164 197v18h-164v335h334v-310q0 -238 -89 -314.5t-245 -76.5z" />
    <glyph glyph-name="quoteleft" unicode="&#x2018;" 
d="M530 1391v-154q-164 -17 -164 -198v-18h164v-335h-334v311q0 239 88.5 316.5t245.5 77.5z" />
    <glyph glyph-name="quoteright" unicode="&#x2019;" 
d="M196 686v151q164 16 164 197v19h-164v338h334v-314q0 -145 -30.5 -226.5t-108 -123t-195.5 -41.5z" />
    <glyph glyph-name="divide" unicode="&#xf7;" horiz-adv-x="1368" 
d="M684 1263q60 0 103 -42.5t43 -103.5q0 -60 -42.5 -102.5t-103.5 -42.5q-60 0 -102.5 42t-42.5 103q0 63 43.5 104.5t101.5 41.5zM122 816h1124v-235h-1124v235zM684 426q59 0 102.5 -41.5t43.5 -104.5q0 -61 -43 -103.5t-103 -42.5q-59 0 -102 42.5t-43 103.5
q0 63 43.5 104.5t101.5 41.5z" />
    <glyph glyph-name="lozenge" unicode="&#x25ca;" horiz-adv-x="1012" 
d="M548 1422l418 -713l-418 -709h-111l-391 709l391 713h111zM494 1325l-340 -616l340 -615l359 615z" />
    <glyph glyph-name="ydieresis" unicode="&#xff;" horiz-adv-x="1217" 
d="M253 -437v223h186l64 173l-352 785h-140v224h580v-224h-114l161 -435l172 435h-126v224h509v-224h-138l-464 -1181h-338zM974 1249q0 -60 -42.5 -102.5t-101.5 -42.5q-60 0 -102.5 42t-42.5 103q0 59 42.5 101.5t102.5 42.5q59 0 101.5 -42.5t42.5 -101.5zM520 1249
q0 -60 -43 -102.5t-102 -42.5q-60 0 -102.5 42.5t-42.5 102.5q0 59 42.5 101.5t102.5 42.5q59 0 102 -42t43 -102z" />
    <glyph glyph-name="Ydieresis" unicode="&#x178;" horiz-adv-x="1430" 
d="M347 0v235h195v376l-377 545h-170v235h696v-235h-137l204 -340l207 340h-143v235h613v-235h-171l-360 -545v-376h194v-235h-751zM1087 1651q0 -60 -42.5 -102.5t-101.5 -42.5q-60 0 -102.5 42t-42.5 103q0 59 42.5 101.5t102.5 42.5q59 0 101.5 -42.5t42.5 -101.5z
M633 1651q0 -60 -43 -102.5t-102 -42.5q-60 0 -102.5 42.5t-42.5 102.5q0 59 42.5 101.5t102.5 42.5q59 0 102 -42t43 -102z" />
    <glyph glyph-name="fraction" unicode="&#x2215;" horiz-adv-x="682" 
d="M-252 0l1007 1391h179l-1007 -1391h-179z" />
    <glyph glyph-name="Euro" unicode="&#x20ac;" horiz-adv-x="1130" 
d="M1049 377q-34 -184 -137 -289.5t-326 -105.5q-388 0 -463 493h-119v160h105v127h-105v160h121q42 237 158.5 365t285.5 128q87 0 145 -26t117 -86v88h181v-404h-176q-34 104 -80.5 153.5t-137.5 49.5q-84 0 -128 -64t-58 -204h285v-160h-291v-127h291v-160h-283
q26 -268 172 -268q95 0 146 53.5t67 169.5z" />
    <glyph glyph-name="guilsinglleft" unicode="&#x2039;" horiz-adv-x="555" 
d="M241 0l-231 484l231 484h296l-225 -484l225 -484h-296z" />
    <glyph glyph-name="guilsinglright" unicode="&#x203a;" horiz-adv-x="555" 
d="M313 0h-295l225 484l-225 484h295l232 -484z" />
    <glyph glyph-name="uniF001" unicode="&#xf001;" horiz-adv-x="1280" 
d="M59 0v223h153v521h-153v224h153v68q0 179 122.5 279t343.5 100q346 0 418 -247l-306 -33q-30 78 -134 78q-53 0 -84 -20t-41 -50.5t-10 -106.5v-68h575v-745h155v-223h-558v223h95v521h-267v-521h100v-223h-562z" />
    <glyph glyph-name="uniF002" unicode="&#xf002;" horiz-adv-x="1280" 
d="M1250 223v-223h-559v223h98v914q-40 76 -129 76q-74 0 -107 -40.5t-33 -155.5v-49h144v-224h-144v-521h100v-223h-560v223h151v521h-151v224h151v72q0 185 130 280t329 95q99 0 192 -24h234v-1168h154z" />
    <glyph glyph-name="daggerdbl" unicode="&#x2021;" horiz-adv-x="1004" 
d="M638 1391v-205q-66 -100 -66 -220v-17q107 0 193 54h194v-247h-194q-60 50 -193 53q-3 -22 -3 -42q0 -165 101 -280q-101 -108 -101 -280q0 -21 3 -43q135 3 193 54h194v-247h-194q-86 54 -193 54q0 -138 66 -237v-205h-272v205q66 97 66 237q-107 0 -193 -54h-194v247
h194q58 -51 193 -54q3 22 3 43q0 172 -101 280q101 107 101 280q0 20 -3 42q-133 -3 -193 -53h-194v247h194q86 -54 193 -54q-9 155 -66 237v205h272z" />
    <glyph glyph-name="periodcentered" unicode="&#x2219;" horiz-adv-x="748" 
d="M206 531v335h335v-335h-335z" />
    <glyph glyph-name="quotesinglbase" unicode="&#x201a;" 
d="M196 -370v151q164 16 164 197v18h-164v339h334v-314q0 -238 -89 -314.5t-245 -76.5z" />
    <glyph glyph-name="quotedblbase" unicode="&#x201e;" horiz-adv-x="1217" 
d="M188 -366v150q164 17 164 198v18h-164v335h334v-311q0 -144 -30.5 -226t-108 -123t-195.5 -41zM691 -366v150q165 17 165 198v18h-165v335h334v-311q0 -238 -88.5 -314t-245.5 -76z" />
    <glyph glyph-name="perthousand" unicode="&#x2030;" horiz-adv-x="2390" 
d="M387 671q-294 0 -294 372t295 372q145 0 219 -96.5t74 -275.5q0 -372 -294 -372zM385 799q85 0 85 243q0 245 -83 245t-83 -243q0 -245 81 -245zM214 0l1007 1391h178l-1007 -1391h-178zM2004 -18q-294 0 -294 372t295 372q146 0 219.5 -97t73.5 -275q0 -372 -294 -372z
M2002 110q85 0 85 243q0 245 -82 245q-83 0 -83 -243q0 -245 80 -245zM1238 -18q-294 0 -294 372t295 372q145 0 219 -97t74 -275q0 -372 -294 -372zM1236 110q85 0 85 243q0 245 -83 245t-83 -243q0 -245 81 -245z" />
    <glyph glyph-name="Acircumflex" unicode="&#xc2;" horiz-adv-x="1430" 
d="M1432 235v-235h-684v235h178l-66 239h-361l-74 -239h186v-235h-616v235h172l271 921h-185v235h908v-235h-187l292 -921h166zM803 678l-116 419l-125 -419h241zM564 1858h300l243 -368h-175l-218 218l-218 -218h-175z" />
    <glyph glyph-name="Ecircumflex" unicode="&#xca;" horiz-adv-x="1366" 
d="M68 0v235h167v921h-167v235h1226v-441h-266v206h-431v-321h348v-235h-348v-365h431v208h266v-443h-1226zM531 1858h300l243 -368h-175l-218 218l-218 -218h-175z" />
    <glyph glyph-name="Aacute" unicode="&#xc1;" horiz-adv-x="1430" 
d="M1432 235v-235h-684v235h178l-66 239h-361l-74 -239h186v-235h-616v235h172l271 921h-185v235h908v-235h-187l292 -921h166zM803 678l-116 419l-125 -419h241zM614 1524l152 318h376l-364 -318h-164z" />
    <glyph glyph-name="Edieresis" unicode="&#xcb;" horiz-adv-x="1366" 
d="M68 0v235h167v921h-167v235h1226v-441h-266v206h-431v-321h348v-235h-348v-365h431v208h266v-443h-1226zM1053 1651q0 -60 -42.5 -102.5t-101.5 -42.5q-60 0 -102.5 42t-42.5 103q0 59 42.5 101.5t102.5 42.5q59 0 101.5 -42.5t42.5 -101.5zM599 1651q0 -60 -43 -102.5
t-102 -42.5q-60 0 -102.5 42.5t-42.5 102.5q0 59 42.5 101.5t102.5 42.5q59 0 102 -42t43 -102z" />
    <glyph glyph-name="Egrave" unicode="&#xc8;" horiz-adv-x="1366" 
d="M68 0v235h167v921h-167v235h1226v-441h-266v206h-431v-321h348v-235h-348v-365h431v208h266v-443h-1226zM852 1524h-165l-363 318h375z" />
    <glyph glyph-name="Iacute" unicode="&#xcd;" horiz-adv-x="874" 
d="M45 0v235h211v921h-211v235h786v-235h-213v-921h213v-235h-786zM339 1524l152 318h376l-364 -318h-164z" />
    <glyph glyph-name="Icircumflex" unicode="&#xce;" horiz-adv-x="874" 
d="M45 0v235h211v921h-211v235h786v-235h-213v-921h213v-235h-786zM281 1858h300l243 -368h-175l-218 218l-218 -218h-175z" />
    <glyph glyph-name="Idieresis" unicode="&#xcf;" horiz-adv-x="874" 
d="M45 0v235h211v921h-211v235h786v-235h-213v-921h213v-235h-786zM801 1651q0 -60 -42.5 -102.5t-101.5 -42.5q-60 0 -102.5 42t-42.5 103q0 59 42.5 101.5t102.5 42.5q59 0 101.5 -42.5t42.5 -101.5zM347 1651q0 -60 -43 -102.5t-102 -42.5q-60 0 -102.5 42.5t-42.5 102.5
q0 59 42.5 101.5t102.5 42.5q59 0 102 -42t43 -102z" />
    <glyph glyph-name="Igrave" unicode="&#xcc;" horiz-adv-x="874" 
d="M45 0v235h211v921h-211v235h786v-235h-213v-921h213v-235h-786zM550 1524h-165l-363 318h375z" />
    <glyph glyph-name="Oacute" unicode="&#xd3;" horiz-adv-x="1749" 
d="M874 1413q360 0 566.5 -208t206.5 -507q0 -300 -207 -507.5t-566 -207.5q-373 0 -573 213.5t-200 501.5q0 298 205.5 506.5t567.5 208.5zM874 1159q-160 0 -271.5 -120t-111.5 -352q0 -205 110 -328t273 -123q160 0 272 120.5t112 347.5q0 203 -107 329t-277 126z
M775 1524l152 318h376l-364 -318h-164z" />
    <glyph glyph-name="Ocircumflex" unicode="&#xd4;" horiz-adv-x="1749" 
d="M874 1413q360 0 566.5 -208t206.5 -507q0 -300 -207 -507.5t-566 -207.5q-373 0 -573 213.5t-200 501.5q0 298 205.5 506.5t567.5 208.5zM874 1159q-160 0 -271.5 -120t-111.5 -352q0 -205 110 -328t273 -123q160 0 272 120.5t112 347.5q0 203 -107 329t-277 126z
M724 1858h300l243 -368h-175l-218 218l-218 -218h-175z" />
    <glyph glyph-name="Ograve" unicode="&#xd2;" horiz-adv-x="1749" 
d="M874 1413q360 0 566.5 -208t206.5 -507q0 -300 -207 -507.5t-566 -207.5q-373 0 -573 213.5t-200 501.5q0 298 205.5 506.5t567.5 208.5zM874 1159q-160 0 -271.5 -120t-111.5 -352q0 -205 110 -328t273 -123q160 0 272 120.5t112 347.5q0 203 -107 329t-277 126z
M973 1524h-165l-363 318h375z" />
    <glyph glyph-name="Uacute" unicode="&#xda;" horiz-adv-x="1386" 
d="M37 1156v235h664v-235h-137v-629q0 -126 10.5 -181.5t55.5 -91.5t114 -36q71 0 118 34t60.5 85t13.5 208v611h-135v235h554v-235h-170v-696q0 -142 -15 -206.5t-69 -128t-156.5 -103t-235.5 -39.5q-154 0 -262.5 43.5t-161.5 115.5t-68 143t-15 242v629h-165zM597 1524
l152 318h376l-364 -318h-164z" />
    <glyph glyph-name="Ucircumflex" unicode="&#xdb;" horiz-adv-x="1386" 
d="M37 1156v235h664v-235h-137v-629q0 -126 10.5 -181.5t55.5 -91.5t114 -36q71 0 118 34t60.5 85t13.5 208v611h-135v235h554v-235h-170v-696q0 -142 -15 -206.5t-69 -128t-156.5 -103t-235.5 -39.5q-154 0 -262.5 43.5t-161.5 115.5t-68 143t-15 242v629h-165zM546 1858
h300l243 -368h-175l-218 218l-218 -218h-175z" />
    <glyph glyph-name="Ugrave" unicode="&#xd9;" horiz-adv-x="1386" 
d="M37 1156v235h664v-235h-137v-629q0 -126 10.5 -181.5t55.5 -91.5t114 -36q71 0 118 34t60.5 85t13.5 208v611h-135v235h554v-235h-170v-696q0 -142 -15 -206.5t-69 -128t-156.5 -103t-235.5 -39.5q-154 0 -262.5 43.5t-161.5 115.5t-68 143t-15 242v629h-165zM831 1524
h-165l-363 318h375z" />
    <glyph glyph-name="dotlessi" unicode="&#x131;" 
d="M86 744v224h456v-745h144v-223h-600v223h147v521h-147z" />
    <glyph glyph-name="circumflex" unicode="&#x2c6;" horiz-adv-x="682" 
d="M191 1437h300l243 -368h-175l-218 218l-218 -218h-175z" />
    <glyph glyph-name="tilde" unicode="&#x2dc;" horiz-adv-x="682" 
d="M590 1404h142v-24q0 -118 -63 -209t-169 -91q-39 0 -69.5 11.5t-112.5 52.5q-100 51 -137 51q-77 0 -81 -108h-150q0 151 69 236t159 85q61 0 153 -47q135 -70 172 -70q33 0 59 32.5t28 80.5z" />
    <glyph glyph-name="macron" unicode="&#x2c9;" horiz-adv-x="682" 
d="M-81 1111v207h844v-207h-844z" />
    <glyph glyph-name="breve" unicode="&#x2d8;" horiz-adv-x="682" 
d="M514 1432h215q-14 -150 -127.5 -254t-260.5 -104q-146 0 -260 104t-128 254h216q42 -146 172 -146t173 146z" />
    <glyph glyph-name="dotaccent" unicode="&#x2d9;" horiz-adv-x="682" 
d="M486 1249q0 -59 -42 -102t-103 -43q-60 0 -102.5 42.5t-42.5 102.5q0 59 42.5 101.5t102.5 42.5q62 0 103.5 -43.5t41.5 -100.5z" />
    <glyph glyph-name="ring" unicode="&#x2da;" horiz-adv-x="682" 
d="M552 1267q0 -85 -60.5 -148t-150.5 -63q-87 0 -149 61.5t-62 149.5q0 87 61.5 149t149.5 62q87 0 149 -62t62 -149zM450 1267q0 43 -31 75.5t-78 32.5q-45 0 -76.5 -32t-31.5 -76q0 -45 31.5 -77t76.5 -32t77 32t32 77z" />
    <glyph glyph-name="cedilla" unicode="&#xb8;" horiz-adv-x="682" 
d="M346 23l-27 -106q171 -49 171 -180q0 -85 -75.5 -140t-302.5 -55q-34 0 -75 2v101q138 3 170.5 18.5t32.5 47.5q0 67 -120 71l56 241h170z" />
    <glyph glyph-name="hungarumlaut" unicode="&#x2dd;" horiz-adv-x="682" 
d="M-30 1095l152 318h376l-364 -318h-164zM453 1095l152 318h375l-363 -318h-164z" />
    <glyph glyph-name="ogonek" unicode="&#x2db;" horiz-adv-x="682" 
d="M195 0h185q-38 -73 -38 -130q0 -38 27 -70t74 -32q49 0 114 20v-225q-76 -22 -145 -22q-123 0 -202.5 78t-79.5 185q0 102 65 196z" />
    <glyph glyph-name="caron" unicode="&#x2c7;" horiz-adv-x="682" 
d="M491 1069h-300l-243 368h175l218 -218l218 218h175z" />
    <glyph glyph-name="Scaron" unicode="&#x160;" horiz-adv-x="1087" 
d="M97 0v474h236q4 -130 68 -191.5t146 -61.5q64 0 108 44.5t44 104.5q0 64 -43 107.5t-157 99.5q-241 117 -327.5 206t-86.5 240q0 182 114 282t259 100q166 0 257 -129v115h235v-423h-235q-11 98 -67.5 151.5t-131.5 53.5q-58 0 -98 -31t-40 -81q0 -43 33 -81.5
t193 -109.5q154 -69 236.5 -124.5t130.5 -144t48 -204.5q0 -206 -120 -310t-284 -104q-183 0 -282 135v-118h-236zM702 1490h-300l-243 368h175l218 -218l218 218h175z" />
    <glyph glyph-name="scaron" unicode="&#x161;" horiz-adv-x="1044" 
d="M119 0v333h226q3 -68 63 -108.5t148 -40.5q76 0 118.5 26.5t42.5 67.5q0 38 -39 59t-153 40q-235 38 -339 115.5t-104 205.5q0 120 98 202.5t260 82.5q131 0 245 -48v33h221v-281h-221q-30 101 -212 101q-134 0 -134 -74q0 -28 27.5 -42.5t140.5 -34.5q179 -31 268 -62
t142.5 -102.5t53.5 -171.5q0 -142 -101.5 -232.5t-287.5 -90.5q-173 0 -237 70v-48h-226zM676 1069h-300l-243 368h175l218 -218l218 218h175z" />
    <glyph glyph-name="brokenbar" unicode="&#xa6;" horiz-adv-x="1251" 
d="M501 1415h249v-780h-249v780zM501 331h249v-781h-249v781z" />
    <glyph glyph-name="Eth" unicode="&#xd0;" horiz-adv-x="1642" 
d="M259 602h-211v187h211v367h-211v235h659q208 0 335 -25.5t243 -113t186 -234.5t70 -326q0 -145 -49 -276.5t-121.5 -212t-173.5 -128t-185.5 -61.5t-261.5 -14h-702v235h211v367zM620 602v-367h87q158 0 250.5 41t148.5 144.5t56 270.5q0 159 -56.5 270t-153 153
t-245.5 42h-87v-367h258v-187h-258z" />
    <glyph glyph-name="eth" unicode="&#xf0;" horiz-adv-x="1174" 
d="M320 1415h305q35 -28 63 -54l177 54l40 -120l-115 -37q149 -158 230 -353.5t81 -373.5q0 -213 -133 -383t-399 -170q-137 0 -242.5 55.5t-179.5 172.5t-74 275q0 226 135 368.5t323 142.5q97 0 178 -47q-69 130 -160 237l-248 -80l-39 119l198 67q-49 57 -140 127z
M591 753q-85 0 -143.5 -69.5t-58.5 -200.5q0 -119 48 -192t142 -73q93 0 150.5 74t57.5 209q0 119 -56 185.5t-140 66.5z" />
    <glyph glyph-name="Yacute" unicode="&#xdd;" horiz-adv-x="1430" 
d="M347 0v235h195v376l-377 545h-170v235h696v-235h-137l204 -340l207 340h-143v235h613v-235h-171l-360 -545v-376h194v-235h-751zM616 1524l152 318h376l-364 -318h-164z" />
    <glyph glyph-name="yacute" unicode="&#xfd;" horiz-adv-x="1217" 
d="M253 -437v223h186l64 173l-352 785h-140v224h580v-224h-114l161 -435l172 435h-126v224h509v-224h-138l-464 -1181h-338zM448 1095l152 318h376l-364 -318h-164z" />
    <glyph glyph-name="Thorn" unicode="&#xde;" horiz-adv-x="1366" 
d="M794 235v-235h-733v235h177v921h-177v235h733v-235h-194v-76h194q272 0 403.5 -112.5t131.5 -272.5q0 -147 -119.5 -265.5t-476.5 -118.5h-133v-76h194zM600 532h54q180 0 235.5 46.5t55.5 118.5q0 58 -36.5 100t-85.5 52t-155 10h-68v-327z" />
    <glyph glyph-name="thorn" unicode="&#xfe;" horiz-adv-x="1280" 
d="M699 -214v-223h-666v223h163v1382h-136v223h445v-544q129 136 288 136q192 0 302.5 -152.5t110.5 -355.5q0 -215 -114 -356t-304 -141q-155 0 -283 121v-313h194zM889 481q0 127 -52.5 190t-138.5 63q-87 0 -141.5 -64.5t-54.5 -192.5q0 -115 54 -185t144 -70
q83 0 136 63t53 196z" />
    <glyph glyph-name="multiply" unicode="&#xd7;" horiz-adv-x="1368" 
d="M325 1233l359 -359l359 359l176 -175l-359 -359l359 -360l-176 -175l-359 359l-359 -359l-176 175l359 360l-359 359z" />
    <glyph glyph-name="onesuperior" unicode="&#xb9;" horiz-adv-x="682" 
d="M136 680v127h114v469h-121v127h325v-596h108v-127h-426z" />
    <glyph glyph-name="twosuperior" unicode="&#xb2;" horiz-adv-x="682" 
d="M608 899l-7 -219h-549q-2 29 -2 50q0 61 35.5 137.5t158.5 173.5q91 73 119 106.5t28 75.5q0 68 -67 68q-80 0 -86 -149l-176 7q2 88 26 142t90.5 89t160.5 35q122 0 192.5 -58.5t70.5 -143.5q0 -69 -39.5 -114.5t-150.5 -114.5q-107 -66 -135.5 -104t-38.5 -72h214v91
h156z" />
    <glyph glyph-name="threesuperior" unicode="&#xb3;" horiz-adv-x="682" 
d="M46 909l183 13q1 -126 96 -126q41 0 68.5 27.5t27.5 73.5q0 99 -106 99q-15 0 -48 -2v133q134 0 134 87q0 73 -75 73q-76 0 -76 -94l-178 12q3 102 76.5 156t191.5 54q123 0 193 -53.5t70 -139.5q0 -109 -114 -160q144 -47 144 -172q0 -94 -77.5 -156.5t-216.5 -62.5
q-270 0 -293 238z" />
    <glyph glyph-name="onehalf" unicode="&#xbd;" horiz-adv-x="1898" 
d="M194 680v127h114v469h-121v127h325v-596h108v-127h-426zM326 0l1007 1391h179l-1007 -1391h-179zM1697 219l-8 -219h-549q-1 29 -1 50q0 88 48.5 161t144.5 150q92 72 119.5 105.5t27.5 75.5q0 69 -66 69q-82 0 -86 -150l-176 8q2 88 26 142t90.5 89t159.5 35
q123 0 193.5 -58.5t70.5 -144.5q0 -68 -39.5 -113.5t-150.5 -114.5q-107 -67 -136 -104.5t-38 -72.5h214v92h156z" />
    <glyph glyph-name="onequarter" unicode="&#xbc;" horiz-adv-x="1898" 
d="M192 680v127h114v469h-121v127h325v-596h108v-127h-426zM324 0l1007 1391h179l-1007 -1391h-179zM1697 117v-117h-354v117h91v78h-299q-23 61 -47 98l358 442h182v-430h79v-110h-79v-78h69zM1434 305v211l-174 -211h174z" />
    <glyph glyph-name="threequarters" unicode="&#xbe;" horiz-adv-x="1898" 
d="M113 909l183 13q1 -126 96 -126q41 0 68.5 27.5t27.5 73.5q0 99 -106 99q-15 0 -48 -2v133q134 0 134 87q0 73 -75 73q-76 0 -76 -94l-178 12q3 102 76.5 156t191.5 54q123 0 193 -53.5t70 -139.5q0 -109 -114 -160q144 -47 144 -172q0 -94 -77.5 -156.5t-216.5 -62.5
q-270 0 -293 238zM323 0l1007 1391h179l-1007 -1391h-179zM1696 117v-117h-354v117h91v78h-299q-23 61 -47 98l358 442h181v-430h80v-110h-80v-78h70zM1433 305v211l-174 -211h174z" />
    <glyph glyph-name="uni00AF" unicode="&#xaf;" horiz-adv-x="1024" 
d="M-12 1647h1048v-102h-1048v102z" />
    <glyph glyph-name="currency" unicode="&#xa4;" horiz-adv-x="1368" 
d="M440 1105q116 68 244 68q129 0 245 -68l131 132l163 -162l-132 -132q67 -116 67 -244q0 -129 -67 -245l132 -132l-163 -162l-131 132q-116 -67 -244 -67q-132 0 -245 67l-132 -132l-162 162l132 132q-68 113 -68 245q0 128 68 244l-132 132l162 162zM684 946
q-100 0 -173.5 -70.5t-73.5 -176.5q0 -103 72.5 -175.5t174.5 -72.5t175 72.5t73 175.5q0 106 -74 176.5t-174 70.5z" />
    </font>
</defs>
</svg>
